%TF.GenerationSoftware,KiCad,Pcbnew,8.0.0*%
%TF.CreationDate,2024-03-17T01:00:07+02:00*%
%TF.ProjectId,FollowTheLine,466f6c6c-6f77-4546-9865-4c696e652e6b,rev?*%
%TF.SameCoordinates,Original*%
%TF.FileFunction,Copper,L2,Bot*%
%TF.FilePolarity,Positive*%
%FSLAX46Y46*%
G04 Gerber Fmt 4.6, Leading zero omitted, Abs format (unit mm)*
G04 Created by KiCad (PCBNEW 8.0.0) date 2024-03-17 01:00:07*
%MOMM*%
%LPD*%
G01*
G04 APERTURE LIST*
%TA.AperFunction,WasherPad*%
%ADD10C,3.000000*%
%TD*%
%TA.AperFunction,WasherPad*%
%ADD11C,2.500000*%
%TD*%
%TA.AperFunction,ComponentPad*%
%ADD12C,2.100000*%
%TD*%
%TA.AperFunction,ComponentPad*%
%ADD13C,2.184400*%
%TD*%
%TA.AperFunction,ComponentPad*%
%ADD14R,2.200000X2.200000*%
%TD*%
%TA.AperFunction,ComponentPad*%
%ADD15C,2.200000*%
%TD*%
%TA.AperFunction,ComponentPad*%
%ADD16R,1.700000X1.700000*%
%TD*%
%TA.AperFunction,ComponentPad*%
%ADD17O,1.700000X1.700000*%
%TD*%
%TA.AperFunction,ComponentPad*%
%ADD18C,2.000000*%
%TD*%
%TA.AperFunction,ComponentPad*%
%ADD19C,1.879600*%
%TD*%
%TA.AperFunction,ComponentPad*%
%ADD20C,1.400000*%
%TD*%
%TA.AperFunction,ComponentPad*%
%ADD21O,1.400000X1.400000*%
%TD*%
%TA.AperFunction,ComponentPad*%
%ADD22R,1.600000X1.600000*%
%TD*%
%TA.AperFunction,ComponentPad*%
%ADD23O,1.600000X1.600000*%
%TD*%
%TA.AperFunction,ComponentPad*%
%ADD24O,8.400000X4.200000*%
%TD*%
%TA.AperFunction,ViaPad*%
%ADD25C,0.600000*%
%TD*%
%TA.AperFunction,Conductor*%
%ADD26C,0.200000*%
%TD*%
G04 APERTURE END LIST*
D10*
%TO.P,U2,*%
%TO.N,*%
X69635000Y-137050000D03*
D11*
X69635000Y-41250000D03*
D12*
%TO.P,U2,EVEN,EVEN*%
%TO.N,/pin13_EVEN*%
X68285000Y-81555000D03*
%TO.P,U2,GND,GND*%
%TO.N,GND*%
X70910000Y-101880000D03*
X68285000Y-101875000D03*
X70910000Y-76480000D03*
D13*
X68285000Y-76475000D03*
D12*
%TO.P,U2,LED1,LED1*%
%TO.N,/QTRX_pin1_out*%
X70910000Y-84100000D03*
%TO.P,U2,LED2,LED2*%
%TO.N,/led2*%
X68285000Y-84095000D03*
%TO.P,U2,LED3,LED3*%
%TO.N,/Led3*%
X70910000Y-86640000D03*
%TO.P,U2,LED4,LED4*%
%TO.N,/Led4*%
X68285000Y-86635000D03*
%TO.P,U2,LED5,LED5*%
%TO.N,/Led5*%
X70910000Y-89180000D03*
%TO.P,U2,LED6,LED6*%
%TO.N,/pin11_led6*%
X68285000Y-89175000D03*
%TO.P,U2,LED7,LED7*%
%TO.N,/pin12_led7*%
X70910000Y-91720000D03*
%TO.P,U2,LED8,LED8*%
%TO.N,/Led8*%
X68285000Y-91715000D03*
%TO.P,U2,LED9,LED9*%
%TO.N,/Led9*%
X70910000Y-94260000D03*
%TO.P,U2,LED10,LED10*%
%TO.N,/led10*%
X68285000Y-94255000D03*
%TO.P,U2,LED11,LED11*%
%TO.N,/Led11*%
X70910000Y-96800000D03*
%TO.P,U2,LED12,LED12*%
%TO.N,/Led12*%
X68285000Y-96795000D03*
%TO.P,U2,LED13,LED13*%
%TO.N,/QTRX_pin13_out*%
X70910000Y-99340000D03*
%TO.P,U2,ODD,ODD*%
%TO.N,/ODD*%
X70910000Y-81560000D03*
%TO.P,U2,VCC,VCC*%
%TO.N,VCC*%
X68285000Y-99335000D03*
X70910000Y-79020000D03*
X68285000Y-79015000D03*
%TD*%
D14*
%TO.P,J4,1,Pin_1*%
%TO.N,Net-(J4-Pin_1)*%
X208275000Y-48010000D03*
D15*
%TO.P,J4,2,Pin_2*%
%TO.N,GND2*%
X208275000Y-50550000D03*
%TD*%
D11*
%TO.P,,*%
%TO.N,*%
X232360000Y-157700000D03*
%TD*%
%TO.P,,*%
%TO.N,*%
X232360000Y-20700000D03*
%TD*%
D16*
%TO.P,J1,1,Pin_1*%
%TO.N,Net-(J1-Pin_1)*%
X236150000Y-35250000D03*
D17*
%TO.P,J1,2,Pin_2*%
%TO.N,Net-(J1-Pin_2)*%
X236150000Y-37790000D03*
%TD*%
D18*
%TO.P,A7,1,1*%
%TO.N,/HighVolt_out*%
X228775000Y-98750000D03*
X235275000Y-98750000D03*
%TO.P,A7,2,2*%
%TO.N,/A7*%
X228775000Y-103250000D03*
X235275000Y-103250000D03*
%TD*%
D16*
%TO.P,J18,1,Pin_1*%
%TO.N,/QTRX_pin1_out*%
X204725000Y-135725000D03*
D17*
%TO.P,J18,2,Pin_2*%
%TO.N,/QTRX_pin13_out*%
X202185000Y-135725000D03*
%TD*%
D16*
%TO.P,U3,1,IN*%
%TO.N,+12V*%
X216900000Y-71300000D03*
D17*
%TO.P,U3,2,GND*%
%TO.N,GND2*%
X214360000Y-71300000D03*
%TO.P,U3,3,OUT*%
%TO.N,VCC*%
X211820000Y-71300000D03*
%TD*%
D19*
%TO.P,MotorDriver1,AENBL,AENBL*%
%TO.N,/MotorAenb*%
X216730000Y-64410000D03*
%TO.P,MotorDriver1,APHASE,APHASE*%
%TO.N,/MotorAinput*%
X219230000Y-64410000D03*
%TO.P,MotorDriver1,Aout1,Aout1*%
%TO.N,Net-(J1-Pin_2)*%
X219230000Y-56910000D03*
%TO.P,MotorDriver1,Aout2,Aout2*%
%TO.N,Net-(J1-Pin_1)*%
X216730000Y-56910000D03*
%TO.P,MotorDriver1,BENBL,BENBL*%
%TO.N,/MotorBenb*%
X211730000Y-64410000D03*
%TO.P,MotorDriver1,BPHASE,BPHASE*%
%TO.N,/MotorBinput*%
X214230000Y-64410000D03*
%TO.P,MotorDriver1,Bout1,Bout1*%
%TO.N,Net-(J2-Pin_2)*%
X214230000Y-56910000D03*
%TO.P,MotorDriver1,Bout2,Bout2*%
%TO.N,Net-(J2-Pin_1)*%
X211730000Y-56910000D03*
%TO.P,MotorDriver1,GND,GND*%
%TO.N,GND*%
X206730000Y-64410000D03*
%TO.P,MotorDriver1,GND_HigtVolt,GND_HigtVolt*%
%TO.N,GND2*%
X206730000Y-56910000D03*
%TO.P,MotorDriver1,MODE,MODE*%
%TO.N,Net-(J3-Pin_2)*%
X221730000Y-64410000D03*
%TO.P,MotorDriver1,VCC,VCC*%
%TO.N,VCC*%
X209230000Y-64410000D03*
%TO.P,MotorDriver1,VCC_HightVolt,VCC_HightVolt*%
%TO.N,+12V*%
X209230000Y-56910000D03*
%TO.P,MotorDriver1,VMM,VMM*%
%TO.N,Net-(J3-Pin_1)*%
X221730000Y-56910000D03*
%TD*%
D16*
%TO.P,J3,1,Pin_1*%
%TO.N,Net-(J3-Pin_1)*%
X230585000Y-54725000D03*
D17*
%TO.P,J3,2,Pin_2*%
%TO.N,Net-(J3-Pin_2)*%
X233125000Y-54725000D03*
%TD*%
D20*
%TO.P,R1,1*%
%TO.N,/A7*%
X234225000Y-95615000D03*
D21*
%TO.P,R1,2*%
%TO.N,GND*%
X234225000Y-90535000D03*
%TD*%
D16*
%TO.P,J5,1,Pin_1*%
%TO.N,/pin1_qtrx_in (TX)*%
X204690000Y-130500000D03*
D17*
%TO.P,J5,2,Pin_2*%
%TO.N,/pin13_qtrx_in (RX)*%
X202150000Y-130500000D03*
%TD*%
D10*
%TO.P,,*%
%TO.N,*%
X83960000Y-96575000D03*
%TD*%
D11*
%TO.P,,*%
%TO.N,*%
X214360000Y-157700000D03*
%TD*%
D22*
%TO.P,A1,1,TX1*%
%TO.N,/pin1_qtrx_in (TX)*%
X206385000Y-81075000D03*
D23*
%TO.P,A1,2,RX1*%
%TO.N,/pin13_qtrx_in (RX)*%
X206385000Y-83615000D03*
%TO.P,A1,3,~{RESET}*%
%TO.N,/RESET1*%
X206385000Y-86155000D03*
%TO.P,A1,4,GND*%
%TO.N,GND*%
X206385000Y-88695000D03*
%TO.P,A1,5,D2*%
%TO.N,/ODD*%
X206385000Y-91235000D03*
%TO.P,A1,6,D3*%
%TO.N,/MotorAinput*%
X206385000Y-93775000D03*
%TO.P,A1,7,D4*%
%TO.N,/led2*%
X206385000Y-96315000D03*
%TO.P,A1,8,D5*%
%TO.N,/MotorAenb*%
X206385000Y-98855000D03*
%TO.P,A1,9,D6*%
%TO.N,/MotorBinput*%
X206385000Y-101395000D03*
%TO.P,A1,10,D7*%
%TO.N,/Led3*%
X206385000Y-103935000D03*
%TO.P,A1,11,D8*%
%TO.N,/Led4*%
X206385000Y-106475000D03*
%TO.P,A1,12,D9*%
%TO.N,/MotorBenb*%
X206385000Y-109015000D03*
%TO.P,A1,13,D10*%
%TO.N,/Led5*%
X206385000Y-111555000D03*
%TO.P,A1,14,MOSI*%
%TO.N,/pin11_led6*%
X206385000Y-114095000D03*
%TO.P,A1,15,MISO*%
%TO.N,/pin12_led7*%
X206385000Y-116635000D03*
%TO.P,A1,16,SCK*%
%TO.N,/pin13_EVEN*%
X221625000Y-116635000D03*
%TO.P,A1,17,3V3*%
%TO.N,/3V3_out*%
X221625000Y-114095000D03*
%TO.P,A1,18,AREF*%
%TO.N,/ref*%
X221625000Y-111555000D03*
%TO.P,A1,19,A0*%
%TO.N,/Led8*%
X221625000Y-109015000D03*
%TO.P,A1,20,A1*%
%TO.N,/Led9*%
X221625000Y-106475000D03*
%TO.P,A1,21,A2*%
%TO.N,/led10*%
X221625000Y-103935000D03*
%TO.P,A1,22,A3*%
%TO.N,/Led11*%
X221625000Y-101395000D03*
%TO.P,A1,23,SDA/A4*%
%TO.N,/Led12*%
X221625000Y-98855000D03*
%TO.P,A1,24,SCL/A5*%
%TO.N,/A5*%
X221625000Y-96315000D03*
%TO.P,A1,25,A6*%
%TO.N,/A6*%
X221625000Y-93775000D03*
%TO.P,A1,26,A7*%
%TO.N,/A7*%
X221625000Y-91235000D03*
%TO.P,A1,27,+5V*%
%TO.N,/HighVolt_out*%
X221625000Y-88695000D03*
%TO.P,A1,28,~{RESET}*%
%TO.N,/RESET2*%
X221625000Y-86155000D03*
%TO.P,A1,29,GND*%
%TO.N,GND*%
X221625000Y-83615000D03*
%TO.P,A1,30,VIN*%
%TO.N,VCC*%
X221625000Y-81075000D03*
%TD*%
D16*
%TO.P,J6,1,Pin_1*%
%TO.N,/3V3_out*%
X228250000Y-116415000D03*
D17*
%TO.P,J6,2,Pin_2*%
%TO.N,/HighVolt_out*%
X228250000Y-113875000D03*
%TD*%
D18*
%TO.P,A6,1,1*%
%TO.N,/HighVolt_out*%
X229050000Y-83225000D03*
X235550000Y-83225000D03*
%TO.P,A6,2,2*%
%TO.N,/A6*%
X229050000Y-87725000D03*
X235550000Y-87725000D03*
%TD*%
D16*
%TO.P,J9,1,Pin_1*%
%TO.N,/ref*%
X228210000Y-109450000D03*
D17*
%TO.P,J9,2,Pin_2*%
%TO.N,/A5*%
X230750000Y-109450000D03*
%TO.P,J9,3,Pin_3*%
%TO.N,/RESET1*%
X233290000Y-109450000D03*
%TO.P,J9,4,Pin_4*%
%TO.N,/RESET2*%
X235830000Y-109450000D03*
%TD*%
D16*
%TO.P,J2,1,Pin_1*%
%TO.N,Net-(J2-Pin_1)*%
X236000000Y-141475000D03*
D17*
%TO.P,J2,2,Pin_2*%
%TO.N,Net-(J2-Pin_2)*%
X236000000Y-138935000D03*
%TD*%
D20*
%TO.P,R2,1*%
%TO.N,/A6*%
X230325000Y-95515000D03*
D21*
%TO.P,R2,2*%
%TO.N,GND*%
X230325000Y-90435000D03*
%TD*%
D11*
%TO.P,,*%
%TO.N,*%
X214360000Y-20700000D03*
%TD*%
D10*
%TO.P,,*%
%TO.N,*%
X83960000Y-81875000D03*
%TD*%
D24*
%TO.P,S1,1*%
%TO.N,Net-(J4-Pin_1)*%
X231625000Y-61150000D03*
%TO.P,S1,2*%
%TO.N,+12V*%
X231625000Y-68650000D03*
%TD*%
D25*
%TO.N,/MotorBenb*%
X210475000Y-88475000D03*
X210750000Y-68825000D03*
%TO.N,/pin13_EVEN*%
X65800000Y-79600000D03*
X63700000Y-108875000D03*
%TO.N,/MotorAenb*%
X219025000Y-74850000D03*
X211975000Y-76125000D03*
X219325000Y-67750000D03*
X220525000Y-70975000D03*
X208650000Y-84975000D03*
X214775000Y-75625000D03*
X208900000Y-78775000D03*
%TO.N,/Led4*%
X68800000Y-106550000D03*
X71250000Y-104950000D03*
X90525000Y-106050000D03*
%TO.N,GND*%
X211950000Y-92475000D03*
X66000000Y-73275000D03*
X211950000Y-86250000D03*
X64250000Y-107475000D03*
%TO.N,/Led8*%
X64950000Y-92400000D03*
%TO.N,/led10*%
X81550000Y-106675000D03*
X71600000Y-106200000D03*
X208650000Y-103200000D03*
X65725000Y-95325000D03*
X80875000Y-104075000D03*
X93800000Y-103275000D03*
X69925000Y-107315000D03*
%TO.N,/led2*%
X79775000Y-82000000D03*
%TO.N,/Led12*%
X202925000Y-109375000D03*
X214275000Y-109525000D03*
X200225000Y-107300000D03*
%TO.N,/MotorAinput*%
X221200000Y-72125000D03*
X221625000Y-67675000D03*
X214125000Y-95625000D03*
X220000000Y-75900000D03*
%TO.N,/A7*%
X228000000Y-96600000D03*
%TO.N,/RESET2*%
X225975000Y-91150000D03*
%TO.N,/MotorBinput*%
X213750000Y-74325000D03*
X209550000Y-76300000D03*
X211975000Y-74775000D03*
X209550000Y-86525000D03*
%TO.N,/Led9*%
X76850000Y-101975000D03*
%TO.N,/pin11_led6*%
X89750000Y-109000000D03*
X63850000Y-91075000D03*
%TO.N,/A6*%
X226425000Y-95900000D03*
%TO.N,/QTRX_pin1_out*%
X76475000Y-98525000D03*
X85125000Y-88350000D03*
%TD*%
D26*
%TO.N,/MotorBenb*%
X210475000Y-88475000D02*
X210475000Y-69100000D01*
X210475000Y-69100000D02*
X210750000Y-68825000D01*
X210750000Y-68825000D02*
X210725000Y-68850000D01*
%TO.N,/Led11*%
X220495000Y-102525000D02*
X221625000Y-101395000D01*
X78750000Y-102525000D02*
X220495000Y-102525000D01*
X75775000Y-99550000D02*
X73025000Y-96800000D01*
X73025000Y-96800000D02*
X70910000Y-96800000D01*
X75775000Y-99550000D02*
X78750000Y-102525000D01*
%TO.N,/pin13_EVEN*%
X220525000Y-117735000D02*
X190260000Y-117735000D01*
X66355000Y-79625000D02*
X65925000Y-79625000D01*
X68285000Y-81555000D02*
X66355000Y-79625000D01*
X64550000Y-109725000D02*
X63700000Y-108875000D01*
X182250000Y-109725000D02*
X64550000Y-109725000D01*
X65875000Y-79625000D02*
X65900000Y-79625000D01*
X221625000Y-116635000D02*
X220525000Y-117735000D01*
X190260000Y-117735000D02*
X182250000Y-109725000D01*
X65800000Y-79600000D02*
X65875000Y-79625000D01*
X65925000Y-79625000D02*
X65800000Y-79600000D01*
%TO.N,/MotorAenb*%
X220525000Y-73400000D02*
X219075000Y-74850000D01*
X219025000Y-74900000D02*
X219075000Y-74850000D01*
X219350000Y-67030000D02*
X219325000Y-67750000D01*
X208900000Y-78750000D02*
X208825000Y-78825000D01*
X214275000Y-76125000D02*
X214775000Y-75625000D01*
X208875000Y-78775000D02*
X208900000Y-78775000D01*
X216730000Y-64410000D02*
X219350000Y-67030000D01*
X208650000Y-79000000D02*
X208875000Y-78775000D01*
X219075000Y-74850000D02*
X219025000Y-74850000D01*
X211975000Y-76125000D02*
X214275000Y-76125000D01*
X208900000Y-78775000D02*
X208900000Y-78750000D01*
X220525000Y-70975000D02*
X220525000Y-73400000D01*
X214775000Y-75625000D02*
X214725000Y-75675000D01*
X219325000Y-67750000D02*
X219350000Y-67650000D01*
X219025000Y-74850000D02*
X219025000Y-74900000D01*
X208650000Y-84975000D02*
X208650000Y-79000000D01*
%TO.N,/Led4*%
X66535000Y-88385000D02*
X66535000Y-104360000D01*
X72300000Y-106050000D02*
X71250000Y-105000000D01*
X68285000Y-86635000D02*
X66535000Y-88385000D01*
X68800000Y-106625000D02*
X68700000Y-106525000D01*
X66535000Y-104360000D02*
X68725000Y-106550000D01*
X90525000Y-106050000D02*
X72300000Y-106050000D01*
X68725000Y-106550000D02*
X68800000Y-106550000D01*
X68800000Y-106550000D02*
X68800000Y-106625000D01*
X71250000Y-105000000D02*
X71250000Y-104950000D01*
X71250000Y-104950000D02*
X71200000Y-104950000D01*
X71200000Y-104950000D02*
X71225000Y-104975000D01*
%TO.N,GND*%
X234125000Y-90435000D02*
X234225000Y-90535000D01*
X230325000Y-90435000D02*
X234125000Y-90435000D01*
X63250000Y-106475000D02*
X63250000Y-75925000D01*
X211950000Y-86200000D02*
X211950000Y-86250000D01*
X214535000Y-83615000D02*
X211950000Y-86200000D01*
X66000000Y-73175000D02*
X65900000Y-73275000D01*
X211950000Y-86250000D02*
X211900000Y-86250000D01*
X211950000Y-92475000D02*
X208170000Y-88695000D01*
X63250000Y-75925000D02*
X65900000Y-73275000D01*
X64250000Y-107475000D02*
X63250000Y-106475000D01*
X208170000Y-88695000D02*
X206385000Y-88695000D01*
X211900000Y-86250000D02*
X211950000Y-86200000D01*
X65900000Y-73275000D02*
X66000000Y-73275000D01*
X221625000Y-83615000D02*
X214535000Y-83615000D01*
X66000000Y-73275000D02*
X66000000Y-73175000D01*
%TO.N,/Led8*%
X220525000Y-107915000D02*
X66890000Y-107915000D01*
X64950000Y-92400000D02*
X64975000Y-92375000D01*
X221625000Y-109015000D02*
X220525000Y-107915000D01*
X64975000Y-106000000D02*
X64950000Y-92400000D01*
X66890000Y-107915000D02*
X64975000Y-106000000D01*
%TO.N,/led10*%
X209435000Y-103935000D02*
X208700000Y-103200000D01*
X81550000Y-106675000D02*
X72050000Y-106675000D01*
X65725000Y-104675000D02*
X65725000Y-95325000D01*
X69925000Y-107315000D02*
X69925000Y-107150000D01*
X71600000Y-106225000D02*
X71600000Y-106200000D01*
X80875000Y-104050000D02*
X80875000Y-104075000D01*
X208650000Y-103200000D02*
X208650000Y-103150000D01*
X71600000Y-106200000D02*
X71575000Y-106200000D01*
X80850000Y-104075000D02*
X80875000Y-104050000D01*
X72050000Y-106675000D02*
X71600000Y-106225000D01*
X208650000Y-103150000D02*
X208700000Y-103200000D01*
X80875000Y-104075000D02*
X80850000Y-104075000D01*
X68365000Y-107315000D02*
X65725000Y-104675000D01*
X221625000Y-103935000D02*
X209435000Y-103935000D01*
X208700000Y-103200000D02*
X208650000Y-103200000D01*
X81650000Y-103275000D02*
X80875000Y-104050000D01*
X93800000Y-103275000D02*
X81650000Y-103275000D01*
X71575000Y-106200000D02*
X71650000Y-106275000D01*
X69925000Y-107315000D02*
X68365000Y-107315000D01*
%TO.N,/led2*%
X67575000Y-74625000D02*
X64875000Y-77325000D01*
X79775000Y-81334315D02*
X73065685Y-74625000D01*
X79775000Y-82000000D02*
X79775000Y-81334315D01*
X64875000Y-77325000D02*
X64875000Y-80685000D01*
X64875000Y-80685000D02*
X68285000Y-84095000D01*
X73065685Y-74625000D02*
X67575000Y-74625000D01*
%TO.N,/Led12*%
X66935000Y-102434189D02*
X71825811Y-107325000D01*
X214275000Y-109525000D02*
X213685000Y-110115000D01*
X202925000Y-109375000D02*
X202900000Y-109375000D01*
X200225000Y-107300000D02*
X200225000Y-107325000D01*
X66935000Y-98145000D02*
X66935000Y-102434189D01*
X68285000Y-96795000D02*
X66935000Y-98145000D01*
X213685000Y-110115000D02*
X203640000Y-110115000D01*
X71825811Y-107325000D02*
X200225000Y-107300000D01*
X202900000Y-109375000D02*
X202925000Y-109400000D01*
X203640000Y-110115000D02*
X202925000Y-109400000D01*
X202925000Y-109400000D02*
X202925000Y-109375000D01*
%TO.N,/HighVolt_out*%
X235275000Y-98750000D02*
X228775000Y-98750000D01*
X239225000Y-105361522D02*
X239225000Y-111425000D01*
X227095000Y-83225000D02*
X221625000Y-88695000D01*
X229050000Y-83225000D02*
X235550000Y-83225000D01*
X233975000Y-116725000D02*
X231100000Y-116725000D01*
X229050000Y-83225000D02*
X227095000Y-83225000D01*
X228775000Y-98750000D02*
X232613478Y-98750000D01*
X232613478Y-98750000D02*
X239225000Y-105361522D01*
X231100000Y-116725000D02*
X228250000Y-113875000D01*
X239225000Y-111425000D02*
X233975000Y-116675000D01*
X233975000Y-116675000D02*
X233975000Y-116725000D01*
%TO.N,/RESET1*%
X233290000Y-109450000D02*
X232140000Y-108300000D01*
X230095000Y-108300000D02*
X221750000Y-99955000D01*
X232140000Y-108300000D02*
X230095000Y-108300000D01*
X221106471Y-99955000D02*
X209875000Y-88723529D01*
X209875000Y-87875000D02*
X208155000Y-86155000D01*
X208155000Y-86155000D02*
X206385000Y-86155000D01*
X209875000Y-88723529D02*
X209875000Y-87875000D01*
X221750000Y-99955000D02*
X221106471Y-99955000D01*
%TO.N,/MotorAinput*%
X221200000Y-72125000D02*
X221200000Y-74650000D01*
X221625000Y-67675000D02*
X221625000Y-67600000D01*
X221625000Y-66805000D02*
X221625000Y-67675000D01*
X220000000Y-75850000D02*
X220000000Y-75900000D01*
X212275000Y-93775000D02*
X206385000Y-93775000D01*
X214125000Y-95625000D02*
X212275000Y-93775000D01*
X219950000Y-75900000D02*
X219950000Y-75900000D01*
X220000000Y-75900000D02*
X219950000Y-75900000D01*
X219230000Y-64410000D02*
X221625000Y-66805000D01*
X221200000Y-74650000D02*
X220000000Y-75850000D01*
%TO.N,/A7*%
X228775000Y-103250000D02*
X235275000Y-103250000D01*
X228000000Y-96600000D02*
X233240000Y-96600000D01*
X233240000Y-96600000D02*
X234225000Y-95615000D01*
%TO.N,/RESET2*%
X234280000Y-107900000D02*
X235830000Y-109450000D01*
X225825000Y-102138478D02*
X231586522Y-107900000D01*
X231586522Y-107900000D02*
X234280000Y-107900000D01*
X225825000Y-91300000D02*
X225825000Y-102138478D01*
X225975000Y-91150000D02*
X225825000Y-91300000D01*
%TO.N,/MotorBinput*%
X209550000Y-76300000D02*
X209550000Y-76350000D01*
X213300000Y-74775000D02*
X213750000Y-74325000D01*
X213750000Y-74325000D02*
X213700000Y-74375000D01*
X209550000Y-86525000D02*
X209550000Y-76300000D01*
X211975000Y-74775000D02*
X213300000Y-74775000D01*
%TO.N,/Led9*%
X80200000Y-105375000D02*
X76850000Y-102025000D01*
X76800000Y-101975000D02*
X76875000Y-102050000D01*
X76850000Y-102025000D02*
X76850000Y-101975000D01*
X220525000Y-105375000D02*
X80200000Y-105375000D01*
X221625000Y-106475000D02*
X220525000Y-105375000D01*
X76850000Y-101975000D02*
X76800000Y-101975000D01*
%TO.N,/pin11_led6*%
X67409314Y-109000000D02*
X63825000Y-105415686D01*
X63825000Y-103250000D02*
X63850000Y-91075000D01*
X63850000Y-91075000D02*
X63825000Y-91125000D01*
X89750000Y-109000000D02*
X67409314Y-109000000D01*
X63825000Y-105415686D02*
X63825000Y-103250000D01*
%TO.N,/A6*%
X227390000Y-95900000D02*
X229050000Y-94240000D01*
X226425000Y-95900000D02*
X227390000Y-95900000D01*
X229050000Y-94240000D02*
X230325000Y-95515000D01*
X235550000Y-87725000D02*
X229050000Y-87725000D01*
X229050000Y-87725000D02*
X229050000Y-94240000D01*
%TO.N,VCC*%
X211820000Y-71300000D02*
X221595000Y-81075000D01*
X221595000Y-81075000D02*
X221625000Y-81075000D01*
%TO.N,GND2*%
X210490200Y-67430200D02*
X214360000Y-71300000D01*
X210490200Y-60670200D02*
X210490200Y-67430200D01*
X206730000Y-56910000D02*
X210490200Y-60670200D01*
%TO.N,Net-(J4-Pin_1)*%
X218485000Y-48010000D02*
X208275000Y-48010000D01*
X231625000Y-61150000D02*
X218485000Y-48010000D01*
%TO.N,/QTRX_pin1_out*%
X76475000Y-98525000D02*
X76450000Y-98450000D01*
X85125000Y-88350000D02*
X76450000Y-97025000D01*
X76450000Y-97025000D02*
X76475000Y-98525000D01*
%TO.N,+12V*%
X231625000Y-68650000D02*
X219550000Y-68650000D01*
X219550000Y-68650000D02*
X216900000Y-71300000D01*
%TD*%
%TA.AperFunction,Conductor*%
%TO.N,GND*%
G36*
X239619633Y-14202025D02*
G01*
X239667710Y-14209640D01*
X239704595Y-14221625D01*
X239739156Y-14239235D01*
X239770538Y-14262036D01*
X239797963Y-14289461D01*
X239820765Y-14320845D01*
X239836427Y-14351583D01*
X239838372Y-14355399D01*
X239850360Y-14392293D01*
X239857973Y-14440362D01*
X239859499Y-14459757D01*
X239855625Y-104843553D01*
X239835938Y-104910592D01*
X239783132Y-104956345D01*
X239713973Y-104966285D01*
X239650418Y-104937257D01*
X239643944Y-104931229D01*
X239589397Y-104876682D01*
X239589374Y-104876661D01*
X235174894Y-100462181D01*
X235141409Y-100400858D01*
X235146393Y-100331166D01*
X235188265Y-100275233D01*
X235253729Y-100250816D01*
X235262575Y-100250500D01*
X235399335Y-100250500D01*
X235644614Y-100209571D01*
X235879810Y-100128828D01*
X236098509Y-100010474D01*
X236294744Y-99857738D01*
X236463164Y-99674785D01*
X236599173Y-99466607D01*
X236699063Y-99238881D01*
X236760108Y-98997821D01*
X236771580Y-98859380D01*
X236780643Y-98750005D01*
X236780643Y-98749994D01*
X236760109Y-98502187D01*
X236760107Y-98502175D01*
X236699063Y-98261118D01*
X236599173Y-98033393D01*
X236463166Y-97825217D01*
X236400581Y-97757232D01*
X236294744Y-97642262D01*
X236098509Y-97489526D01*
X236098507Y-97489525D01*
X236098506Y-97489524D01*
X235879811Y-97371172D01*
X235879802Y-97371169D01*
X235644616Y-97290429D01*
X235399335Y-97249500D01*
X235150665Y-97249500D01*
X234905383Y-97290429D01*
X234670197Y-97371169D01*
X234670188Y-97371172D01*
X234451493Y-97489524D01*
X234255257Y-97642261D01*
X234086833Y-97825217D01*
X233950827Y-98033391D01*
X233932440Y-98075311D01*
X233887483Y-98128796D01*
X233820747Y-98149486D01*
X233818884Y-98149500D01*
X232700147Y-98149500D01*
X232700131Y-98149499D01*
X232692535Y-98149499D01*
X232534421Y-98149499D01*
X232526825Y-98149499D01*
X232526809Y-98149500D01*
X230231116Y-98149500D01*
X230164077Y-98129815D01*
X230118322Y-98077011D01*
X230117560Y-98075311D01*
X230099172Y-98033391D01*
X229963166Y-97825217D01*
X229900581Y-97757232D01*
X229794744Y-97642262D01*
X229598509Y-97489526D01*
X229598508Y-97489525D01*
X229598505Y-97489523D01*
X229598503Y-97489522D01*
X229495084Y-97433555D01*
X229445493Y-97384335D01*
X229430385Y-97316119D01*
X229454555Y-97250563D01*
X229510331Y-97208482D01*
X229554101Y-97200500D01*
X233153331Y-97200500D01*
X233153347Y-97200501D01*
X233160943Y-97200501D01*
X233319054Y-97200501D01*
X233319057Y-97200501D01*
X233471785Y-97159577D01*
X233521904Y-97130639D01*
X233608716Y-97080520D01*
X233720520Y-96968716D01*
X233720520Y-96968714D01*
X233730728Y-96958507D01*
X233730730Y-96958504D01*
X233865319Y-96823914D01*
X233926640Y-96790431D01*
X233975783Y-96789708D01*
X234113757Y-96815500D01*
X234113759Y-96815500D01*
X234336241Y-96815500D01*
X234336243Y-96815500D01*
X234554940Y-96774618D01*
X234762401Y-96694247D01*
X234951562Y-96577124D01*
X235103787Y-96438352D01*
X235115979Y-96427238D01*
X235173711Y-96350789D01*
X235250058Y-96249689D01*
X235349229Y-96050528D01*
X235410115Y-95836536D01*
X235430643Y-95615000D01*
X235421215Y-95513259D01*
X235410115Y-95393464D01*
X235410114Y-95393462D01*
X235400525Y-95359761D01*
X235349229Y-95179472D01*
X235349224Y-95179461D01*
X235250061Y-94980316D01*
X235250056Y-94980308D01*
X235115979Y-94802761D01*
X234951562Y-94652876D01*
X234951560Y-94652874D01*
X234762404Y-94535754D01*
X234762398Y-94535752D01*
X234741105Y-94527503D01*
X234554940Y-94455382D01*
X234336243Y-94414500D01*
X234113757Y-94414500D01*
X233895060Y-94455382D01*
X233763864Y-94506207D01*
X233687601Y-94535752D01*
X233687595Y-94535754D01*
X233498439Y-94652874D01*
X233498437Y-94652876D01*
X233334020Y-94802761D01*
X233199943Y-94980308D01*
X233199938Y-94980316D01*
X233100775Y-95179461D01*
X233100769Y-95179476D01*
X233039885Y-95393462D01*
X233039884Y-95393464D01*
X233019357Y-95614999D01*
X233019357Y-95615000D01*
X233039885Y-95836537D01*
X233041316Y-95841566D01*
X233040729Y-95911433D01*
X233002462Y-95969892D01*
X232938665Y-95998382D01*
X232922050Y-95999500D01*
X231599498Y-95999500D01*
X231532459Y-95979815D01*
X231486704Y-95927011D01*
X231476760Y-95857853D01*
X231480231Y-95841566D01*
X231481662Y-95836537D01*
X231510115Y-95736536D01*
X231530643Y-95515000D01*
X231510115Y-95293464D01*
X231449229Y-95079472D01*
X231439170Y-95059270D01*
X231350061Y-94880316D01*
X231350056Y-94880308D01*
X231215979Y-94702761D01*
X231051562Y-94552876D01*
X231051560Y-94552874D01*
X230862404Y-94435754D01*
X230862398Y-94435752D01*
X230843361Y-94428377D01*
X230654940Y-94355382D01*
X230436243Y-94314500D01*
X230213757Y-94314500D01*
X230143734Y-94327589D01*
X230075783Y-94340291D01*
X230006268Y-94333259D01*
X229965318Y-94306083D01*
X229686819Y-94027584D01*
X229653334Y-93966261D01*
X229650500Y-93939903D01*
X229650500Y-91641617D01*
X229670185Y-91574578D01*
X229722989Y-91528823D01*
X229792147Y-91518879D01*
X229819294Y-91525991D01*
X229995190Y-91594134D01*
X230075000Y-91609052D01*
X230075000Y-90679975D01*
X230110095Y-90715070D01*
X230189905Y-90761148D01*
X230278922Y-90785000D01*
X230371078Y-90785000D01*
X230460095Y-90761148D01*
X230539905Y-90715070D01*
X230569975Y-90685000D01*
X230575000Y-90685000D01*
X230575000Y-91609052D01*
X230654804Y-91594135D01*
X230862177Y-91513798D01*
X230862179Y-91513797D01*
X231051261Y-91396721D01*
X231215608Y-91246900D01*
X231349631Y-91069425D01*
X231448760Y-90870349D01*
X231473043Y-90785000D01*
X233048505Y-90785000D01*
X233101239Y-90970349D01*
X233200368Y-91169425D01*
X233334391Y-91346900D01*
X233498738Y-91496721D01*
X233687820Y-91613797D01*
X233687822Y-91613798D01*
X233895195Y-91694135D01*
X233975000Y-91709052D01*
X233975000Y-90785000D01*
X233048505Y-90785000D01*
X231473043Y-90785000D01*
X231501495Y-90685000D01*
X230575000Y-90685000D01*
X230569975Y-90685000D01*
X230605070Y-90649905D01*
X230644807Y-90581078D01*
X233875000Y-90581078D01*
X233898852Y-90670095D01*
X233944930Y-90749905D01*
X234010095Y-90815070D01*
X234089905Y-90861148D01*
X234178922Y-90885000D01*
X234271078Y-90885000D01*
X234360095Y-90861148D01*
X234439905Y-90815070D01*
X234469975Y-90785000D01*
X234475000Y-90785000D01*
X234475000Y-91709052D01*
X234554804Y-91694135D01*
X234762177Y-91613798D01*
X234762179Y-91613797D01*
X234951261Y-91496721D01*
X235115608Y-91346900D01*
X235249631Y-91169425D01*
X235348760Y-90970349D01*
X235401495Y-90785000D01*
X234475000Y-90785000D01*
X234469975Y-90785000D01*
X234505070Y-90749905D01*
X234551148Y-90670095D01*
X234575000Y-90581078D01*
X234575000Y-90488922D01*
X234551148Y-90399905D01*
X234505070Y-90320095D01*
X234439905Y-90254930D01*
X234360095Y-90208852D01*
X234271078Y-90185000D01*
X234178922Y-90185000D01*
X234089905Y-90208852D01*
X234010095Y-90254930D01*
X233944930Y-90320095D01*
X233898852Y-90399905D01*
X233875000Y-90488922D01*
X233875000Y-90581078D01*
X230644807Y-90581078D01*
X230651148Y-90570095D01*
X230675000Y-90481078D01*
X230675000Y-90388922D01*
X230651148Y-90299905D01*
X230642543Y-90285000D01*
X233048505Y-90285000D01*
X233975000Y-90285000D01*
X233975000Y-89360946D01*
X234475000Y-89360946D01*
X234475000Y-90285000D01*
X235401495Y-90285000D01*
X235348760Y-90099650D01*
X235249631Y-89900574D01*
X235115608Y-89723099D01*
X234951261Y-89573278D01*
X234762179Y-89456202D01*
X234762177Y-89456201D01*
X234554799Y-89375864D01*
X234475000Y-89360946D01*
X233975000Y-89360946D01*
X233895200Y-89375864D01*
X233687822Y-89456201D01*
X233687820Y-89456202D01*
X233498738Y-89573278D01*
X233334391Y-89723099D01*
X233200368Y-89900574D01*
X233101239Y-90099650D01*
X233048505Y-90285000D01*
X230642543Y-90285000D01*
X230605070Y-90220095D01*
X230539905Y-90154930D01*
X230460095Y-90108852D01*
X230371078Y-90085000D01*
X230278922Y-90085000D01*
X230189905Y-90108852D01*
X230110095Y-90154930D01*
X230075000Y-90190025D01*
X230075000Y-89260946D01*
X230575000Y-89260946D01*
X230575000Y-90185000D01*
X231501495Y-90185000D01*
X231448760Y-89999650D01*
X231349631Y-89800574D01*
X231215608Y-89623099D01*
X231051261Y-89473278D01*
X230862179Y-89356202D01*
X230862177Y-89356201D01*
X230654799Y-89275864D01*
X230575000Y-89260946D01*
X230075000Y-89260946D01*
X229995198Y-89275864D01*
X229819293Y-89344009D01*
X229749670Y-89349871D01*
X229687930Y-89317160D01*
X229653675Y-89256264D01*
X229650500Y-89228382D01*
X229650500Y-89180048D01*
X229670185Y-89113009D01*
X229715481Y-89070993D01*
X229873509Y-88985474D01*
X230069744Y-88832738D01*
X230238164Y-88649785D01*
X230374173Y-88441607D01*
X230392560Y-88399689D01*
X230437517Y-88346204D01*
X230504253Y-88325514D01*
X230506116Y-88325500D01*
X234093884Y-88325500D01*
X234160923Y-88345185D01*
X234206678Y-88397989D01*
X234207440Y-88399689D01*
X234225827Y-88441608D01*
X234361833Y-88649782D01*
X234361836Y-88649785D01*
X234530256Y-88832738D01*
X234726491Y-88985474D01*
X234871154Y-89063762D01*
X234945190Y-89103828D01*
X235180386Y-89184571D01*
X235425665Y-89225500D01*
X235674335Y-89225500D01*
X235919614Y-89184571D01*
X236154810Y-89103828D01*
X236373509Y-88985474D01*
X236569744Y-88832738D01*
X236738164Y-88649785D01*
X236874173Y-88441607D01*
X236974063Y-88213881D01*
X237035108Y-87972821D01*
X237035115Y-87972734D01*
X237055643Y-87725005D01*
X237055643Y-87724994D01*
X237035109Y-87477187D01*
X237035107Y-87477175D01*
X236974063Y-87236118D01*
X236874173Y-87008393D01*
X236738166Y-86800217D01*
X236697001Y-86755500D01*
X236569744Y-86617262D01*
X236373509Y-86464526D01*
X236373507Y-86464525D01*
X236373506Y-86464524D01*
X236154811Y-86346172D01*
X236154802Y-86346169D01*
X235919616Y-86265429D01*
X235674335Y-86224500D01*
X235425665Y-86224500D01*
X235180383Y-86265429D01*
X234945197Y-86346169D01*
X234945188Y-86346172D01*
X234726493Y-86464524D01*
X234530257Y-86617261D01*
X234361833Y-86800217D01*
X234225827Y-87008391D01*
X234207440Y-87050311D01*
X234162483Y-87103796D01*
X234095747Y-87124486D01*
X234093884Y-87124500D01*
X230506116Y-87124500D01*
X230439077Y-87104815D01*
X230393322Y-87052011D01*
X230392560Y-87050311D01*
X230374172Y-87008391D01*
X230238166Y-86800217D01*
X230197001Y-86755500D01*
X230069744Y-86617262D01*
X229873509Y-86464526D01*
X229873507Y-86464525D01*
X229873506Y-86464524D01*
X229654811Y-86346172D01*
X229654802Y-86346169D01*
X229419616Y-86265429D01*
X229174335Y-86224500D01*
X228925665Y-86224500D01*
X228680383Y-86265429D01*
X228445197Y-86346169D01*
X228445188Y-86346172D01*
X228226493Y-86464524D01*
X228030257Y-86617261D01*
X227861833Y-86800217D01*
X227725826Y-87008393D01*
X227625936Y-87236118D01*
X227564892Y-87477175D01*
X227564890Y-87477187D01*
X227544357Y-87724994D01*
X227544357Y-87725005D01*
X227564890Y-87972812D01*
X227564892Y-87972824D01*
X227625936Y-88213881D01*
X227725826Y-88441606D01*
X227861833Y-88649782D01*
X227861836Y-88649785D01*
X228030256Y-88832738D01*
X228226491Y-88985474D01*
X228226494Y-88985475D01*
X228226496Y-88985477D01*
X228242375Y-88994070D01*
X228384517Y-89070993D01*
X228434108Y-89120212D01*
X228449500Y-89180048D01*
X228449500Y-93939902D01*
X228429815Y-94006941D01*
X228413181Y-94027583D01*
X227177584Y-95263181D01*
X227116261Y-95296666D01*
X227089903Y-95299500D01*
X227007412Y-95299500D01*
X226940373Y-95279815D01*
X226930097Y-95272445D01*
X226927263Y-95270185D01*
X226927262Y-95270184D01*
X226850892Y-95222197D01*
X226774521Y-95174210D01*
X226604249Y-95114630D01*
X226535616Y-95106897D01*
X226471202Y-95079830D01*
X226431647Y-95022235D01*
X226425500Y-94983677D01*
X226425500Y-91880809D01*
X226445185Y-91813770D01*
X226472191Y-91783859D01*
X226477252Y-91779821D01*
X226477262Y-91779816D01*
X226604816Y-91652262D01*
X226700789Y-91499522D01*
X226760368Y-91329255D01*
X226760369Y-91329249D01*
X226780565Y-91150003D01*
X226780565Y-91149996D01*
X226760369Y-90970750D01*
X226760368Y-90970745D01*
X226732756Y-90891834D01*
X226700789Y-90800478D01*
X226604816Y-90647738D01*
X226477262Y-90520184D01*
X226419811Y-90484085D01*
X226324523Y-90424211D01*
X226154254Y-90364631D01*
X226154249Y-90364630D01*
X225975004Y-90344435D01*
X225974996Y-90344435D01*
X225795750Y-90364630D01*
X225795745Y-90364631D01*
X225625476Y-90424211D01*
X225472737Y-90520184D01*
X225345184Y-90647737D01*
X225249211Y-90800476D01*
X225189631Y-90970745D01*
X225189630Y-90970750D01*
X225169435Y-91149996D01*
X225169435Y-91150003D01*
X225189630Y-91329249D01*
X225189631Y-91329254D01*
X225217542Y-91409017D01*
X225224500Y-91449972D01*
X225224500Y-102051808D01*
X225224499Y-102051826D01*
X225224499Y-102217534D01*
X225237493Y-102266028D01*
X225235830Y-102335877D01*
X225196667Y-102393740D01*
X225132439Y-102421244D01*
X225063537Y-102409658D01*
X225030037Y-102385802D01*
X222569391Y-99925156D01*
X222535906Y-99863833D01*
X222540890Y-99794141D01*
X222569388Y-99749797D01*
X222625047Y-99694139D01*
X222755568Y-99507734D01*
X222851739Y-99301496D01*
X222910635Y-99081692D01*
X222930468Y-98855000D01*
X222910635Y-98628308D01*
X222851739Y-98408504D01*
X222755568Y-98202266D01*
X222625047Y-98015861D01*
X222625045Y-98015858D01*
X222464141Y-97854954D01*
X222277734Y-97724432D01*
X222277728Y-97724429D01*
X222219725Y-97697382D01*
X222167285Y-97651210D01*
X222148133Y-97584017D01*
X222168348Y-97517135D01*
X222219725Y-97472618D01*
X222277734Y-97445568D01*
X222464139Y-97315047D01*
X222625047Y-97154139D01*
X222755568Y-96967734D01*
X222851739Y-96761496D01*
X222910635Y-96541692D01*
X222930076Y-96319480D01*
X222930468Y-96315001D01*
X222930468Y-96314998D01*
X222910635Y-96088313D01*
X222910635Y-96088308D01*
X222851739Y-95868504D01*
X222755568Y-95662266D01*
X222625047Y-95475861D01*
X222625045Y-95475858D01*
X222464141Y-95314954D01*
X222277734Y-95184432D01*
X222277728Y-95184429D01*
X222219725Y-95157382D01*
X222167285Y-95111210D01*
X222148133Y-95044017D01*
X222168348Y-94977135D01*
X222219725Y-94932618D01*
X222277734Y-94905568D01*
X222464139Y-94775047D01*
X222625047Y-94614139D01*
X222755568Y-94427734D01*
X222851739Y-94221496D01*
X222910635Y-94001692D01*
X222930468Y-93775000D01*
X222910635Y-93548308D01*
X222851739Y-93328504D01*
X222755568Y-93122266D01*
X222625047Y-92935861D01*
X222625045Y-92935858D01*
X222464141Y-92774954D01*
X222277734Y-92644432D01*
X222277728Y-92644429D01*
X222219725Y-92617382D01*
X222167285Y-92571210D01*
X222148133Y-92504017D01*
X222168348Y-92437135D01*
X222219725Y-92392618D01*
X222277734Y-92365568D01*
X222464139Y-92235047D01*
X222625047Y-92074139D01*
X222755568Y-91887734D01*
X222851739Y-91681496D01*
X222910635Y-91461692D01*
X222928783Y-91254255D01*
X222930468Y-91235001D01*
X222930468Y-91234998D01*
X222910635Y-91008313D01*
X222910635Y-91008308D01*
X222855039Y-90800821D01*
X222851741Y-90788511D01*
X222851738Y-90788502D01*
X222850105Y-90785000D01*
X222755568Y-90582266D01*
X222625047Y-90395861D01*
X222625045Y-90395858D01*
X222464141Y-90234954D01*
X222277734Y-90104432D01*
X222277728Y-90104429D01*
X222219725Y-90077382D01*
X222167285Y-90031210D01*
X222148133Y-89964017D01*
X222168348Y-89897135D01*
X222219725Y-89852618D01*
X222220319Y-89852341D01*
X222277734Y-89825568D01*
X222464139Y-89695047D01*
X222625047Y-89534139D01*
X222755568Y-89347734D01*
X222851739Y-89141496D01*
X222910635Y-88921692D01*
X222930468Y-88695000D01*
X222910635Y-88468308D01*
X222890082Y-88391604D01*
X222884847Y-88372066D01*
X222886510Y-88302217D01*
X222916939Y-88252294D01*
X227307416Y-83861819D01*
X227368739Y-83828334D01*
X227395097Y-83825500D01*
X227593884Y-83825500D01*
X227660923Y-83845185D01*
X227706678Y-83897989D01*
X227707440Y-83899689D01*
X227725827Y-83941608D01*
X227861833Y-84149782D01*
X227861836Y-84149785D01*
X228030256Y-84332738D01*
X228226491Y-84485474D01*
X228226493Y-84485475D01*
X228402303Y-84580619D01*
X228445190Y-84603828D01*
X228680386Y-84684571D01*
X228925665Y-84725500D01*
X229174335Y-84725500D01*
X229419614Y-84684571D01*
X229654810Y-84603828D01*
X229873509Y-84485474D01*
X230069744Y-84332738D01*
X230238164Y-84149785D01*
X230374173Y-83941607D01*
X230392560Y-83899689D01*
X230437517Y-83846204D01*
X230504253Y-83825514D01*
X230506116Y-83825500D01*
X234093884Y-83825500D01*
X234160923Y-83845185D01*
X234206678Y-83897989D01*
X234207440Y-83899689D01*
X234225827Y-83941608D01*
X234361833Y-84149782D01*
X234361836Y-84149785D01*
X234530256Y-84332738D01*
X234726491Y-84485474D01*
X234726493Y-84485475D01*
X234902303Y-84580619D01*
X234945190Y-84603828D01*
X235180386Y-84684571D01*
X235425665Y-84725500D01*
X235674335Y-84725500D01*
X235919614Y-84684571D01*
X236154810Y-84603828D01*
X236373509Y-84485474D01*
X236569744Y-84332738D01*
X236738164Y-84149785D01*
X236874173Y-83941607D01*
X236974063Y-83713881D01*
X237035108Y-83472821D01*
X237035109Y-83472812D01*
X237055643Y-83225005D01*
X237055643Y-83224994D01*
X237035109Y-82977187D01*
X237035107Y-82977175D01*
X236974063Y-82736118D01*
X236874173Y-82508393D01*
X236738166Y-82300217D01*
X236706749Y-82266089D01*
X236569744Y-82117262D01*
X236373509Y-81964526D01*
X236373507Y-81964525D01*
X236373506Y-81964524D01*
X236154811Y-81846172D01*
X236154802Y-81846169D01*
X235919616Y-81765429D01*
X235674335Y-81724500D01*
X235425665Y-81724500D01*
X235180383Y-81765429D01*
X234945197Y-81846169D01*
X234945188Y-81846172D01*
X234726493Y-81964524D01*
X234530257Y-82117261D01*
X234530256Y-82117262D01*
X234530189Y-82117335D01*
X234361833Y-82300217D01*
X234225827Y-82508391D01*
X234207440Y-82550311D01*
X234162483Y-82603796D01*
X234095747Y-82624486D01*
X234093884Y-82624500D01*
X230506116Y-82624500D01*
X230439077Y-82604815D01*
X230393322Y-82552011D01*
X230392560Y-82550311D01*
X230374172Y-82508391D01*
X230238166Y-82300217D01*
X230206749Y-82266089D01*
X230069744Y-82117262D01*
X229873509Y-81964526D01*
X229873507Y-81964525D01*
X229873506Y-81964524D01*
X229654811Y-81846172D01*
X229654802Y-81846169D01*
X229419616Y-81765429D01*
X229174335Y-81724500D01*
X228925665Y-81724500D01*
X228680383Y-81765429D01*
X228445197Y-81846169D01*
X228445188Y-81846172D01*
X228226493Y-81964524D01*
X228030257Y-82117261D01*
X228030256Y-82117262D01*
X228030189Y-82117335D01*
X227861833Y-82300217D01*
X227725827Y-82508391D01*
X227707440Y-82550311D01*
X227662483Y-82603796D01*
X227595747Y-82624486D01*
X227593884Y-82624500D01*
X227174057Y-82624500D01*
X227015943Y-82624500D01*
X226863215Y-82665423D01*
X226863214Y-82665423D01*
X226863212Y-82665424D01*
X226863209Y-82665425D01*
X226813096Y-82694359D01*
X226813095Y-82694360D01*
X226789191Y-82708161D01*
X226726285Y-82744479D01*
X226726282Y-82744481D01*
X226614478Y-82856286D01*
X223134428Y-86336335D01*
X223073105Y-86369820D01*
X223003413Y-86364836D01*
X222947480Y-86322964D01*
X222923063Y-86257500D01*
X222923218Y-86237857D01*
X222930468Y-86155000D01*
X222930414Y-86154388D01*
X222921487Y-86052345D01*
X222910635Y-85928308D01*
X222851739Y-85708504D01*
X222755568Y-85502266D01*
X222631112Y-85324523D01*
X222625045Y-85315858D01*
X222464141Y-85154954D01*
X222277734Y-85024432D01*
X222277732Y-85024431D01*
X222266275Y-85019088D01*
X222219132Y-84997105D01*
X222166694Y-84950934D01*
X222147542Y-84883740D01*
X222167758Y-84816859D01*
X222219134Y-84772341D01*
X222277484Y-84745132D01*
X222463820Y-84614657D01*
X222624657Y-84453820D01*
X222755134Y-84267482D01*
X222851265Y-84061326D01*
X222851269Y-84061317D01*
X222903872Y-83865000D01*
X222058012Y-83865000D01*
X222090925Y-83807993D01*
X222125000Y-83680826D01*
X222125000Y-83549174D01*
X222090925Y-83422007D01*
X222058012Y-83365000D01*
X222903872Y-83365000D01*
X222903872Y-83364999D01*
X222851269Y-83168682D01*
X222851265Y-83168673D01*
X222755134Y-82962517D01*
X222624657Y-82776179D01*
X222463820Y-82615342D01*
X222277482Y-82484865D01*
X222219133Y-82457657D01*
X222166694Y-82411484D01*
X222147542Y-82344291D01*
X222167758Y-82277410D01*
X222219129Y-82232895D01*
X222277734Y-82205568D01*
X222464139Y-82075047D01*
X222625047Y-81914139D01*
X222755568Y-81727734D01*
X222851739Y-81521496D01*
X222910635Y-81301692D01*
X222930468Y-81075000D01*
X222930414Y-81074388D01*
X222921416Y-80971535D01*
X222910635Y-80848308D01*
X222851739Y-80628504D01*
X222755568Y-80422266D01*
X222625047Y-80235861D01*
X222625045Y-80235858D01*
X222464141Y-80074954D01*
X222277734Y-79944432D01*
X222277732Y-79944431D01*
X222071497Y-79848261D01*
X222071488Y-79848258D01*
X221851697Y-79789366D01*
X221851693Y-79789365D01*
X221851692Y-79789365D01*
X221851691Y-79789364D01*
X221851686Y-79789364D01*
X221625002Y-79769532D01*
X221624999Y-79769532D01*
X221398313Y-79789364D01*
X221398309Y-79789364D01*
X221398308Y-79789365D01*
X221398303Y-79789366D01*
X221398300Y-79789367D01*
X221278406Y-79821491D01*
X221208556Y-79819828D01*
X221158633Y-79789397D01*
X217720025Y-76350789D01*
X216219239Y-74850003D01*
X218219435Y-74850003D01*
X218239630Y-75029249D01*
X218239631Y-75029254D01*
X218299211Y-75199523D01*
X218360577Y-75297185D01*
X218395184Y-75352262D01*
X218522738Y-75479816D01*
X218579387Y-75515411D01*
X218672966Y-75574211D01*
X218675478Y-75575789D01*
X218845745Y-75635368D01*
X218845750Y-75635369D01*
X219024996Y-75655565D01*
X219025000Y-75655565D01*
X219025001Y-75655565D01*
X219032609Y-75654707D01*
X219069994Y-75650495D01*
X219138815Y-75662549D01*
X219190195Y-75709897D01*
X219207820Y-75777507D01*
X219207098Y-75787597D01*
X219194435Y-75899994D01*
X219194435Y-75900003D01*
X219214630Y-76079249D01*
X219214631Y-76079254D01*
X219274211Y-76249523D01*
X219304522Y-76297762D01*
X219370184Y-76402262D01*
X219497738Y-76529816D01*
X219549761Y-76562504D01*
X219618218Y-76605519D01*
X219650478Y-76625789D01*
X219735793Y-76655642D01*
X219820745Y-76685368D01*
X219820750Y-76685369D01*
X219999996Y-76705565D01*
X220000000Y-76705565D01*
X220000004Y-76705565D01*
X220179249Y-76685369D01*
X220179252Y-76685368D01*
X220179255Y-76685368D01*
X220349522Y-76625789D01*
X220502262Y-76529816D01*
X220629816Y-76402262D01*
X220725789Y-76249522D01*
X220785368Y-76079255D01*
X220793276Y-76009075D01*
X220801511Y-75935981D01*
X220828577Y-75871567D01*
X220837040Y-75862193D01*
X221558506Y-75140728D01*
X221558511Y-75140724D01*
X221568714Y-75130520D01*
X221568716Y-75130520D01*
X221680520Y-75018716D01*
X221749516Y-74899211D01*
X221759577Y-74881785D01*
X221800500Y-74729058D01*
X221800500Y-74570943D01*
X221800500Y-72707412D01*
X221820185Y-72640373D01*
X221827555Y-72630097D01*
X221829810Y-72627267D01*
X221829816Y-72627262D01*
X221925789Y-72474522D01*
X221985368Y-72304255D01*
X221990638Y-72257482D01*
X222005565Y-72125003D01*
X222005565Y-72124996D01*
X221985369Y-71945750D01*
X221985368Y-71945745D01*
X221925788Y-71775476D01*
X221829815Y-71622737D01*
X221702262Y-71495184D01*
X221549521Y-71399210D01*
X221377134Y-71338890D01*
X221320358Y-71298168D01*
X221294610Y-71233216D01*
X221301048Y-71180890D01*
X221310366Y-71154260D01*
X221310368Y-71154255D01*
X221330565Y-70975000D01*
X221325450Y-70929606D01*
X221310369Y-70795750D01*
X221310368Y-70795745D01*
X221250788Y-70625476D01*
X221154815Y-70472737D01*
X221027262Y-70345184D01*
X220874523Y-70249211D01*
X220704254Y-70189631D01*
X220704249Y-70189630D01*
X220525004Y-70169435D01*
X220524996Y-70169435D01*
X220345750Y-70189630D01*
X220345745Y-70189631D01*
X220175476Y-70249211D01*
X220022737Y-70345184D01*
X219895184Y-70472737D01*
X219799211Y-70625476D01*
X219739631Y-70795745D01*
X219739630Y-70795750D01*
X219719435Y-70974996D01*
X219719435Y-70975003D01*
X219739630Y-71154249D01*
X219739631Y-71154254D01*
X219799211Y-71324523D01*
X219895185Y-71477263D01*
X219897445Y-71480097D01*
X219898334Y-71482275D01*
X219898889Y-71483158D01*
X219898734Y-71483255D01*
X219923855Y-71544783D01*
X219924500Y-71557412D01*
X219924500Y-73099901D01*
X219904815Y-73166940D01*
X219888181Y-73187582D01*
X219062812Y-74012950D01*
X219001489Y-74046435D01*
X218989014Y-74048489D01*
X218845750Y-74064630D01*
X218845745Y-74064631D01*
X218675476Y-74124211D01*
X218522737Y-74220184D01*
X218395184Y-74347737D01*
X218299211Y-74500476D01*
X218239631Y-74670745D01*
X218239630Y-74670750D01*
X218219435Y-74849996D01*
X218219435Y-74850003D01*
X216219239Y-74850003D01*
X214233665Y-72864430D01*
X214200181Y-72803108D01*
X214205165Y-72733416D01*
X214247037Y-72677483D01*
X214312501Y-72653066D01*
X214332144Y-72653221D01*
X214360000Y-72655659D01*
X214595408Y-72635063D01*
X214823663Y-72573903D01*
X215037830Y-72474035D01*
X215231401Y-72338495D01*
X215353329Y-72216566D01*
X215414648Y-72183084D01*
X215484340Y-72188068D01*
X215540274Y-72229939D01*
X215557189Y-72260917D01*
X215606202Y-72392328D01*
X215606206Y-72392335D01*
X215692452Y-72507544D01*
X215692455Y-72507547D01*
X215807664Y-72593793D01*
X215807671Y-72593797D01*
X215942517Y-72644091D01*
X215942516Y-72644091D01*
X215949444Y-72644835D01*
X216002127Y-72650500D01*
X217797872Y-72650499D01*
X217857483Y-72644091D01*
X217992331Y-72593796D01*
X218107546Y-72507546D01*
X218193796Y-72392331D01*
X218244091Y-72257483D01*
X218250500Y-72197873D01*
X218250499Y-70850095D01*
X218270184Y-70783057D01*
X218286813Y-70762420D01*
X219762416Y-69286819D01*
X219823739Y-69253334D01*
X219850097Y-69250500D01*
X226895796Y-69250500D01*
X226962835Y-69270185D01*
X227008590Y-69322989D01*
X227016687Y-69346905D01*
X227022197Y-69371045D01*
X227022197Y-69371047D01*
X227022198Y-69371048D01*
X227118665Y-69646738D01*
X227245393Y-69909890D01*
X227267040Y-69944341D01*
X227400792Y-70157206D01*
X227582902Y-70385565D01*
X227789435Y-70592098D01*
X228017794Y-70774208D01*
X228265107Y-70929605D01*
X228528263Y-71056335D01*
X228803955Y-71152803D01*
X229088714Y-71217798D01*
X229088723Y-71217799D01*
X229088728Y-71217800D01*
X229282210Y-71239599D01*
X229378953Y-71250499D01*
X229378956Y-71250500D01*
X229378959Y-71250500D01*
X233871044Y-71250500D01*
X233871045Y-71250499D01*
X234024444Y-71233216D01*
X234161271Y-71217800D01*
X234161274Y-71217799D01*
X234161286Y-71217798D01*
X234446045Y-71152803D01*
X234721737Y-71056335D01*
X234984893Y-70929605D01*
X235232206Y-70774208D01*
X235460565Y-70592098D01*
X235667098Y-70385565D01*
X235849208Y-70157206D01*
X236004605Y-69909893D01*
X236131335Y-69646737D01*
X236227803Y-69371045D01*
X236292798Y-69086286D01*
X236325500Y-68796041D01*
X236325500Y-68503959D01*
X236305082Y-68322738D01*
X236292800Y-68213728D01*
X236292799Y-68213723D01*
X236292798Y-68213714D01*
X236227803Y-67928955D01*
X236131335Y-67653263D01*
X236004605Y-67390107D01*
X235849208Y-67142794D01*
X235667098Y-66914435D01*
X235460565Y-66707902D01*
X235232206Y-66525792D01*
X234984893Y-66370395D01*
X234984890Y-66370393D01*
X234721738Y-66243665D01*
X234446046Y-66147197D01*
X234446044Y-66147196D01*
X234226280Y-66097036D01*
X234161286Y-66082202D01*
X234161283Y-66082201D01*
X234161271Y-66082199D01*
X233871047Y-66049500D01*
X233871041Y-66049500D01*
X229378959Y-66049500D01*
X229378952Y-66049500D01*
X229088728Y-66082199D01*
X229088714Y-66082202D01*
X228803955Y-66147196D01*
X228803953Y-66147197D01*
X228528261Y-66243665D01*
X228265109Y-66370393D01*
X228017795Y-66525791D01*
X227789435Y-66707901D01*
X227582901Y-66914435D01*
X227400791Y-67142795D01*
X227245393Y-67390109D01*
X227118665Y-67653261D01*
X227022198Y-67928951D01*
X227016687Y-67953095D01*
X226982577Y-68014072D01*
X226920915Y-68046929D01*
X226895796Y-68049500D01*
X222516811Y-68049500D01*
X222449772Y-68029815D01*
X222404017Y-67977011D01*
X222394073Y-67907853D01*
X222399770Y-67884545D01*
X222410366Y-67854262D01*
X222410369Y-67854249D01*
X222430565Y-67675003D01*
X222430565Y-67674996D01*
X222410369Y-67495750D01*
X222410368Y-67495745D01*
X222350789Y-67325478D01*
X222254816Y-67172738D01*
X222254814Y-67172736D01*
X222254813Y-67172734D01*
X222252550Y-67169896D01*
X222251659Y-67167715D01*
X222251111Y-67166842D01*
X222251264Y-67166745D01*
X222226144Y-67105209D01*
X222225500Y-67092587D01*
X222225500Y-66725945D01*
X222225500Y-66725943D01*
X222184577Y-66573216D01*
X222157197Y-66525792D01*
X222105524Y-66436290D01*
X222105521Y-66436286D01*
X222105520Y-66436284D01*
X221993716Y-66324480D01*
X221993715Y-66324479D01*
X221989385Y-66320149D01*
X221989374Y-66320139D01*
X221731216Y-66061981D01*
X221697731Y-66000658D01*
X221702715Y-65930966D01*
X221744587Y-65875033D01*
X221810051Y-65850616D01*
X221818897Y-65850300D01*
X221849346Y-65850300D01*
X221849347Y-65850300D01*
X222084784Y-65811012D01*
X222310545Y-65733509D01*
X222520469Y-65619903D01*
X222708832Y-65473295D01*
X222870494Y-65297682D01*
X223001047Y-65097856D01*
X223096929Y-64879267D01*
X223155525Y-64647878D01*
X223155532Y-64647796D01*
X223175236Y-64410005D01*
X223175236Y-64409994D01*
X223155526Y-64172130D01*
X223155524Y-64172118D01*
X223096929Y-63940732D01*
X223013485Y-63750500D01*
X223001047Y-63722144D01*
X222870494Y-63522318D01*
X222708832Y-63346705D01*
X222520469Y-63200097D01*
X222408049Y-63139258D01*
X222310546Y-63086491D01*
X222310541Y-63086489D01*
X222084786Y-63008988D01*
X221927826Y-62982796D01*
X221849347Y-62969700D01*
X221610653Y-62969700D01*
X221551793Y-62979522D01*
X221375213Y-63008988D01*
X221149458Y-63086489D01*
X221149453Y-63086491D01*
X220939529Y-63200098D01*
X220751169Y-63346704D01*
X220589504Y-63522319D01*
X220583808Y-63531039D01*
X220530661Y-63576395D01*
X220461430Y-63585818D01*
X220398094Y-63556315D01*
X220376192Y-63531039D01*
X220370495Y-63522319D01*
X220285146Y-63429605D01*
X220208832Y-63346705D01*
X220020469Y-63200097D01*
X219908049Y-63139258D01*
X219810546Y-63086491D01*
X219810541Y-63086489D01*
X219584786Y-63008988D01*
X219427826Y-62982796D01*
X219349347Y-62969700D01*
X219110653Y-62969700D01*
X219051793Y-62979522D01*
X218875213Y-63008988D01*
X218649458Y-63086489D01*
X218649453Y-63086491D01*
X218439529Y-63200098D01*
X218251169Y-63346704D01*
X218089504Y-63522319D01*
X218083808Y-63531039D01*
X218030661Y-63576395D01*
X217961430Y-63585818D01*
X217898094Y-63556315D01*
X217876192Y-63531039D01*
X217870495Y-63522319D01*
X217785146Y-63429605D01*
X217708832Y-63346705D01*
X217520469Y-63200097D01*
X217408049Y-63139258D01*
X217310546Y-63086491D01*
X217310541Y-63086489D01*
X217084786Y-63008988D01*
X216927826Y-62982796D01*
X216849347Y-62969700D01*
X216610653Y-62969700D01*
X216551793Y-62979522D01*
X216375213Y-63008988D01*
X216149458Y-63086489D01*
X216149453Y-63086491D01*
X215939529Y-63200098D01*
X215751169Y-63346704D01*
X215589504Y-63522319D01*
X215583808Y-63531039D01*
X215530661Y-63576395D01*
X215461430Y-63585818D01*
X215398094Y-63556315D01*
X215376192Y-63531039D01*
X215370495Y-63522319D01*
X215285146Y-63429605D01*
X215208832Y-63346705D01*
X215020469Y-63200097D01*
X214908049Y-63139258D01*
X214810546Y-63086491D01*
X214810541Y-63086489D01*
X214584786Y-63008988D01*
X214427826Y-62982796D01*
X214349347Y-62969700D01*
X214110653Y-62969700D01*
X214051793Y-62979522D01*
X213875213Y-63008988D01*
X213649458Y-63086489D01*
X213649453Y-63086491D01*
X213439529Y-63200098D01*
X213251169Y-63346704D01*
X213089504Y-63522319D01*
X213083808Y-63531039D01*
X213030661Y-63576395D01*
X212961430Y-63585818D01*
X212898094Y-63556315D01*
X212876192Y-63531039D01*
X212870495Y-63522319D01*
X212785146Y-63429605D01*
X212708832Y-63346705D01*
X212520469Y-63200097D01*
X212408049Y-63139258D01*
X212310546Y-63086491D01*
X212310541Y-63086489D01*
X212084786Y-63008988D01*
X211927826Y-62982796D01*
X211849347Y-62969700D01*
X211610653Y-62969700D01*
X211551793Y-62979522D01*
X211375213Y-63008988D01*
X211254963Y-63050270D01*
X211185164Y-63053420D01*
X211124743Y-63018334D01*
X211092882Y-62956151D01*
X211090700Y-62932989D01*
X211090700Y-60759259D01*
X211090701Y-60759246D01*
X211090701Y-60591145D01*
X211090701Y-60591143D01*
X211049777Y-60438415D01*
X211020839Y-60388295D01*
X210970720Y-60301484D01*
X210858916Y-60189680D01*
X210858915Y-60189679D01*
X210854585Y-60185349D01*
X210854574Y-60185339D01*
X209231216Y-58561981D01*
X209197731Y-58500658D01*
X209202715Y-58430966D01*
X209244587Y-58375033D01*
X209310051Y-58350616D01*
X209318897Y-58350300D01*
X209349346Y-58350300D01*
X209349347Y-58350300D01*
X209584784Y-58311012D01*
X209810545Y-58233509D01*
X210020469Y-58119903D01*
X210208832Y-57973295D01*
X210370494Y-57797682D01*
X210376190Y-57788964D01*
X210429335Y-57743606D01*
X210498566Y-57734181D01*
X210561902Y-57763681D01*
X210583810Y-57788964D01*
X210589503Y-57797679D01*
X210589506Y-57797682D01*
X210751168Y-57973295D01*
X210939531Y-58119903D01*
X211149455Y-58233509D01*
X211375216Y-58311012D01*
X211610653Y-58350300D01*
X211610654Y-58350300D01*
X211849346Y-58350300D01*
X211849347Y-58350300D01*
X212084784Y-58311012D01*
X212310545Y-58233509D01*
X212520469Y-58119903D01*
X212708832Y-57973295D01*
X212870494Y-57797682D01*
X212876190Y-57788964D01*
X212929335Y-57743606D01*
X212998566Y-57734181D01*
X213061902Y-57763681D01*
X213083810Y-57788964D01*
X213089503Y-57797679D01*
X213089506Y-57797682D01*
X213251168Y-57973295D01*
X213439531Y-58119903D01*
X213649455Y-58233509D01*
X213875216Y-58311012D01*
X214110653Y-58350300D01*
X214110654Y-58350300D01*
X214349346Y-58350300D01*
X214349347Y-58350300D01*
X214584784Y-58311012D01*
X214810545Y-58233509D01*
X215020469Y-58119903D01*
X215208832Y-57973295D01*
X215370494Y-57797682D01*
X215376190Y-57788964D01*
X215429335Y-57743606D01*
X215498566Y-57734181D01*
X215561902Y-57763681D01*
X215583810Y-57788964D01*
X215589503Y-57797679D01*
X215589506Y-57797682D01*
X215751168Y-57973295D01*
X215939531Y-58119903D01*
X216149455Y-58233509D01*
X216375216Y-58311012D01*
X216610653Y-58350300D01*
X216610654Y-58350300D01*
X216849346Y-58350300D01*
X216849347Y-58350300D01*
X217084784Y-58311012D01*
X217310545Y-58233509D01*
X217520469Y-58119903D01*
X217708832Y-57973295D01*
X217870494Y-57797682D01*
X217876190Y-57788964D01*
X217929335Y-57743606D01*
X217998566Y-57734181D01*
X218061902Y-57763681D01*
X218083810Y-57788964D01*
X218089503Y-57797679D01*
X218089506Y-57797682D01*
X218251168Y-57973295D01*
X218439531Y-58119903D01*
X218649455Y-58233509D01*
X218875216Y-58311012D01*
X219110653Y-58350300D01*
X219110654Y-58350300D01*
X219349346Y-58350300D01*
X219349347Y-58350300D01*
X219584784Y-58311012D01*
X219810545Y-58233509D01*
X220020469Y-58119903D01*
X220208832Y-57973295D01*
X220370494Y-57797682D01*
X220376190Y-57788964D01*
X220429335Y-57743606D01*
X220498566Y-57734181D01*
X220561902Y-57763681D01*
X220583810Y-57788964D01*
X220589503Y-57797679D01*
X220589506Y-57797682D01*
X220751168Y-57973295D01*
X220939531Y-58119903D01*
X221149455Y-58233509D01*
X221375216Y-58311012D01*
X221610653Y-58350300D01*
X221610654Y-58350300D01*
X221849346Y-58350300D01*
X221849347Y-58350300D01*
X222084784Y-58311012D01*
X222310545Y-58233509D01*
X222520469Y-58119903D01*
X222708832Y-57973295D01*
X222870494Y-57797682D01*
X223001047Y-57597856D01*
X223096929Y-57379267D01*
X223155525Y-57147878D01*
X223175236Y-56910000D01*
X223171875Y-56869439D01*
X223155526Y-56672130D01*
X223155524Y-56672118D01*
X223096929Y-56440732D01*
X223001048Y-56222147D01*
X223001047Y-56222144D01*
X222870494Y-56022318D01*
X222708832Y-55846705D01*
X222520469Y-55700097D01*
X222412320Y-55641569D01*
X222310546Y-55586491D01*
X222310541Y-55586489D01*
X222084786Y-55508988D01*
X221927826Y-55482796D01*
X221849347Y-55469700D01*
X221610653Y-55469700D01*
X221551793Y-55479522D01*
X221375213Y-55508988D01*
X221149458Y-55586489D01*
X221149453Y-55586491D01*
X220939529Y-55700098D01*
X220751169Y-55846704D01*
X220589504Y-56022319D01*
X220583808Y-56031039D01*
X220530661Y-56076395D01*
X220461430Y-56085818D01*
X220398094Y-56056315D01*
X220376192Y-56031039D01*
X220370495Y-56022319D01*
X220348937Y-55998901D01*
X220208832Y-55846705D01*
X220020469Y-55700097D01*
X219912320Y-55641569D01*
X219810546Y-55586491D01*
X219810541Y-55586489D01*
X219584786Y-55508988D01*
X219427826Y-55482796D01*
X219349347Y-55469700D01*
X219110653Y-55469700D01*
X219051793Y-55479522D01*
X218875213Y-55508988D01*
X218649458Y-55586489D01*
X218649453Y-55586491D01*
X218439529Y-55700098D01*
X218251169Y-55846704D01*
X218089504Y-56022319D01*
X218083808Y-56031039D01*
X218030661Y-56076395D01*
X217961430Y-56085818D01*
X217898094Y-56056315D01*
X217876192Y-56031039D01*
X217870495Y-56022319D01*
X217848937Y-55998901D01*
X217708832Y-55846705D01*
X217520469Y-55700097D01*
X217412320Y-55641569D01*
X217310546Y-55586491D01*
X217310541Y-55586489D01*
X217084786Y-55508988D01*
X216927826Y-55482796D01*
X216849347Y-55469700D01*
X216610653Y-55469700D01*
X216551793Y-55479522D01*
X216375213Y-55508988D01*
X216149458Y-55586489D01*
X216149453Y-55586491D01*
X215939529Y-55700098D01*
X215751169Y-55846704D01*
X215589504Y-56022319D01*
X215583808Y-56031039D01*
X215530661Y-56076395D01*
X215461430Y-56085818D01*
X215398094Y-56056315D01*
X215376192Y-56031039D01*
X215370495Y-56022319D01*
X215348937Y-55998901D01*
X215208832Y-55846705D01*
X215020469Y-55700097D01*
X214912320Y-55641569D01*
X214810546Y-55586491D01*
X214810541Y-55586489D01*
X214584786Y-55508988D01*
X214427826Y-55482796D01*
X214349347Y-55469700D01*
X214110653Y-55469700D01*
X214051793Y-55479522D01*
X213875213Y-55508988D01*
X213649458Y-55586489D01*
X213649453Y-55586491D01*
X213439529Y-55700098D01*
X213251169Y-55846704D01*
X213089504Y-56022319D01*
X213083808Y-56031039D01*
X213030661Y-56076395D01*
X212961430Y-56085818D01*
X212898094Y-56056315D01*
X212876192Y-56031039D01*
X212870495Y-56022319D01*
X212848937Y-55998901D01*
X212708832Y-55846705D01*
X212520469Y-55700097D01*
X212412320Y-55641569D01*
X212310546Y-55586491D01*
X212310541Y-55586489D01*
X212084786Y-55508988D01*
X211927826Y-55482796D01*
X211849347Y-55469700D01*
X211610653Y-55469700D01*
X211551793Y-55479522D01*
X211375213Y-55508988D01*
X211149458Y-55586489D01*
X211149453Y-55586491D01*
X210939529Y-55700098D01*
X210751169Y-55846704D01*
X210589504Y-56022319D01*
X210583808Y-56031039D01*
X210530661Y-56076395D01*
X210461430Y-56085818D01*
X210398094Y-56056315D01*
X210376192Y-56031039D01*
X210370495Y-56022319D01*
X210348937Y-55998901D01*
X210208832Y-55846705D01*
X210020469Y-55700097D01*
X209912320Y-55641569D01*
X209810546Y-55586491D01*
X209810541Y-55586489D01*
X209584786Y-55508988D01*
X209427826Y-55482796D01*
X209349347Y-55469700D01*
X209110653Y-55469700D01*
X209051793Y-55479522D01*
X208875213Y-55508988D01*
X208649458Y-55586489D01*
X208649453Y-55586491D01*
X208439529Y-55700098D01*
X208251169Y-55846704D01*
X208089504Y-56022319D01*
X208083808Y-56031039D01*
X208030661Y-56076395D01*
X207961430Y-56085818D01*
X207898094Y-56056315D01*
X207876192Y-56031039D01*
X207870495Y-56022319D01*
X207848937Y-55998901D01*
X207708832Y-55846705D01*
X207520469Y-55700097D01*
X207412320Y-55641569D01*
X207310546Y-55586491D01*
X207310541Y-55586489D01*
X207084786Y-55508988D01*
X206927826Y-55482796D01*
X206849347Y-55469700D01*
X206610653Y-55469700D01*
X206551793Y-55479522D01*
X206375213Y-55508988D01*
X206149458Y-55586489D01*
X206149453Y-55586491D01*
X205939529Y-55700098D01*
X205751169Y-55846704D01*
X205589506Y-56022317D01*
X205458951Y-56222147D01*
X205363070Y-56440732D01*
X205304475Y-56672118D01*
X205304473Y-56672130D01*
X205284764Y-56909994D01*
X205284764Y-56910005D01*
X205304473Y-57147869D01*
X205304475Y-57147881D01*
X205363070Y-57379267D01*
X205443101Y-57561718D01*
X205458953Y-57597856D01*
X205589506Y-57797682D01*
X205751168Y-57973295D01*
X205939531Y-58119903D01*
X206149455Y-58233509D01*
X206375216Y-58311012D01*
X206610653Y-58350300D01*
X206610654Y-58350300D01*
X206849346Y-58350300D01*
X206849347Y-58350300D01*
X207084784Y-58311012D01*
X207158223Y-58285799D01*
X207228019Y-58282650D01*
X207286165Y-58315400D01*
X209853381Y-60882616D01*
X209886866Y-60943939D01*
X209889700Y-60970297D01*
X209889700Y-62939992D01*
X209870015Y-63007031D01*
X209817211Y-63052786D01*
X209748053Y-63062730D01*
X209725438Y-63057273D01*
X209584788Y-63008988D01*
X209396434Y-62977557D01*
X209349347Y-62969700D01*
X209110653Y-62969700D01*
X209051793Y-62979522D01*
X208875213Y-63008988D01*
X208649458Y-63086489D01*
X208649453Y-63086491D01*
X208439529Y-63200098D01*
X208251167Y-63346705D01*
X208251165Y-63346707D01*
X208089508Y-63522315D01*
X208089504Y-63522321D01*
X208081973Y-63533847D01*
X208028824Y-63579201D01*
X207965377Y-63589359D01*
X207909942Y-63583610D01*
X207219494Y-64274057D01*
X207203381Y-64213919D01*
X207136502Y-64098080D01*
X207041920Y-64003498D01*
X206926081Y-63936619D01*
X206865941Y-63920504D01*
X207557158Y-63229286D01*
X207557158Y-63229284D01*
X207520203Y-63200521D01*
X207520192Y-63200514D01*
X207310349Y-63086953D01*
X207310339Y-63086948D01*
X207084664Y-63009474D01*
X206849304Y-62970200D01*
X206610696Y-62970200D01*
X206375335Y-63009474D01*
X206149660Y-63086948D01*
X206149655Y-63086950D01*
X205939804Y-63200516D01*
X205902839Y-63229286D01*
X206594058Y-63920504D01*
X206533919Y-63936619D01*
X206418080Y-64003498D01*
X206323498Y-64098080D01*
X206256619Y-64213919D01*
X206240504Y-64274058D01*
X205550056Y-63583610D01*
X205459392Y-63722383D01*
X205459390Y-63722387D01*
X205363545Y-63940895D01*
X205304969Y-64172203D01*
X205304967Y-64172211D01*
X205285265Y-64409993D01*
X205285265Y-64410006D01*
X205304967Y-64647788D01*
X205304969Y-64647796D01*
X205363545Y-64879104D01*
X205459392Y-65097617D01*
X205550055Y-65236388D01*
X206240504Y-64545940D01*
X206256619Y-64606081D01*
X206323498Y-64721920D01*
X206418080Y-64816502D01*
X206533919Y-64883381D01*
X206594057Y-64899495D01*
X205902840Y-65590712D01*
X205902840Y-65590713D01*
X205939802Y-65619482D01*
X205939807Y-65619485D01*
X206149650Y-65733046D01*
X206149660Y-65733051D01*
X206375335Y-65810525D01*
X206610696Y-65849800D01*
X206849304Y-65849800D01*
X207084664Y-65810525D01*
X207310339Y-65733051D01*
X207310349Y-65733046D01*
X207520191Y-65619486D01*
X207520197Y-65619481D01*
X207557158Y-65590713D01*
X207557159Y-65590711D01*
X206865942Y-64899494D01*
X206926081Y-64883381D01*
X207041920Y-64816502D01*
X207136502Y-64721920D01*
X207203381Y-64606081D01*
X207219495Y-64545942D01*
X207909942Y-65236389D01*
X207965375Y-65230640D01*
X208034087Y-65243303D01*
X208081976Y-65286157D01*
X208089506Y-65297682D01*
X208251168Y-65473295D01*
X208439531Y-65619903D01*
X208649455Y-65733509D01*
X208875216Y-65811012D01*
X209110653Y-65850300D01*
X209110654Y-65850300D01*
X209349346Y-65850300D01*
X209349347Y-65850300D01*
X209584784Y-65811012D01*
X209725437Y-65762725D01*
X209795236Y-65759576D01*
X209855657Y-65794662D01*
X209887518Y-65856845D01*
X209889700Y-65880007D01*
X209889700Y-67343530D01*
X209889699Y-67343548D01*
X209889699Y-67509254D01*
X209889698Y-67509254D01*
X209930623Y-67661985D01*
X209959558Y-67712100D01*
X209959559Y-67712104D01*
X209959560Y-67712104D01*
X210009679Y-67798914D01*
X210009681Y-67798917D01*
X210128549Y-67917785D01*
X210128555Y-67917790D01*
X210239162Y-68028397D01*
X210272647Y-68089720D01*
X210267663Y-68159412D01*
X210239163Y-68203759D01*
X210120183Y-68322739D01*
X210024210Y-68475478D01*
X209964630Y-68645750D01*
X209948315Y-68790549D01*
X209932484Y-68838661D01*
X209915426Y-68868208D01*
X209915423Y-68868213D01*
X209894961Y-68944579D01*
X209874499Y-69020943D01*
X209874499Y-69020945D01*
X209874499Y-69189046D01*
X209874500Y-69189059D01*
X209874500Y-75392291D01*
X209854815Y-75459330D01*
X209802011Y-75505085D01*
X209736273Y-75514537D01*
X209736175Y-75515411D01*
X209550004Y-75494435D01*
X209549996Y-75494435D01*
X209370750Y-75514630D01*
X209370745Y-75514631D01*
X209200476Y-75574211D01*
X209047737Y-75670184D01*
X208920184Y-75797737D01*
X208824211Y-75950476D01*
X208764631Y-76120745D01*
X208764630Y-76120750D01*
X208744435Y-76299996D01*
X208744435Y-76300003D01*
X208764630Y-76479249D01*
X208764631Y-76479254D01*
X208824211Y-76649523D01*
X208920185Y-76802263D01*
X208922445Y-76805097D01*
X208923334Y-76807275D01*
X208923889Y-76808158D01*
X208923734Y-76808255D01*
X208948855Y-76869783D01*
X208949500Y-76882412D01*
X208949500Y-77853044D01*
X208929815Y-77920083D01*
X208877011Y-77965838D01*
X208839384Y-77976264D01*
X208720749Y-77989630D01*
X208720745Y-77989631D01*
X208550476Y-78049211D01*
X208397737Y-78145184D01*
X208270184Y-78272737D01*
X208174210Y-78425478D01*
X208114630Y-78595750D01*
X208098943Y-78734982D01*
X208092404Y-78760333D01*
X208092527Y-78760366D01*
X208090424Y-78768212D01*
X208090423Y-78768215D01*
X208049499Y-78920943D01*
X208049499Y-78920945D01*
X208049499Y-79089046D01*
X208049500Y-79089059D01*
X208049500Y-84392587D01*
X208029815Y-84459626D01*
X208022450Y-84469896D01*
X208020186Y-84472734D01*
X207924211Y-84625476D01*
X207864631Y-84795745D01*
X207864630Y-84795750D01*
X207844435Y-84974996D01*
X207844435Y-84975003D01*
X207864630Y-85154249D01*
X207864631Y-85154254D01*
X207924211Y-85324523D01*
X207949348Y-85364528D01*
X207968348Y-85431765D01*
X207947980Y-85498600D01*
X207894712Y-85543814D01*
X207844354Y-85554500D01*
X207616692Y-85554500D01*
X207549653Y-85534815D01*
X207515119Y-85501625D01*
X207391112Y-85324523D01*
X207385045Y-85315858D01*
X207224141Y-85154954D01*
X207037734Y-85024432D01*
X207037728Y-85024429D01*
X206979725Y-84997382D01*
X206927285Y-84951210D01*
X206908133Y-84884017D01*
X206928348Y-84817135D01*
X206979725Y-84772618D01*
X206980319Y-84772341D01*
X207037734Y-84745568D01*
X207224139Y-84615047D01*
X207385047Y-84454139D01*
X207515568Y-84267734D01*
X207611739Y-84061496D01*
X207670635Y-83841692D01*
X207690468Y-83615000D01*
X207690414Y-83614388D01*
X207681416Y-83511535D01*
X207670635Y-83388308D01*
X207624171Y-83214901D01*
X207611741Y-83168511D01*
X207611738Y-83168502D01*
X207597406Y-83137768D01*
X207515568Y-82962266D01*
X207385047Y-82775861D01*
X207385045Y-82775858D01*
X207224143Y-82614956D01*
X207199536Y-82597726D01*
X207155912Y-82543149D01*
X207148719Y-82473650D01*
X207180241Y-82411296D01*
X207240471Y-82375882D01*
X207257404Y-82372861D01*
X207292483Y-82369091D01*
X207427331Y-82318796D01*
X207542546Y-82232546D01*
X207628796Y-82117331D01*
X207679091Y-81982483D01*
X207685500Y-81922873D01*
X207685499Y-80227128D01*
X207679091Y-80167517D01*
X207661279Y-80119761D01*
X207628797Y-80032671D01*
X207628793Y-80032664D01*
X207542547Y-79917455D01*
X207542544Y-79917452D01*
X207427335Y-79831206D01*
X207427328Y-79831202D01*
X207292482Y-79780908D01*
X207292483Y-79780908D01*
X207232883Y-79774501D01*
X207232881Y-79774500D01*
X207232873Y-79774500D01*
X207232864Y-79774500D01*
X205537129Y-79774500D01*
X205537123Y-79774501D01*
X205477516Y-79780908D01*
X205342671Y-79831202D01*
X205342664Y-79831206D01*
X205227455Y-79917452D01*
X205227452Y-79917455D01*
X205141206Y-80032664D01*
X205141202Y-80032671D01*
X205090908Y-80167517D01*
X205087753Y-80196869D01*
X205084501Y-80227123D01*
X205084500Y-80227135D01*
X205084500Y-81922870D01*
X205084501Y-81922876D01*
X205090908Y-81982483D01*
X205141202Y-82117328D01*
X205141206Y-82117335D01*
X205227452Y-82232544D01*
X205227455Y-82232547D01*
X205342664Y-82318793D01*
X205342671Y-82318797D01*
X205387618Y-82335561D01*
X205477517Y-82369091D01*
X205512596Y-82372862D01*
X205577144Y-82399599D01*
X205616993Y-82456991D01*
X205619488Y-82526816D01*
X205583836Y-82586905D01*
X205570464Y-82597725D01*
X205545858Y-82614954D01*
X205384954Y-82775858D01*
X205254432Y-82962265D01*
X205254431Y-82962267D01*
X205158261Y-83168502D01*
X205158258Y-83168511D01*
X205099366Y-83388302D01*
X205099364Y-83388313D01*
X205079532Y-83614998D01*
X205079532Y-83615001D01*
X205099364Y-83841686D01*
X205099366Y-83841697D01*
X205158258Y-84061488D01*
X205158261Y-84061497D01*
X205254431Y-84267732D01*
X205254432Y-84267734D01*
X205384954Y-84454141D01*
X205545858Y-84615045D01*
X205545861Y-84615047D01*
X205732266Y-84745568D01*
X205789681Y-84772341D01*
X205790275Y-84772618D01*
X205842714Y-84818791D01*
X205861866Y-84885984D01*
X205841650Y-84952865D01*
X205790275Y-84997382D01*
X205732267Y-85024431D01*
X205732265Y-85024432D01*
X205545858Y-85154954D01*
X205384954Y-85315858D01*
X205254432Y-85502265D01*
X205254431Y-85502267D01*
X205158261Y-85708502D01*
X205158258Y-85708511D01*
X205099366Y-85928302D01*
X205099364Y-85928313D01*
X205079532Y-86154998D01*
X205079532Y-86155001D01*
X205099364Y-86381686D01*
X205099366Y-86381697D01*
X205158258Y-86601488D01*
X205158261Y-86601497D01*
X205254431Y-86807732D01*
X205254432Y-86807734D01*
X205384954Y-86994141D01*
X205545858Y-87155045D01*
X205545861Y-87155047D01*
X205732266Y-87285568D01*
X205790865Y-87312893D01*
X205843305Y-87359065D01*
X205862457Y-87426258D01*
X205842242Y-87493139D01*
X205790867Y-87537657D01*
X205732515Y-87564867D01*
X205546179Y-87695342D01*
X205385342Y-87856179D01*
X205254865Y-88042517D01*
X205158734Y-88248673D01*
X205158730Y-88248682D01*
X205106127Y-88444999D01*
X205106128Y-88445000D01*
X205951988Y-88445000D01*
X205919075Y-88502007D01*
X205885000Y-88629174D01*
X205885000Y-88760826D01*
X205919075Y-88887993D01*
X205951988Y-88945000D01*
X205106128Y-88945000D01*
X205158730Y-89141317D01*
X205158734Y-89141326D01*
X205254865Y-89347482D01*
X205385342Y-89533820D01*
X205546179Y-89694657D01*
X205732518Y-89825134D01*
X205732520Y-89825135D01*
X205790865Y-89852342D01*
X205843305Y-89898514D01*
X205862457Y-89965707D01*
X205842242Y-90032589D01*
X205790867Y-90077105D01*
X205732268Y-90104431D01*
X205732264Y-90104433D01*
X205545858Y-90234954D01*
X205384954Y-90395858D01*
X205254432Y-90582265D01*
X205254431Y-90582267D01*
X205158261Y-90788502D01*
X205158258Y-90788511D01*
X205099366Y-91008302D01*
X205099364Y-91008313D01*
X205079532Y-91234998D01*
X205079532Y-91235001D01*
X205099364Y-91461686D01*
X205099366Y-91461697D01*
X205158258Y-91681488D01*
X205158261Y-91681497D01*
X205254431Y-91887732D01*
X205254432Y-91887734D01*
X205384954Y-92074141D01*
X205545858Y-92235045D01*
X205545861Y-92235047D01*
X205732266Y-92365568D01*
X205790275Y-92392618D01*
X205842714Y-92438791D01*
X205861866Y-92505984D01*
X205841650Y-92572865D01*
X205790275Y-92617382D01*
X205732267Y-92644431D01*
X205732265Y-92644432D01*
X205545858Y-92774954D01*
X205384954Y-92935858D01*
X205254432Y-93122265D01*
X205254431Y-93122267D01*
X205158261Y-93328502D01*
X205158258Y-93328511D01*
X205099366Y-93548302D01*
X205099364Y-93548313D01*
X205079532Y-93774998D01*
X205079532Y-93775001D01*
X205099364Y-94001686D01*
X205099366Y-94001697D01*
X205158258Y-94221488D01*
X205158261Y-94221497D01*
X205254431Y-94427732D01*
X205254432Y-94427734D01*
X205384954Y-94614141D01*
X205545858Y-94775045D01*
X205585441Y-94802761D01*
X205732266Y-94905568D01*
X205790275Y-94932618D01*
X205842714Y-94978791D01*
X205861866Y-95045984D01*
X205841650Y-95112865D01*
X205790275Y-95157382D01*
X205732267Y-95184431D01*
X205732265Y-95184432D01*
X205545858Y-95314954D01*
X205384954Y-95475858D01*
X205254432Y-95662265D01*
X205254431Y-95662267D01*
X205158261Y-95868502D01*
X205158258Y-95868511D01*
X205099366Y-96088302D01*
X205099364Y-96088313D01*
X205079532Y-96314998D01*
X205079532Y-96315001D01*
X205099364Y-96541686D01*
X205099366Y-96541697D01*
X205158258Y-96761488D01*
X205158261Y-96761497D01*
X205254431Y-96967732D01*
X205254432Y-96967734D01*
X205384954Y-97154141D01*
X205545858Y-97315045D01*
X205545861Y-97315047D01*
X205732266Y-97445568D01*
X205790275Y-97472618D01*
X205842714Y-97518791D01*
X205861866Y-97585984D01*
X205841650Y-97652865D01*
X205790275Y-97697382D01*
X205732267Y-97724431D01*
X205732265Y-97724432D01*
X205545858Y-97854954D01*
X205384954Y-98015858D01*
X205254432Y-98202265D01*
X205254431Y-98202267D01*
X205158261Y-98408502D01*
X205158258Y-98408511D01*
X205099366Y-98628302D01*
X205099364Y-98628313D01*
X205079532Y-98854998D01*
X205079532Y-98855001D01*
X205099364Y-99081686D01*
X205099366Y-99081697D01*
X205158258Y-99301488D01*
X205158261Y-99301497D01*
X205254431Y-99507732D01*
X205254432Y-99507734D01*
X205384954Y-99694141D01*
X205545858Y-99855045D01*
X205545861Y-99855047D01*
X205732266Y-99985568D01*
X205785677Y-100010474D01*
X205790275Y-100012618D01*
X205842714Y-100058791D01*
X205861866Y-100125984D01*
X205841650Y-100192865D01*
X205790275Y-100237382D01*
X205732267Y-100264431D01*
X205732265Y-100264432D01*
X205545858Y-100394954D01*
X205384954Y-100555858D01*
X205254432Y-100742265D01*
X205254431Y-100742267D01*
X205158261Y-100948502D01*
X205158258Y-100948511D01*
X205099366Y-101168302D01*
X205099364Y-101168313D01*
X205079532Y-101394998D01*
X205079532Y-101395001D01*
X205099364Y-101621686D01*
X205099366Y-101621697D01*
X205138677Y-101768407D01*
X205137014Y-101838257D01*
X205097851Y-101896119D01*
X205033623Y-101923623D01*
X205018902Y-101924500D01*
X182596436Y-101924500D01*
X182529397Y-101904815D01*
X182483642Y-101852011D01*
X182473698Y-101782853D01*
X182502723Y-101719297D01*
X182523551Y-101700182D01*
X182750860Y-101535032D01*
X182750867Y-101535027D01*
X182984586Y-101324586D01*
X183195027Y-101090867D01*
X183379885Y-100836432D01*
X183537134Y-100564068D01*
X183665053Y-100276759D01*
X183762238Y-99977652D01*
X183827626Y-99670026D01*
X183860500Y-99357250D01*
X183860500Y-99200000D01*
X183860500Y-99134108D01*
X183860500Y-79134108D01*
X183860500Y-79042750D01*
X183827626Y-78729974D01*
X183762238Y-78422348D01*
X183665053Y-78123241D01*
X183537134Y-77835932D01*
X183537131Y-77835928D01*
X183537130Y-77835924D01*
X183379887Y-77563571D01*
X183379884Y-77563566D01*
X183195032Y-77309139D01*
X183195025Y-77309130D01*
X183097214Y-77200500D01*
X182984586Y-77075414D01*
X182840774Y-76945925D01*
X182750869Y-76864974D01*
X182750860Y-76864967D01*
X182496433Y-76680115D01*
X182496428Y-76680112D01*
X182224075Y-76522869D01*
X182224068Y-76522866D01*
X182127790Y-76480000D01*
X181936759Y-76394947D01*
X181936754Y-76394945D01*
X181936751Y-76394944D01*
X181637649Y-76297761D01*
X181637647Y-76297760D01*
X181372415Y-76241384D01*
X181330026Y-76232374D01*
X181017250Y-76199500D01*
X180925892Y-76199500D01*
X98800892Y-76199500D01*
X98735000Y-76199500D01*
X98577750Y-76199500D01*
X98264974Y-76232374D01*
X98264970Y-76232374D01*
X98264968Y-76232375D01*
X97957352Y-76297760D01*
X97957350Y-76297761D01*
X97658248Y-76394944D01*
X97658241Y-76394946D01*
X97658241Y-76394947D01*
X97626287Y-76409174D01*
X97370931Y-76522866D01*
X97370924Y-76522869D01*
X97098571Y-76680112D01*
X97098566Y-76680115D01*
X96844139Y-76864967D01*
X96844130Y-76864974D01*
X96610414Y-77075414D01*
X96399974Y-77309130D01*
X96399967Y-77309139D01*
X96215115Y-77563566D01*
X96215112Y-77563571D01*
X96057869Y-77835924D01*
X96057866Y-77835931D01*
X96057866Y-77835932D01*
X95942467Y-78095122D01*
X95929944Y-78123248D01*
X95832761Y-78422350D01*
X95832760Y-78422352D01*
X95773285Y-78702163D01*
X95767374Y-78729974D01*
X95734500Y-79042750D01*
X95734500Y-79134108D01*
X95734500Y-99134108D01*
X95734500Y-99200000D01*
X95734500Y-99357250D01*
X95758259Y-99583302D01*
X95767375Y-99670031D01*
X95832760Y-99977647D01*
X95832761Y-99977649D01*
X95925941Y-100264432D01*
X95929947Y-100276759D01*
X96002520Y-100439759D01*
X96057866Y-100564068D01*
X96057869Y-100564075D01*
X96215112Y-100836428D01*
X96215115Y-100836433D01*
X96399967Y-101090860D01*
X96399974Y-101090869D01*
X96474950Y-101174138D01*
X96610414Y-101324586D01*
X96704249Y-101409075D01*
X96844130Y-101535025D01*
X96844139Y-101535032D01*
X97071449Y-101700182D01*
X97114115Y-101755512D01*
X97120094Y-101825125D01*
X97087488Y-101886920D01*
X97026650Y-101921277D01*
X96998564Y-101924500D01*
X79050097Y-101924500D01*
X78983058Y-101904815D01*
X78962416Y-101888181D01*
X76593359Y-99519124D01*
X76559874Y-99457801D01*
X76564858Y-99388109D01*
X76606730Y-99332176D01*
X76647849Y-99313146D01*
X76647682Y-99312668D01*
X76652607Y-99310944D01*
X76653462Y-99310549D01*
X76654253Y-99310368D01*
X76654255Y-99310368D01*
X76824522Y-99250789D01*
X76977262Y-99154816D01*
X77104816Y-99027262D01*
X77200789Y-98874522D01*
X77260368Y-98704255D01*
X77268926Y-98628302D01*
X77280565Y-98525003D01*
X77280565Y-98524996D01*
X77260369Y-98345750D01*
X77260368Y-98345745D01*
X77223555Y-98240540D01*
X77200789Y-98175478D01*
X77190617Y-98159290D01*
X77127135Y-98058259D01*
X77104816Y-98022738D01*
X77102040Y-98019962D01*
X77100819Y-98017727D01*
X77100475Y-98017295D01*
X77100550Y-98017234D01*
X77068555Y-97958639D01*
X77065738Y-97934347D01*
X77064972Y-97888405D01*
X77055535Y-97322142D01*
X77074100Y-97254785D01*
X77091833Y-97232400D01*
X77749232Y-96575001D01*
X81954390Y-96575001D01*
X81974804Y-96860433D01*
X82035628Y-97140037D01*
X82035630Y-97140043D01*
X82035631Y-97140046D01*
X82104910Y-97325789D01*
X82135635Y-97408166D01*
X82272770Y-97659309D01*
X82272775Y-97659317D01*
X82444254Y-97888387D01*
X82444270Y-97888405D01*
X82646594Y-98090729D01*
X82646612Y-98090745D01*
X82875682Y-98262224D01*
X82875690Y-98262229D01*
X83126833Y-98399364D01*
X83126832Y-98399364D01*
X83126836Y-98399365D01*
X83126839Y-98399367D01*
X83394954Y-98499369D01*
X83394960Y-98499370D01*
X83394962Y-98499371D01*
X83674566Y-98560195D01*
X83674568Y-98560195D01*
X83674572Y-98560196D01*
X83928220Y-98578337D01*
X83959999Y-98580610D01*
X83960000Y-98580610D01*
X83960001Y-98580610D01*
X83988595Y-98578564D01*
X84245428Y-98560196D01*
X84407241Y-98524996D01*
X84525037Y-98499371D01*
X84525037Y-98499370D01*
X84525046Y-98499369D01*
X84793161Y-98399367D01*
X85044315Y-98262226D01*
X85273395Y-98090739D01*
X85475739Y-97888395D01*
X85647226Y-97659315D01*
X85784367Y-97408161D01*
X85884369Y-97140046D01*
X85891129Y-97108972D01*
X85945195Y-96860433D01*
X85945195Y-96860432D01*
X85945196Y-96860428D01*
X85965610Y-96575000D01*
X85945196Y-96289572D01*
X85937635Y-96254816D01*
X85884371Y-96009962D01*
X85884370Y-96009960D01*
X85884369Y-96009954D01*
X85784367Y-95741839D01*
X85781471Y-95736536D01*
X85647229Y-95490690D01*
X85647224Y-95490682D01*
X85475745Y-95261612D01*
X85475729Y-95261594D01*
X85273405Y-95059270D01*
X85273387Y-95059254D01*
X85044317Y-94887775D01*
X85044309Y-94887770D01*
X84793166Y-94750635D01*
X84793167Y-94750635D01*
X84685915Y-94710632D01*
X84525046Y-94650631D01*
X84525043Y-94650630D01*
X84525037Y-94650628D01*
X84245433Y-94589804D01*
X83960001Y-94569390D01*
X83959999Y-94569390D01*
X83674566Y-94589804D01*
X83394962Y-94650628D01*
X83126833Y-94750635D01*
X82875690Y-94887770D01*
X82875682Y-94887775D01*
X82646612Y-95059254D01*
X82646594Y-95059270D01*
X82444270Y-95261594D01*
X82444254Y-95261612D01*
X82272775Y-95490682D01*
X82272770Y-95490690D01*
X82135635Y-95741833D01*
X82035628Y-96009962D01*
X81974804Y-96289566D01*
X81954390Y-96574998D01*
X81954390Y-96575001D01*
X77749232Y-96575001D01*
X85143536Y-89180698D01*
X85204857Y-89147215D01*
X85217310Y-89145163D01*
X85304255Y-89135368D01*
X85474522Y-89075789D01*
X85627262Y-88979816D01*
X85754816Y-88852262D01*
X85850789Y-88699522D01*
X85910368Y-88529255D01*
X85916481Y-88475000D01*
X85930565Y-88350003D01*
X85930565Y-88349996D01*
X85910369Y-88170750D01*
X85910368Y-88170745D01*
X85881210Y-88087416D01*
X85850789Y-88000478D01*
X85754816Y-87847738D01*
X85627262Y-87720184D01*
X85587107Y-87694953D01*
X85474523Y-87624211D01*
X85304254Y-87564631D01*
X85304249Y-87564630D01*
X85125004Y-87544435D01*
X85124996Y-87544435D01*
X84945750Y-87564630D01*
X84945745Y-87564631D01*
X84775476Y-87624211D01*
X84622737Y-87720184D01*
X84495184Y-87847737D01*
X84399210Y-88000478D01*
X84339630Y-88170750D01*
X84329837Y-88257667D01*
X84302770Y-88322081D01*
X84294298Y-88331464D01*
X76086823Y-96538940D01*
X76076267Y-96548355D01*
X76073331Y-96550687D01*
X76022523Y-96603216D01*
X76021077Y-96604687D01*
X75969479Y-96656286D01*
X75967209Y-96659245D01*
X75966998Y-96659489D01*
X75966961Y-96659540D01*
X75965796Y-96661084D01*
X75965641Y-96661320D01*
X75963403Y-96664339D01*
X75927939Y-96728197D01*
X75926923Y-96729991D01*
X75890420Y-96793218D01*
X75888979Y-96796697D01*
X75888852Y-96796960D01*
X75888852Y-96796961D01*
X75888118Y-96798777D01*
X75888110Y-96798794D01*
X75888018Y-96799075D01*
X75886636Y-96802574D01*
X75868920Y-96873389D01*
X75868403Y-96875385D01*
X75849498Y-96945942D01*
X75849009Y-96949661D01*
X75848954Y-96949951D01*
X75848714Y-96951903D01*
X75848709Y-96951933D01*
X75848692Y-96952248D01*
X75848266Y-96955959D01*
X75849482Y-97028919D01*
X75849499Y-97030985D01*
X75849499Y-97104057D01*
X75849987Y-97107764D01*
X75851031Y-97121884D01*
X75864891Y-97953556D01*
X75846326Y-98020914D01*
X75845902Y-98021594D01*
X75749211Y-98175476D01*
X75689629Y-98345752D01*
X75689446Y-98346556D01*
X75689184Y-98347022D01*
X75687332Y-98352318D01*
X75686404Y-98351993D01*
X75655335Y-98407533D01*
X75593673Y-98440389D01*
X75524036Y-98434691D01*
X75480875Y-98406640D01*
X73512590Y-96438355D01*
X73512588Y-96438352D01*
X73393717Y-96319481D01*
X73393709Y-96319475D01*
X73281715Y-96254816D01*
X73281714Y-96254815D01*
X73281714Y-96254816D01*
X73256785Y-96240423D01*
X73104057Y-96199499D01*
X72945943Y-96199499D01*
X72938347Y-96199499D01*
X72938331Y-96199500D01*
X72422368Y-96199500D01*
X72355329Y-96179815D01*
X72309574Y-96127011D01*
X72307807Y-96122953D01*
X72295777Y-96093910D01*
X72168262Y-95885826D01*
X72168261Y-95885823D01*
X72045282Y-95741833D01*
X72009759Y-95700241D01*
X72009757Y-95700239D01*
X72009756Y-95700238D01*
X71920832Y-95624290D01*
X71882638Y-95565784D01*
X71882139Y-95495916D01*
X71919493Y-95436869D01*
X71920832Y-95435710D01*
X71970298Y-95393462D01*
X72009759Y-95359759D01*
X72168259Y-95174179D01*
X72295777Y-94966089D01*
X72389172Y-94740612D01*
X72446146Y-94503302D01*
X72465294Y-94260000D01*
X72446146Y-94016698D01*
X72389172Y-93779388D01*
X72387355Y-93775001D01*
X72295777Y-93553910D01*
X72168262Y-93345826D01*
X72168261Y-93345823D01*
X72081602Y-93244359D01*
X72009759Y-93160241D01*
X72009757Y-93160239D01*
X72009756Y-93160238D01*
X71920832Y-93084290D01*
X71882638Y-93025784D01*
X71882139Y-92955916D01*
X71919493Y-92896869D01*
X71920832Y-92895710D01*
X71952276Y-92868853D01*
X72009759Y-92819759D01*
X72168259Y-92634179D01*
X72295777Y-92426089D01*
X72389172Y-92200612D01*
X72446146Y-91963302D01*
X72465294Y-91720000D01*
X72446146Y-91476698D01*
X72389172Y-91239388D01*
X72387355Y-91235001D01*
X72295777Y-91013910D01*
X72168262Y-90805826D01*
X72168261Y-90805823D01*
X72035094Y-90649905D01*
X72009759Y-90620241D01*
X72009757Y-90620239D01*
X72009756Y-90620238D01*
X71920832Y-90544290D01*
X71882638Y-90485784D01*
X71882139Y-90415916D01*
X71919493Y-90356869D01*
X71920832Y-90355710D01*
X71952276Y-90328853D01*
X72009759Y-90279759D01*
X72168259Y-90094179D01*
X72295777Y-89886089D01*
X72389172Y-89660612D01*
X72446146Y-89423302D01*
X72465294Y-89180000D01*
X72446146Y-88936698D01*
X72389172Y-88699388D01*
X72387355Y-88695001D01*
X72295777Y-88473910D01*
X72168262Y-88265826D01*
X72168261Y-88265823D01*
X72104859Y-88191589D01*
X72009759Y-88080241D01*
X72009757Y-88080239D01*
X72009756Y-88080238D01*
X71920832Y-88004290D01*
X71882638Y-87945784D01*
X71882139Y-87875916D01*
X71919493Y-87816869D01*
X71920832Y-87815710D01*
X71952276Y-87788853D01*
X72009759Y-87739759D01*
X72168259Y-87554179D01*
X72295777Y-87346089D01*
X72389172Y-87120612D01*
X72446146Y-86883302D01*
X72465294Y-86640000D01*
X72446146Y-86396698D01*
X72389172Y-86159388D01*
X72387355Y-86155001D01*
X72295777Y-85933910D01*
X72168262Y-85725826D01*
X72168261Y-85725823D01*
X72021936Y-85554499D01*
X72009759Y-85540241D01*
X72009757Y-85540239D01*
X72009756Y-85540238D01*
X71920832Y-85464290D01*
X71882638Y-85405784D01*
X71882139Y-85335916D01*
X71919493Y-85276869D01*
X71920832Y-85275710D01*
X71952276Y-85248853D01*
X72009759Y-85199759D01*
X72168259Y-85014179D01*
X72295777Y-84806089D01*
X72389172Y-84580612D01*
X72446146Y-84343302D01*
X72465294Y-84100000D01*
X72446146Y-83856698D01*
X72389172Y-83619388D01*
X72387355Y-83615001D01*
X72295777Y-83393910D01*
X72168262Y-83185826D01*
X72168261Y-83185823D01*
X72009756Y-83000238D01*
X71920832Y-82924290D01*
X71882638Y-82865784D01*
X71882139Y-82795916D01*
X71919493Y-82736869D01*
X71920832Y-82735710D01*
X71969246Y-82694360D01*
X72009759Y-82659759D01*
X72168259Y-82474179D01*
X72295777Y-82266089D01*
X72389172Y-82040612D01*
X72446146Y-81803302D01*
X72465294Y-81560000D01*
X72446146Y-81316698D01*
X72389172Y-81079388D01*
X72387355Y-81075001D01*
X72295777Y-80853910D01*
X72180321Y-80665505D01*
X72168261Y-80645825D01*
X72168261Y-80645823D01*
X72096322Y-80561594D01*
X72009759Y-80460241D01*
X72009757Y-80460239D01*
X72009756Y-80460238D01*
X71920832Y-80384290D01*
X71882638Y-80325784D01*
X71882139Y-80255916D01*
X71919493Y-80196869D01*
X71920832Y-80195710D01*
X71953843Y-80167516D01*
X72009759Y-80119759D01*
X72168259Y-79934179D01*
X72295777Y-79726089D01*
X72389172Y-79500612D01*
X72446146Y-79263302D01*
X72465294Y-79020000D01*
X72446146Y-78776698D01*
X72389172Y-78539388D01*
X72387098Y-78534380D01*
X72295777Y-78313910D01*
X72168262Y-78105826D01*
X72168261Y-78105823D01*
X72126074Y-78056429D01*
X72009759Y-77920241D01*
X71880190Y-77809579D01*
X71866735Y-77798087D01*
X71852073Y-77775627D01*
X71039410Y-76962962D01*
X71102993Y-76945925D01*
X71217007Y-76880099D01*
X71310099Y-76787007D01*
X71375925Y-76672993D01*
X71392962Y-76609409D01*
X72171494Y-77387941D01*
X72171495Y-77387941D01*
X72295331Y-77185861D01*
X72388696Y-76960457D01*
X72445651Y-76723219D01*
X72464792Y-76480000D01*
X72445651Y-76236780D01*
X72388696Y-75999542D01*
X72295331Y-75774138D01*
X72171494Y-75572057D01*
X71392962Y-76350589D01*
X71375925Y-76287007D01*
X71310099Y-76172993D01*
X71217007Y-76079901D01*
X71102993Y-76014075D01*
X71039408Y-75997037D01*
X71774627Y-75261819D01*
X71835950Y-75228334D01*
X71862308Y-75225500D01*
X72765588Y-75225500D01*
X72832627Y-75245185D01*
X72853269Y-75261819D01*
X79053652Y-81462202D01*
X79087137Y-81523525D01*
X79082153Y-81593217D01*
X79070966Y-81615852D01*
X79049211Y-81650476D01*
X79049210Y-81650478D01*
X78989633Y-81820737D01*
X78989630Y-81820750D01*
X78969435Y-81999996D01*
X78969435Y-82000003D01*
X78989630Y-82179249D01*
X78989631Y-82179254D01*
X79049211Y-82349523D01*
X79127206Y-82473650D01*
X79145184Y-82502262D01*
X79272738Y-82629816D01*
X79425478Y-82725789D01*
X79478894Y-82744480D01*
X79595745Y-82785368D01*
X79595750Y-82785369D01*
X79774996Y-82805565D01*
X79775000Y-82805565D01*
X79775004Y-82805565D01*
X79954249Y-82785369D01*
X79954252Y-82785368D01*
X79954255Y-82785368D01*
X80124522Y-82725789D01*
X80277262Y-82629816D01*
X80404816Y-82502262D01*
X80500789Y-82349522D01*
X80560368Y-82179255D01*
X80562489Y-82160433D01*
X80580565Y-82000003D01*
X80580565Y-81999996D01*
X80566482Y-81875001D01*
X81954390Y-81875001D01*
X81974804Y-82160433D01*
X82035628Y-82440037D01*
X82035630Y-82440043D01*
X82035631Y-82440046D01*
X82130486Y-82694361D01*
X82135635Y-82708166D01*
X82272770Y-82959309D01*
X82272775Y-82959317D01*
X82444254Y-83188387D01*
X82444270Y-83188405D01*
X82646594Y-83390729D01*
X82646612Y-83390745D01*
X82875682Y-83562224D01*
X82875690Y-83562229D01*
X83126833Y-83699364D01*
X83126832Y-83699364D01*
X83126836Y-83699365D01*
X83126839Y-83699367D01*
X83394954Y-83799369D01*
X83394960Y-83799370D01*
X83394962Y-83799371D01*
X83674566Y-83860195D01*
X83674568Y-83860195D01*
X83674572Y-83860196D01*
X83928220Y-83878337D01*
X83959999Y-83880610D01*
X83960000Y-83880610D01*
X83960001Y-83880610D01*
X83988595Y-83878564D01*
X84245428Y-83860196D01*
X84284475Y-83851702D01*
X84525037Y-83799371D01*
X84525037Y-83799370D01*
X84525046Y-83799369D01*
X84793161Y-83699367D01*
X85044315Y-83562226D01*
X85273395Y-83390739D01*
X85475739Y-83188395D01*
X85647226Y-82959315D01*
X85784367Y-82708161D01*
X85884369Y-82440046D01*
X85929432Y-82232893D01*
X85945195Y-82160433D01*
X85945195Y-82160432D01*
X85945196Y-82160428D01*
X85965610Y-81875000D01*
X85945196Y-81589572D01*
X85937675Y-81555000D01*
X85884371Y-81309962D01*
X85884370Y-81309960D01*
X85884369Y-81309954D01*
X85784367Y-81041839D01*
X85679316Y-80849454D01*
X85647229Y-80790690D01*
X85647224Y-80790682D01*
X85475745Y-80561612D01*
X85475729Y-80561594D01*
X85273405Y-80359270D01*
X85273387Y-80359254D01*
X85044317Y-80187775D01*
X85044309Y-80187770D01*
X84793166Y-80050635D01*
X84793167Y-80050635D01*
X84685915Y-80010632D01*
X84525046Y-79950631D01*
X84525043Y-79950630D01*
X84525037Y-79950628D01*
X84245433Y-79889804D01*
X83960001Y-79869390D01*
X83959999Y-79869390D01*
X83674566Y-79889804D01*
X83394962Y-79950628D01*
X83126833Y-80050635D01*
X82875690Y-80187770D01*
X82875682Y-80187775D01*
X82646612Y-80359254D01*
X82646594Y-80359270D01*
X82444270Y-80561594D01*
X82444254Y-80561612D01*
X82272775Y-80790682D01*
X82272770Y-80790690D01*
X82135635Y-81041833D01*
X82035628Y-81309962D01*
X81974804Y-81589566D01*
X81954390Y-81874998D01*
X81954390Y-81875001D01*
X80566482Y-81875001D01*
X80560369Y-81820750D01*
X80560368Y-81820745D01*
X80500788Y-81650476D01*
X80426423Y-81532126D01*
X80404816Y-81497738D01*
X80404814Y-81497736D01*
X80404813Y-81497734D01*
X80402550Y-81494896D01*
X80401659Y-81492715D01*
X80401111Y-81491842D01*
X80401264Y-81491745D01*
X80376144Y-81430209D01*
X80375500Y-81417587D01*
X80375500Y-81255258D01*
X80375499Y-81255254D01*
X80364615Y-81214633D01*
X80364615Y-81214632D01*
X80334577Y-81102530D01*
X80299537Y-81041839D01*
X80299537Y-81041838D01*
X80255524Y-80965605D01*
X80255521Y-80965601D01*
X80255520Y-80965599D01*
X80143716Y-80853795D01*
X80143715Y-80853794D01*
X80139385Y-80849464D01*
X80139374Y-80849454D01*
X73553275Y-74263355D01*
X73553273Y-74263352D01*
X73434402Y-74144481D01*
X73434394Y-74144475D01*
X73340772Y-74090423D01*
X73340770Y-74090422D01*
X73297475Y-74065425D01*
X73297474Y-74065424D01*
X73284948Y-74062067D01*
X73144742Y-74024499D01*
X72986628Y-74024499D01*
X72979032Y-74024499D01*
X72979016Y-74024500D01*
X67661670Y-74024500D01*
X67661654Y-74024499D01*
X67654058Y-74024499D01*
X67495943Y-74024499D01*
X67421543Y-74044435D01*
X67343214Y-74065423D01*
X67343209Y-74065426D01*
X67206290Y-74144475D01*
X67206282Y-74144481D01*
X64394481Y-76956282D01*
X64394479Y-76956285D01*
X64387401Y-76968545D01*
X64365018Y-77007314D01*
X64315423Y-77093215D01*
X64274499Y-77245943D01*
X64274499Y-77245945D01*
X64274499Y-77414046D01*
X64274500Y-77414059D01*
X64274500Y-80598330D01*
X64274499Y-80598348D01*
X64274499Y-80764054D01*
X64274498Y-80764054D01*
X64274499Y-80764057D01*
X64298575Y-80853910D01*
X64315423Y-80916784D01*
X64315424Y-80916787D01*
X64318561Y-80922220D01*
X64318562Y-80922222D01*
X64394477Y-81053712D01*
X64394481Y-81053717D01*
X64513349Y-81172585D01*
X64513355Y-81172590D01*
X66790977Y-83450212D01*
X66824462Y-83511535D01*
X66819478Y-83581227D01*
X66817859Y-83585339D01*
X66805828Y-83614388D01*
X66761417Y-83799369D01*
X66748853Y-83851702D01*
X66729706Y-84095000D01*
X66748853Y-84338297D01*
X66748853Y-84338300D01*
X66748854Y-84338302D01*
X66784187Y-84485474D01*
X66805830Y-84575619D01*
X66899222Y-84801089D01*
X67026737Y-85009173D01*
X67026738Y-85009176D01*
X67039767Y-85024431D01*
X67185241Y-85194759D01*
X67253250Y-85252844D01*
X67274168Y-85270710D01*
X67312361Y-85329217D01*
X67312859Y-85399085D01*
X67275505Y-85458131D01*
X67274168Y-85459290D01*
X67185241Y-85535241D01*
X67026738Y-85720823D01*
X67026737Y-85720826D01*
X66899222Y-85928910D01*
X66805830Y-86154380D01*
X66748853Y-86391702D01*
X66729706Y-86635000D01*
X66748853Y-86878297D01*
X66748853Y-86878300D01*
X66748854Y-86878302D01*
X66790150Y-87050311D01*
X66805829Y-87115615D01*
X66805830Y-87115617D01*
X66817857Y-87144654D01*
X66825324Y-87214123D01*
X66794049Y-87276602D01*
X66790976Y-87279786D01*
X66166286Y-87904478D01*
X66054481Y-88016282D01*
X66054479Y-88016284D01*
X66028525Y-88061239D01*
X66017555Y-88080241D01*
X65996489Y-88116728D01*
X65975423Y-88153214D01*
X65964227Y-88195000D01*
X65934499Y-88305943D01*
X65934499Y-88305945D01*
X65934499Y-88474046D01*
X65934500Y-88474059D01*
X65934500Y-92060018D01*
X65914815Y-92127057D01*
X65862011Y-92172812D01*
X65792853Y-92182756D01*
X65729297Y-92153731D01*
X65693458Y-92100973D01*
X65679127Y-92060018D01*
X65675789Y-92050478D01*
X65579816Y-91897738D01*
X65452262Y-91770184D01*
X65372395Y-91720000D01*
X65299523Y-91674211D01*
X65129254Y-91614631D01*
X65129249Y-91614630D01*
X64950004Y-91594435D01*
X64949996Y-91594435D01*
X64770750Y-91614630D01*
X64770742Y-91614632D01*
X64702210Y-91638613D01*
X64632432Y-91642174D01*
X64571804Y-91607445D01*
X64539577Y-91545452D01*
X64545982Y-91475876D01*
X64556263Y-91455598D01*
X64575788Y-91424524D01*
X64609124Y-91329255D01*
X64635368Y-91254255D01*
X64637044Y-91239380D01*
X64655565Y-91075003D01*
X64655565Y-91074996D01*
X64635369Y-90895750D01*
X64635368Y-90895745D01*
X64623262Y-90861148D01*
X64575789Y-90725478D01*
X64543116Y-90673480D01*
X64509662Y-90620238D01*
X64479816Y-90572738D01*
X64352262Y-90445184D01*
X64341241Y-90438259D01*
X64199523Y-90349211D01*
X64029254Y-90289631D01*
X64029249Y-90289630D01*
X63850004Y-90269435D01*
X63849996Y-90269435D01*
X63670750Y-90289630D01*
X63670745Y-90289631D01*
X63500476Y-90349211D01*
X63347737Y-90445184D01*
X63220184Y-90572737D01*
X63124211Y-90725476D01*
X63064631Y-90895745D01*
X63064630Y-90895750D01*
X63044435Y-91074996D01*
X63044435Y-91075003D01*
X63064630Y-91254249D01*
X63064631Y-91254254D01*
X63124211Y-91424523D01*
X63220186Y-91577265D01*
X63221253Y-91578603D01*
X63221672Y-91579630D01*
X63223889Y-91583158D01*
X63223270Y-91583546D01*
X63247660Y-91643290D01*
X63248304Y-91656168D01*
X63224679Y-103161731D01*
X63224500Y-103164439D01*
X63224500Y-103170943D01*
X63224500Y-103249418D01*
X63224364Y-103316048D01*
X63224326Y-103334381D01*
X63224500Y-103337071D01*
X63224500Y-105329016D01*
X63224499Y-105329034D01*
X63224499Y-105494740D01*
X63224498Y-105494740D01*
X63265423Y-105647473D01*
X63273070Y-105660717D01*
X63273072Y-105660719D01*
X63344477Y-105784398D01*
X63344481Y-105784403D01*
X63463349Y-105903271D01*
X63463355Y-105903276D01*
X66472898Y-108912819D01*
X66506383Y-108974142D01*
X66501399Y-109043834D01*
X66459527Y-109099767D01*
X66394063Y-109124184D01*
X66385217Y-109124500D01*
X64850098Y-109124500D01*
X64783059Y-109104815D01*
X64762417Y-109088181D01*
X64530700Y-108856465D01*
X64497215Y-108795142D01*
X64495163Y-108782686D01*
X64485368Y-108695745D01*
X64425789Y-108525478D01*
X64329816Y-108372738D01*
X64202262Y-108245184D01*
X64197914Y-108242452D01*
X64049523Y-108149211D01*
X63879254Y-108089631D01*
X63879249Y-108089630D01*
X63700004Y-108069435D01*
X63699996Y-108069435D01*
X63520750Y-108089630D01*
X63520745Y-108089631D01*
X63350476Y-108149211D01*
X63197737Y-108245184D01*
X63070184Y-108372737D01*
X62974211Y-108525476D01*
X62914631Y-108695745D01*
X62914630Y-108695750D01*
X62894435Y-108874996D01*
X62894435Y-108875003D01*
X62914630Y-109054249D01*
X62914631Y-109054254D01*
X62974211Y-109224523D01*
X63050384Y-109345750D01*
X63070184Y-109377262D01*
X63197738Y-109504816D01*
X63350478Y-109600789D01*
X63520745Y-109660368D01*
X63607669Y-109670161D01*
X63672080Y-109697226D01*
X63681464Y-109705699D01*
X64181284Y-110205520D01*
X64181286Y-110205521D01*
X64181290Y-110205524D01*
X64317246Y-110284017D01*
X64318216Y-110284577D01*
X64470943Y-110325501D01*
X64470945Y-110325501D01*
X64636654Y-110325501D01*
X64636670Y-110325500D01*
X181949903Y-110325500D01*
X182016942Y-110345185D01*
X182037584Y-110361819D01*
X182671600Y-110995835D01*
X182705085Y-111057158D01*
X182700101Y-111126850D01*
X182658229Y-111182783D01*
X182592765Y-111207200D01*
X182572016Y-111206943D01*
X182401069Y-111190457D01*
X182401049Y-111190456D01*
X182247561Y-111192033D01*
X182246287Y-111192040D01*
X90371223Y-111191082D01*
X90366399Y-111190988D01*
X89994851Y-111176519D01*
X89994841Y-111176519D01*
X89994838Y-111176519D01*
X89682879Y-111180327D01*
X89226922Y-111185894D01*
X89226913Y-111185895D01*
X88460525Y-111234534D01*
X87697629Y-111322315D01*
X87697590Y-111322320D01*
X86940156Y-111449013D01*
X86190239Y-111614275D01*
X86190218Y-111614280D01*
X85449700Y-111817695D01*
X84720544Y-112058728D01*
X84720516Y-112058737D01*
X84004692Y-112336735D01*
X83303965Y-112651011D01*
X82620261Y-113000704D01*
X82620227Y-113000723D01*
X81955335Y-113384914D01*
X81955310Y-113384930D01*
X81310912Y-113802648D01*
X80688720Y-114252786D01*
X80090381Y-114734152D01*
X79517403Y-115245534D01*
X78971396Y-115785492D01*
X78971394Y-115785494D01*
X78453686Y-116352716D01*
X78453685Y-116352716D01*
X77965658Y-116945691D01*
X77508620Y-117562830D01*
X77508610Y-117562844D01*
X77083757Y-118202526D01*
X77083732Y-118202567D01*
X76692159Y-118863138D01*
X76692139Y-118863174D01*
X76334860Y-119542929D01*
X76334855Y-119542939D01*
X76012825Y-120240052D01*
X76012805Y-120240099D01*
X75726833Y-120952833D01*
X75477713Y-121679206D01*
X75477707Y-121679225D01*
X75266052Y-122417447D01*
X75092439Y-123165520D01*
X74957317Y-123921498D01*
X74861045Y-124683383D01*
X74861043Y-124683402D01*
X74803870Y-125449214D01*
X74803869Y-125449223D01*
X74785944Y-126216943D01*
X74785944Y-126216975D01*
X74807312Y-126984606D01*
X74807312Y-126984614D01*
X74867921Y-127750161D01*
X74867924Y-127750188D01*
X74967613Y-128511633D01*
X74967617Y-128511663D01*
X75098623Y-129226094D01*
X75106123Y-129266993D01*
X75237596Y-129822171D01*
X75283091Y-130014282D01*
X75283092Y-130014286D01*
X75498048Y-130751527D01*
X75498049Y-130751530D01*
X75571869Y-130963664D01*
X75750443Y-131476829D01*
X76039605Y-132188264D01*
X76122906Y-132366486D01*
X76364782Y-132883977D01*
X76364794Y-132884001D01*
X76725114Y-133562136D01*
X77119670Y-134220986D01*
X77543930Y-134853599D01*
X77547414Y-134858793D01*
X78007219Y-135473880D01*
X78497886Y-136064642D01*
X79012007Y-136622883D01*
X79018133Y-136629535D01*
X79018140Y-136629542D01*
X79566573Y-137167056D01*
X79566584Y-137167066D01*
X79566588Y-137167070D01*
X80141824Y-137675850D01*
X80742333Y-138154539D01*
X81366542Y-138601884D01*
X82012816Y-139016713D01*
X82012830Y-139016721D01*
X82679456Y-139397937D01*
X82679462Y-139397940D01*
X83217861Y-139670275D01*
X83364739Y-139744569D01*
X84066849Y-140055689D01*
X84066865Y-140055695D01*
X84066877Y-140055700D01*
X84619463Y-140267454D01*
X84783954Y-140330488D01*
X85491396Y-140560827D01*
X85514180Y-140568246D01*
X85547118Y-140577135D01*
X86255606Y-140768338D01*
X87006299Y-140930243D01*
X87006315Y-140930245D01*
X87006332Y-140930249D01*
X87604888Y-141027608D01*
X87764291Y-141053537D01*
X88527598Y-141137896D01*
X89294221Y-141183099D01*
X89604487Y-141185509D01*
X89613053Y-141186103D01*
X89616193Y-141186102D01*
X89616195Y-141186103D01*
X89669881Y-141186098D01*
X89694062Y-141188478D01*
X89724645Y-141194560D01*
X89769346Y-141213076D01*
X89784912Y-141223477D01*
X89819127Y-141257694D01*
X89829528Y-141273262D01*
X89848042Y-141317969D01*
X89854169Y-141348789D01*
X89856549Y-141372985D01*
X89856540Y-141433770D01*
X89856624Y-141435045D01*
X89858565Y-143398652D01*
X89838947Y-143465711D01*
X89815841Y-143492424D01*
X89293867Y-143945435D01*
X89290028Y-143948634D01*
X88537153Y-144550613D01*
X88533188Y-144553654D01*
X87756707Y-145124780D01*
X87752623Y-145127660D01*
X86953705Y-145667076D01*
X86949507Y-145669788D01*
X86129562Y-146176539D01*
X86125260Y-146179080D01*
X85285514Y-146652411D01*
X85281112Y-146654776D01*
X84423024Y-147093865D01*
X84418530Y-147096052D01*
X83543404Y-147500229D01*
X83538826Y-147502232D01*
X82648146Y-147870812D01*
X82643491Y-147872629D01*
X81738709Y-148205014D01*
X81733985Y-148206643D01*
X80816481Y-148502323D01*
X80811695Y-148503759D01*
X79883090Y-148762213D01*
X79878249Y-148763456D01*
X78939956Y-148984291D01*
X78935070Y-148985338D01*
X77988607Y-149168196D01*
X77983682Y-149169044D01*
X77030683Y-149313609D01*
X77025729Y-149314259D01*
X76067650Y-149420311D01*
X76062673Y-149420761D01*
X75101096Y-149488125D01*
X75096105Y-149488374D01*
X74132579Y-149516941D01*
X74127582Y-149516988D01*
X73163715Y-149506709D01*
X73158720Y-149506555D01*
X72196044Y-149457449D01*
X72191059Y-149457094D01*
X71231128Y-149369238D01*
X71226162Y-149368682D01*
X70270578Y-149242224D01*
X70265638Y-149241469D01*
X69315893Y-149076606D01*
X69310988Y-149075652D01*
X68368694Y-148872665D01*
X68363831Y-148871515D01*
X67430432Y-148630712D01*
X67425620Y-148629366D01*
X66502735Y-148351168D01*
X66497980Y-148349630D01*
X65587012Y-148034458D01*
X65582323Y-148032729D01*
X64684815Y-147681118D01*
X64680200Y-147679202D01*
X64209221Y-147472430D01*
X63797555Y-147291698D01*
X63793050Y-147289611D01*
X62926764Y-146866874D01*
X62922323Y-146864596D01*
X62530863Y-146653632D01*
X62073745Y-146407283D01*
X62069401Y-146404828D01*
X61239975Y-145913716D01*
X61235727Y-145911084D01*
X60426728Y-145386931D01*
X60422602Y-145384138D01*
X59635373Y-144827811D01*
X59631393Y-144824876D01*
X58867249Y-144237305D01*
X58863349Y-144234180D01*
X58339906Y-143797029D01*
X58123468Y-143616271D01*
X58119709Y-143613001D01*
X57405358Y-142965813D01*
X57401723Y-142962384D01*
X57262355Y-142825498D01*
X56714003Y-142286912D01*
X56710545Y-142283377D01*
X56050579Y-141580724D01*
X56047266Y-141577051D01*
X55732020Y-141213076D01*
X55416181Y-140848416D01*
X55412986Y-140844574D01*
X54811764Y-140091095D01*
X54808727Y-140087127D01*
X54238359Y-139310045D01*
X54235484Y-139305957D01*
X53696905Y-138506548D01*
X53694197Y-138502349D01*
X53237027Y-137760967D01*
X53188243Y-137681855D01*
X53185711Y-137677558D01*
X53176454Y-137661097D01*
X52832812Y-137050001D01*
X67629390Y-137050001D01*
X67649804Y-137335433D01*
X67710628Y-137615037D01*
X67710630Y-137615043D01*
X67710631Y-137615046D01*
X67727808Y-137661098D01*
X67810635Y-137883166D01*
X67947770Y-138134309D01*
X67947775Y-138134317D01*
X68119254Y-138363387D01*
X68119270Y-138363405D01*
X68321594Y-138565729D01*
X68321612Y-138565745D01*
X68550682Y-138737224D01*
X68550690Y-138737229D01*
X68801833Y-138874364D01*
X68801832Y-138874364D01*
X68801836Y-138874365D01*
X68801839Y-138874367D01*
X69069954Y-138974369D01*
X69069960Y-138974370D01*
X69069962Y-138974371D01*
X69349566Y-139035195D01*
X69349568Y-139035195D01*
X69349572Y-139035196D01*
X69603220Y-139053337D01*
X69634999Y-139055610D01*
X69635000Y-139055610D01*
X69635001Y-139055610D01*
X69663595Y-139053564D01*
X69920428Y-139035196D01*
X70005357Y-139016721D01*
X70200037Y-138974371D01*
X70200037Y-138974370D01*
X70200046Y-138974369D01*
X70468161Y-138874367D01*
X70719315Y-138737226D01*
X70948395Y-138565739D01*
X71150739Y-138363395D01*
X71322226Y-138134315D01*
X71459367Y-137883161D01*
X71559369Y-137615046D01*
X71620196Y-137335428D01*
X71640610Y-137050000D01*
X71620196Y-136764572D01*
X71619962Y-136763498D01*
X71559371Y-136484962D01*
X71559370Y-136484960D01*
X71559369Y-136484954D01*
X71459367Y-136216839D01*
X71443982Y-136188664D01*
X71322229Y-135965690D01*
X71322224Y-135965682D01*
X71150745Y-135736612D01*
X71150729Y-135736594D01*
X70948405Y-135534270D01*
X70948387Y-135534254D01*
X70719317Y-135362775D01*
X70719309Y-135362770D01*
X70468166Y-135225635D01*
X70468167Y-135225635D01*
X70360915Y-135185632D01*
X70200046Y-135125631D01*
X70200043Y-135125630D01*
X70200037Y-135125628D01*
X69920433Y-135064804D01*
X69635001Y-135044390D01*
X69634999Y-135044390D01*
X69349566Y-135064804D01*
X69069962Y-135125628D01*
X68801833Y-135225635D01*
X68550690Y-135362770D01*
X68550682Y-135362775D01*
X68321612Y-135534254D01*
X68321594Y-135534270D01*
X68119270Y-135736594D01*
X68119254Y-135736612D01*
X67947775Y-135965682D01*
X67947770Y-135965690D01*
X67810635Y-136216833D01*
X67710628Y-136484962D01*
X67649804Y-136764566D01*
X67629390Y-137049998D01*
X67629390Y-137050001D01*
X52832812Y-137050001D01*
X52713231Y-136837351D01*
X52710875Y-136832955D01*
X52702900Y-136817331D01*
X52272634Y-135974395D01*
X52270457Y-135969910D01*
X52268509Y-135965682D01*
X51867167Y-135094398D01*
X51865169Y-135089819D01*
X51497463Y-134198724D01*
X51495672Y-134194119D01*
X51164186Y-133288977D01*
X51162562Y-133284251D01*
X51059500Y-132963343D01*
X50867805Y-132366458D01*
X50866390Y-132361727D01*
X50608834Y-131432740D01*
X50607616Y-131427971D01*
X50387720Y-130489441D01*
X50386680Y-130484562D01*
X50204773Y-129537921D01*
X50203933Y-129533013D01*
X50193159Y-129461506D01*
X50060320Y-128579837D01*
X50059677Y-128574892D01*
X50042145Y-128415040D01*
X49954579Y-127616646D01*
X49954142Y-127611744D01*
X49887740Y-126650059D01*
X49887499Y-126645126D01*
X49859899Y-125681533D01*
X49859848Y-125677983D01*
X49859848Y-52688687D01*
X49859899Y-52685137D01*
X49875070Y-52155449D01*
X49887500Y-51721470D01*
X49887741Y-51716546D01*
X49954142Y-50754856D01*
X49954579Y-50749954D01*
X50059679Y-49791691D01*
X50060322Y-49786753D01*
X50061300Y-49780261D01*
X50203936Y-48833560D01*
X50204771Y-48828687D01*
X50386682Y-47882019D01*
X50387721Y-47877150D01*
X50411301Y-47776510D01*
X50607613Y-46938638D01*
X50608845Y-46933818D01*
X50623534Y-46880836D01*
X50866391Y-46004862D01*
X50867796Y-46000163D01*
X51162562Y-45082340D01*
X51164184Y-45077622D01*
X51283497Y-44751830D01*
X51495676Y-44172462D01*
X51497455Y-44167891D01*
X51865174Y-43276759D01*
X51867165Y-43272198D01*
X52270468Y-42396656D01*
X52272621Y-42392221D01*
X52710888Y-41533611D01*
X52713217Y-41529266D01*
X52870256Y-41250004D01*
X67879592Y-41250004D01*
X67899196Y-41511620D01*
X67899197Y-41511625D01*
X67957576Y-41767402D01*
X67957578Y-41767411D01*
X67957580Y-41767416D01*
X68053432Y-42011643D01*
X68184614Y-42238857D01*
X68306894Y-42392191D01*
X68348198Y-42443985D01*
X68529753Y-42612441D01*
X68540521Y-42622433D01*
X68757296Y-42770228D01*
X68757301Y-42770230D01*
X68757302Y-42770231D01*
X68757303Y-42770232D01*
X68882843Y-42830688D01*
X68993673Y-42884061D01*
X68993674Y-42884061D01*
X68993677Y-42884063D01*
X69244385Y-42961396D01*
X69503818Y-43000500D01*
X69766182Y-43000500D01*
X70025615Y-42961396D01*
X70276323Y-42884063D01*
X70512704Y-42770228D01*
X70729479Y-42622433D01*
X70921805Y-42443981D01*
X71085386Y-42238857D01*
X71216568Y-42011643D01*
X71312420Y-41767416D01*
X71370802Y-41511630D01*
X71390408Y-41250000D01*
X71385247Y-41181136D01*
X71370803Y-40988379D01*
X71370802Y-40988374D01*
X71370802Y-40988370D01*
X71312420Y-40732584D01*
X71216568Y-40488357D01*
X71085386Y-40261143D01*
X70921805Y-40056019D01*
X70921804Y-40056018D01*
X70921801Y-40056014D01*
X70729479Y-39877567D01*
X70703798Y-39860058D01*
X70512704Y-39729772D01*
X70512700Y-39729770D01*
X70512697Y-39729768D01*
X70512696Y-39729767D01*
X70276325Y-39615938D01*
X70276327Y-39615938D01*
X70025623Y-39538606D01*
X70025619Y-39538605D01*
X70025615Y-39538604D01*
X69900823Y-39519794D01*
X69766187Y-39499500D01*
X69766182Y-39499500D01*
X69503818Y-39499500D01*
X69503812Y-39499500D01*
X69342247Y-39523853D01*
X69244385Y-39538604D01*
X69244382Y-39538605D01*
X69244376Y-39538606D01*
X68993673Y-39615938D01*
X68757303Y-39729767D01*
X68757302Y-39729768D01*
X68540520Y-39877567D01*
X68348198Y-40056014D01*
X68184614Y-40261143D01*
X68053432Y-40488356D01*
X67957582Y-40732578D01*
X67957576Y-40732597D01*
X67899197Y-40988374D01*
X67899196Y-40988379D01*
X67879592Y-41249995D01*
X67879592Y-41250004D01*
X52870256Y-41250004D01*
X53185735Y-40688990D01*
X53188229Y-40684758D01*
X53694220Y-39864202D01*
X53696857Y-39860113D01*
X54235495Y-39060616D01*
X54238340Y-39056570D01*
X54808731Y-38279456D01*
X54811760Y-38275500D01*
X54829184Y-38253664D01*
X55413002Y-37521995D01*
X55416155Y-37518203D01*
X56047260Y-36789546D01*
X56050578Y-36785867D01*
X56710565Y-36083192D01*
X56713974Y-36079706D01*
X57401751Y-35404179D01*
X57405321Y-35400811D01*
X58119738Y-34753563D01*
X58123469Y-34750318D01*
X58863339Y-34132418D01*
X58867230Y-34129300D01*
X59631430Y-33541686D01*
X59635368Y-33538782D01*
X60422598Y-32982454D01*
X60426711Y-32979669D01*
X61235760Y-32455484D01*
X61239934Y-32452898D01*
X62069441Y-31961740D01*
X62073704Y-31959330D01*
X62922364Y-31501973D01*
X62926721Y-31499737D01*
X63793088Y-31076960D01*
X63797510Y-31074911D01*
X64680223Y-30687379D01*
X64684788Y-30685484D01*
X65582329Y-30333859D01*
X65587001Y-30332137D01*
X66498024Y-30016946D01*
X66502686Y-30015438D01*
X67425644Y-29737217D01*
X67430404Y-29735886D01*
X68363874Y-29495065D01*
X68368647Y-29493936D01*
X69310995Y-29290938D01*
X69315881Y-29289987D01*
X70265644Y-29125121D01*
X70270569Y-29124369D01*
X71226166Y-28997909D01*
X71231121Y-28997354D01*
X72191088Y-28909495D01*
X72196014Y-28909145D01*
X73158738Y-28860036D01*
X73163697Y-28859883D01*
X74127620Y-28849604D01*
X74132542Y-28849650D01*
X75096112Y-28878218D01*
X75101088Y-28878466D01*
X75940245Y-28937255D01*
X76062673Y-28945832D01*
X76067652Y-28946282D01*
X77025774Y-29052339D01*
X77030639Y-29052978D01*
X77983714Y-29197554D01*
X77988574Y-29198391D01*
X78935071Y-29381256D01*
X78939957Y-29382303D01*
X79878283Y-29603146D01*
X79883045Y-29604369D01*
X80811719Y-29862841D01*
X80816471Y-29864267D01*
X81734006Y-30159958D01*
X81738691Y-30161574D01*
X82643502Y-30493969D01*
X82648139Y-30495779D01*
X83538841Y-30864370D01*
X83543391Y-30866361D01*
X84418559Y-31270557D01*
X84422999Y-31272718D01*
X85084637Y-31611281D01*
X85281114Y-31711820D01*
X85285516Y-31714185D01*
X86125262Y-32187517D01*
X86129564Y-32190058D01*
X86477246Y-32404936D01*
X86949550Y-32696834D01*
X86953701Y-32699517D01*
X87752621Y-33238935D01*
X87756681Y-33241797D01*
X88160408Y-33538752D01*
X88533189Y-33812945D01*
X88537148Y-33815982D01*
X88712517Y-33956202D01*
X89290029Y-34417965D01*
X89293868Y-34421164D01*
X89815838Y-34874171D01*
X89853566Y-34932979D01*
X89858562Y-34967944D01*
X89856624Y-36906620D01*
X89856551Y-36907740D01*
X89856551Y-36968784D01*
X89854168Y-36992976D01*
X89848075Y-37023607D01*
X89829560Y-37068306D01*
X89819129Y-37083917D01*
X89784927Y-37118122D01*
X89769319Y-37128553D01*
X89724616Y-37147073D01*
X89694223Y-37153120D01*
X89670038Y-37155504D01*
X89612867Y-37155509D01*
X89604519Y-37156089D01*
X89293618Y-37158500D01*
X89293575Y-37158501D01*
X88525694Y-37203768D01*
X87761124Y-37288256D01*
X87761110Y-37288258D01*
X87001823Y-37411752D01*
X86249902Y-37573912D01*
X86249874Y-37573919D01*
X85507247Y-37774326D01*
X85507219Y-37774334D01*
X84775781Y-38012477D01*
X84775764Y-38012483D01*
X84057477Y-38287725D01*
X84057472Y-38287727D01*
X84057468Y-38287729D01*
X83917593Y-38349709D01*
X83354178Y-38599363D01*
X82667752Y-38946562D01*
X81999991Y-39328417D01*
X81352632Y-39743934D01*
X81352618Y-39743943D01*
X80727378Y-40192017D01*
X80727376Y-40192019D01*
X80125861Y-40671500D01*
X79549653Y-41181128D01*
X79549644Y-41181136D01*
X79000289Y-41719544D01*
X79000281Y-41719552D01*
X78479159Y-42285384D01*
X77987672Y-42877121D01*
X77527090Y-43493235D01*
X77527086Y-43493242D01*
X77098635Y-44132089D01*
X77098631Y-44132095D01*
X76703412Y-44792038D01*
X76342458Y-45471351D01*
X76016738Y-46168213D01*
X76016721Y-46168252D01*
X75727090Y-46880822D01*
X75727085Y-46880836D01*
X75474272Y-47607318D01*
X75474267Y-47607334D01*
X75258942Y-48345818D01*
X75081671Y-49094366D01*
X74942927Y-49850972D01*
X74942924Y-49850989D01*
X74843064Y-50613697D01*
X74843062Y-50613720D01*
X74782347Y-51380545D01*
X74782347Y-51380552D01*
X74760937Y-52149467D01*
X74760937Y-52149499D01*
X74778887Y-52918501D01*
X74778888Y-52918512D01*
X74836151Y-53685597D01*
X74836154Y-53685625D01*
X74932581Y-54448779D01*
X75067924Y-55206022D01*
X75197300Y-55763493D01*
X75241823Y-55955341D01*
X75277752Y-56080659D01*
X75453818Y-56694769D01*
X75703375Y-57422432D01*
X75989805Y-58136318D01*
X75989812Y-58136334D01*
X75989814Y-58136338D01*
X76195775Y-58582199D01*
X76312406Y-58834680D01*
X76670278Y-59515570D01*
X76670290Y-59515591D01*
X76745693Y-59642794D01*
X77062532Y-60177298D01*
X77235955Y-60438415D01*
X77488111Y-60818077D01*
X77488114Y-60818082D01*
X77945912Y-61436253D01*
X77945913Y-61436254D01*
X77945917Y-61436259D01*
X78069390Y-61586286D01*
X78434742Y-62030209D01*
X78781277Y-62409890D01*
X78953309Y-62598376D01*
X79500261Y-63139273D01*
X80074165Y-63651484D01*
X80629282Y-64098080D01*
X80673527Y-64133675D01*
X80758155Y-64194901D01*
X81296752Y-64584562D01*
X81296773Y-64584575D01*
X81296775Y-64584577D01*
X81942217Y-65002974D01*
X81942234Y-65002985D01*
X82608275Y-65387843D01*
X83293131Y-65738127D01*
X83995007Y-66052920D01*
X84109110Y-66097233D01*
X84712040Y-66331388D01*
X84712053Y-66331392D01*
X84712068Y-66331398D01*
X85442434Y-66572832D01*
X86184195Y-66776590D01*
X86184199Y-66776591D01*
X86184204Y-66776592D01*
X86935387Y-66942134D01*
X86935392Y-66942134D01*
X86935407Y-66942138D01*
X87694104Y-67069043D01*
X88041876Y-67109058D01*
X88458295Y-67156972D01*
X88819020Y-67179865D01*
X89225968Y-67205693D01*
X89225972Y-67205694D01*
X89225976Y-67205694D01*
X89225991Y-67205695D01*
X89995171Y-67215085D01*
X90367258Y-67200595D01*
X90372057Y-67200502D01*
X182257009Y-67218857D01*
X182257906Y-67218862D01*
X182411642Y-67220443D01*
X182411652Y-67220442D01*
X182428088Y-67218857D01*
X182564568Y-67205695D01*
X182723561Y-67190362D01*
X182723562Y-67190361D01*
X182723570Y-67190361D01*
X183030542Y-67127339D01*
X183030560Y-67127333D01*
X183030565Y-67127332D01*
X183143872Y-67091182D01*
X183329092Y-67032090D01*
X183615844Y-66905689D01*
X183887560Y-66749565D01*
X184141169Y-66565482D01*
X184373805Y-66355520D01*
X184476800Y-66240469D01*
X184477230Y-66239991D01*
X197877633Y-51495427D01*
X197886673Y-51486455D01*
X197979643Y-51403226D01*
X198189599Y-51170585D01*
X198373676Y-50916974D01*
X198406153Y-50860451D01*
X198529796Y-50645257D01*
X198537030Y-50628846D01*
X204934500Y-50628846D01*
X204965261Y-50783489D01*
X204965264Y-50783501D01*
X205025602Y-50929172D01*
X205025609Y-50929185D01*
X205113210Y-51060288D01*
X205113213Y-51060292D01*
X205224707Y-51171786D01*
X205224711Y-51171789D01*
X205355814Y-51259390D01*
X205355827Y-51259397D01*
X205501498Y-51319735D01*
X205501503Y-51319737D01*
X205656153Y-51350499D01*
X205656156Y-51350500D01*
X205656158Y-51350500D01*
X205813844Y-51350500D01*
X205813845Y-51350499D01*
X205968497Y-51319737D01*
X206114179Y-51259394D01*
X206245289Y-51171789D01*
X206356789Y-51060289D01*
X206444394Y-50929179D01*
X206444395Y-50929176D01*
X206444397Y-50929173D01*
X206472862Y-50860451D01*
X206516702Y-50806047D01*
X206582996Y-50783982D01*
X206650696Y-50801261D01*
X206698307Y-50852398D01*
X206707997Y-50878956D01*
X206748126Y-51046110D01*
X206844533Y-51278859D01*
X206976160Y-51493653D01*
X206976161Y-51493656D01*
X207031604Y-51558571D01*
X207139776Y-51685224D01*
X207288066Y-51811875D01*
X207331343Y-51848838D01*
X207331346Y-51848839D01*
X207546140Y-51980466D01*
X207778889Y-52076873D01*
X208023852Y-52135683D01*
X208275000Y-52155449D01*
X208526148Y-52135683D01*
X208771111Y-52076873D01*
X209003859Y-51980466D01*
X209218659Y-51848836D01*
X209410224Y-51685224D01*
X209573836Y-51493659D01*
X209705466Y-51278859D01*
X209801873Y-51046111D01*
X209860683Y-50801148D01*
X209880449Y-50550000D01*
X209860683Y-50298852D01*
X209801873Y-50053889D01*
X209795999Y-50039707D01*
X209705466Y-49821140D01*
X209624479Y-49688983D01*
X209606234Y-49621538D01*
X209627350Y-49554935D01*
X209655891Y-49524929D01*
X209732546Y-49467546D01*
X209818796Y-49352331D01*
X209869091Y-49217483D01*
X209875500Y-49157873D01*
X209875500Y-48734500D01*
X209895185Y-48667461D01*
X209947989Y-48621706D01*
X209999500Y-48610500D01*
X218184903Y-48610500D01*
X218251942Y-48630185D01*
X218272584Y-48646819D01*
X228297483Y-58671718D01*
X228330968Y-58733041D01*
X228325984Y-58802733D01*
X228284112Y-58858666D01*
X228268000Y-58868449D01*
X228268147Y-58868715D01*
X228265108Y-58870394D01*
X228017795Y-59025791D01*
X227789435Y-59207901D01*
X227582901Y-59414435D01*
X227400791Y-59642795D01*
X227245393Y-59890109D01*
X227118665Y-60153261D01*
X227022197Y-60428953D01*
X227022196Y-60428955D01*
X226957202Y-60713714D01*
X226957199Y-60713728D01*
X226924500Y-61003952D01*
X226924500Y-61296047D01*
X226957199Y-61586271D01*
X226957202Y-61586285D01*
X227022196Y-61871044D01*
X227022197Y-61871046D01*
X227118665Y-62146738D01*
X227245393Y-62409890D01*
X227245395Y-62409893D01*
X227400792Y-62657206D01*
X227582902Y-62885565D01*
X227789435Y-63092098D01*
X228017794Y-63274208D01*
X228265107Y-63429605D01*
X228528263Y-63556335D01*
X228803955Y-63652803D01*
X229088714Y-63717798D01*
X229088723Y-63717799D01*
X229088728Y-63717800D01*
X229282210Y-63739599D01*
X229378953Y-63750499D01*
X229378956Y-63750500D01*
X229378959Y-63750500D01*
X233871044Y-63750500D01*
X233871045Y-63750499D01*
X234019371Y-63733787D01*
X234161271Y-63717800D01*
X234161274Y-63717799D01*
X234161286Y-63717798D01*
X234446045Y-63652803D01*
X234721737Y-63556335D01*
X234984893Y-63429605D01*
X235232206Y-63274208D01*
X235460565Y-63092098D01*
X235667098Y-62885565D01*
X235849208Y-62657206D01*
X236004605Y-62409893D01*
X236131335Y-62146737D01*
X236227803Y-61871045D01*
X236292798Y-61586286D01*
X236325500Y-61296041D01*
X236325500Y-61003959D01*
X236292798Y-60713714D01*
X236227803Y-60428955D01*
X236131335Y-60153263D01*
X236004605Y-59890107D01*
X235849208Y-59642794D01*
X235667098Y-59414435D01*
X235460565Y-59207902D01*
X235232206Y-59025792D01*
X234984893Y-58870395D01*
X234984890Y-58870393D01*
X234721738Y-58743665D01*
X234446046Y-58647197D01*
X234446044Y-58647196D01*
X234226280Y-58597036D01*
X234161286Y-58582202D01*
X234161283Y-58582201D01*
X234161271Y-58582199D01*
X233871047Y-58549500D01*
X233871041Y-58549500D01*
X229925097Y-58549500D01*
X229858058Y-58529815D01*
X229837416Y-58513181D01*
X226947105Y-55622870D01*
X229234500Y-55622870D01*
X229234501Y-55622876D01*
X229240908Y-55682483D01*
X229291202Y-55817328D01*
X229291206Y-55817335D01*
X229377452Y-55932544D01*
X229377455Y-55932547D01*
X229492664Y-56018793D01*
X229492671Y-56018797D01*
X229627517Y-56069091D01*
X229627516Y-56069091D01*
X229634444Y-56069835D01*
X229687127Y-56075500D01*
X231482872Y-56075499D01*
X231542483Y-56069091D01*
X231677331Y-56018796D01*
X231792546Y-55932546D01*
X231878796Y-55817331D01*
X231927810Y-55685916D01*
X231969681Y-55629984D01*
X232035145Y-55605566D01*
X232103418Y-55620417D01*
X232131673Y-55641569D01*
X232253599Y-55763495D01*
X232350384Y-55831265D01*
X232447165Y-55899032D01*
X232447167Y-55899033D01*
X232447170Y-55899035D01*
X232661337Y-55998903D01*
X232889592Y-56060063D01*
X233066034Y-56075500D01*
X233124999Y-56080659D01*
X233125000Y-56080659D01*
X233125001Y-56080659D01*
X233164234Y-56077226D01*
X233360408Y-56060063D01*
X233588663Y-55998903D01*
X233802830Y-55899035D01*
X233996401Y-55763495D01*
X234163495Y-55596401D01*
X234299035Y-55402830D01*
X234398903Y-55188663D01*
X234460063Y-54960408D01*
X234480659Y-54725000D01*
X234460063Y-54489592D01*
X234398903Y-54261337D01*
X234299035Y-54047171D01*
X234258433Y-53989184D01*
X234163494Y-53853597D01*
X233996402Y-53686506D01*
X233996395Y-53686501D01*
X233802834Y-53550967D01*
X233802830Y-53550965D01*
X233802828Y-53550964D01*
X233588663Y-53451097D01*
X233588659Y-53451096D01*
X233588655Y-53451094D01*
X233360413Y-53389938D01*
X233360403Y-53389936D01*
X233125001Y-53369341D01*
X233124999Y-53369341D01*
X232889596Y-53389936D01*
X232889586Y-53389938D01*
X232661344Y-53451094D01*
X232661335Y-53451098D01*
X232447171Y-53550964D01*
X232447169Y-53550965D01*
X232253600Y-53686503D01*
X232131673Y-53808430D01*
X232070350Y-53841914D01*
X232000658Y-53836930D01*
X231944725Y-53795058D01*
X231927810Y-53764081D01*
X231878797Y-53632671D01*
X231878793Y-53632664D01*
X231792547Y-53517455D01*
X231792544Y-53517452D01*
X231677335Y-53431206D01*
X231677328Y-53431202D01*
X231542482Y-53380908D01*
X231542483Y-53380908D01*
X231482883Y-53374501D01*
X231482881Y-53374500D01*
X231482873Y-53374500D01*
X231482864Y-53374500D01*
X229687129Y-53374500D01*
X229687123Y-53374501D01*
X229627516Y-53380908D01*
X229492671Y-53431202D01*
X229492664Y-53431206D01*
X229377455Y-53517452D01*
X229377452Y-53517455D01*
X229291206Y-53632664D01*
X229291202Y-53632671D01*
X229240908Y-53767517D01*
X229234501Y-53827116D01*
X229234500Y-53827135D01*
X229234500Y-55622870D01*
X226947105Y-55622870D01*
X218972590Y-47648355D01*
X218972588Y-47648352D01*
X218853717Y-47529481D01*
X218853716Y-47529480D01*
X218766904Y-47479360D01*
X218766904Y-47479359D01*
X218766900Y-47479358D01*
X218716785Y-47450423D01*
X218564057Y-47409499D01*
X218405943Y-47409499D01*
X218398347Y-47409499D01*
X218398331Y-47409500D01*
X209999499Y-47409500D01*
X209932460Y-47389815D01*
X209886705Y-47337011D01*
X209875499Y-47285500D01*
X209875499Y-46862129D01*
X209875498Y-46862123D01*
X209875497Y-46862116D01*
X209869091Y-46802517D01*
X209840029Y-46724599D01*
X209818797Y-46667671D01*
X209818793Y-46667664D01*
X209732547Y-46552455D01*
X209732544Y-46552452D01*
X209617335Y-46466206D01*
X209617328Y-46466202D01*
X209482482Y-46415908D01*
X209482483Y-46415908D01*
X209422883Y-46409501D01*
X209422881Y-46409500D01*
X209422873Y-46409500D01*
X209422864Y-46409500D01*
X207127129Y-46409500D01*
X207127123Y-46409501D01*
X207067516Y-46415908D01*
X206932671Y-46466202D01*
X206932664Y-46466206D01*
X206817455Y-46552452D01*
X206817452Y-46552455D01*
X206731206Y-46667664D01*
X206731202Y-46667671D01*
X206680908Y-46802517D01*
X206674501Y-46862116D01*
X206674501Y-46862123D01*
X206674500Y-46862135D01*
X206674500Y-47566425D01*
X206654815Y-47633464D01*
X206602011Y-47679219D01*
X206532853Y-47689163D01*
X206469297Y-47660138D01*
X206447398Y-47635316D01*
X206356789Y-47499711D01*
X206356786Y-47499707D01*
X206245292Y-47388213D01*
X206245288Y-47388210D01*
X206114185Y-47300609D01*
X206114172Y-47300602D01*
X205968501Y-47240264D01*
X205968489Y-47240261D01*
X205813845Y-47209500D01*
X205813842Y-47209500D01*
X205656158Y-47209500D01*
X205656155Y-47209500D01*
X205501510Y-47240261D01*
X205501498Y-47240264D01*
X205355827Y-47300602D01*
X205355814Y-47300609D01*
X205224711Y-47388210D01*
X205224707Y-47388213D01*
X205113213Y-47499707D01*
X205113210Y-47499711D01*
X205025609Y-47630814D01*
X205025602Y-47630827D01*
X204965264Y-47776498D01*
X204965261Y-47776510D01*
X204934500Y-47931153D01*
X204934500Y-48088846D01*
X204965261Y-48243489D01*
X204965264Y-48243501D01*
X205025602Y-48389172D01*
X205025609Y-48389185D01*
X205113210Y-48520288D01*
X205113213Y-48520292D01*
X205224707Y-48631786D01*
X205224711Y-48631789D01*
X205355814Y-48719390D01*
X205355827Y-48719397D01*
X205501498Y-48779735D01*
X205501503Y-48779737D01*
X205656153Y-48810499D01*
X205656156Y-48810500D01*
X205656158Y-48810500D01*
X205813844Y-48810500D01*
X205813845Y-48810499D01*
X205968497Y-48779737D01*
X206114179Y-48719394D01*
X206245289Y-48631789D01*
X206356789Y-48520289D01*
X206444394Y-48389179D01*
X206444394Y-48389178D01*
X206447398Y-48384683D01*
X206501010Y-48339878D01*
X206570335Y-48331171D01*
X206633362Y-48361325D01*
X206670082Y-48420768D01*
X206674500Y-48453574D01*
X206674500Y-49157870D01*
X206674501Y-49157876D01*
X206680908Y-49217483D01*
X206731202Y-49352328D01*
X206731206Y-49352335D01*
X206817452Y-49467544D01*
X206817455Y-49467547D01*
X206894104Y-49524927D01*
X206935975Y-49580861D01*
X206940959Y-49650552D01*
X206925520Y-49688983D01*
X206844533Y-49821140D01*
X206748126Y-50053889D01*
X206707997Y-50221043D01*
X206673206Y-50281635D01*
X206611180Y-50313799D01*
X206541611Y-50307323D01*
X206486587Y-50264263D01*
X206472862Y-50239548D01*
X206444397Y-50170827D01*
X206444390Y-50170814D01*
X206356789Y-50039711D01*
X206356786Y-50039707D01*
X206245292Y-49928213D01*
X206245288Y-49928210D01*
X206114185Y-49840609D01*
X206114172Y-49840602D01*
X205968501Y-49780264D01*
X205968489Y-49780261D01*
X205813845Y-49749500D01*
X205813842Y-49749500D01*
X205656158Y-49749500D01*
X205656155Y-49749500D01*
X205501510Y-49780261D01*
X205501498Y-49780264D01*
X205355827Y-49840602D01*
X205355814Y-49840609D01*
X205224711Y-49928210D01*
X205224707Y-49928213D01*
X205113213Y-50039707D01*
X205113210Y-50039711D01*
X205025609Y-50170814D01*
X205025602Y-50170827D01*
X204965264Y-50316498D01*
X204965261Y-50316510D01*
X204934500Y-50471153D01*
X204934500Y-50628846D01*
X198537030Y-50628846D01*
X198634604Y-50407482D01*
X198656193Y-50358505D01*
X198751440Y-50059956D01*
X198814461Y-49752985D01*
X198844543Y-49441058D01*
X198842970Y-49288086D01*
X198842964Y-49286630D01*
X198843163Y-49157864D01*
X198860691Y-37790000D01*
X234794341Y-37790000D01*
X234814936Y-38025403D01*
X234814938Y-38025413D01*
X234876094Y-38253655D01*
X234876096Y-38253659D01*
X234876097Y-38253663D01*
X234892235Y-38288270D01*
X234975965Y-38467830D01*
X234975967Y-38467834D01*
X234992760Y-38491816D01*
X235111505Y-38661401D01*
X235278599Y-38828495D01*
X235366947Y-38890357D01*
X235472165Y-38964032D01*
X235472167Y-38964033D01*
X235472170Y-38964035D01*
X235686337Y-39063903D01*
X235914592Y-39125063D01*
X236102918Y-39141539D01*
X236149999Y-39145659D01*
X236150000Y-39145659D01*
X236150001Y-39145659D01*
X236189234Y-39142226D01*
X236385408Y-39125063D01*
X236613663Y-39063903D01*
X236827830Y-38964035D01*
X237021401Y-38828495D01*
X237188495Y-38661401D01*
X237324035Y-38467830D01*
X237423903Y-38253663D01*
X237485063Y-38025408D01*
X237505659Y-37790000D01*
X237485063Y-37554592D01*
X237423903Y-37326337D01*
X237324035Y-37112171D01*
X237318609Y-37104422D01*
X237188496Y-36918600D01*
X237176516Y-36906620D01*
X237066567Y-36796671D01*
X237033084Y-36735351D01*
X237038068Y-36665659D01*
X237079939Y-36609725D01*
X237110915Y-36592810D01*
X237242331Y-36543796D01*
X237357546Y-36457546D01*
X237443796Y-36342331D01*
X237494091Y-36207483D01*
X237500500Y-36147873D01*
X237500499Y-34352128D01*
X237494091Y-34292517D01*
X237443796Y-34157669D01*
X237443795Y-34157668D01*
X237443793Y-34157664D01*
X237357547Y-34042455D01*
X237357544Y-34042452D01*
X237242335Y-33956206D01*
X237242328Y-33956202D01*
X237107482Y-33905908D01*
X237107483Y-33905908D01*
X237047883Y-33899501D01*
X237047881Y-33899500D01*
X237047873Y-33899500D01*
X237047864Y-33899500D01*
X235252129Y-33899500D01*
X235252123Y-33899501D01*
X235192516Y-33905908D01*
X235057671Y-33956202D01*
X235057664Y-33956206D01*
X234942455Y-34042452D01*
X234942452Y-34042455D01*
X234856206Y-34157664D01*
X234856202Y-34157671D01*
X234805908Y-34292517D01*
X234799501Y-34352116D01*
X234799501Y-34352123D01*
X234799500Y-34352135D01*
X234799500Y-36147870D01*
X234799501Y-36147876D01*
X234805908Y-36207483D01*
X234856202Y-36342328D01*
X234856206Y-36342335D01*
X234942452Y-36457544D01*
X234942455Y-36457547D01*
X235057664Y-36543793D01*
X235057671Y-36543797D01*
X235189081Y-36592810D01*
X235245015Y-36634681D01*
X235269432Y-36700145D01*
X235254580Y-36768418D01*
X235233430Y-36796673D01*
X235111503Y-36918600D01*
X234975965Y-37112169D01*
X234975964Y-37112171D01*
X234876098Y-37326335D01*
X234876094Y-37326344D01*
X234814938Y-37554586D01*
X234814936Y-37554596D01*
X234794341Y-37789999D01*
X234794341Y-37790000D01*
X198860691Y-37790000D01*
X198870262Y-31582390D01*
X198871033Y-31569799D01*
X198871022Y-31568819D01*
X198871024Y-31568816D01*
X198870386Y-31506523D01*
X198870381Y-31505298D01*
X198870381Y-31505188D01*
X198870519Y-31499343D01*
X198876924Y-31363619D01*
X198881029Y-31276608D01*
X198882512Y-31262474D01*
X198906188Y-31117492D01*
X198917882Y-31045881D01*
X198920972Y-31032020D01*
X198980901Y-30820916D01*
X198985556Y-30807495D01*
X199069267Y-30604616D01*
X199075427Y-30591823D01*
X199181811Y-30399865D01*
X199189399Y-30387856D01*
X199291312Y-30245343D01*
X199301074Y-30233350D01*
X199302324Y-30231995D01*
X199302328Y-30231992D01*
X199328871Y-30194382D01*
X199333608Y-30188103D01*
X199362506Y-30152235D01*
X199364035Y-30148775D01*
X199376135Y-30127417D01*
X206029962Y-20700004D01*
X212604592Y-20700004D01*
X212624196Y-20961620D01*
X212624197Y-20961625D01*
X212682576Y-21217402D01*
X212682578Y-21217411D01*
X212682580Y-21217416D01*
X212778432Y-21461643D01*
X212909614Y-21688857D01*
X213041736Y-21854533D01*
X213073198Y-21893985D01*
X213254753Y-22062441D01*
X213265521Y-22072433D01*
X213482296Y-22220228D01*
X213482301Y-22220230D01*
X213482302Y-22220231D01*
X213482303Y-22220232D01*
X213607843Y-22280688D01*
X213718673Y-22334061D01*
X213718674Y-22334061D01*
X213718677Y-22334063D01*
X213969385Y-22411396D01*
X214228818Y-22450500D01*
X214491182Y-22450500D01*
X214750615Y-22411396D01*
X215001323Y-22334063D01*
X215237704Y-22220228D01*
X215454479Y-22072433D01*
X215646805Y-21893981D01*
X215810386Y-21688857D01*
X215941568Y-21461643D01*
X216037420Y-21217416D01*
X216095802Y-20961630D01*
X216115408Y-20700004D01*
X230604592Y-20700004D01*
X230624196Y-20961620D01*
X230624197Y-20961625D01*
X230682576Y-21217402D01*
X230682578Y-21217411D01*
X230682580Y-21217416D01*
X230778432Y-21461643D01*
X230909614Y-21688857D01*
X231041736Y-21854533D01*
X231073198Y-21893985D01*
X231254753Y-22062441D01*
X231265521Y-22072433D01*
X231482296Y-22220228D01*
X231482301Y-22220230D01*
X231482302Y-22220231D01*
X231482303Y-22220232D01*
X231607843Y-22280688D01*
X231718673Y-22334061D01*
X231718674Y-22334061D01*
X231718677Y-22334063D01*
X231969385Y-22411396D01*
X232228818Y-22450500D01*
X232491182Y-22450500D01*
X232750615Y-22411396D01*
X233001323Y-22334063D01*
X233237704Y-22220228D01*
X233454479Y-22072433D01*
X233646805Y-21893981D01*
X233810386Y-21688857D01*
X233941568Y-21461643D01*
X234037420Y-21217416D01*
X234095802Y-20961630D01*
X234115408Y-20700000D01*
X234095802Y-20438370D01*
X234037420Y-20182584D01*
X233941568Y-19938357D01*
X233810386Y-19711143D01*
X233646805Y-19506019D01*
X233646804Y-19506018D01*
X233646801Y-19506014D01*
X233454479Y-19327567D01*
X233237704Y-19179772D01*
X233237700Y-19179770D01*
X233237697Y-19179768D01*
X233237696Y-19179767D01*
X233001325Y-19065938D01*
X233001327Y-19065938D01*
X232750623Y-18988606D01*
X232750619Y-18988605D01*
X232750615Y-18988604D01*
X232625823Y-18969794D01*
X232491187Y-18949500D01*
X232491182Y-18949500D01*
X232228818Y-18949500D01*
X232228812Y-18949500D01*
X232067247Y-18973853D01*
X231969385Y-18988604D01*
X231969382Y-18988605D01*
X231969376Y-18988606D01*
X231718673Y-19065938D01*
X231482303Y-19179767D01*
X231482302Y-19179768D01*
X231265520Y-19327567D01*
X231073198Y-19506014D01*
X230909614Y-19711143D01*
X230778432Y-19938356D01*
X230682582Y-20182578D01*
X230682576Y-20182597D01*
X230624197Y-20438374D01*
X230624196Y-20438379D01*
X230604592Y-20699995D01*
X230604592Y-20700004D01*
X216115408Y-20700004D01*
X216115408Y-20700000D01*
X216095802Y-20438370D01*
X216037420Y-20182584D01*
X215941568Y-19938357D01*
X215810386Y-19711143D01*
X215646805Y-19506019D01*
X215646804Y-19506018D01*
X215646801Y-19506014D01*
X215454479Y-19327567D01*
X215237704Y-19179772D01*
X215237700Y-19179770D01*
X215237697Y-19179768D01*
X215237696Y-19179767D01*
X215001325Y-19065938D01*
X215001327Y-19065938D01*
X214750623Y-18988606D01*
X214750619Y-18988605D01*
X214750615Y-18988604D01*
X214625823Y-18969794D01*
X214491187Y-18949500D01*
X214491182Y-18949500D01*
X214228818Y-18949500D01*
X214228812Y-18949500D01*
X214067247Y-18973853D01*
X213969385Y-18988604D01*
X213969382Y-18988605D01*
X213969376Y-18988606D01*
X213718673Y-19065938D01*
X213482303Y-19179767D01*
X213482302Y-19179768D01*
X213265520Y-19327567D01*
X213073198Y-19506014D01*
X212909614Y-19711143D01*
X212778432Y-19938356D01*
X212682582Y-20182578D01*
X212682576Y-20182597D01*
X212624197Y-20438374D01*
X212624196Y-20438379D01*
X212604592Y-20699995D01*
X212604592Y-20700004D01*
X206029962Y-20700004D01*
X210231461Y-14747148D01*
X210252085Y-14724493D01*
X210377948Y-14616661D01*
X210388839Y-14608330D01*
X210564067Y-14489082D01*
X210575816Y-14482006D01*
X210763147Y-14382881D01*
X210775604Y-14377149D01*
X210972760Y-14299351D01*
X210985780Y-14295031D01*
X211190327Y-14239523D01*
X211203737Y-14236671D01*
X211394748Y-14206994D01*
X211413754Y-14205525D01*
X239600237Y-14200501D01*
X239619633Y-14202025D01*
G37*
%TD.AperFunction*%
%TA.AperFunction,Conductor*%
G36*
X72791942Y-97420185D02*
G01*
X72812584Y-97436819D01*
X76466986Y-101091221D01*
X76500471Y-101152544D01*
X76495487Y-101222236D01*
X76453615Y-101278169D01*
X76445277Y-101283896D01*
X76347737Y-101345184D01*
X76220184Y-101472737D01*
X76124211Y-101625476D01*
X76064631Y-101795745D01*
X76064630Y-101795750D01*
X76044435Y-101974996D01*
X76044435Y-101975003D01*
X76064630Y-102154249D01*
X76064631Y-102154254D01*
X76124211Y-102324523D01*
X76220184Y-102477262D01*
X76347738Y-102604816D01*
X76500478Y-102700789D01*
X76670745Y-102760368D01*
X76701317Y-102763812D01*
X76765729Y-102790876D01*
X76775116Y-102799351D01*
X79213584Y-105237819D01*
X79247069Y-105299142D01*
X79242085Y-105368834D01*
X79200213Y-105424767D01*
X79134749Y-105449184D01*
X79125903Y-105449500D01*
X72600097Y-105449500D01*
X72533058Y-105429815D01*
X72512416Y-105413181D01*
X72087050Y-104987815D01*
X72053565Y-104926492D01*
X72051511Y-104914017D01*
X72035369Y-104770750D01*
X72035368Y-104770745D01*
X71987883Y-104635042D01*
X71975789Y-104600478D01*
X71970968Y-104592806D01*
X71931960Y-104530725D01*
X71879816Y-104447738D01*
X71752262Y-104320184D01*
X71599523Y-104224211D01*
X71429254Y-104164631D01*
X71429249Y-104164630D01*
X71250004Y-104144435D01*
X71249996Y-104144435D01*
X71070750Y-104164630D01*
X71070745Y-104164631D01*
X70900476Y-104224211D01*
X70747737Y-104320184D01*
X70620184Y-104447737D01*
X70524211Y-104600476D01*
X70464631Y-104770745D01*
X70464631Y-104770748D01*
X70458642Y-104823899D01*
X70431575Y-104888312D01*
X70373980Y-104927867D01*
X70304143Y-104930004D01*
X70247741Y-104897695D01*
X68853042Y-103502996D01*
X68819557Y-103441673D01*
X68824541Y-103371981D01*
X68866413Y-103316048D01*
X68893271Y-103300754D01*
X68990858Y-103260332D01*
X68990860Y-103260331D01*
X69192941Y-103136495D01*
X69192941Y-103136494D01*
X68414409Y-102357962D01*
X68477993Y-102340925D01*
X68592007Y-102275099D01*
X68685099Y-102182007D01*
X68750925Y-102067993D01*
X68767962Y-102004409D01*
X69546493Y-102782940D01*
X69561797Y-102781129D01*
X69590948Y-102781128D01*
X69648504Y-102787940D01*
X70427037Y-102009408D01*
X70444075Y-102072993D01*
X70509901Y-102187007D01*
X70602993Y-102280099D01*
X70717007Y-102345925D01*
X70780590Y-102362962D01*
X70002057Y-103141494D01*
X70204138Y-103265331D01*
X70429542Y-103358696D01*
X70666780Y-103415651D01*
X70666779Y-103415651D01*
X70910000Y-103434792D01*
X71153219Y-103415651D01*
X71390457Y-103358696D01*
X71615861Y-103265331D01*
X71817941Y-103141495D01*
X71817941Y-103141494D01*
X71039410Y-102362962D01*
X71102993Y-102345925D01*
X71217007Y-102280099D01*
X71310099Y-102187007D01*
X71375925Y-102072993D01*
X71392962Y-102009409D01*
X72171494Y-102787941D01*
X72171495Y-102787941D01*
X72295331Y-102585861D01*
X72388696Y-102360457D01*
X72445651Y-102123219D01*
X72464792Y-101880000D01*
X72445651Y-101636780D01*
X72388696Y-101399542D01*
X72295331Y-101174138D01*
X72171494Y-100972057D01*
X71392962Y-101750589D01*
X71375925Y-101687007D01*
X71310099Y-101572993D01*
X71217007Y-101479901D01*
X71102993Y-101414075D01*
X71039409Y-101397037D01*
X71840038Y-100596406D01*
X71866731Y-100561915D01*
X72009759Y-100439759D01*
X72168259Y-100254179D01*
X72295777Y-100046089D01*
X72389172Y-99820612D01*
X72446146Y-99583302D01*
X72465294Y-99340000D01*
X72446146Y-99096698D01*
X72389172Y-98859388D01*
X72387355Y-98855001D01*
X72295777Y-98633910D01*
X72168262Y-98425826D01*
X72168261Y-98425823D01*
X72027590Y-98261119D01*
X72009759Y-98240241D01*
X72009757Y-98240239D01*
X72009756Y-98240238D01*
X71920832Y-98164290D01*
X71882638Y-98105784D01*
X71882139Y-98035916D01*
X71919493Y-97976869D01*
X71920832Y-97975710D01*
X71952276Y-97948853D01*
X72009759Y-97899759D01*
X72168259Y-97714179D01*
X72295777Y-97506089D01*
X72302638Y-97489526D01*
X72307807Y-97477047D01*
X72351648Y-97422644D01*
X72417942Y-97400579D01*
X72422368Y-97400500D01*
X72724903Y-97400500D01*
X72791942Y-97420185D01*
G37*
%TD.AperFunction*%
%TA.AperFunction,Conductor*%
G36*
X207921942Y-86775185D02*
G01*
X207942584Y-86791819D01*
X209238181Y-88087416D01*
X209271666Y-88148739D01*
X209274500Y-88175097D01*
X209274500Y-88636859D01*
X209274499Y-88636877D01*
X209274499Y-88802583D01*
X209274498Y-88802583D01*
X209274499Y-88802586D01*
X209312659Y-88945000D01*
X209315424Y-88955316D01*
X209332835Y-88985472D01*
X209332836Y-88985474D01*
X209394477Y-89092241D01*
X209394481Y-89092246D01*
X209513349Y-89211114D01*
X209513355Y-89211119D01*
X220653842Y-100351608D01*
X220687327Y-100412931D01*
X220682343Y-100482623D01*
X220653844Y-100526969D01*
X220624952Y-100555861D01*
X220494432Y-100742265D01*
X220494431Y-100742267D01*
X220398261Y-100948502D01*
X220398258Y-100948511D01*
X220339366Y-101168302D01*
X220339364Y-101168313D01*
X220319532Y-101394998D01*
X220319532Y-101395001D01*
X220339364Y-101621686D01*
X220339366Y-101621697D01*
X220365152Y-101717931D01*
X220363489Y-101787781D01*
X220333059Y-101837704D01*
X220282584Y-101888180D01*
X220221261Y-101921666D01*
X220194902Y-101924500D01*
X207751098Y-101924500D01*
X207684059Y-101904815D01*
X207638304Y-101852011D01*
X207628360Y-101782853D01*
X207631323Y-101768407D01*
X207644848Y-101717931D01*
X207670635Y-101621692D01*
X207690468Y-101395000D01*
X207670635Y-101168308D01*
X207618536Y-100973870D01*
X207611741Y-100948511D01*
X207611738Y-100948502D01*
X207603865Y-100931618D01*
X207515568Y-100742266D01*
X207405009Y-100584370D01*
X207385045Y-100555858D01*
X207224141Y-100394954D01*
X207037734Y-100264432D01*
X207037728Y-100264429D01*
X206979725Y-100237382D01*
X206927285Y-100191210D01*
X206908133Y-100124017D01*
X206928348Y-100057135D01*
X206979725Y-100012618D01*
X206984323Y-100010474D01*
X207037734Y-99985568D01*
X207224139Y-99855047D01*
X207385047Y-99694139D01*
X207515568Y-99507734D01*
X207611739Y-99301496D01*
X207670635Y-99081692D01*
X207690468Y-98855000D01*
X207670635Y-98628308D01*
X207611739Y-98408504D01*
X207515568Y-98202266D01*
X207385047Y-98015861D01*
X207385045Y-98015858D01*
X207224141Y-97854954D01*
X207037734Y-97724432D01*
X207037728Y-97724429D01*
X206979725Y-97697382D01*
X206927285Y-97651210D01*
X206908133Y-97584017D01*
X206928348Y-97517135D01*
X206979725Y-97472618D01*
X207037734Y-97445568D01*
X207224139Y-97315047D01*
X207385047Y-97154139D01*
X207515568Y-96967734D01*
X207611739Y-96761496D01*
X207670635Y-96541692D01*
X207690076Y-96319480D01*
X207690468Y-96315001D01*
X207690468Y-96314998D01*
X207670635Y-96088313D01*
X207670635Y-96088308D01*
X207611739Y-95868504D01*
X207515568Y-95662266D01*
X207385047Y-95475861D01*
X207385045Y-95475858D01*
X207224141Y-95314954D01*
X207037734Y-95184432D01*
X207037728Y-95184429D01*
X206979725Y-95157382D01*
X206927285Y-95111210D01*
X206908133Y-95044017D01*
X206928348Y-94977135D01*
X206979725Y-94932618D01*
X207037734Y-94905568D01*
X207224139Y-94775047D01*
X207385047Y-94614139D01*
X207515118Y-94428375D01*
X207569693Y-94384752D01*
X207616692Y-94375500D01*
X211974903Y-94375500D01*
X212041942Y-94395185D01*
X212062584Y-94411819D01*
X213294298Y-95643533D01*
X213327783Y-95704856D01*
X213329837Y-95717330D01*
X213339630Y-95804249D01*
X213399210Y-95974521D01*
X213474228Y-96093911D01*
X213495184Y-96127262D01*
X213622738Y-96254816D01*
X213775478Y-96350789D01*
X213945745Y-96410368D01*
X213945750Y-96410369D01*
X214124996Y-96430565D01*
X214125000Y-96430565D01*
X214125004Y-96430565D01*
X214304249Y-96410369D01*
X214304252Y-96410368D01*
X214304255Y-96410368D01*
X214474522Y-96350789D01*
X214627262Y-96254816D01*
X214754816Y-96127262D01*
X214850789Y-95974522D01*
X214910368Y-95804255D01*
X214917401Y-95741839D01*
X214930565Y-95625003D01*
X214930565Y-95624996D01*
X214910369Y-95445750D01*
X214910368Y-95445745D01*
X214878531Y-95354761D01*
X214850789Y-95275478D01*
X214842076Y-95261612D01*
X214790457Y-95179461D01*
X214754816Y-95122738D01*
X214627262Y-94995184D01*
X214527689Y-94932618D01*
X214474521Y-94899210D01*
X214304249Y-94839630D01*
X214217330Y-94829837D01*
X214152916Y-94802770D01*
X214143533Y-94794298D01*
X212762590Y-93413355D01*
X212762588Y-93413352D01*
X212643717Y-93294481D01*
X212643716Y-93294480D01*
X212556904Y-93244360D01*
X212556904Y-93244359D01*
X212556900Y-93244358D01*
X212506785Y-93215423D01*
X212354057Y-93174499D01*
X212195943Y-93174499D01*
X212188347Y-93174499D01*
X212188331Y-93174500D01*
X207616692Y-93174500D01*
X207549653Y-93154815D01*
X207515119Y-93121625D01*
X207385047Y-92935861D01*
X207385045Y-92935858D01*
X207224141Y-92774954D01*
X207037734Y-92644432D01*
X207037728Y-92644429D01*
X206979725Y-92617382D01*
X206927285Y-92571210D01*
X206908133Y-92504017D01*
X206928348Y-92437135D01*
X206979725Y-92392618D01*
X207037734Y-92365568D01*
X207224139Y-92235047D01*
X207385047Y-92074139D01*
X207515568Y-91887734D01*
X207611739Y-91681496D01*
X207670635Y-91461692D01*
X207688783Y-91254255D01*
X207690468Y-91235001D01*
X207690468Y-91234998D01*
X207670635Y-91008313D01*
X207670635Y-91008308D01*
X207615039Y-90800821D01*
X207611741Y-90788511D01*
X207611738Y-90788502D01*
X207610105Y-90785000D01*
X207515568Y-90582266D01*
X207385047Y-90395861D01*
X207385045Y-90395858D01*
X207224141Y-90234954D01*
X207037734Y-90104432D01*
X207037732Y-90104431D01*
X207026275Y-90099088D01*
X206979132Y-90077105D01*
X206926694Y-90030934D01*
X206907542Y-89963740D01*
X206927758Y-89896859D01*
X206979134Y-89852341D01*
X207037484Y-89825132D01*
X207223820Y-89694657D01*
X207384657Y-89533820D01*
X207515134Y-89347482D01*
X207611265Y-89141326D01*
X207611269Y-89141317D01*
X207663872Y-88945000D01*
X206818012Y-88945000D01*
X206850925Y-88887993D01*
X206885000Y-88760826D01*
X206885000Y-88629174D01*
X206850925Y-88502007D01*
X206818012Y-88445000D01*
X207663872Y-88445000D01*
X207663872Y-88444999D01*
X207611269Y-88248682D01*
X207611265Y-88248673D01*
X207515134Y-88042517D01*
X207384657Y-87856179D01*
X207223820Y-87695342D01*
X207037482Y-87564865D01*
X206979133Y-87537657D01*
X206926694Y-87491484D01*
X206907542Y-87424291D01*
X206927758Y-87357410D01*
X206979129Y-87312895D01*
X207037734Y-87285568D01*
X207224139Y-87155047D01*
X207385047Y-86994139D01*
X207515118Y-86808375D01*
X207569693Y-86764752D01*
X207616692Y-86755500D01*
X207854903Y-86755500D01*
X207921942Y-86775185D01*
G37*
%TD.AperFunction*%
%TA.AperFunction,Conductor*%
G36*
X69688496Y-100297232D02*
G01*
X69689655Y-100298571D01*
X69806620Y-100435520D01*
X69810241Y-100439759D01*
X69953262Y-100561910D01*
X69953263Y-100561911D01*
X69967924Y-100584370D01*
X70780591Y-101397037D01*
X70717007Y-101414075D01*
X70602993Y-101479901D01*
X70509901Y-101572993D01*
X70444075Y-101687007D01*
X70427037Y-101750590D01*
X69648504Y-100972057D01*
X69633199Y-100973869D01*
X69604051Y-100973870D01*
X69546494Y-100967058D01*
X68767962Y-101745590D01*
X68750925Y-101682007D01*
X68685099Y-101567993D01*
X68592007Y-101474901D01*
X68477993Y-101409075D01*
X68414409Y-101392037D01*
X69215038Y-100591406D01*
X69241731Y-100556915D01*
X69384759Y-100434759D01*
X69501075Y-100298569D01*
X69559582Y-100260377D01*
X69629450Y-100259878D01*
X69688496Y-100297232D01*
G37*
%TD.AperFunction*%
%TA.AperFunction,Conductor*%
G36*
X215659058Y-75988877D02*
G01*
X215666496Y-75995732D01*
X220326718Y-80655954D01*
X220360203Y-80717277D01*
X220358812Y-80775727D01*
X220339367Y-80848299D01*
X220339364Y-80848313D01*
X220319532Y-81074998D01*
X220319532Y-81075001D01*
X220339364Y-81301686D01*
X220339366Y-81301697D01*
X220398258Y-81521488D01*
X220398261Y-81521497D01*
X220494431Y-81727732D01*
X220494432Y-81727734D01*
X220624954Y-81914141D01*
X220785858Y-82075045D01*
X220785861Y-82075047D01*
X220972266Y-82205568D01*
X221030865Y-82232893D01*
X221083305Y-82279065D01*
X221102457Y-82346258D01*
X221082242Y-82413139D01*
X221030867Y-82457657D01*
X220972515Y-82484867D01*
X220786179Y-82615342D01*
X220625342Y-82776179D01*
X220494865Y-82962517D01*
X220398734Y-83168673D01*
X220398730Y-83168682D01*
X220346127Y-83364999D01*
X220346128Y-83365000D01*
X221191988Y-83365000D01*
X221159075Y-83422007D01*
X221125000Y-83549174D01*
X221125000Y-83680826D01*
X221159075Y-83807993D01*
X221191988Y-83865000D01*
X220346128Y-83865000D01*
X220398730Y-84061317D01*
X220398734Y-84061326D01*
X220494865Y-84267482D01*
X220625342Y-84453820D01*
X220786179Y-84614657D01*
X220972518Y-84745134D01*
X220972520Y-84745135D01*
X221030865Y-84772342D01*
X221083305Y-84818514D01*
X221102457Y-84885707D01*
X221082242Y-84952589D01*
X221030867Y-84997105D01*
X220972268Y-85024431D01*
X220972264Y-85024433D01*
X220785858Y-85154954D01*
X220624954Y-85315858D01*
X220494432Y-85502265D01*
X220494431Y-85502267D01*
X220398261Y-85708502D01*
X220398258Y-85708511D01*
X220339366Y-85928302D01*
X220339364Y-85928313D01*
X220319532Y-86154998D01*
X220319532Y-86155001D01*
X220339364Y-86381686D01*
X220339366Y-86381697D01*
X220398258Y-86601488D01*
X220398261Y-86601497D01*
X220494431Y-86807732D01*
X220494432Y-86807734D01*
X220624954Y-86994141D01*
X220785858Y-87155045D01*
X220785861Y-87155047D01*
X220972266Y-87285568D01*
X221030275Y-87312618D01*
X221082714Y-87358791D01*
X221101866Y-87425984D01*
X221081650Y-87492865D01*
X221030275Y-87537382D01*
X220972267Y-87564431D01*
X220972265Y-87564432D01*
X220785858Y-87694954D01*
X220624954Y-87855858D01*
X220494432Y-88042265D01*
X220494431Y-88042267D01*
X220398261Y-88248502D01*
X220398258Y-88248511D01*
X220339366Y-88468302D01*
X220339364Y-88468313D01*
X220319532Y-88694998D01*
X220319532Y-88695001D01*
X220339364Y-88921686D01*
X220339366Y-88921697D01*
X220398258Y-89141488D01*
X220398261Y-89141497D01*
X220494431Y-89347732D01*
X220494432Y-89347734D01*
X220624954Y-89534141D01*
X220785858Y-89695045D01*
X220785861Y-89695047D01*
X220972266Y-89825568D01*
X221029681Y-89852341D01*
X221030275Y-89852618D01*
X221082714Y-89898791D01*
X221101866Y-89965984D01*
X221081650Y-90032865D01*
X221030275Y-90077382D01*
X220972267Y-90104431D01*
X220972265Y-90104432D01*
X220785858Y-90234954D01*
X220624954Y-90395858D01*
X220494432Y-90582265D01*
X220494431Y-90582267D01*
X220398261Y-90788502D01*
X220398258Y-90788511D01*
X220339366Y-91008302D01*
X220339364Y-91008313D01*
X220319532Y-91234998D01*
X220319532Y-91235001D01*
X220339364Y-91461686D01*
X220339366Y-91461697D01*
X220398258Y-91681488D01*
X220398261Y-91681497D01*
X220494431Y-91887732D01*
X220494432Y-91887734D01*
X220624954Y-92074141D01*
X220785858Y-92235045D01*
X220785861Y-92235047D01*
X220972266Y-92365568D01*
X221030275Y-92392618D01*
X221082714Y-92438791D01*
X221101866Y-92505984D01*
X221081650Y-92572865D01*
X221030275Y-92617382D01*
X220972267Y-92644431D01*
X220972265Y-92644432D01*
X220785858Y-92774954D01*
X220624954Y-92935858D01*
X220494432Y-93122265D01*
X220494431Y-93122267D01*
X220398261Y-93328502D01*
X220398258Y-93328511D01*
X220339366Y-93548302D01*
X220339364Y-93548313D01*
X220319532Y-93774998D01*
X220319532Y-93775001D01*
X220339364Y-94001686D01*
X220339366Y-94001697D01*
X220398258Y-94221488D01*
X220398261Y-94221497D01*
X220494431Y-94427732D01*
X220494432Y-94427734D01*
X220624954Y-94614141D01*
X220785858Y-94775045D01*
X220825441Y-94802761D01*
X220972266Y-94905568D01*
X221030275Y-94932618D01*
X221082714Y-94978791D01*
X221101866Y-95045984D01*
X221081650Y-95112865D01*
X221030275Y-95157382D01*
X220972267Y-95184431D01*
X220972265Y-95184432D01*
X220785858Y-95314954D01*
X220624954Y-95475858D01*
X220494432Y-95662265D01*
X220494431Y-95662267D01*
X220398261Y-95868502D01*
X220398258Y-95868511D01*
X220339366Y-96088302D01*
X220339364Y-96088313D01*
X220319532Y-96314998D01*
X220319532Y-96315001D01*
X220339364Y-96541686D01*
X220339366Y-96541697D01*
X220398258Y-96761488D01*
X220398261Y-96761497D01*
X220494431Y-96967732D01*
X220494432Y-96967734D01*
X220624954Y-97154141D01*
X220785858Y-97315045D01*
X220785861Y-97315047D01*
X220972266Y-97445568D01*
X221030275Y-97472618D01*
X221082714Y-97518791D01*
X221101866Y-97585984D01*
X221081650Y-97652865D01*
X221030275Y-97697382D01*
X220972267Y-97724431D01*
X220972265Y-97724432D01*
X220785858Y-97854954D01*
X220624954Y-98015858D01*
X220494430Y-98202268D01*
X220494429Y-98202269D01*
X220476583Y-98240540D01*
X220430409Y-98292979D01*
X220363215Y-98312129D01*
X220296335Y-98291912D01*
X220276521Y-98275814D01*
X211125792Y-89125085D01*
X211092307Y-89063762D01*
X211097291Y-88994070D01*
X211108479Y-88971432D01*
X211200789Y-88824522D01*
X211260368Y-88654255D01*
X211260872Y-88649782D01*
X211280565Y-88475003D01*
X211280565Y-88474996D01*
X211260369Y-88295750D01*
X211260368Y-88295745D01*
X211232614Y-88216429D01*
X211200789Y-88125478D01*
X211104816Y-87972738D01*
X211104814Y-87972736D01*
X211104813Y-87972734D01*
X211102550Y-87969896D01*
X211101659Y-87967715D01*
X211101111Y-87966842D01*
X211101264Y-87966745D01*
X211076144Y-87905209D01*
X211075500Y-87892587D01*
X211075500Y-76628476D01*
X211095185Y-76561437D01*
X211147989Y-76515682D01*
X211217147Y-76505738D01*
X211280703Y-76534763D01*
X211304493Y-76562503D01*
X211345184Y-76627262D01*
X211472738Y-76754816D01*
X211516012Y-76782007D01*
X211590089Y-76828553D01*
X211625478Y-76850789D01*
X211795745Y-76910368D01*
X211795750Y-76910369D01*
X211974996Y-76930565D01*
X211975000Y-76930565D01*
X211975004Y-76930565D01*
X212154249Y-76910369D01*
X212154252Y-76910368D01*
X212154255Y-76910368D01*
X212324522Y-76850789D01*
X212477262Y-76754816D01*
X212477267Y-76754810D01*
X212480097Y-76752555D01*
X212482275Y-76751665D01*
X212483158Y-76751111D01*
X212483255Y-76751265D01*
X212544783Y-76726145D01*
X212557412Y-76725500D01*
X214188331Y-76725500D01*
X214188347Y-76725501D01*
X214195943Y-76725501D01*
X214354054Y-76725501D01*
X214354057Y-76725501D01*
X214506785Y-76684577D01*
X214556904Y-76655639D01*
X214643716Y-76605520D01*
X214755520Y-76493716D01*
X214755521Y-76493714D01*
X214774713Y-76474522D01*
X214793535Y-76455700D01*
X214854858Y-76422215D01*
X214867315Y-76420163D01*
X214954255Y-76410368D01*
X215124522Y-76350789D01*
X215277262Y-76254816D01*
X215404816Y-76127262D01*
X215473821Y-76017440D01*
X215526156Y-75971150D01*
X215595209Y-75960502D01*
X215659058Y-75988877D01*
G37*
%TD.AperFunction*%
%TA.AperFunction,Conductor*%
G36*
X66620405Y-76531343D02*
G01*
X66676338Y-76573215D01*
X66700689Y-76637796D01*
X66707539Y-76724840D01*
X66766048Y-76968545D01*
X66861952Y-77200079D01*
X66992816Y-77413629D01*
X67802037Y-76604407D01*
X67819075Y-76667993D01*
X67884901Y-76782007D01*
X67977993Y-76875099D01*
X68092007Y-76940925D01*
X68155590Y-76957962D01*
X67308215Y-77805337D01*
X67297091Y-77819711D01*
X67185241Y-77915241D01*
X67026738Y-78100823D01*
X67026737Y-78100826D01*
X66899222Y-78308910D01*
X66805830Y-78534380D01*
X66748853Y-78771702D01*
X66734565Y-78953252D01*
X66709681Y-79018540D01*
X66653450Y-79060011D01*
X66583724Y-79064498D01*
X66578871Y-79063302D01*
X66434057Y-79024499D01*
X66434054Y-79024499D01*
X66407939Y-79024499D01*
X66340900Y-79004814D01*
X66320258Y-78988180D01*
X66302262Y-78970184D01*
X66149523Y-78874211D01*
X65979254Y-78814631D01*
X65979249Y-78814630D01*
X65800004Y-78794435D01*
X65799996Y-78794435D01*
X65613825Y-78815411D01*
X65613484Y-78812388D01*
X65557132Y-78808828D01*
X65500853Y-78767423D01*
X65475894Y-78702163D01*
X65475500Y-78692291D01*
X65475500Y-77625096D01*
X65495185Y-77558057D01*
X65511814Y-77537420D01*
X66489393Y-76559842D01*
X66550713Y-76526359D01*
X66620405Y-76531343D01*
G37*
%TD.AperFunction*%
%TA.AperFunction,Conductor*%
G36*
X69577182Y-77413629D02*
G01*
X69597500Y-77411224D01*
X69607017Y-77402614D01*
X69639229Y-77397216D01*
X70427037Y-76609408D01*
X70444075Y-76672993D01*
X70509901Y-76787007D01*
X70602993Y-76880099D01*
X70717007Y-76945925D01*
X70780590Y-76962962D01*
X69979973Y-77763579D01*
X69953263Y-77798088D01*
X69816099Y-77915238D01*
X69810241Y-77920241D01*
X69700091Y-78049211D01*
X69693925Y-78056430D01*
X69635418Y-78094623D01*
X69565550Y-78095122D01*
X69506504Y-78057768D01*
X69505345Y-78056429D01*
X69384761Y-77915243D01*
X69384756Y-77915238D01*
X69272908Y-77819711D01*
X69266294Y-77809579D01*
X69266160Y-77809714D01*
X68414410Y-76957962D01*
X68477993Y-76940925D01*
X68592007Y-76875099D01*
X68685099Y-76782007D01*
X68750925Y-76667993D01*
X68767962Y-76604409D01*
X69577182Y-77413629D01*
G37*
%TD.AperFunction*%
%TA.AperFunction,Conductor*%
G36*
X70024731Y-75245185D02*
G01*
X70045373Y-75261819D01*
X70780591Y-75997037D01*
X70717007Y-76014075D01*
X70602993Y-76079901D01*
X70509901Y-76172993D01*
X70444075Y-76287007D01*
X70427037Y-76350590D01*
X69638541Y-75562094D01*
X69608373Y-75556984D01*
X69568398Y-75526045D01*
X69486395Y-75430032D01*
X69457824Y-75366270D01*
X69468261Y-75297185D01*
X69514392Y-75244709D01*
X69580685Y-75225500D01*
X69957692Y-75225500D01*
X70024731Y-75245185D01*
G37*
%TD.AperFunction*%
%TD*%
M02*
