%TF.GenerationSoftware,KiCad,Pcbnew,8.0.0*%
%TF.CreationDate,2024-03-17T01:00:07+02:00*%
%TF.ProjectId,FollowTheLine,466f6c6c-6f77-4546-9865-4c696e652e6b,rev?*%
%TF.SameCoordinates,Original*%
%TF.FileFunction,Legend,Bot*%
%TF.FilePolarity,Positive*%
%FSLAX46Y46*%
G04 Gerber Fmt 4.6, Leading zero omitted, Abs format (unit mm)*
G04 Created by KiCad (PCBNEW 8.0.0) date 2024-03-17 01:00:07*
%MOMM*%
%LPD*%
G01*
G04 APERTURE LIST*
%ADD10C,0.100000*%
G04 APERTURE END LIST*
D10*
X185173609Y-92387782D02*
X185221228Y-92244925D01*
X185221228Y-92244925D02*
X185268847Y-92197306D01*
X185268847Y-92197306D02*
X185364085Y-92149687D01*
X185364085Y-92149687D02*
X185506942Y-92149687D01*
X185506942Y-92149687D02*
X185602180Y-92197306D01*
X185602180Y-92197306D02*
X185649800Y-92244925D01*
X185649800Y-92244925D02*
X185697419Y-92340163D01*
X185697419Y-92340163D02*
X185697419Y-92721115D01*
X185697419Y-92721115D02*
X184697419Y-92721115D01*
X184697419Y-92721115D02*
X184697419Y-92387782D01*
X184697419Y-92387782D02*
X184745038Y-92292544D01*
X184745038Y-92292544D02*
X184792657Y-92244925D01*
X184792657Y-92244925D02*
X184887895Y-92197306D01*
X184887895Y-92197306D02*
X184983133Y-92197306D01*
X184983133Y-92197306D02*
X185078371Y-92244925D01*
X185078371Y-92244925D02*
X185125990Y-92292544D01*
X185125990Y-92292544D02*
X185173609Y-92387782D01*
X185173609Y-92387782D02*
X185173609Y-92721115D01*
X185697419Y-91721115D02*
X185030752Y-91721115D01*
X184697419Y-91721115D02*
X184745038Y-91768734D01*
X184745038Y-91768734D02*
X184792657Y-91721115D01*
X184792657Y-91721115D02*
X184745038Y-91673496D01*
X184745038Y-91673496D02*
X184697419Y-91721115D01*
X184697419Y-91721115D02*
X184792657Y-91721115D01*
X185697419Y-91102068D02*
X185649800Y-91197306D01*
X185649800Y-91197306D02*
X185554561Y-91244925D01*
X185554561Y-91244925D02*
X184697419Y-91244925D01*
X185697419Y-90578258D02*
X185649800Y-90673496D01*
X185649800Y-90673496D02*
X185554561Y-90721115D01*
X185554561Y-90721115D02*
X184697419Y-90721115D01*
X184697419Y-89578257D02*
X184697419Y-89006829D01*
X185697419Y-89292543D02*
X184697419Y-89292543D01*
X185649800Y-88721114D02*
X185697419Y-88625876D01*
X185697419Y-88625876D02*
X185697419Y-88435400D01*
X185697419Y-88435400D02*
X185649800Y-88340162D01*
X185649800Y-88340162D02*
X185554561Y-88292543D01*
X185554561Y-88292543D02*
X185506942Y-88292543D01*
X185506942Y-88292543D02*
X185411704Y-88340162D01*
X185411704Y-88340162D02*
X185364085Y-88435400D01*
X185364085Y-88435400D02*
X185364085Y-88578257D01*
X185364085Y-88578257D02*
X185316466Y-88673495D01*
X185316466Y-88673495D02*
X185221228Y-88721114D01*
X185221228Y-88721114D02*
X185173609Y-88721114D01*
X185173609Y-88721114D02*
X185078371Y-88673495D01*
X185078371Y-88673495D02*
X185030752Y-88578257D01*
X185030752Y-88578257D02*
X185030752Y-88435400D01*
X185030752Y-88435400D02*
X185078371Y-88340162D01*
X185697419Y-87721114D02*
X185649800Y-87816352D01*
X185649800Y-87816352D02*
X185602180Y-87863971D01*
X185602180Y-87863971D02*
X185506942Y-87911590D01*
X185506942Y-87911590D02*
X185221228Y-87911590D01*
X185221228Y-87911590D02*
X185125990Y-87863971D01*
X185125990Y-87863971D02*
X185078371Y-87816352D01*
X185078371Y-87816352D02*
X185030752Y-87721114D01*
X185030752Y-87721114D02*
X185030752Y-87578257D01*
X185030752Y-87578257D02*
X185078371Y-87483019D01*
X185078371Y-87483019D02*
X185125990Y-87435400D01*
X185125990Y-87435400D02*
X185221228Y-87387781D01*
X185221228Y-87387781D02*
X185506942Y-87387781D01*
X185506942Y-87387781D02*
X185602180Y-87435400D01*
X185602180Y-87435400D02*
X185649800Y-87483019D01*
X185649800Y-87483019D02*
X185697419Y-87578257D01*
X185697419Y-87578257D02*
X185697419Y-87721114D01*
X185697419Y-86816352D02*
X185649800Y-86911590D01*
X185649800Y-86911590D02*
X185554561Y-86959209D01*
X185554561Y-86959209D02*
X184697419Y-86959209D01*
M02*
