%TF.GenerationSoftware,KiCad,Pcbnew,8.0.0*%
%TF.CreationDate,2024-03-17T01:00:07+02:00*%
%TF.ProjectId,FollowTheLine,466f6c6c-6f77-4546-9865-4c696e652e6b,rev?*%
%TF.SameCoordinates,Original*%
%TF.FileFunction,Legend,Top*%
%TF.FilePolarity,Positive*%
%FSLAX46Y46*%
G04 Gerber Fmt 4.6, Leading zero omitted, Abs format (unit mm)*
G04 Created by KiCad (PCBNEW 8.0.0) date 2024-03-17 01:00:07*
%MOMM*%
%LPD*%
G01*
G04 APERTURE LIST*
%ADD10C,0.100000*%
%ADD11C,0.150000*%
%ADD12C,0.120000*%
%ADD13C,0.076200*%
G04 APERTURE END LIST*
D10*
X141600000Y-107487500D02*
X141600000Y-101950000D01*
X201475000Y-107487500D02*
X201475000Y-71512500D01*
X130625000Y-68962500D02*
X130600000Y-76475000D01*
X141600000Y-71512500D02*
X141575000Y-76425000D01*
X201475000Y-68962500D02*
X201475000Y-71512500D01*
X201475000Y-107487500D02*
X201475000Y-110037500D01*
X130625000Y-102150000D02*
X130625000Y-110037500D01*
X213602580Y-46336027D02*
X212602580Y-46669360D01*
X212602580Y-46669360D02*
X213602580Y-47002693D01*
X212650200Y-47764598D02*
X212602580Y-47669360D01*
X212602580Y-47669360D02*
X212602580Y-47478884D01*
X212602580Y-47478884D02*
X212650200Y-47383646D01*
X212650200Y-47383646D02*
X212697819Y-47336027D01*
X212697819Y-47336027D02*
X212793057Y-47288408D01*
X212793057Y-47288408D02*
X213078771Y-47288408D01*
X213078771Y-47288408D02*
X213174009Y-47336027D01*
X213174009Y-47336027D02*
X213221628Y-47383646D01*
X213221628Y-47383646D02*
X213269247Y-47478884D01*
X213269247Y-47478884D02*
X213269247Y-47669360D01*
X213269247Y-47669360D02*
X213221628Y-47764598D01*
X212650200Y-48621741D02*
X212602580Y-48526503D01*
X212602580Y-48526503D02*
X212602580Y-48336027D01*
X212602580Y-48336027D02*
X212650200Y-48240789D01*
X212650200Y-48240789D02*
X212697819Y-48193170D01*
X212697819Y-48193170D02*
X212793057Y-48145551D01*
X212793057Y-48145551D02*
X213078771Y-48145551D01*
X213078771Y-48145551D02*
X213174009Y-48193170D01*
X213174009Y-48193170D02*
X213221628Y-48240789D01*
X213221628Y-48240789D02*
X213269247Y-48336027D01*
X213269247Y-48336027D02*
X213269247Y-48526503D01*
X213269247Y-48526503D02*
X213221628Y-48621741D01*
X213650200Y-49764598D02*
X212364485Y-48907456D01*
X213554961Y-50621741D02*
X213602580Y-50526503D01*
X213602580Y-50526503D02*
X213602580Y-50383646D01*
X213602580Y-50383646D02*
X213554961Y-50240789D01*
X213554961Y-50240789D02*
X213459723Y-50145551D01*
X213459723Y-50145551D02*
X213364485Y-50097932D01*
X213364485Y-50097932D02*
X213174009Y-50050313D01*
X213174009Y-50050313D02*
X213031152Y-50050313D01*
X213031152Y-50050313D02*
X212840676Y-50097932D01*
X212840676Y-50097932D02*
X212745438Y-50145551D01*
X212745438Y-50145551D02*
X212650200Y-50240789D01*
X212650200Y-50240789D02*
X212602580Y-50383646D01*
X212602580Y-50383646D02*
X212602580Y-50478884D01*
X212602580Y-50478884D02*
X212650200Y-50621741D01*
X212650200Y-50621741D02*
X212697819Y-50669360D01*
X212697819Y-50669360D02*
X213031152Y-50669360D01*
X213031152Y-50669360D02*
X213031152Y-50478884D01*
X213269247Y-51097932D02*
X212602580Y-51097932D01*
X213174009Y-51097932D02*
X213221628Y-51145551D01*
X213221628Y-51145551D02*
X213269247Y-51240789D01*
X213269247Y-51240789D02*
X213269247Y-51383646D01*
X213269247Y-51383646D02*
X213221628Y-51478884D01*
X213221628Y-51478884D02*
X213126390Y-51526503D01*
X213126390Y-51526503D02*
X212602580Y-51526503D01*
X212602580Y-52431265D02*
X213602580Y-52431265D01*
X212650200Y-52431265D02*
X212602580Y-52336027D01*
X212602580Y-52336027D02*
X212602580Y-52145551D01*
X212602580Y-52145551D02*
X212650200Y-52050313D01*
X212650200Y-52050313D02*
X212697819Y-52002694D01*
X212697819Y-52002694D02*
X212793057Y-51955075D01*
X212793057Y-51955075D02*
X213078771Y-51955075D01*
X213078771Y-51955075D02*
X213174009Y-52002694D01*
X213174009Y-52002694D02*
X213221628Y-52050313D01*
X213221628Y-52050313D02*
X213269247Y-52145551D01*
X213269247Y-52145551D02*
X213269247Y-52336027D01*
X213269247Y-52336027D02*
X213221628Y-52431265D01*
X224972419Y-117216353D02*
X224972419Y-116597306D01*
X224972419Y-116597306D02*
X225353371Y-116930639D01*
X225353371Y-116930639D02*
X225353371Y-116787782D01*
X225353371Y-116787782D02*
X225400990Y-116692544D01*
X225400990Y-116692544D02*
X225448609Y-116644925D01*
X225448609Y-116644925D02*
X225543847Y-116597306D01*
X225543847Y-116597306D02*
X225781942Y-116597306D01*
X225781942Y-116597306D02*
X225877180Y-116644925D01*
X225877180Y-116644925D02*
X225924800Y-116692544D01*
X225924800Y-116692544D02*
X225972419Y-116787782D01*
X225972419Y-116787782D02*
X225972419Y-117073496D01*
X225972419Y-117073496D02*
X225924800Y-117168734D01*
X225924800Y-117168734D02*
X225877180Y-117216353D01*
X224972419Y-116311591D02*
X225972419Y-115978258D01*
X225972419Y-115978258D02*
X224972419Y-115644925D01*
X224924800Y-114597306D02*
X226210514Y-115454448D01*
X224972419Y-113787782D02*
X224972419Y-114263972D01*
X224972419Y-114263972D02*
X225448609Y-114311591D01*
X225448609Y-114311591D02*
X225400990Y-114263972D01*
X225400990Y-114263972D02*
X225353371Y-114168734D01*
X225353371Y-114168734D02*
X225353371Y-113930639D01*
X225353371Y-113930639D02*
X225400990Y-113835401D01*
X225400990Y-113835401D02*
X225448609Y-113787782D01*
X225448609Y-113787782D02*
X225543847Y-113740163D01*
X225543847Y-113740163D02*
X225781942Y-113740163D01*
X225781942Y-113740163D02*
X225877180Y-113787782D01*
X225877180Y-113787782D02*
X225924800Y-113835401D01*
X225924800Y-113835401D02*
X225972419Y-113930639D01*
X225972419Y-113930639D02*
X225972419Y-114168734D01*
X225972419Y-114168734D02*
X225924800Y-114263972D01*
X225924800Y-114263972D02*
X225877180Y-114311591D01*
X224972419Y-113454448D02*
X225972419Y-113121115D01*
X225972419Y-113121115D02*
X224972419Y-112787782D01*
X226703884Y-107047419D02*
X226703884Y-106380752D01*
X226703884Y-106571228D02*
X226751503Y-106475990D01*
X226751503Y-106475990D02*
X226799122Y-106428371D01*
X226799122Y-106428371D02*
X226894360Y-106380752D01*
X226894360Y-106380752D02*
X226989598Y-106380752D01*
X227703884Y-106999800D02*
X227608646Y-107047419D01*
X227608646Y-107047419D02*
X227418170Y-107047419D01*
X227418170Y-107047419D02*
X227322932Y-106999800D01*
X227322932Y-106999800D02*
X227275313Y-106904561D01*
X227275313Y-106904561D02*
X227275313Y-106523609D01*
X227275313Y-106523609D02*
X227322932Y-106428371D01*
X227322932Y-106428371D02*
X227418170Y-106380752D01*
X227418170Y-106380752D02*
X227608646Y-106380752D01*
X227608646Y-106380752D02*
X227703884Y-106428371D01*
X227703884Y-106428371D02*
X227751503Y-106523609D01*
X227751503Y-106523609D02*
X227751503Y-106618847D01*
X227751503Y-106618847D02*
X227275313Y-106714085D01*
X228037218Y-106380752D02*
X228418170Y-106380752D01*
X228180075Y-107047419D02*
X228180075Y-106190276D01*
X228180075Y-106190276D02*
X228227694Y-106095038D01*
X228227694Y-106095038D02*
X228322932Y-106047419D01*
X228322932Y-106047419D02*
X228418170Y-106047419D01*
X229465789Y-105999800D02*
X228608647Y-107285514D01*
X229751504Y-106761704D02*
X230227694Y-106761704D01*
X229656266Y-107047419D02*
X229989599Y-106047419D01*
X229989599Y-106047419D02*
X230322932Y-107047419D01*
X231132456Y-106047419D02*
X230656266Y-106047419D01*
X230656266Y-106047419D02*
X230608647Y-106523609D01*
X230608647Y-106523609D02*
X230656266Y-106475990D01*
X230656266Y-106475990D02*
X230751504Y-106428371D01*
X230751504Y-106428371D02*
X230989599Y-106428371D01*
X230989599Y-106428371D02*
X231084837Y-106475990D01*
X231084837Y-106475990D02*
X231132456Y-106523609D01*
X231132456Y-106523609D02*
X231180075Y-106618847D01*
X231180075Y-106618847D02*
X231180075Y-106856942D01*
X231180075Y-106856942D02*
X231132456Y-106952180D01*
X231132456Y-106952180D02*
X231084837Y-106999800D01*
X231084837Y-106999800D02*
X230989599Y-107047419D01*
X230989599Y-107047419D02*
X230751504Y-107047419D01*
X230751504Y-107047419D02*
X230656266Y-106999800D01*
X230656266Y-106999800D02*
X230608647Y-106952180D01*
X232322932Y-105999800D02*
X231465790Y-107285514D01*
X233227694Y-107047419D02*
X232894361Y-106571228D01*
X232656266Y-107047419D02*
X232656266Y-106047419D01*
X232656266Y-106047419D02*
X233037218Y-106047419D01*
X233037218Y-106047419D02*
X233132456Y-106095038D01*
X233132456Y-106095038D02*
X233180075Y-106142657D01*
X233180075Y-106142657D02*
X233227694Y-106237895D01*
X233227694Y-106237895D02*
X233227694Y-106380752D01*
X233227694Y-106380752D02*
X233180075Y-106475990D01*
X233180075Y-106475990D02*
X233132456Y-106523609D01*
X233132456Y-106523609D02*
X233037218Y-106571228D01*
X233037218Y-106571228D02*
X232656266Y-106571228D01*
X233608647Y-106999800D02*
X233751504Y-107047419D01*
X233751504Y-107047419D02*
X233989599Y-107047419D01*
X233989599Y-107047419D02*
X234084837Y-106999800D01*
X234084837Y-106999800D02*
X234132456Y-106952180D01*
X234132456Y-106952180D02*
X234180075Y-106856942D01*
X234180075Y-106856942D02*
X234180075Y-106761704D01*
X234180075Y-106761704D02*
X234132456Y-106666466D01*
X234132456Y-106666466D02*
X234084837Y-106618847D01*
X234084837Y-106618847D02*
X233989599Y-106571228D01*
X233989599Y-106571228D02*
X233799123Y-106523609D01*
X233799123Y-106523609D02*
X233703885Y-106475990D01*
X233703885Y-106475990D02*
X233656266Y-106428371D01*
X233656266Y-106428371D02*
X233608647Y-106333133D01*
X233608647Y-106333133D02*
X233608647Y-106237895D01*
X233608647Y-106237895D02*
X233656266Y-106142657D01*
X233656266Y-106142657D02*
X233703885Y-106095038D01*
X233703885Y-106095038D02*
X233799123Y-106047419D01*
X233799123Y-106047419D02*
X234037218Y-106047419D01*
X234037218Y-106047419D02*
X234180075Y-106095038D01*
X234465790Y-106047419D02*
X235037218Y-106047419D01*
X234751504Y-107047419D02*
X234751504Y-106047419D01*
X236084837Y-105999800D02*
X235227695Y-107285514D01*
X236989599Y-107047419D02*
X236656266Y-106571228D01*
X236418171Y-107047419D02*
X236418171Y-106047419D01*
X236418171Y-106047419D02*
X236799123Y-106047419D01*
X236799123Y-106047419D02*
X236894361Y-106095038D01*
X236894361Y-106095038D02*
X236941980Y-106142657D01*
X236941980Y-106142657D02*
X236989599Y-106237895D01*
X236989599Y-106237895D02*
X236989599Y-106380752D01*
X236989599Y-106380752D02*
X236941980Y-106475990D01*
X236941980Y-106475990D02*
X236894361Y-106523609D01*
X236894361Y-106523609D02*
X236799123Y-106571228D01*
X236799123Y-106571228D02*
X236418171Y-106571228D01*
X237370552Y-106999800D02*
X237513409Y-107047419D01*
X237513409Y-107047419D02*
X237751504Y-107047419D01*
X237751504Y-107047419D02*
X237846742Y-106999800D01*
X237846742Y-106999800D02*
X237894361Y-106952180D01*
X237894361Y-106952180D02*
X237941980Y-106856942D01*
X237941980Y-106856942D02*
X237941980Y-106761704D01*
X237941980Y-106761704D02*
X237894361Y-106666466D01*
X237894361Y-106666466D02*
X237846742Y-106618847D01*
X237846742Y-106618847D02*
X237751504Y-106571228D01*
X237751504Y-106571228D02*
X237561028Y-106523609D01*
X237561028Y-106523609D02*
X237465790Y-106475990D01*
X237465790Y-106475990D02*
X237418171Y-106428371D01*
X237418171Y-106428371D02*
X237370552Y-106333133D01*
X237370552Y-106333133D02*
X237370552Y-106237895D01*
X237370552Y-106237895D02*
X237418171Y-106142657D01*
X237418171Y-106142657D02*
X237465790Y-106095038D01*
X237465790Y-106095038D02*
X237561028Y-106047419D01*
X237561028Y-106047419D02*
X237799123Y-106047419D01*
X237799123Y-106047419D02*
X237941980Y-106095038D01*
X238227695Y-106047419D02*
X238799123Y-106047419D01*
X238513409Y-107047419D02*
X238513409Y-106047419D01*
X229786027Y-51497419D02*
X230119360Y-52497419D01*
X230119360Y-52497419D02*
X230452693Y-51497419D01*
X230786027Y-52497419D02*
X230786027Y-51497419D01*
X230786027Y-51497419D02*
X231119360Y-52211704D01*
X231119360Y-52211704D02*
X231452693Y-51497419D01*
X231452693Y-51497419D02*
X231452693Y-52497419D01*
X232643169Y-51449800D02*
X231786027Y-52735514D01*
X232976503Y-52497419D02*
X232976503Y-51497419D01*
X232976503Y-51497419D02*
X233309836Y-52211704D01*
X233309836Y-52211704D02*
X233643169Y-51497419D01*
X233643169Y-51497419D02*
X233643169Y-52497419D01*
X234119360Y-52497419D02*
X234119360Y-51497419D01*
X234119360Y-51497419D02*
X234357455Y-51497419D01*
X234357455Y-51497419D02*
X234500312Y-51545038D01*
X234500312Y-51545038D02*
X234595550Y-51640276D01*
X234595550Y-51640276D02*
X234643169Y-51735514D01*
X234643169Y-51735514D02*
X234690788Y-51925990D01*
X234690788Y-51925990D02*
X234690788Y-52068847D01*
X234690788Y-52068847D02*
X234643169Y-52259323D01*
X234643169Y-52259323D02*
X234595550Y-52354561D01*
X234595550Y-52354561D02*
X234500312Y-52449800D01*
X234500312Y-52449800D02*
X234357455Y-52497419D01*
X234357455Y-52497419D02*
X234119360Y-52497419D01*
X202027693Y-138872419D02*
X201456265Y-138872419D01*
X201741979Y-138872419D02*
X201741979Y-137872419D01*
X201741979Y-137872419D02*
X201646741Y-138015276D01*
X201646741Y-138015276D02*
X201551503Y-138110514D01*
X201551503Y-138110514D02*
X201456265Y-138158133D01*
X202361027Y-137872419D02*
X202980074Y-137872419D01*
X202980074Y-137872419D02*
X202646741Y-138253371D01*
X202646741Y-138253371D02*
X202789598Y-138253371D01*
X202789598Y-138253371D02*
X202884836Y-138300990D01*
X202884836Y-138300990D02*
X202932455Y-138348609D01*
X202932455Y-138348609D02*
X202980074Y-138443847D01*
X202980074Y-138443847D02*
X202980074Y-138681942D01*
X202980074Y-138681942D02*
X202932455Y-138777180D01*
X202932455Y-138777180D02*
X202884836Y-138824800D01*
X202884836Y-138824800D02*
X202789598Y-138872419D01*
X202789598Y-138872419D02*
X202503884Y-138872419D01*
X202503884Y-138872419D02*
X202408646Y-138824800D01*
X202408646Y-138824800D02*
X202361027Y-138777180D01*
X204122931Y-137824800D02*
X203265789Y-139110514D01*
X205741979Y-138872419D02*
X205170551Y-138872419D01*
X205456265Y-138872419D02*
X205456265Y-137872419D01*
X205456265Y-137872419D02*
X205361027Y-138015276D01*
X205361027Y-138015276D02*
X205265789Y-138110514D01*
X205265789Y-138110514D02*
X205170551Y-138158133D01*
X201875312Y-128222419D02*
X201541979Y-127746228D01*
X201303884Y-128222419D02*
X201303884Y-127222419D01*
X201303884Y-127222419D02*
X201684836Y-127222419D01*
X201684836Y-127222419D02*
X201780074Y-127270038D01*
X201780074Y-127270038D02*
X201827693Y-127317657D01*
X201827693Y-127317657D02*
X201875312Y-127412895D01*
X201875312Y-127412895D02*
X201875312Y-127555752D01*
X201875312Y-127555752D02*
X201827693Y-127650990D01*
X201827693Y-127650990D02*
X201780074Y-127698609D01*
X201780074Y-127698609D02*
X201684836Y-127746228D01*
X201684836Y-127746228D02*
X201303884Y-127746228D01*
X202208646Y-127222419D02*
X202875312Y-128222419D01*
X202875312Y-127222419D02*
X202208646Y-128222419D01*
X203970550Y-127174800D02*
X203113408Y-128460514D01*
X204161027Y-127222419D02*
X204732455Y-127222419D01*
X204446741Y-128222419D02*
X204446741Y-127222419D01*
X204970551Y-127222419D02*
X205637217Y-128222419D01*
X205637217Y-127222419D02*
X204970551Y-128222419D01*
D11*
X60089819Y-137886904D02*
X60899342Y-137886904D01*
X60899342Y-137886904D02*
X60994580Y-137839285D01*
X60994580Y-137839285D02*
X61042200Y-137791666D01*
X61042200Y-137791666D02*
X61089819Y-137696428D01*
X61089819Y-137696428D02*
X61089819Y-137505952D01*
X61089819Y-137505952D02*
X61042200Y-137410714D01*
X61042200Y-137410714D02*
X60994580Y-137363095D01*
X60994580Y-137363095D02*
X60899342Y-137315476D01*
X60899342Y-137315476D02*
X60089819Y-137315476D01*
X60185057Y-136886904D02*
X60137438Y-136839285D01*
X60137438Y-136839285D02*
X60089819Y-136744047D01*
X60089819Y-136744047D02*
X60089819Y-136505952D01*
X60089819Y-136505952D02*
X60137438Y-136410714D01*
X60137438Y-136410714D02*
X60185057Y-136363095D01*
X60185057Y-136363095D02*
X60280295Y-136315476D01*
X60280295Y-136315476D02*
X60375533Y-136315476D01*
X60375533Y-136315476D02*
X60518390Y-136363095D01*
X60518390Y-136363095D02*
X61089819Y-136934523D01*
X61089819Y-136934523D02*
X61089819Y-136315476D01*
X235816666Y-31934819D02*
X235816666Y-32649104D01*
X235816666Y-32649104D02*
X235769047Y-32791961D01*
X235769047Y-32791961D02*
X235673809Y-32887200D01*
X235673809Y-32887200D02*
X235530952Y-32934819D01*
X235530952Y-32934819D02*
X235435714Y-32934819D01*
X236816666Y-32934819D02*
X236245238Y-32934819D01*
X236530952Y-32934819D02*
X236530952Y-31934819D01*
X236530952Y-31934819D02*
X236435714Y-32077676D01*
X236435714Y-32077676D02*
X236340476Y-32172914D01*
X236340476Y-32172914D02*
X236245238Y-32220533D01*
X238019104Y-101864285D02*
X238019104Y-101388095D01*
X238304819Y-101959523D02*
X237304819Y-101626190D01*
X237304819Y-101626190D02*
X238304819Y-101292857D01*
X237304819Y-101054761D02*
X237304819Y-100388095D01*
X237304819Y-100388095D02*
X238304819Y-100816666D01*
X219124819Y-72061904D02*
X219934342Y-72061904D01*
X219934342Y-72061904D02*
X220029580Y-72014285D01*
X220029580Y-72014285D02*
X220077200Y-71966666D01*
X220077200Y-71966666D02*
X220124819Y-71871428D01*
X220124819Y-71871428D02*
X220124819Y-71680952D01*
X220124819Y-71680952D02*
X220077200Y-71585714D01*
X220077200Y-71585714D02*
X220029580Y-71538095D01*
X220029580Y-71538095D02*
X219934342Y-71490476D01*
X219934342Y-71490476D02*
X219124819Y-71490476D01*
X219124819Y-71109523D02*
X219124819Y-70490476D01*
X219124819Y-70490476D02*
X219505771Y-70823809D01*
X219505771Y-70823809D02*
X219505771Y-70680952D01*
X219505771Y-70680952D02*
X219553390Y-70585714D01*
X219553390Y-70585714D02*
X219601009Y-70538095D01*
X219601009Y-70538095D02*
X219696247Y-70490476D01*
X219696247Y-70490476D02*
X219934342Y-70490476D01*
X219934342Y-70490476D02*
X220029580Y-70538095D01*
X220029580Y-70538095D02*
X220077200Y-70585714D01*
X220077200Y-70585714D02*
X220124819Y-70680952D01*
X220124819Y-70680952D02*
X220124819Y-70966666D01*
X220124819Y-70966666D02*
X220077200Y-71061904D01*
X220077200Y-71061904D02*
X220029580Y-71109523D01*
X232779819Y-95566666D02*
X232303628Y-95899999D01*
X232779819Y-96138094D02*
X231779819Y-96138094D01*
X231779819Y-96138094D02*
X231779819Y-95757142D01*
X231779819Y-95757142D02*
X231827438Y-95661904D01*
X231827438Y-95661904D02*
X231875057Y-95614285D01*
X231875057Y-95614285D02*
X231970295Y-95566666D01*
X231970295Y-95566666D02*
X232113152Y-95566666D01*
X232113152Y-95566666D02*
X232208390Y-95614285D01*
X232208390Y-95614285D02*
X232256009Y-95661904D01*
X232256009Y-95661904D02*
X232303628Y-95757142D01*
X232303628Y-95757142D02*
X232303628Y-96138094D01*
X232779819Y-94614285D02*
X232779819Y-95185713D01*
X232779819Y-94899999D02*
X231779819Y-94899999D01*
X231779819Y-94899999D02*
X231922676Y-94995237D01*
X231922676Y-94995237D02*
X232017914Y-95090475D01*
X232017914Y-95090475D02*
X232065533Y-95185713D01*
X209620714Y-81309104D02*
X210096904Y-81309104D01*
X209525476Y-81594819D02*
X209858809Y-80594819D01*
X209858809Y-80594819D02*
X210192142Y-81594819D01*
X211049285Y-81594819D02*
X210477857Y-81594819D01*
X210763571Y-81594819D02*
X210763571Y-80594819D01*
X210763571Y-80594819D02*
X210668333Y-80737676D01*
X210668333Y-80737676D02*
X210573095Y-80832914D01*
X210573095Y-80832914D02*
X210477857Y-80880533D01*
X212743095Y-116089819D02*
X212743095Y-116899342D01*
X212743095Y-116899342D02*
X212790714Y-116994580D01*
X212790714Y-116994580D02*
X212838333Y-117042200D01*
X212838333Y-117042200D02*
X212933571Y-117089819D01*
X212933571Y-117089819D02*
X213124047Y-117089819D01*
X213124047Y-117089819D02*
X213219285Y-117042200D01*
X213219285Y-117042200D02*
X213266904Y-116994580D01*
X213266904Y-116994580D02*
X213314523Y-116899342D01*
X213314523Y-116899342D02*
X213314523Y-116089819D01*
X213743095Y-117042200D02*
X213885952Y-117089819D01*
X213885952Y-117089819D02*
X214124047Y-117089819D01*
X214124047Y-117089819D02*
X214219285Y-117042200D01*
X214219285Y-117042200D02*
X214266904Y-116994580D01*
X214266904Y-116994580D02*
X214314523Y-116899342D01*
X214314523Y-116899342D02*
X214314523Y-116804104D01*
X214314523Y-116804104D02*
X214266904Y-116708866D01*
X214266904Y-116708866D02*
X214219285Y-116661247D01*
X214219285Y-116661247D02*
X214124047Y-116613628D01*
X214124047Y-116613628D02*
X213933571Y-116566009D01*
X213933571Y-116566009D02*
X213838333Y-116518390D01*
X213838333Y-116518390D02*
X213790714Y-116470771D01*
X213790714Y-116470771D02*
X213743095Y-116375533D01*
X213743095Y-116375533D02*
X213743095Y-116280295D01*
X213743095Y-116280295D02*
X213790714Y-116185057D01*
X213790714Y-116185057D02*
X213838333Y-116137438D01*
X213838333Y-116137438D02*
X213933571Y-116089819D01*
X213933571Y-116089819D02*
X214171666Y-116089819D01*
X214171666Y-116089819D02*
X214314523Y-116137438D01*
X215076428Y-116566009D02*
X215219285Y-116613628D01*
X215219285Y-116613628D02*
X215266904Y-116661247D01*
X215266904Y-116661247D02*
X215314523Y-116756485D01*
X215314523Y-116756485D02*
X215314523Y-116899342D01*
X215314523Y-116899342D02*
X215266904Y-116994580D01*
X215266904Y-116994580D02*
X215219285Y-117042200D01*
X215219285Y-117042200D02*
X215124047Y-117089819D01*
X215124047Y-117089819D02*
X214743095Y-117089819D01*
X214743095Y-117089819D02*
X214743095Y-116089819D01*
X214743095Y-116089819D02*
X215076428Y-116089819D01*
X215076428Y-116089819D02*
X215171666Y-116137438D01*
X215171666Y-116137438D02*
X215219285Y-116185057D01*
X215219285Y-116185057D02*
X215266904Y-116280295D01*
X215266904Y-116280295D02*
X215266904Y-116375533D01*
X215266904Y-116375533D02*
X215219285Y-116470771D01*
X215219285Y-116470771D02*
X215171666Y-116518390D01*
X215171666Y-116518390D02*
X215076428Y-116566009D01*
X215076428Y-116566009D02*
X214743095Y-116566009D01*
X238294104Y-86089285D02*
X238294104Y-85613095D01*
X238579819Y-86184523D02*
X237579819Y-85851190D01*
X237579819Y-85851190D02*
X238579819Y-85517857D01*
X237579819Y-84755952D02*
X237579819Y-84946428D01*
X237579819Y-84946428D02*
X237627438Y-85041666D01*
X237627438Y-85041666D02*
X237675057Y-85089285D01*
X237675057Y-85089285D02*
X237817914Y-85184523D01*
X237817914Y-85184523D02*
X238008390Y-85232142D01*
X238008390Y-85232142D02*
X238389342Y-85232142D01*
X238389342Y-85232142D02*
X238484580Y-85184523D01*
X238484580Y-85184523D02*
X238532200Y-85136904D01*
X238532200Y-85136904D02*
X238579819Y-85041666D01*
X238579819Y-85041666D02*
X238579819Y-84851190D01*
X238579819Y-84851190D02*
X238532200Y-84755952D01*
X238532200Y-84755952D02*
X238484580Y-84708333D01*
X238484580Y-84708333D02*
X238389342Y-84660714D01*
X238389342Y-84660714D02*
X238151247Y-84660714D01*
X238151247Y-84660714D02*
X238056009Y-84708333D01*
X238056009Y-84708333D02*
X238008390Y-84755952D01*
X238008390Y-84755952D02*
X237960771Y-84851190D01*
X237960771Y-84851190D02*
X237960771Y-85041666D01*
X237960771Y-85041666D02*
X238008390Y-85136904D01*
X238008390Y-85136904D02*
X238056009Y-85184523D01*
X238056009Y-85184523D02*
X238151247Y-85232142D01*
X224894819Y-109783333D02*
X225609104Y-109783333D01*
X225609104Y-109783333D02*
X225751961Y-109830952D01*
X225751961Y-109830952D02*
X225847200Y-109926190D01*
X225847200Y-109926190D02*
X225894819Y-110069047D01*
X225894819Y-110069047D02*
X225894819Y-110164285D01*
X225894819Y-109259523D02*
X225894819Y-109069047D01*
X225894819Y-109069047D02*
X225847200Y-108973809D01*
X225847200Y-108973809D02*
X225799580Y-108926190D01*
X225799580Y-108926190D02*
X225656723Y-108830952D01*
X225656723Y-108830952D02*
X225466247Y-108783333D01*
X225466247Y-108783333D02*
X225085295Y-108783333D01*
X225085295Y-108783333D02*
X224990057Y-108830952D01*
X224990057Y-108830952D02*
X224942438Y-108878571D01*
X224942438Y-108878571D02*
X224894819Y-108973809D01*
X224894819Y-108973809D02*
X224894819Y-109164285D01*
X224894819Y-109164285D02*
X224942438Y-109259523D01*
X224942438Y-109259523D02*
X224990057Y-109307142D01*
X224990057Y-109307142D02*
X225085295Y-109354761D01*
X225085295Y-109354761D02*
X225323390Y-109354761D01*
X225323390Y-109354761D02*
X225418628Y-109307142D01*
X225418628Y-109307142D02*
X225466247Y-109259523D01*
X225466247Y-109259523D02*
X225513866Y-109164285D01*
X225513866Y-109164285D02*
X225513866Y-108973809D01*
X225513866Y-108973809D02*
X225466247Y-108878571D01*
X225466247Y-108878571D02*
X225418628Y-108830952D01*
X225418628Y-108830952D02*
X225323390Y-108783333D01*
X235666666Y-143699819D02*
X235666666Y-144414104D01*
X235666666Y-144414104D02*
X235619047Y-144556961D01*
X235619047Y-144556961D02*
X235523809Y-144652200D01*
X235523809Y-144652200D02*
X235380952Y-144699819D01*
X235380952Y-144699819D02*
X235285714Y-144699819D01*
X236095238Y-143795057D02*
X236142857Y-143747438D01*
X236142857Y-143747438D02*
X236238095Y-143699819D01*
X236238095Y-143699819D02*
X236476190Y-143699819D01*
X236476190Y-143699819D02*
X236571428Y-143747438D01*
X236571428Y-143747438D02*
X236619047Y-143795057D01*
X236619047Y-143795057D02*
X236666666Y-143890295D01*
X236666666Y-143890295D02*
X236666666Y-143985533D01*
X236666666Y-143985533D02*
X236619047Y-144128390D01*
X236619047Y-144128390D02*
X236047619Y-144699819D01*
X236047619Y-144699819D02*
X236666666Y-144699819D01*
X228754819Y-95116666D02*
X228278628Y-95449999D01*
X228754819Y-95688094D02*
X227754819Y-95688094D01*
X227754819Y-95688094D02*
X227754819Y-95307142D01*
X227754819Y-95307142D02*
X227802438Y-95211904D01*
X227802438Y-95211904D02*
X227850057Y-95164285D01*
X227850057Y-95164285D02*
X227945295Y-95116666D01*
X227945295Y-95116666D02*
X228088152Y-95116666D01*
X228088152Y-95116666D02*
X228183390Y-95164285D01*
X228183390Y-95164285D02*
X228231009Y-95211904D01*
X228231009Y-95211904D02*
X228278628Y-95307142D01*
X228278628Y-95307142D02*
X228278628Y-95688094D01*
X227850057Y-94735713D02*
X227802438Y-94688094D01*
X227802438Y-94688094D02*
X227754819Y-94592856D01*
X227754819Y-94592856D02*
X227754819Y-94354761D01*
X227754819Y-94354761D02*
X227802438Y-94259523D01*
X227802438Y-94259523D02*
X227850057Y-94211904D01*
X227850057Y-94211904D02*
X227945295Y-94164285D01*
X227945295Y-94164285D02*
X228040533Y-94164285D01*
X228040533Y-94164285D02*
X228183390Y-94211904D01*
X228183390Y-94211904D02*
X228754819Y-94783332D01*
X228754819Y-94783332D02*
X228754819Y-94164285D01*
X232007200Y-77461904D02*
X232054819Y-77319047D01*
X232054819Y-77319047D02*
X232054819Y-77080952D01*
X232054819Y-77080952D02*
X232007200Y-76985714D01*
X232007200Y-76985714D02*
X231959580Y-76938095D01*
X231959580Y-76938095D02*
X231864342Y-76890476D01*
X231864342Y-76890476D02*
X231769104Y-76890476D01*
X231769104Y-76890476D02*
X231673866Y-76938095D01*
X231673866Y-76938095D02*
X231626247Y-76985714D01*
X231626247Y-76985714D02*
X231578628Y-77080952D01*
X231578628Y-77080952D02*
X231531009Y-77271428D01*
X231531009Y-77271428D02*
X231483390Y-77366666D01*
X231483390Y-77366666D02*
X231435771Y-77414285D01*
X231435771Y-77414285D02*
X231340533Y-77461904D01*
X231340533Y-77461904D02*
X231245295Y-77461904D01*
X231245295Y-77461904D02*
X231150057Y-77414285D01*
X231150057Y-77414285D02*
X231102438Y-77366666D01*
X231102438Y-77366666D02*
X231054819Y-77271428D01*
X231054819Y-77271428D02*
X231054819Y-77033333D01*
X231054819Y-77033333D02*
X231102438Y-76890476D01*
X232054819Y-75938095D02*
X232054819Y-76509523D01*
X232054819Y-76223809D02*
X231054819Y-76223809D01*
X231054819Y-76223809D02*
X231197676Y-76319047D01*
X231197676Y-76319047D02*
X231292914Y-76414285D01*
X231292914Y-76414285D02*
X231340533Y-76509523D01*
D12*
%TO.C,J4*%
X204875000Y-46210000D02*
X204875000Y-46710000D01*
X205115000Y-46450000D02*
X205115000Y-47220000D01*
X205115000Y-48800000D02*
X205115000Y-49760000D01*
X205115000Y-51340000D02*
X205115000Y-52110000D01*
X205615000Y-46210000D02*
X204875000Y-46210000D01*
X205675000Y-46450000D02*
X205675000Y-47220000D01*
X205675000Y-48800000D02*
X205675000Y-49760000D01*
X205675000Y-51340000D02*
X205675000Y-52110000D01*
X210975000Y-46450000D02*
X210975000Y-52110000D01*
X211435000Y-46450000D02*
X205115000Y-46450000D01*
X211435000Y-46450000D02*
X211435000Y-52110000D01*
X211435000Y-52110000D02*
X205115000Y-52110000D01*
%TO.C,J1*%
X234820000Y-36520000D02*
X234820000Y-39120000D01*
X234820000Y-36520000D02*
X237480000Y-36520000D01*
X234820000Y-39120000D02*
X237480000Y-39120000D01*
X236150000Y-33920000D02*
X237480000Y-33920000D01*
X237480000Y-33920000D02*
X237480000Y-35250000D01*
X237480000Y-36520000D02*
X237480000Y-39120000D01*
%TO.C,A7*%
X228525000Y-100250000D02*
X228525000Y-101750000D01*
X229775000Y-104250000D02*
X234275000Y-104250000D01*
X234275000Y-97750000D02*
X229775000Y-97750000D01*
X235525000Y-101750000D02*
X235525000Y-100250000D01*
%TO.C,J18*%
X200855000Y-134395000D02*
X200855000Y-137055000D01*
X203455000Y-134395000D02*
X200855000Y-134395000D01*
X203455000Y-134395000D02*
X203455000Y-137055000D01*
X203455000Y-137055000D02*
X200855000Y-137055000D01*
X206055000Y-135725000D02*
X206055000Y-137055000D01*
X206055000Y-137055000D02*
X204725000Y-137055000D01*
%TO.C,U3*%
X210490000Y-69970000D02*
X210490000Y-72630000D01*
X215630000Y-69970000D02*
X210490000Y-69970000D01*
X215630000Y-69970000D02*
X215630000Y-72630000D01*
X215630000Y-72630000D02*
X210490000Y-72630000D01*
X218230000Y-71300000D02*
X218230000Y-72630000D01*
X218230000Y-72630000D02*
X216900000Y-72630000D01*
%TO.C,MotorDriver1*%
D13*
X205310000Y-65830000D02*
X223090000Y-65830000D01*
X223090000Y-55670000D01*
X205310000Y-55670000D01*
X205310000Y-65830000D01*
D12*
%TO.C,J3*%
X229255000Y-53395000D02*
X230585000Y-53395000D01*
X229255000Y-54725000D02*
X229255000Y-53395000D01*
X231855000Y-53395000D02*
X234455000Y-53395000D01*
X231855000Y-56055000D02*
X231855000Y-53395000D01*
X231855000Y-56055000D02*
X234455000Y-56055000D01*
X234455000Y-56055000D02*
X234455000Y-53395000D01*
%TO.C,R1*%
X233305000Y-94995000D02*
X233305000Y-91155000D01*
X235145000Y-94995000D02*
X235145000Y-91155000D01*
%TO.C,J5*%
X200820000Y-129170000D02*
X200820000Y-131830000D01*
X203420000Y-129170000D02*
X200820000Y-129170000D01*
X203420000Y-129170000D02*
X203420000Y-131830000D01*
X203420000Y-131830000D02*
X200820000Y-131830000D01*
X206020000Y-130500000D02*
X206020000Y-131830000D01*
X206020000Y-131830000D02*
X204690000Y-131830000D01*
%TO.C,A1*%
X204985000Y-77135000D02*
X204985000Y-79805000D01*
X204985000Y-82345000D02*
X204985000Y-120575000D01*
X204985000Y-120575000D02*
X210065000Y-120575000D01*
X207655000Y-79805000D02*
X204985000Y-79805000D01*
X207655000Y-82345000D02*
X204985000Y-82345000D01*
X207655000Y-82345000D02*
X207655000Y-79805000D01*
X207655000Y-82345000D02*
X207655000Y-117905000D01*
X207655000Y-117905000D02*
X204985000Y-117905000D01*
X210065000Y-112695000D02*
X217945000Y-112695000D01*
X210065000Y-123115000D02*
X210065000Y-112695000D01*
X217945000Y-112695000D02*
X217945000Y-123115000D01*
X217945000Y-123115000D02*
X210065000Y-123115000D01*
X220355000Y-79805000D02*
X220355000Y-117905000D01*
X220355000Y-79805000D02*
X223025000Y-79805000D01*
X220355000Y-117905000D02*
X223025000Y-117905000D01*
X223025000Y-77135000D02*
X204985000Y-77135000D01*
X223025000Y-120575000D02*
X217945000Y-120575000D01*
X223025000Y-120575000D02*
X223025000Y-77135000D01*
%TO.C,J6*%
X226920000Y-115145000D02*
X226920000Y-112545000D01*
X226920000Y-117745000D02*
X226920000Y-116415000D01*
X228250000Y-117745000D02*
X226920000Y-117745000D01*
X229580000Y-112545000D02*
X226920000Y-112545000D01*
X229580000Y-115145000D02*
X226920000Y-115145000D01*
X229580000Y-115145000D02*
X229580000Y-112545000D01*
%TO.C,A6*%
X228800000Y-84725000D02*
X228800000Y-86225000D01*
X230050000Y-88725000D02*
X234550000Y-88725000D01*
X234550000Y-82225000D02*
X230050000Y-82225000D01*
X235800000Y-86225000D02*
X235800000Y-84725000D01*
%TO.C,J9*%
X226880000Y-108120000D02*
X228210000Y-108120000D01*
X226880000Y-109450000D02*
X226880000Y-108120000D01*
X229480000Y-108120000D02*
X237160000Y-108120000D01*
X229480000Y-110780000D02*
X229480000Y-108120000D01*
X229480000Y-110780000D02*
X237160000Y-110780000D01*
X237160000Y-110780000D02*
X237160000Y-108120000D01*
%TO.C,J2*%
X234670000Y-140205000D02*
X234670000Y-137605000D01*
X234670000Y-142805000D02*
X234670000Y-141475000D01*
X236000000Y-142805000D02*
X234670000Y-142805000D01*
X237330000Y-137605000D02*
X234670000Y-137605000D01*
X237330000Y-140205000D02*
X234670000Y-140205000D01*
X237330000Y-140205000D02*
X237330000Y-137605000D01*
%TO.C,R2*%
X229405000Y-94895000D02*
X229405000Y-91055000D01*
X231245000Y-94895000D02*
X231245000Y-91055000D01*
%TD*%
M02*
