%TF.GenerationSoftware,KiCad,Pcbnew,8.0.0*%
%TF.CreationDate,2024-03-17T01:00:07+02:00*%
%TF.ProjectId,FollowTheLine,466f6c6c-6f77-4546-9865-4c696e652e6b,rev?*%
%TF.SameCoordinates,Original*%
%TF.FileFunction,Copper,L1,Top*%
%TF.FilePolarity,Positive*%
%FSLAX46Y46*%
G04 Gerber Fmt 4.6, Leading zero omitted, Abs format (unit mm)*
G04 Created by KiCad (PCBNEW 8.0.0) date 2024-03-17 01:00:07*
%MOMM*%
%LPD*%
G01*
G04 APERTURE LIST*
%TA.AperFunction,WasherPad*%
%ADD10C,3.000000*%
%TD*%
%TA.AperFunction,WasherPad*%
%ADD11C,2.500000*%
%TD*%
%TA.AperFunction,ComponentPad*%
%ADD12C,2.100000*%
%TD*%
%TA.AperFunction,ComponentPad*%
%ADD13C,2.184400*%
%TD*%
%TA.AperFunction,ComponentPad*%
%ADD14R,2.200000X2.200000*%
%TD*%
%TA.AperFunction,ComponentPad*%
%ADD15C,2.200000*%
%TD*%
%TA.AperFunction,ComponentPad*%
%ADD16R,1.700000X1.700000*%
%TD*%
%TA.AperFunction,ComponentPad*%
%ADD17O,1.700000X1.700000*%
%TD*%
%TA.AperFunction,ComponentPad*%
%ADD18C,2.000000*%
%TD*%
%TA.AperFunction,ComponentPad*%
%ADD19C,1.879600*%
%TD*%
%TA.AperFunction,ComponentPad*%
%ADD20C,1.400000*%
%TD*%
%TA.AperFunction,ComponentPad*%
%ADD21O,1.400000X1.400000*%
%TD*%
%TA.AperFunction,ComponentPad*%
%ADD22R,1.600000X1.600000*%
%TD*%
%TA.AperFunction,ComponentPad*%
%ADD23O,1.600000X1.600000*%
%TD*%
%TA.AperFunction,ComponentPad*%
%ADD24O,8.400000X4.200000*%
%TD*%
%TA.AperFunction,ViaPad*%
%ADD25C,0.600000*%
%TD*%
%TA.AperFunction,Conductor*%
%ADD26C,0.200000*%
%TD*%
G04 APERTURE END LIST*
D10*
%TO.P,U2,*%
%TO.N,*%
X69635000Y-137050000D03*
D11*
X69635000Y-41250000D03*
D12*
%TO.P,U2,EVEN,EVEN*%
%TO.N,/pin13_EVEN*%
X68285000Y-81555000D03*
%TO.P,U2,GND,GND*%
%TO.N,GND*%
X70910000Y-101880000D03*
X68285000Y-101875000D03*
X70910000Y-76480000D03*
D13*
X68285000Y-76475000D03*
D12*
%TO.P,U2,LED1,LED1*%
%TO.N,/QTRX_pin1_out*%
X70910000Y-84100000D03*
%TO.P,U2,LED2,LED2*%
%TO.N,/led2*%
X68285000Y-84095000D03*
%TO.P,U2,LED3,LED3*%
%TO.N,/Led3*%
X70910000Y-86640000D03*
%TO.P,U2,LED4,LED4*%
%TO.N,/Led4*%
X68285000Y-86635000D03*
%TO.P,U2,LED5,LED5*%
%TO.N,/Led5*%
X70910000Y-89180000D03*
%TO.P,U2,LED6,LED6*%
%TO.N,/pin11_led6*%
X68285000Y-89175000D03*
%TO.P,U2,LED7,LED7*%
%TO.N,/pin12_led7*%
X70910000Y-91720000D03*
%TO.P,U2,LED8,LED8*%
%TO.N,/Led8*%
X68285000Y-91715000D03*
%TO.P,U2,LED9,LED9*%
%TO.N,/Led9*%
X70910000Y-94260000D03*
%TO.P,U2,LED10,LED10*%
%TO.N,/led10*%
X68285000Y-94255000D03*
%TO.P,U2,LED11,LED11*%
%TO.N,/Led11*%
X70910000Y-96800000D03*
%TO.P,U2,LED12,LED12*%
%TO.N,/Led12*%
X68285000Y-96795000D03*
%TO.P,U2,LED13,LED13*%
%TO.N,/QTRX_pin13_out*%
X70910000Y-99340000D03*
%TO.P,U2,ODD,ODD*%
%TO.N,/ODD*%
X70910000Y-81560000D03*
%TO.P,U2,VCC,VCC*%
%TO.N,VCC*%
X68285000Y-99335000D03*
X70910000Y-79020000D03*
X68285000Y-79015000D03*
%TD*%
D14*
%TO.P,J4,1,Pin_1*%
%TO.N,Net-(J4-Pin_1)*%
X208275000Y-48010000D03*
D15*
%TO.P,J4,2,Pin_2*%
%TO.N,GND2*%
X208275000Y-50550000D03*
%TD*%
D11*
%TO.P,,*%
%TO.N,*%
X232360000Y-157700000D03*
%TD*%
%TO.P,,*%
%TO.N,*%
X232360000Y-20700000D03*
%TD*%
D16*
%TO.P,J1,1,Pin_1*%
%TO.N,Net-(J1-Pin_1)*%
X236150000Y-35250000D03*
D17*
%TO.P,J1,2,Pin_2*%
%TO.N,Net-(J1-Pin_2)*%
X236150000Y-37790000D03*
%TD*%
D18*
%TO.P,A7,1,1*%
%TO.N,/HighVolt_out*%
X228775000Y-98750000D03*
X235275000Y-98750000D03*
%TO.P,A7,2,2*%
%TO.N,/A7*%
X228775000Y-103250000D03*
X235275000Y-103250000D03*
%TD*%
D16*
%TO.P,J18,1,Pin_1*%
%TO.N,/QTRX_pin1_out*%
X204725000Y-135725000D03*
D17*
%TO.P,J18,2,Pin_2*%
%TO.N,/QTRX_pin13_out*%
X202185000Y-135725000D03*
%TD*%
D16*
%TO.P,U3,1,IN*%
%TO.N,+12V*%
X216900000Y-71300000D03*
D17*
%TO.P,U3,2,GND*%
%TO.N,GND2*%
X214360000Y-71300000D03*
%TO.P,U3,3,OUT*%
%TO.N,VCC*%
X211820000Y-71300000D03*
%TD*%
D19*
%TO.P,MotorDriver1,AENBL,AENBL*%
%TO.N,/MotorAenb*%
X216730000Y-64410000D03*
%TO.P,MotorDriver1,APHASE,APHASE*%
%TO.N,/MotorAinput*%
X219230000Y-64410000D03*
%TO.P,MotorDriver1,Aout1,Aout1*%
%TO.N,Net-(J1-Pin_2)*%
X219230000Y-56910000D03*
%TO.P,MotorDriver1,Aout2,Aout2*%
%TO.N,Net-(J1-Pin_1)*%
X216730000Y-56910000D03*
%TO.P,MotorDriver1,BENBL,BENBL*%
%TO.N,/MotorBenb*%
X211730000Y-64410000D03*
%TO.P,MotorDriver1,BPHASE,BPHASE*%
%TO.N,/MotorBinput*%
X214230000Y-64410000D03*
%TO.P,MotorDriver1,Bout1,Bout1*%
%TO.N,Net-(J2-Pin_2)*%
X214230000Y-56910000D03*
%TO.P,MotorDriver1,Bout2,Bout2*%
%TO.N,Net-(J2-Pin_1)*%
X211730000Y-56910000D03*
%TO.P,MotorDriver1,GND,GND*%
%TO.N,GND*%
X206730000Y-64410000D03*
%TO.P,MotorDriver1,GND_HigtVolt,GND_HigtVolt*%
%TO.N,GND2*%
X206730000Y-56910000D03*
%TO.P,MotorDriver1,MODE,MODE*%
%TO.N,Net-(J3-Pin_2)*%
X221730000Y-64410000D03*
%TO.P,MotorDriver1,VCC,VCC*%
%TO.N,VCC*%
X209230000Y-64410000D03*
%TO.P,MotorDriver1,VCC_HightVolt,VCC_HightVolt*%
%TO.N,+12V*%
X209230000Y-56910000D03*
%TO.P,MotorDriver1,VMM,VMM*%
%TO.N,Net-(J3-Pin_1)*%
X221730000Y-56910000D03*
%TD*%
D16*
%TO.P,J3,1,Pin_1*%
%TO.N,Net-(J3-Pin_1)*%
X230585000Y-54725000D03*
D17*
%TO.P,J3,2,Pin_2*%
%TO.N,Net-(J3-Pin_2)*%
X233125000Y-54725000D03*
%TD*%
D20*
%TO.P,R1,1*%
%TO.N,/A7*%
X234225000Y-95615000D03*
D21*
%TO.P,R1,2*%
%TO.N,GND*%
X234225000Y-90535000D03*
%TD*%
D16*
%TO.P,J5,1,Pin_1*%
%TO.N,/pin1_qtrx_in (TX)*%
X204690000Y-130500000D03*
D17*
%TO.P,J5,2,Pin_2*%
%TO.N,/pin13_qtrx_in (RX)*%
X202150000Y-130500000D03*
%TD*%
D10*
%TO.P,,*%
%TO.N,*%
X83960000Y-96575000D03*
%TD*%
D11*
%TO.P,,*%
%TO.N,*%
X214360000Y-157700000D03*
%TD*%
D22*
%TO.P,A1,1,TX1*%
%TO.N,/pin1_qtrx_in (TX)*%
X206385000Y-81075000D03*
D23*
%TO.P,A1,2,RX1*%
%TO.N,/pin13_qtrx_in (RX)*%
X206385000Y-83615000D03*
%TO.P,A1,3,~{RESET}*%
%TO.N,/RESET1*%
X206385000Y-86155000D03*
%TO.P,A1,4,GND*%
%TO.N,GND*%
X206385000Y-88695000D03*
%TO.P,A1,5,D2*%
%TO.N,/ODD*%
X206385000Y-91235000D03*
%TO.P,A1,6,D3*%
%TO.N,/MotorAinput*%
X206385000Y-93775000D03*
%TO.P,A1,7,D4*%
%TO.N,/led2*%
X206385000Y-96315000D03*
%TO.P,A1,8,D5*%
%TO.N,/MotorAenb*%
X206385000Y-98855000D03*
%TO.P,A1,9,D6*%
%TO.N,/MotorBinput*%
X206385000Y-101395000D03*
%TO.P,A1,10,D7*%
%TO.N,/Led3*%
X206385000Y-103935000D03*
%TO.P,A1,11,D8*%
%TO.N,/Led4*%
X206385000Y-106475000D03*
%TO.P,A1,12,D9*%
%TO.N,/MotorBenb*%
X206385000Y-109015000D03*
%TO.P,A1,13,D10*%
%TO.N,/Led5*%
X206385000Y-111555000D03*
%TO.P,A1,14,MOSI*%
%TO.N,/pin11_led6*%
X206385000Y-114095000D03*
%TO.P,A1,15,MISO*%
%TO.N,/pin12_led7*%
X206385000Y-116635000D03*
%TO.P,A1,16,SCK*%
%TO.N,/pin13_EVEN*%
X221625000Y-116635000D03*
%TO.P,A1,17,3V3*%
%TO.N,/3V3_out*%
X221625000Y-114095000D03*
%TO.P,A1,18,AREF*%
%TO.N,/ref*%
X221625000Y-111555000D03*
%TO.P,A1,19,A0*%
%TO.N,/Led8*%
X221625000Y-109015000D03*
%TO.P,A1,20,A1*%
%TO.N,/Led9*%
X221625000Y-106475000D03*
%TO.P,A1,21,A2*%
%TO.N,/led10*%
X221625000Y-103935000D03*
%TO.P,A1,22,A3*%
%TO.N,/Led11*%
X221625000Y-101395000D03*
%TO.P,A1,23,SDA/A4*%
%TO.N,/Led12*%
X221625000Y-98855000D03*
%TO.P,A1,24,SCL/A5*%
%TO.N,/A5*%
X221625000Y-96315000D03*
%TO.P,A1,25,A6*%
%TO.N,/A6*%
X221625000Y-93775000D03*
%TO.P,A1,26,A7*%
%TO.N,/A7*%
X221625000Y-91235000D03*
%TO.P,A1,27,+5V*%
%TO.N,/HighVolt_out*%
X221625000Y-88695000D03*
%TO.P,A1,28,~{RESET}*%
%TO.N,/RESET2*%
X221625000Y-86155000D03*
%TO.P,A1,29,GND*%
%TO.N,GND*%
X221625000Y-83615000D03*
%TO.P,A1,30,VIN*%
%TO.N,VCC*%
X221625000Y-81075000D03*
%TD*%
D16*
%TO.P,J6,1,Pin_1*%
%TO.N,/3V3_out*%
X228250000Y-116415000D03*
D17*
%TO.P,J6,2,Pin_2*%
%TO.N,/HighVolt_out*%
X228250000Y-113875000D03*
%TD*%
D18*
%TO.P,A6,1,1*%
%TO.N,/HighVolt_out*%
X229050000Y-83225000D03*
X235550000Y-83225000D03*
%TO.P,A6,2,2*%
%TO.N,/A6*%
X229050000Y-87725000D03*
X235550000Y-87725000D03*
%TD*%
D16*
%TO.P,J9,1,Pin_1*%
%TO.N,/ref*%
X228210000Y-109450000D03*
D17*
%TO.P,J9,2,Pin_2*%
%TO.N,/A5*%
X230750000Y-109450000D03*
%TO.P,J9,3,Pin_3*%
%TO.N,/RESET1*%
X233290000Y-109450000D03*
%TO.P,J9,4,Pin_4*%
%TO.N,/RESET2*%
X235830000Y-109450000D03*
%TD*%
D16*
%TO.P,J2,1,Pin_1*%
%TO.N,Net-(J2-Pin_1)*%
X236000000Y-141475000D03*
D17*
%TO.P,J2,2,Pin_2*%
%TO.N,Net-(J2-Pin_2)*%
X236000000Y-138935000D03*
%TD*%
D20*
%TO.P,R2,1*%
%TO.N,/A6*%
X230325000Y-95515000D03*
D21*
%TO.P,R2,2*%
%TO.N,GND*%
X230325000Y-90435000D03*
%TD*%
D11*
%TO.P,,*%
%TO.N,*%
X214360000Y-20700000D03*
%TD*%
D10*
%TO.P,,*%
%TO.N,*%
X83960000Y-81875000D03*
%TD*%
D24*
%TO.P,S1,1*%
%TO.N,Net-(J4-Pin_1)*%
X231625000Y-61150000D03*
%TO.P,S1,2*%
%TO.N,+12V*%
X231625000Y-68650000D03*
%TD*%
D25*
%TO.N,/MotorBenb*%
X210475000Y-88475000D03*
X210750000Y-68825000D03*
%TO.N,/pin13_EVEN*%
X65800000Y-79600000D03*
X63700000Y-108875000D03*
%TO.N,/MotorAenb*%
X219025000Y-74850000D03*
X211975000Y-76125000D03*
X219325000Y-67750000D03*
X220525000Y-70975000D03*
X208650000Y-84975000D03*
X214775000Y-75625000D03*
X208900000Y-78775000D03*
%TO.N,/Led4*%
X68800000Y-106550000D03*
X71250000Y-104950000D03*
X90525000Y-106050000D03*
%TO.N,GND*%
X211950000Y-92475000D03*
X66000000Y-73275000D03*
X211950000Y-86250000D03*
X64250000Y-107475000D03*
%TO.N,/Led8*%
X64950000Y-92400000D03*
%TO.N,/led10*%
X81550000Y-106675000D03*
X71600000Y-106200000D03*
X208650000Y-103200000D03*
X65725000Y-95325000D03*
X80875000Y-104075000D03*
X93800000Y-103275000D03*
X69925000Y-107315000D03*
%TO.N,/led2*%
X79775000Y-82000000D03*
%TO.N,/Led12*%
X202925000Y-109375000D03*
X214275000Y-109525000D03*
X200225000Y-107300000D03*
%TO.N,/MotorAinput*%
X221200000Y-72125000D03*
X221625000Y-67675000D03*
X214125000Y-95625000D03*
X220000000Y-75900000D03*
%TO.N,/A7*%
X228000000Y-96600000D03*
%TO.N,/RESET2*%
X225975000Y-91150000D03*
%TO.N,/MotorBinput*%
X213750000Y-74325000D03*
X209550000Y-76300000D03*
X211975000Y-74775000D03*
X209550000Y-86525000D03*
%TO.N,/Led9*%
X76850000Y-101975000D03*
%TO.N,/pin11_led6*%
X89750000Y-109000000D03*
X63850000Y-91075000D03*
%TO.N,/A6*%
X226425000Y-95900000D03*
%TO.N,/QTRX_pin1_out*%
X76475000Y-98525000D03*
X85125000Y-88350000D03*
%TD*%
D26*
%TO.N,/MotorBenb*%
X210450000Y-104950000D02*
X210475000Y-88475000D01*
X206385000Y-109015000D02*
X210450000Y-104950000D01*
X211730000Y-67845000D02*
X210750000Y-68825000D01*
X211730000Y-64410000D02*
X211730000Y-67845000D01*
X210475000Y-88475000D02*
X210450000Y-88525000D01*
%TO.N,/pin13_qtrx_in (RX)*%
X211350000Y-121300000D02*
X211350000Y-86375000D01*
X211350000Y-86375000D02*
X208590000Y-83615000D01*
X208590000Y-83615000D02*
X206385000Y-83615000D01*
X202150000Y-130500000D02*
X211350000Y-121300000D01*
%TO.N,/pin13_EVEN*%
X65800000Y-79600000D02*
X62850000Y-82550000D01*
X63650000Y-108875000D02*
X63700000Y-108875000D01*
X63700000Y-108925000D02*
X63650000Y-108875000D01*
X62850000Y-82550000D02*
X62850000Y-108075000D01*
X62850000Y-108075000D02*
X63650000Y-108875000D01*
X63700000Y-108875000D02*
X63700000Y-108925000D01*
%TO.N,/Led3*%
X87925000Y-92725000D02*
X87925000Y-99975000D01*
X206095000Y-104225000D02*
X206385000Y-103935000D01*
X87925000Y-99975000D02*
X92175000Y-104225000D01*
X92175000Y-104225000D02*
X206095000Y-104225000D01*
X81840000Y-86640000D02*
X87925000Y-92725000D01*
X70910000Y-86640000D02*
X81840000Y-86640000D01*
%TO.N,/MotorAenb*%
X220525000Y-71000000D02*
X220525000Y-71000000D01*
X208575000Y-96665000D02*
X206385000Y-98855000D01*
X208900000Y-78775000D02*
X209325000Y-78775000D01*
X209325000Y-78775000D02*
X211975000Y-76125000D01*
X208575000Y-85050000D02*
X208575000Y-85200000D01*
X208650000Y-84975000D02*
X208575000Y-85050000D01*
X208575000Y-85050000D02*
X208575000Y-96665000D01*
X211975000Y-76125000D02*
X211950000Y-76150000D01*
X220525000Y-70975000D02*
X220525000Y-71000000D01*
X214775000Y-75625000D02*
X215550000Y-74850000D01*
X219325000Y-67750000D02*
X219325000Y-69800000D01*
X220500000Y-70975000D02*
X220525000Y-70975000D01*
X215550000Y-74850000D02*
X219025000Y-74850000D01*
X219325000Y-69800000D02*
X220500000Y-70975000D01*
%TO.N,/ODD*%
X182500000Y-75325000D02*
X84725000Y-75325000D01*
X206385000Y-91235000D02*
X198410000Y-91235000D01*
X70910000Y-81560000D02*
X74470000Y-78000000D01*
X198410000Y-91235000D02*
X182500000Y-75325000D01*
X84725000Y-75325000D02*
X82050000Y-78000000D01*
X74470000Y-78000000D02*
X82050000Y-78000000D01*
%TO.N,/Led4*%
X206385000Y-106475000D02*
X176925000Y-106475000D01*
X176500000Y-106050000D02*
X90525000Y-106050000D01*
X90525000Y-106050000D02*
X90625000Y-106050000D01*
X68800000Y-106550000D02*
X70400000Y-104950000D01*
X70400000Y-104950000D02*
X71250000Y-104950000D01*
X176925000Y-106475000D02*
X176500000Y-106050000D01*
%TO.N,GND*%
X70905000Y-101875000D02*
X70910000Y-101880000D01*
X211950000Y-92475000D02*
X211950000Y-92450000D01*
X70910000Y-76480000D02*
X68290000Y-76480000D01*
X205285000Y-87595000D02*
X206385000Y-88695000D01*
X73715000Y-73675000D02*
X70910000Y-76480000D01*
X197450000Y-73675000D02*
X73715000Y-73675000D01*
X65290000Y-107500000D02*
X64250000Y-107475000D01*
X205285000Y-65855000D02*
X205285000Y-87595000D01*
X66000000Y-73275000D02*
X66000000Y-74190000D01*
X70910000Y-101880000D02*
X65290000Y-107500000D01*
X205270000Y-65855000D02*
X197450000Y-73675000D01*
X64250000Y-107475000D02*
X64250000Y-107500000D01*
X68285000Y-101875000D02*
X70905000Y-101875000D01*
X205285000Y-65855000D02*
X205270000Y-65855000D01*
X211950000Y-86250000D02*
X211950000Y-92475000D01*
X228445000Y-90435000D02*
X230325000Y-90435000D01*
X68290000Y-76480000D02*
X68285000Y-76475000D01*
X221625000Y-83615000D02*
X228445000Y-90435000D01*
X66000000Y-74190000D02*
X68285000Y-76475000D01*
X206730000Y-64410000D02*
X205285000Y-65855000D01*
%TO.N,/Led8*%
X64950000Y-92400000D02*
X65635000Y-91715000D01*
X65635000Y-91715000D02*
X68285000Y-91715000D01*
%TO.N,/led10*%
X68285000Y-94255000D02*
X67190000Y-95350000D01*
X81550000Y-106650000D02*
X81550000Y-106675000D01*
X81575000Y-106675000D02*
X81525000Y-106625000D01*
X80875000Y-104075000D02*
X80875000Y-105975000D01*
X208650000Y-103200000D02*
X208285000Y-102835000D01*
X69925000Y-107315000D02*
X70485000Y-107315000D01*
X65800000Y-95350000D02*
X65725000Y-95325000D01*
X80875000Y-105975000D02*
X81550000Y-106650000D01*
X208285000Y-102835000D02*
X200965000Y-102835000D01*
X67190000Y-95350000D02*
X65800000Y-95350000D01*
X70485000Y-107315000D02*
X71600000Y-106200000D01*
X81550000Y-106675000D02*
X81575000Y-106675000D01*
X65750000Y-95350000D02*
X65775000Y-95350000D01*
X200525000Y-103275000D02*
X93800000Y-103275000D01*
X93800000Y-103275000D02*
X93850000Y-103275000D01*
X200965000Y-102835000D02*
X200525000Y-103275000D01*
X65725000Y-95325000D02*
X65750000Y-95350000D01*
%TO.N,/3V3_out*%
X225930000Y-114095000D02*
X228250000Y-116415000D01*
X221625000Y-114095000D02*
X225930000Y-114095000D01*
%TO.N,/pin1_qtrx_in (TX)*%
X212590200Y-85015200D02*
X208650000Y-81075000D01*
X204690000Y-130500000D02*
X212590200Y-122599800D01*
X212590200Y-122599800D02*
X212590200Y-85015200D01*
X208650000Y-81075000D02*
X206385000Y-81075000D01*
%TO.N,/led2*%
X79775000Y-82000000D02*
X79725000Y-82000000D01*
X79725000Y-82000000D02*
X79761764Y-81963236D01*
X202362349Y-96315000D02*
X182147349Y-76100000D01*
X182147349Y-76100000D02*
X85625000Y-76100000D01*
X206385000Y-96315000D02*
X202362349Y-96315000D01*
X85625000Y-76100000D02*
X79775000Y-81950000D01*
X79775000Y-81950000D02*
X79775000Y-82000000D01*
%TO.N,/Led12*%
X214275000Y-109525000D02*
X214250000Y-109450000D01*
X200225000Y-107300000D02*
X202300000Y-109375000D01*
X214250000Y-106230000D02*
X214275000Y-109525000D01*
X202300000Y-109375000D02*
X202925000Y-109375000D01*
X221625000Y-98855000D02*
X214250000Y-106230000D01*
%TO.N,/HighVolt_out*%
X228775000Y-95845000D02*
X221625000Y-88695000D01*
X228775000Y-98750000D02*
X228775000Y-95845000D01*
%TO.N,/pin12_led7*%
X190660000Y-116635000D02*
X206385000Y-116635000D01*
X183825000Y-109800000D02*
X190660000Y-116635000D01*
X77575000Y-99550000D02*
X87825000Y-109800000D01*
X70910000Y-91720000D02*
X77575000Y-98385000D01*
X87825000Y-109800000D02*
X183825000Y-109800000D01*
X77575000Y-98385000D02*
X77575000Y-99550000D01*
%TO.N,/MotorAinput*%
X221200000Y-72125000D02*
X221175000Y-72125000D01*
X221625000Y-71675000D02*
X221200000Y-72100000D01*
X221200000Y-72100000D02*
X221200000Y-72125000D01*
X221625000Y-67675000D02*
X221625000Y-71675000D01*
X214125000Y-95625000D02*
X215150000Y-95625000D01*
X215150000Y-95625000D02*
X220000000Y-90775000D01*
X221175000Y-72125000D02*
X221250000Y-72050000D01*
X220000000Y-90775000D02*
X220000000Y-75900000D01*
%TO.N,/A5*%
X222725000Y-101425000D02*
X222725000Y-97415000D01*
X230750000Y-109450000D02*
X222725000Y-101425000D01*
X222725000Y-97415000D02*
X221625000Y-96315000D01*
%TO.N,/A7*%
X228000000Y-96600000D02*
X228025000Y-96525000D01*
X222925686Y-91235000D02*
X228025000Y-96334314D01*
X234225000Y-95615000D02*
X233525000Y-96315000D01*
X233525000Y-101500000D02*
X235275000Y-103250000D01*
X228025000Y-96334314D02*
X228000000Y-96600000D01*
X221625000Y-91235000D02*
X222925686Y-91235000D01*
X233525000Y-96315000D02*
X233525000Y-101500000D01*
%TO.N,/RESET2*%
X221625000Y-86155000D02*
X225950000Y-90480000D01*
X225975000Y-91150000D02*
X225950000Y-91100000D01*
X225950000Y-90480000D02*
X225975000Y-91150000D01*
%TO.N,/MotorBinput*%
X215550000Y-70863654D02*
X214230000Y-69543654D01*
X213750000Y-74325000D02*
X215550000Y-72525000D01*
X209550000Y-86525000D02*
X209750000Y-86525000D01*
X215550000Y-72525000D02*
X215550000Y-70863654D01*
X209550000Y-76300000D02*
X211100000Y-74750000D01*
X209700000Y-98080000D02*
X209700000Y-86675000D01*
X211975000Y-74775000D02*
X211950000Y-74750000D01*
X211100000Y-74750000D02*
X211975000Y-74775000D01*
X209550000Y-86525000D02*
X209550000Y-86650000D01*
X214230000Y-69543654D02*
X214230000Y-64410000D01*
X209700000Y-86675000D02*
X209550000Y-86525000D01*
X206385000Y-101395000D02*
X209700000Y-98080000D01*
%TO.N,/Led9*%
X76850000Y-101975000D02*
X76850000Y-100200000D01*
X76850000Y-100200000D02*
X70910000Y-94260000D01*
%TO.N,/pin11_led6*%
X189120000Y-114095000D02*
X184050000Y-109025000D01*
X206385000Y-114095000D02*
X189120000Y-114095000D01*
X68285000Y-89175000D02*
X65750000Y-89175000D01*
X89875000Y-109025000D02*
X89750000Y-109000000D01*
X184050000Y-109025000D02*
X89875000Y-109025000D01*
X89750000Y-109000000D02*
X89825000Y-109025000D01*
X89825000Y-109025000D02*
X89850000Y-109025000D01*
X65750000Y-89175000D02*
X63850000Y-91075000D01*
%TO.N,/ref*%
X223730000Y-109450000D02*
X221625000Y-111555000D01*
X228210000Y-109450000D02*
X223730000Y-109450000D01*
%TO.N,/Led5*%
X184425000Y-107950000D02*
X91100000Y-107950000D01*
X188030000Y-111555000D02*
X184425000Y-107950000D01*
X70910000Y-89180000D02*
X81205000Y-99475000D01*
X81205000Y-99475000D02*
X82625000Y-99475000D01*
X91100000Y-107950000D02*
X82625000Y-99475000D01*
X206385000Y-111555000D02*
X188030000Y-111555000D01*
%TO.N,/A6*%
X224300000Y-93775000D02*
X226425000Y-95900000D01*
X221625000Y-93775000D02*
X224300000Y-93775000D01*
X226425000Y-95900000D02*
X226350000Y-95825000D01*
%TO.N,VCC*%
X209230000Y-68710000D02*
X211820000Y-71300000D01*
X195850000Y-67775000D02*
X203125000Y-60500000D01*
X66810000Y-99335000D02*
X68285000Y-99335000D01*
X63250000Y-84050000D02*
X63250000Y-95775000D01*
X203125000Y-60500000D02*
X205320000Y-60500000D01*
X64600000Y-70450000D02*
X67275000Y-67775000D01*
X70905000Y-79015000D02*
X70910000Y-79020000D01*
X68285000Y-79015000D02*
X63250000Y-84050000D01*
X205320000Y-60500000D02*
X209230000Y-64410000D01*
X63250000Y-95775000D02*
X66810000Y-99335000D01*
X209230000Y-64410000D02*
X209230000Y-68710000D01*
X64600000Y-75330000D02*
X64600000Y-70450000D01*
X68285000Y-79015000D02*
X70905000Y-79015000D01*
X68285000Y-79015000D02*
X64600000Y-75330000D01*
X67275000Y-67775000D02*
X195850000Y-67775000D01*
%TO.N,GND2*%
X208275000Y-50550000D02*
X208275000Y-55365000D01*
X208275000Y-55365000D02*
X206730000Y-56910000D01*
%TO.N,/QTRX_pin1_out*%
X85150000Y-88350000D02*
X85100000Y-88300000D01*
X77750000Y-100290686D02*
X76475000Y-99015686D01*
X200400000Y-131400000D02*
X200400000Y-127380185D01*
X85125000Y-88350000D02*
X85150000Y-88350000D01*
X204725000Y-135725000D02*
X200400000Y-131400000D01*
X200400000Y-127380185D02*
X183369815Y-110350000D01*
X70910000Y-84100000D02*
X71960000Y-85150000D01*
X80450000Y-110350000D02*
X80450000Y-106600000D01*
X85125000Y-88325000D02*
X85125000Y-88350000D01*
X183369815Y-110350000D02*
X80450000Y-110350000D01*
X76475000Y-99015686D02*
X76475000Y-98525000D01*
X71960000Y-85150000D02*
X81950000Y-85150000D01*
X81950000Y-85150000D02*
X85125000Y-88325000D01*
X77750000Y-103900000D02*
X77750000Y-100290686D01*
X80450000Y-106600000D02*
X77750000Y-103900000D01*
%TO.N,/QTRX_pin13_out*%
X78625998Y-111074002D02*
X78625998Y-107055998D01*
X199825000Y-127370871D02*
X183528131Y-111074002D01*
X202185000Y-135725000D02*
X199825000Y-133365000D01*
X199825000Y-133365000D02*
X199825000Y-127370871D01*
X183528131Y-111074002D02*
X78625998Y-111074002D01*
X78625998Y-107055998D02*
X70910000Y-99340000D01*
%TO.N,+12V*%
X215469800Y-69869800D02*
X216900000Y-71300000D01*
X215469800Y-59923542D02*
X215469800Y-69869800D01*
X209230000Y-56910000D02*
X210469800Y-55670200D01*
X210469800Y-55670200D02*
X212243542Y-55670200D01*
X212243542Y-55670200D02*
X212969800Y-56396458D01*
X212969800Y-56396458D02*
X212969800Y-57423542D01*
X212969800Y-57423542D02*
X215469800Y-59923542D01*
%TO.N,Net-(J1-Pin_2)*%
X219230000Y-54710000D02*
X236150000Y-37790000D01*
X219230000Y-56910000D02*
X219230000Y-54710000D01*
%TO.N,Net-(J1-Pin_1)*%
X216730000Y-56910000D02*
X216730000Y-54670000D01*
X216730000Y-54670000D02*
X236150000Y-35250000D01*
%TO.N,Net-(J2-Pin_1)*%
X212990200Y-118465200D02*
X212990200Y-58170200D01*
X236000000Y-141475000D02*
X212990200Y-118465200D01*
X212990200Y-58170200D02*
X211730000Y-56910000D01*
%TO.N,Net-(J2-Pin_2)*%
X232125000Y-135060000D02*
X236000000Y-138935000D01*
X232125000Y-84305200D02*
X232125000Y-135060000D01*
X214230000Y-56910000D02*
X217969800Y-60649800D01*
X217969800Y-60649800D02*
X217969800Y-70150000D01*
X217969800Y-70150000D02*
X232125000Y-84305200D01*
%TO.N,Net-(J3-Pin_2)*%
X230700000Y-57150000D02*
X233125000Y-54725000D01*
X228815000Y-57325000D02*
X230700000Y-57325000D01*
X230700000Y-57325000D02*
X230700000Y-57150000D01*
X221730000Y-64410000D02*
X228815000Y-57325000D01*
%TO.N,Net-(J3-Pin_1)*%
X228400000Y-56910000D02*
X230585000Y-54725000D01*
X221730000Y-56910000D02*
X228400000Y-56910000D01*
%TD*%
%TA.AperFunction,Conductor*%
%TO.N,GND*%
G36*
X239619633Y-14202025D02*
G01*
X239667710Y-14209640D01*
X239704595Y-14221625D01*
X239739156Y-14239235D01*
X239770538Y-14262036D01*
X239797963Y-14289461D01*
X239820765Y-14320845D01*
X239836427Y-14351583D01*
X239838372Y-14355399D01*
X239850360Y-14392293D01*
X239857973Y-14440362D01*
X239859499Y-14459757D01*
X239853131Y-163023314D01*
X239853129Y-163023348D01*
X239853129Y-163088206D01*
X239852657Y-163099014D01*
X239837367Y-163273742D01*
X239833614Y-163295023D01*
X239789623Y-163459194D01*
X239782232Y-163479499D01*
X239710400Y-163633538D01*
X239699594Y-163652256D01*
X239602106Y-163791482D01*
X239588212Y-163808039D01*
X239468039Y-163928212D01*
X239451482Y-163942106D01*
X239312256Y-164039594D01*
X239293538Y-164050400D01*
X239139499Y-164122232D01*
X239119194Y-164129623D01*
X238955023Y-164173614D01*
X238933742Y-164177367D01*
X238759014Y-164192657D01*
X238748206Y-164193129D01*
X238681632Y-164193129D01*
X238681584Y-164193132D01*
X211413832Y-164194464D01*
X211394792Y-164192994D01*
X211203742Y-164163316D01*
X211190307Y-164160459D01*
X211076679Y-164129626D01*
X210985783Y-164104961D01*
X210972744Y-164100634D01*
X210775627Y-164022855D01*
X210763144Y-164017112D01*
X210575827Y-163917993D01*
X210564058Y-163910904D01*
X210388868Y-163791679D01*
X210377954Y-163783331D01*
X210251635Y-163675103D01*
X210231137Y-163652627D01*
X206553051Y-158461643D01*
X206013390Y-157700004D01*
X212604592Y-157700004D01*
X212624196Y-157961620D01*
X212624197Y-157961625D01*
X212682576Y-158217402D01*
X212682578Y-158217411D01*
X212682580Y-158217416D01*
X212778432Y-158461643D01*
X212909614Y-158688857D01*
X213041736Y-158854533D01*
X213073198Y-158893985D01*
X213254753Y-159062441D01*
X213265521Y-159072433D01*
X213482296Y-159220228D01*
X213482301Y-159220230D01*
X213482302Y-159220231D01*
X213482303Y-159220232D01*
X213607843Y-159280688D01*
X213718673Y-159334061D01*
X213718674Y-159334061D01*
X213718677Y-159334063D01*
X213969385Y-159411396D01*
X214228818Y-159450500D01*
X214491182Y-159450500D01*
X214750615Y-159411396D01*
X215001323Y-159334063D01*
X215237704Y-159220228D01*
X215454479Y-159072433D01*
X215646805Y-158893981D01*
X215810386Y-158688857D01*
X215941568Y-158461643D01*
X216037420Y-158217416D01*
X216095802Y-157961630D01*
X216115408Y-157700004D01*
X230604592Y-157700004D01*
X230624196Y-157961620D01*
X230624197Y-157961625D01*
X230682576Y-158217402D01*
X230682578Y-158217411D01*
X230682580Y-158217416D01*
X230778432Y-158461643D01*
X230909614Y-158688857D01*
X231041736Y-158854533D01*
X231073198Y-158893985D01*
X231254753Y-159062441D01*
X231265521Y-159072433D01*
X231482296Y-159220228D01*
X231482301Y-159220230D01*
X231482302Y-159220231D01*
X231482303Y-159220232D01*
X231607843Y-159280688D01*
X231718673Y-159334061D01*
X231718674Y-159334061D01*
X231718677Y-159334063D01*
X231969385Y-159411396D01*
X232228818Y-159450500D01*
X232491182Y-159450500D01*
X232750615Y-159411396D01*
X233001323Y-159334063D01*
X233237704Y-159220228D01*
X233454479Y-159072433D01*
X233646805Y-158893981D01*
X233810386Y-158688857D01*
X233941568Y-158461643D01*
X234037420Y-158217416D01*
X234095802Y-157961630D01*
X234115408Y-157700000D01*
X234095802Y-157438370D01*
X234037420Y-157182584D01*
X233941568Y-156938357D01*
X233810386Y-156711143D01*
X233646805Y-156506019D01*
X233646804Y-156506018D01*
X233646801Y-156506014D01*
X233454479Y-156327567D01*
X233237704Y-156179772D01*
X233237700Y-156179770D01*
X233237697Y-156179768D01*
X233237696Y-156179767D01*
X233001325Y-156065938D01*
X233001327Y-156065938D01*
X232750623Y-155988606D01*
X232750619Y-155988605D01*
X232750615Y-155988604D01*
X232625823Y-155969794D01*
X232491187Y-155949500D01*
X232491182Y-155949500D01*
X232228818Y-155949500D01*
X232228812Y-155949500D01*
X232067247Y-155973853D01*
X231969385Y-155988604D01*
X231969382Y-155988605D01*
X231969376Y-155988606D01*
X231718673Y-156065938D01*
X231482303Y-156179767D01*
X231482302Y-156179768D01*
X231265520Y-156327567D01*
X231073198Y-156506014D01*
X230909614Y-156711143D01*
X230778432Y-156938356D01*
X230682582Y-157182578D01*
X230682576Y-157182597D01*
X230624197Y-157438374D01*
X230624196Y-157438379D01*
X230604592Y-157699995D01*
X230604592Y-157700004D01*
X216115408Y-157700004D01*
X216115408Y-157700000D01*
X216095802Y-157438370D01*
X216037420Y-157182584D01*
X215941568Y-156938357D01*
X215810386Y-156711143D01*
X215646805Y-156506019D01*
X215646804Y-156506018D01*
X215646801Y-156506014D01*
X215454479Y-156327567D01*
X215237704Y-156179772D01*
X215237700Y-156179770D01*
X215237697Y-156179768D01*
X215237696Y-156179767D01*
X215001325Y-156065938D01*
X215001327Y-156065938D01*
X214750623Y-155988606D01*
X214750619Y-155988605D01*
X214750615Y-155988604D01*
X214625823Y-155969794D01*
X214491187Y-155949500D01*
X214491182Y-155949500D01*
X214228818Y-155949500D01*
X214228812Y-155949500D01*
X214067247Y-155973853D01*
X213969385Y-155988604D01*
X213969382Y-155988605D01*
X213969376Y-155988606D01*
X213718673Y-156065938D01*
X213482303Y-156179767D01*
X213482302Y-156179768D01*
X213265520Y-156327567D01*
X213073198Y-156506014D01*
X212909614Y-156711143D01*
X212778432Y-156938356D01*
X212682582Y-157182578D01*
X212682576Y-157182597D01*
X212624197Y-157438374D01*
X212624196Y-157438379D01*
X212604592Y-157699995D01*
X212604592Y-157700004D01*
X206013390Y-157700004D01*
X199351037Y-148297244D01*
X199338807Y-148275700D01*
X199337518Y-148272784D01*
X199308244Y-148236444D01*
X199303646Y-148230359D01*
X199276702Y-148192332D01*
X199276700Y-148192329D01*
X199276698Y-148192327D01*
X199276695Y-148192324D01*
X199276101Y-148191684D01*
X199266194Y-148179532D01*
X199252747Y-148160726D01*
X199164389Y-148037158D01*
X199156805Y-148025152D01*
X199050428Y-147833196D01*
X199044261Y-147820387D01*
X198986007Y-147679202D01*
X198960554Y-147617514D01*
X198955895Y-147604085D01*
X198895965Y-147392982D01*
X198892872Y-147379105D01*
X198878597Y-147291705D01*
X198857496Y-147162510D01*
X198856014Y-147148372D01*
X198845515Y-146925996D01*
X198845383Y-146918886D01*
X198846022Y-146856164D01*
X198846021Y-146856160D01*
X198846047Y-146853608D01*
X198845469Y-146843970D01*
X198867953Y-129189887D01*
X198867960Y-129188845D01*
X198868024Y-129182679D01*
X198869552Y-129033941D01*
X198839468Y-128722013D01*
X198837453Y-128712200D01*
X198776444Y-128415036D01*
X198681195Y-128116495D01*
X198681194Y-128116491D01*
X198554792Y-127829739D01*
X198398667Y-127558024D01*
X198398665Y-127558021D01*
X198214587Y-127304422D01*
X198214577Y-127304410D01*
X198097309Y-127174479D01*
X198004619Y-127071779D01*
X197912024Y-126988887D01*
X197902897Y-126979821D01*
X194659972Y-123405596D01*
X194629504Y-123342722D01*
X194637866Y-123273354D01*
X194682403Y-123219519D01*
X194748975Y-123198308D01*
X194816447Y-123216457D01*
X194839488Y-123234595D01*
X199188181Y-127583287D01*
X199221666Y-127644610D01*
X199224500Y-127670968D01*
X199224500Y-133278330D01*
X199224499Y-133278348D01*
X199224499Y-133444054D01*
X199224498Y-133444054D01*
X199224499Y-133444057D01*
X199265423Y-133596785D01*
X199265424Y-133596787D01*
X199265423Y-133596787D01*
X199268098Y-133601419D01*
X199268099Y-133601420D01*
X199344477Y-133733712D01*
X199344481Y-133733717D01*
X199463349Y-133852585D01*
X199463355Y-133852590D01*
X200852233Y-135241468D01*
X200885718Y-135302791D01*
X200884327Y-135361241D01*
X200849939Y-135489583D01*
X200849936Y-135489596D01*
X200829341Y-135724999D01*
X200829341Y-135725000D01*
X200849936Y-135960403D01*
X200849938Y-135960413D01*
X200911094Y-136188655D01*
X200911096Y-136188659D01*
X200911097Y-136188663D01*
X200924233Y-136216833D01*
X201010965Y-136402830D01*
X201010967Y-136402834D01*
X201042007Y-136447163D01*
X201146505Y-136596401D01*
X201313599Y-136763495D01*
X201410384Y-136831265D01*
X201507165Y-136899032D01*
X201507167Y-136899033D01*
X201507170Y-136899035D01*
X201721337Y-136998903D01*
X201949592Y-137060063D01*
X202126034Y-137075500D01*
X202184999Y-137080659D01*
X202185000Y-137080659D01*
X202185001Y-137080659D01*
X202243966Y-137075500D01*
X202420408Y-137060063D01*
X202648663Y-136998903D01*
X202862830Y-136899035D01*
X203056401Y-136763495D01*
X203178329Y-136641566D01*
X203239648Y-136608084D01*
X203309340Y-136613068D01*
X203365274Y-136654939D01*
X203382189Y-136685917D01*
X203431202Y-136817328D01*
X203431206Y-136817335D01*
X203517452Y-136932544D01*
X203517455Y-136932547D01*
X203632664Y-137018793D01*
X203632671Y-137018797D01*
X203767517Y-137069091D01*
X203767516Y-137069091D01*
X203774444Y-137069835D01*
X203827127Y-137075500D01*
X205622872Y-137075499D01*
X205682483Y-137069091D01*
X205817331Y-137018796D01*
X205932546Y-136932546D01*
X206018796Y-136817331D01*
X206069091Y-136682483D01*
X206075500Y-136622873D01*
X206075499Y-134827128D01*
X206069091Y-134767517D01*
X206018796Y-134632669D01*
X206018795Y-134632668D01*
X206018793Y-134632664D01*
X205932547Y-134517455D01*
X205932544Y-134517452D01*
X205817335Y-134431206D01*
X205817328Y-134431202D01*
X205682482Y-134380908D01*
X205682483Y-134380908D01*
X205622883Y-134374501D01*
X205622881Y-134374500D01*
X205622873Y-134374500D01*
X205622865Y-134374500D01*
X204275098Y-134374500D01*
X204208059Y-134354815D01*
X204187417Y-134338181D01*
X203127566Y-133278330D01*
X201903119Y-132053884D01*
X201869635Y-131992562D01*
X201874619Y-131922870D01*
X201916491Y-131866937D01*
X201981955Y-131842520D01*
X202001606Y-131842675D01*
X202091011Y-131850498D01*
X202149999Y-131855659D01*
X202150000Y-131855659D01*
X202150001Y-131855659D01*
X202208966Y-131850500D01*
X202385408Y-131835063D01*
X202613663Y-131773903D01*
X202827830Y-131674035D01*
X203021401Y-131538495D01*
X203143329Y-131416566D01*
X203204648Y-131383084D01*
X203274340Y-131388068D01*
X203330274Y-131429939D01*
X203347189Y-131460917D01*
X203396202Y-131592328D01*
X203396206Y-131592335D01*
X203482452Y-131707544D01*
X203482455Y-131707547D01*
X203597664Y-131793793D01*
X203597671Y-131793797D01*
X203732517Y-131844091D01*
X203732516Y-131844091D01*
X203739444Y-131844835D01*
X203792127Y-131850500D01*
X205587872Y-131850499D01*
X205647483Y-131844091D01*
X205782331Y-131793796D01*
X205897546Y-131707546D01*
X205983796Y-131592331D01*
X206034091Y-131457483D01*
X206040500Y-131397873D01*
X206040499Y-130050095D01*
X206060184Y-129983057D01*
X206076813Y-129962420D01*
X212958913Y-123080321D01*
X212958916Y-123080320D01*
X213070720Y-122968516D01*
X213120839Y-122881704D01*
X213149777Y-122831585D01*
X213190701Y-122678857D01*
X213190701Y-122520743D01*
X213190701Y-122513148D01*
X213190700Y-122513130D01*
X213190700Y-119814297D01*
X213210385Y-119747258D01*
X213263189Y-119701503D01*
X213332347Y-119691559D01*
X213395903Y-119720584D01*
X213402381Y-119726616D01*
X234613181Y-140937416D01*
X234646666Y-140998739D01*
X234649500Y-141025097D01*
X234649500Y-142372870D01*
X234649501Y-142372876D01*
X234655908Y-142432483D01*
X234706202Y-142567328D01*
X234706206Y-142567335D01*
X234792452Y-142682544D01*
X234792455Y-142682547D01*
X234907664Y-142768793D01*
X234907671Y-142768797D01*
X235042517Y-142819091D01*
X235042516Y-142819091D01*
X235049444Y-142819835D01*
X235102127Y-142825500D01*
X236897872Y-142825499D01*
X236957483Y-142819091D01*
X237092331Y-142768796D01*
X237207546Y-142682546D01*
X237293796Y-142567331D01*
X237344091Y-142432483D01*
X237350500Y-142372873D01*
X237350499Y-140577128D01*
X237344091Y-140517517D01*
X237324120Y-140463973D01*
X237293797Y-140382671D01*
X237293793Y-140382664D01*
X237207547Y-140267455D01*
X237207544Y-140267452D01*
X237092335Y-140181206D01*
X237092328Y-140181202D01*
X236960917Y-140132189D01*
X236904983Y-140090318D01*
X236880566Y-140024853D01*
X236895418Y-139956580D01*
X236916563Y-139928332D01*
X237038495Y-139806401D01*
X237174035Y-139612830D01*
X237273903Y-139398663D01*
X237335063Y-139170408D01*
X237355659Y-138935000D01*
X237335063Y-138699592D01*
X237273903Y-138471337D01*
X237174035Y-138257171D01*
X237146648Y-138218057D01*
X237038494Y-138063597D01*
X236871402Y-137896506D01*
X236871395Y-137896501D01*
X236677834Y-137760967D01*
X236677830Y-137760965D01*
X236463663Y-137661097D01*
X236463659Y-137661096D01*
X236463655Y-137661094D01*
X236235413Y-137599938D01*
X236235403Y-137599936D01*
X236000001Y-137579341D01*
X235999999Y-137579341D01*
X235764596Y-137599936D01*
X235764586Y-137599938D01*
X235636243Y-137634327D01*
X235566393Y-137632664D01*
X235516469Y-137602233D01*
X232761819Y-134847583D01*
X232728334Y-134786260D01*
X232725500Y-134759902D01*
X232725500Y-110858483D01*
X232745185Y-110791444D01*
X232797989Y-110745689D01*
X232867147Y-110735745D01*
X232881579Y-110738705D01*
X233054592Y-110785063D01*
X233231034Y-110800500D01*
X233289999Y-110805659D01*
X233290000Y-110805659D01*
X233290001Y-110805659D01*
X233348966Y-110800500D01*
X233525408Y-110785063D01*
X233753663Y-110723903D01*
X233967830Y-110624035D01*
X234161401Y-110488495D01*
X234328495Y-110321401D01*
X234458425Y-110135842D01*
X234513002Y-110092217D01*
X234582500Y-110085023D01*
X234644855Y-110116546D01*
X234661575Y-110135842D01*
X234791500Y-110321395D01*
X234791505Y-110321401D01*
X234958599Y-110488495D01*
X235053511Y-110554953D01*
X235152165Y-110624032D01*
X235152167Y-110624033D01*
X235152170Y-110624035D01*
X235366337Y-110723903D01*
X235594592Y-110785063D01*
X235771034Y-110800500D01*
X235829999Y-110805659D01*
X235830000Y-110805659D01*
X235830001Y-110805659D01*
X235888966Y-110800500D01*
X236065408Y-110785063D01*
X236293663Y-110723903D01*
X236507830Y-110624035D01*
X236701401Y-110488495D01*
X236868495Y-110321401D01*
X237004035Y-110127830D01*
X237103903Y-109913663D01*
X237165063Y-109685408D01*
X237185659Y-109450000D01*
X237165063Y-109214592D01*
X237103903Y-108986337D01*
X237004035Y-108772171D01*
X236998425Y-108764158D01*
X236868494Y-108578597D01*
X236701402Y-108411506D01*
X236701395Y-108411501D01*
X236691846Y-108404815D01*
X236631082Y-108362267D01*
X236507834Y-108275967D01*
X236507830Y-108275965D01*
X236503921Y-108274142D01*
X236293663Y-108176097D01*
X236293659Y-108176096D01*
X236293655Y-108176094D01*
X236065413Y-108114938D01*
X236065403Y-108114936D01*
X235830001Y-108094341D01*
X235829999Y-108094341D01*
X235594596Y-108114936D01*
X235594586Y-108114938D01*
X235366344Y-108176094D01*
X235366335Y-108176098D01*
X235152171Y-108275964D01*
X235152169Y-108275965D01*
X234958597Y-108411505D01*
X234791505Y-108578597D01*
X234661575Y-108764158D01*
X234606998Y-108807783D01*
X234537500Y-108814977D01*
X234475145Y-108783454D01*
X234458425Y-108764158D01*
X234328494Y-108578597D01*
X234161402Y-108411506D01*
X234161395Y-108411501D01*
X234151846Y-108404815D01*
X234091082Y-108362267D01*
X233967834Y-108275967D01*
X233967830Y-108275965D01*
X233963921Y-108274142D01*
X233753663Y-108176097D01*
X233753659Y-108176096D01*
X233753655Y-108176094D01*
X233525413Y-108114938D01*
X233525403Y-108114936D01*
X233290001Y-108094341D01*
X233289999Y-108094341D01*
X233054596Y-108114936D01*
X233054586Y-108114938D01*
X232881593Y-108161291D01*
X232811743Y-108159628D01*
X232753881Y-108120465D01*
X232726377Y-108056236D01*
X232725500Y-108041516D01*
X232725500Y-101775949D01*
X232745185Y-101708910D01*
X232797989Y-101663155D01*
X232867147Y-101653211D01*
X232930703Y-101682236D01*
X232961360Y-101724749D01*
X232961362Y-101724749D01*
X232961369Y-101724762D01*
X232964060Y-101728493D01*
X232965422Y-101731782D01*
X232965423Y-101731785D01*
X232975651Y-101749500D01*
X233044477Y-101868712D01*
X233044481Y-101868717D01*
X233163349Y-101987585D01*
X233163355Y-101987590D01*
X233818482Y-102642717D01*
X233851967Y-102704040D01*
X233851007Y-102760838D01*
X233789892Y-103002174D01*
X233789890Y-103002187D01*
X233769357Y-103249994D01*
X233769357Y-103250005D01*
X233789890Y-103497812D01*
X233789892Y-103497824D01*
X233850936Y-103738881D01*
X233950826Y-103966606D01*
X234086833Y-104174782D01*
X234086836Y-104174785D01*
X234255256Y-104357738D01*
X234451491Y-104510474D01*
X234670190Y-104628828D01*
X234880090Y-104700887D01*
X234893597Y-104705524D01*
X234905386Y-104709571D01*
X235150665Y-104750500D01*
X235399335Y-104750500D01*
X235644614Y-104709571D01*
X235879810Y-104628828D01*
X236098509Y-104510474D01*
X236294744Y-104357738D01*
X236463164Y-104174785D01*
X236599173Y-103966607D01*
X236699063Y-103738881D01*
X236760108Y-103497821D01*
X236760109Y-103497812D01*
X236780643Y-103250005D01*
X236780643Y-103249994D01*
X236760109Y-103002187D01*
X236760107Y-103002175D01*
X236699063Y-102761118D01*
X236599173Y-102533393D01*
X236463166Y-102325217D01*
X236379654Y-102234499D01*
X236294744Y-102142262D01*
X236098509Y-101989526D01*
X236098507Y-101989525D01*
X236098506Y-101989524D01*
X235879811Y-101871172D01*
X235879802Y-101871169D01*
X235644616Y-101790429D01*
X235399335Y-101749500D01*
X235150665Y-101749500D01*
X234905382Y-101790429D01*
X234905380Y-101790429D01*
X234799393Y-101826815D01*
X234729595Y-101829965D01*
X234671450Y-101797215D01*
X234161819Y-101287583D01*
X234128334Y-101226260D01*
X234125500Y-101199902D01*
X234125500Y-100010390D01*
X234145185Y-99943351D01*
X234197989Y-99897596D01*
X234267147Y-99887652D01*
X234325660Y-99912535D01*
X234451491Y-100010474D01*
X234670190Y-100128828D01*
X234905386Y-100209571D01*
X235150665Y-100250500D01*
X235399335Y-100250500D01*
X235644614Y-100209571D01*
X235879810Y-100128828D01*
X236098509Y-100010474D01*
X236294744Y-99857738D01*
X236463164Y-99674785D01*
X236599173Y-99466607D01*
X236699063Y-99238881D01*
X236760108Y-98997821D01*
X236765078Y-98937845D01*
X236780643Y-98750005D01*
X236780643Y-98749994D01*
X236760109Y-98502187D01*
X236760107Y-98502175D01*
X236699063Y-98261118D01*
X236599173Y-98033393D01*
X236463166Y-97825217D01*
X236400581Y-97757232D01*
X236294744Y-97642262D01*
X236098509Y-97489526D01*
X236098507Y-97489525D01*
X236098506Y-97489524D01*
X235879811Y-97371172D01*
X235879802Y-97371169D01*
X235644616Y-97290429D01*
X235399335Y-97249500D01*
X235150665Y-97249500D01*
X234905383Y-97290429D01*
X234670197Y-97371169D01*
X234670188Y-97371172D01*
X234451493Y-97489524D01*
X234325662Y-97587463D01*
X234260668Y-97613105D01*
X234192128Y-97599538D01*
X234141803Y-97551070D01*
X234125500Y-97489609D01*
X234125500Y-96939500D01*
X234145185Y-96872461D01*
X234197989Y-96826706D01*
X234249500Y-96815500D01*
X234336241Y-96815500D01*
X234336243Y-96815500D01*
X234554940Y-96774618D01*
X234762401Y-96694247D01*
X234951562Y-96577124D01*
X235115981Y-96427236D01*
X235250058Y-96249689D01*
X235349229Y-96050528D01*
X235410115Y-95836536D01*
X235430643Y-95615000D01*
X235421215Y-95513259D01*
X235410115Y-95393464D01*
X235410114Y-95393462D01*
X235387776Y-95314953D01*
X235349229Y-95179472D01*
X235349224Y-95179461D01*
X235250061Y-94980316D01*
X235250056Y-94980308D01*
X235115979Y-94802761D01*
X234951562Y-94652876D01*
X234951560Y-94652874D01*
X234762404Y-94535754D01*
X234762398Y-94535752D01*
X234720279Y-94519435D01*
X234554940Y-94455382D01*
X234336243Y-94414500D01*
X234113757Y-94414500D01*
X233895060Y-94455382D01*
X233763864Y-94506207D01*
X233687601Y-94535752D01*
X233687595Y-94535754D01*
X233498439Y-94652874D01*
X233498437Y-94652876D01*
X233334020Y-94802761D01*
X233199943Y-94980308D01*
X233199938Y-94980316D01*
X233100775Y-95179461D01*
X233100769Y-95179476D01*
X233039885Y-95393462D01*
X233039884Y-95393464D01*
X233019357Y-95614999D01*
X233019357Y-95615000D01*
X233039884Y-95836535D01*
X233039885Y-95836537D01*
X233047956Y-95864903D01*
X233047370Y-95934770D01*
X233036078Y-95960836D01*
X233017097Y-95993713D01*
X233007721Y-96009954D01*
X232994361Y-96033094D01*
X232994359Y-96033096D01*
X232965423Y-96083211D01*
X232964062Y-96086500D01*
X232962169Y-96088848D01*
X232961358Y-96090254D01*
X232961138Y-96090127D01*
X232920222Y-96140905D01*
X232853928Y-96162971D01*
X232786229Y-96145693D01*
X232738617Y-96094557D01*
X232725500Y-96039050D01*
X232725500Y-90785000D01*
X233048505Y-90785000D01*
X233101239Y-90970349D01*
X233200368Y-91169425D01*
X233334391Y-91346900D01*
X233498738Y-91496721D01*
X233687820Y-91613797D01*
X233687822Y-91613798D01*
X233895195Y-91694135D01*
X233975000Y-91709052D01*
X233975000Y-90785000D01*
X233048505Y-90785000D01*
X232725500Y-90785000D01*
X232725500Y-90581078D01*
X233875000Y-90581078D01*
X233898852Y-90670095D01*
X233944930Y-90749905D01*
X234010095Y-90815070D01*
X234089905Y-90861148D01*
X234178922Y-90885000D01*
X234271078Y-90885000D01*
X234360095Y-90861148D01*
X234439905Y-90815070D01*
X234469975Y-90785000D01*
X234475000Y-90785000D01*
X234475000Y-91709052D01*
X234554804Y-91694135D01*
X234762177Y-91613798D01*
X234762179Y-91613797D01*
X234951261Y-91496721D01*
X235115608Y-91346900D01*
X235249631Y-91169425D01*
X235348760Y-90970349D01*
X235401495Y-90785000D01*
X234475000Y-90785000D01*
X234469975Y-90785000D01*
X234505070Y-90749905D01*
X234551148Y-90670095D01*
X234575000Y-90581078D01*
X234575000Y-90488922D01*
X234551148Y-90399905D01*
X234505070Y-90320095D01*
X234439905Y-90254930D01*
X234360095Y-90208852D01*
X234271078Y-90185000D01*
X234178922Y-90185000D01*
X234089905Y-90208852D01*
X234010095Y-90254930D01*
X233944930Y-90320095D01*
X233898852Y-90399905D01*
X233875000Y-90488922D01*
X233875000Y-90581078D01*
X232725500Y-90581078D01*
X232725500Y-90285000D01*
X233048505Y-90285000D01*
X233975000Y-90285000D01*
X233975000Y-89360946D01*
X234475000Y-89360946D01*
X234475000Y-90285000D01*
X235401495Y-90285000D01*
X235348760Y-90099650D01*
X235249631Y-89900574D01*
X235115608Y-89723099D01*
X234951261Y-89573278D01*
X234762179Y-89456202D01*
X234762177Y-89456201D01*
X234554799Y-89375864D01*
X234475000Y-89360946D01*
X233975000Y-89360946D01*
X233895200Y-89375864D01*
X233687822Y-89456201D01*
X233687820Y-89456202D01*
X233498738Y-89573278D01*
X233334391Y-89723099D01*
X233200368Y-89900574D01*
X233101239Y-90099650D01*
X233048505Y-90285000D01*
X232725500Y-90285000D01*
X232725500Y-87725005D01*
X234044357Y-87725005D01*
X234064890Y-87972812D01*
X234064892Y-87972824D01*
X234125936Y-88213881D01*
X234225826Y-88441606D01*
X234361833Y-88649782D01*
X234361836Y-88649785D01*
X234530256Y-88832738D01*
X234726491Y-88985474D01*
X234945190Y-89103828D01*
X235180386Y-89184571D01*
X235425665Y-89225500D01*
X235674335Y-89225500D01*
X235919614Y-89184571D01*
X236154810Y-89103828D01*
X236373509Y-88985474D01*
X236569744Y-88832738D01*
X236738164Y-88649785D01*
X236874173Y-88441607D01*
X236974063Y-88213881D01*
X237035108Y-87972821D01*
X237035109Y-87972812D01*
X237055643Y-87725005D01*
X237055643Y-87724994D01*
X237035109Y-87477187D01*
X237035107Y-87477175D01*
X236974063Y-87236118D01*
X236874173Y-87008393D01*
X236738166Y-86800217D01*
X236716557Y-86776744D01*
X236569744Y-86617262D01*
X236373509Y-86464526D01*
X236373507Y-86464525D01*
X236373506Y-86464524D01*
X236154811Y-86346172D01*
X236154802Y-86346169D01*
X235919616Y-86265429D01*
X235674335Y-86224500D01*
X235425665Y-86224500D01*
X235180383Y-86265429D01*
X234945197Y-86346169D01*
X234945188Y-86346172D01*
X234726493Y-86464524D01*
X234530257Y-86617261D01*
X234361833Y-86800217D01*
X234225826Y-87008393D01*
X234125936Y-87236118D01*
X234064892Y-87477175D01*
X234064890Y-87477187D01*
X234044357Y-87724994D01*
X234044357Y-87725005D01*
X232725500Y-87725005D01*
X232725500Y-84394259D01*
X232725501Y-84394246D01*
X232725501Y-84226145D01*
X232725501Y-84226143D01*
X232684577Y-84073415D01*
X232632789Y-83983716D01*
X232605520Y-83936484D01*
X232493716Y-83824680D01*
X232493715Y-83824679D01*
X232489385Y-83820349D01*
X232489374Y-83820339D01*
X231894040Y-83225005D01*
X234044357Y-83225005D01*
X234064890Y-83472812D01*
X234064892Y-83472824D01*
X234125936Y-83713881D01*
X234225826Y-83941606D01*
X234361833Y-84149782D01*
X234361836Y-84149785D01*
X234530256Y-84332738D01*
X234726491Y-84485474D01*
X234945190Y-84603828D01*
X235180386Y-84684571D01*
X235425665Y-84725500D01*
X235674335Y-84725500D01*
X235919614Y-84684571D01*
X236154810Y-84603828D01*
X236373509Y-84485474D01*
X236569744Y-84332738D01*
X236738164Y-84149785D01*
X236874173Y-83941607D01*
X236974063Y-83713881D01*
X237035108Y-83472821D01*
X237039319Y-83422007D01*
X237055643Y-83225005D01*
X237055643Y-83224994D01*
X237035109Y-82977187D01*
X237035107Y-82977175D01*
X236974063Y-82736118D01*
X236874173Y-82508393D01*
X236738166Y-82300217D01*
X236702145Y-82261088D01*
X236569744Y-82117262D01*
X236373509Y-81964526D01*
X236373507Y-81964525D01*
X236373506Y-81964524D01*
X236154811Y-81846172D01*
X236154802Y-81846169D01*
X235919616Y-81765429D01*
X235674335Y-81724500D01*
X235425665Y-81724500D01*
X235180383Y-81765429D01*
X234945197Y-81846169D01*
X234945188Y-81846172D01*
X234726493Y-81964524D01*
X234575712Y-82081882D01*
X234530256Y-82117262D01*
X234530189Y-82117335D01*
X234361833Y-82300217D01*
X234225826Y-82508393D01*
X234125936Y-82736118D01*
X234064892Y-82977175D01*
X234064890Y-82977187D01*
X234044357Y-83224994D01*
X234044357Y-83225005D01*
X231894040Y-83225005D01*
X221641232Y-72972197D01*
X221607747Y-72910874D01*
X221612731Y-72841182D01*
X221654603Y-72785249D01*
X221662917Y-72779537D01*
X221702262Y-72754816D01*
X221829816Y-72627262D01*
X221925789Y-72474522D01*
X221985368Y-72304255D01*
X221998336Y-72189159D01*
X222025402Y-72124745D01*
X222033875Y-72115360D01*
X222105520Y-72043716D01*
X222184577Y-71906784D01*
X222225501Y-71754057D01*
X222225501Y-71595942D01*
X222225501Y-71588347D01*
X222225500Y-71588329D01*
X222225500Y-68796047D01*
X226924500Y-68796047D01*
X226957199Y-69086271D01*
X226957202Y-69086285D01*
X227022196Y-69371044D01*
X227022197Y-69371046D01*
X227118665Y-69646738D01*
X227245393Y-69909890D01*
X227267040Y-69944341D01*
X227400792Y-70157206D01*
X227582902Y-70385565D01*
X227789435Y-70592098D01*
X228017794Y-70774208D01*
X228265107Y-70929605D01*
X228528263Y-71056335D01*
X228803955Y-71152803D01*
X229088714Y-71217798D01*
X229088723Y-71217799D01*
X229088728Y-71217800D01*
X229282210Y-71239599D01*
X229378953Y-71250499D01*
X229378956Y-71250500D01*
X229378959Y-71250500D01*
X233871044Y-71250500D01*
X233871045Y-71250499D01*
X234019371Y-71233787D01*
X234161271Y-71217800D01*
X234161274Y-71217799D01*
X234161286Y-71217798D01*
X234446045Y-71152803D01*
X234721737Y-71056335D01*
X234984893Y-70929605D01*
X235232206Y-70774208D01*
X235460565Y-70592098D01*
X235667098Y-70385565D01*
X235849208Y-70157206D01*
X236004605Y-69909893D01*
X236131335Y-69646737D01*
X236227803Y-69371045D01*
X236292798Y-69086286D01*
X236293652Y-69078712D01*
X236316692Y-68874215D01*
X236325500Y-68796041D01*
X236325500Y-68503959D01*
X236311027Y-68375501D01*
X236292800Y-68213728D01*
X236292799Y-68213723D01*
X236292798Y-68213714D01*
X236227803Y-67928955D01*
X236131335Y-67653263D01*
X236012396Y-67406286D01*
X236004606Y-67390109D01*
X235963996Y-67325478D01*
X235849208Y-67142794D01*
X235667098Y-66914435D01*
X235460565Y-66707902D01*
X235232206Y-66525792D01*
X234984893Y-66370395D01*
X234984890Y-66370393D01*
X234721738Y-66243665D01*
X234446046Y-66147197D01*
X234446044Y-66147196D01*
X234226280Y-66097036D01*
X234161286Y-66082202D01*
X234161283Y-66082201D01*
X234161271Y-66082199D01*
X233871047Y-66049500D01*
X233871041Y-66049500D01*
X229378959Y-66049500D01*
X229378952Y-66049500D01*
X229088728Y-66082199D01*
X229088714Y-66082202D01*
X228803955Y-66147196D01*
X228803953Y-66147197D01*
X228528261Y-66243665D01*
X228265109Y-66370393D01*
X228017795Y-66525791D01*
X227789435Y-66707901D01*
X227582901Y-66914435D01*
X227400791Y-67142795D01*
X227245393Y-67390109D01*
X227118665Y-67653261D01*
X227022197Y-67928953D01*
X227022196Y-67928955D01*
X226957202Y-68213714D01*
X226957199Y-68213728D01*
X226924500Y-68503952D01*
X226924500Y-68796047D01*
X222225500Y-68796047D01*
X222225500Y-68257412D01*
X222245185Y-68190373D01*
X222252555Y-68180097D01*
X222254810Y-68177267D01*
X222254816Y-68177262D01*
X222350789Y-68024522D01*
X222410368Y-67854255D01*
X222410369Y-67854249D01*
X222430565Y-67675003D01*
X222430565Y-67674996D01*
X222410369Y-67495750D01*
X222410368Y-67495745D01*
X222379064Y-67406284D01*
X222350789Y-67325478D01*
X222254816Y-67172738D01*
X222127262Y-67045184D01*
X222006489Y-66969297D01*
X221974523Y-66949211D01*
X221804254Y-66889631D01*
X221804249Y-66889630D01*
X221625004Y-66869435D01*
X221624996Y-66869435D01*
X221445750Y-66889630D01*
X221445745Y-66889631D01*
X221275476Y-66949211D01*
X221122737Y-67045184D01*
X220995184Y-67172737D01*
X220899211Y-67325476D01*
X220839631Y-67495745D01*
X220839630Y-67495750D01*
X220819435Y-67674996D01*
X220819435Y-67675003D01*
X220839630Y-67854249D01*
X220839631Y-67854254D01*
X220899211Y-68024523D01*
X220995185Y-68177263D01*
X220997445Y-68180097D01*
X220998334Y-68182275D01*
X220998889Y-68183158D01*
X220998734Y-68183255D01*
X221023855Y-68244783D01*
X221024500Y-68257412D01*
X221024500Y-70126928D01*
X221004815Y-70193967D01*
X220952011Y-70239722D01*
X220882853Y-70249666D01*
X220859546Y-70243970D01*
X220704249Y-70189630D01*
X220589155Y-70176662D01*
X220524741Y-70149595D01*
X220515358Y-70141123D01*
X219961819Y-69587584D01*
X219928334Y-69526261D01*
X219925500Y-69499903D01*
X219925500Y-68332412D01*
X219945185Y-68265373D01*
X219952555Y-68255097D01*
X219954810Y-68252267D01*
X219954816Y-68252262D01*
X220050789Y-68099522D01*
X220110368Y-67929255D01*
X220110954Y-67924058D01*
X220130565Y-67750003D01*
X220130565Y-67749996D01*
X220110369Y-67570750D01*
X220110368Y-67570745D01*
X220052821Y-67406286D01*
X220050789Y-67400478D01*
X220044272Y-67390107D01*
X220003662Y-67325476D01*
X219954816Y-67247738D01*
X219827262Y-67120184D01*
X219785826Y-67094148D01*
X219674523Y-67024211D01*
X219504254Y-66964631D01*
X219504249Y-66964630D01*
X219325004Y-66944435D01*
X219324996Y-66944435D01*
X219145750Y-66964630D01*
X219145745Y-66964631D01*
X218975476Y-67024211D01*
X218822737Y-67120184D01*
X218781981Y-67160941D01*
X218720658Y-67194426D01*
X218650966Y-67189442D01*
X218595033Y-67147570D01*
X218570616Y-67082106D01*
X218570300Y-67073260D01*
X218570300Y-65880007D01*
X218589985Y-65812968D01*
X218642789Y-65767213D01*
X218711947Y-65757269D01*
X218734560Y-65762725D01*
X218875216Y-65811012D01*
X219110653Y-65850300D01*
X219110654Y-65850300D01*
X219349346Y-65850300D01*
X219349347Y-65850300D01*
X219584784Y-65811012D01*
X219810545Y-65733509D01*
X220020469Y-65619903D01*
X220208832Y-65473295D01*
X220370494Y-65297682D01*
X220376190Y-65288964D01*
X220429335Y-65243606D01*
X220498566Y-65234181D01*
X220561902Y-65263681D01*
X220583810Y-65288964D01*
X220589503Y-65297679D01*
X220589506Y-65297682D01*
X220751168Y-65473295D01*
X220939531Y-65619903D01*
X221149455Y-65733509D01*
X221375216Y-65811012D01*
X221610653Y-65850300D01*
X221610654Y-65850300D01*
X221849346Y-65850300D01*
X221849347Y-65850300D01*
X222084784Y-65811012D01*
X222310545Y-65733509D01*
X222520469Y-65619903D01*
X222708832Y-65473295D01*
X222870494Y-65297682D01*
X223001047Y-65097856D01*
X223096929Y-64879267D01*
X223155525Y-64647878D01*
X223155532Y-64647796D01*
X223175236Y-64410005D01*
X223175236Y-64409994D01*
X223155526Y-64172130D01*
X223155525Y-64172126D01*
X223155525Y-64172122D01*
X223104439Y-63970389D01*
X223107063Y-63900572D01*
X223136961Y-63852272D01*
X226886672Y-60102562D01*
X226947994Y-60069078D01*
X227017686Y-60074062D01*
X227073619Y-60115934D01*
X227098036Y-60181398D01*
X227091394Y-60231198D01*
X227022197Y-60428953D01*
X227022196Y-60428955D01*
X226957202Y-60713714D01*
X226957199Y-60713728D01*
X226924500Y-61003952D01*
X226924500Y-61296047D01*
X226957199Y-61586271D01*
X226957202Y-61586285D01*
X227022196Y-61871044D01*
X227022197Y-61871046D01*
X227118665Y-62146738D01*
X227245393Y-62409890D01*
X227245395Y-62409893D01*
X227400792Y-62657206D01*
X227582902Y-62885565D01*
X227789435Y-63092098D01*
X228017794Y-63274208D01*
X228265107Y-63429605D01*
X228528263Y-63556335D01*
X228803955Y-63652803D01*
X229088714Y-63717798D01*
X229088723Y-63717799D01*
X229088728Y-63717800D01*
X229282210Y-63739599D01*
X229378953Y-63750499D01*
X229378956Y-63750500D01*
X229378959Y-63750500D01*
X233871044Y-63750500D01*
X233871045Y-63750499D01*
X234019371Y-63733787D01*
X234161271Y-63717800D01*
X234161274Y-63717799D01*
X234161286Y-63717798D01*
X234446045Y-63652803D01*
X234721737Y-63556335D01*
X234984893Y-63429605D01*
X235232206Y-63274208D01*
X235460565Y-63092098D01*
X235667098Y-62885565D01*
X235849208Y-62657206D01*
X236004605Y-62409893D01*
X236131335Y-62146737D01*
X236227803Y-61871045D01*
X236292798Y-61586286D01*
X236325500Y-61296041D01*
X236325500Y-61003959D01*
X236294505Y-60728860D01*
X236292800Y-60713728D01*
X236292799Y-60713723D01*
X236292798Y-60713714D01*
X236227803Y-60428955D01*
X236131335Y-60153263D01*
X236042771Y-59969359D01*
X236004606Y-59890109D01*
X236004605Y-59890107D01*
X235849208Y-59642794D01*
X235667098Y-59414435D01*
X235460565Y-59207902D01*
X235441927Y-59193039D01*
X235357863Y-59126000D01*
X235232206Y-59025792D01*
X234984893Y-58870395D01*
X234984890Y-58870393D01*
X234721738Y-58743665D01*
X234446046Y-58647197D01*
X234446044Y-58647196D01*
X234226280Y-58597036D01*
X234161286Y-58582202D01*
X234161283Y-58582201D01*
X234161271Y-58582199D01*
X233871047Y-58549500D01*
X233871041Y-58549500D01*
X229378959Y-58549500D01*
X229378952Y-58549500D01*
X229088728Y-58582199D01*
X229088714Y-58582202D01*
X228803955Y-58647196D01*
X228803953Y-58647197D01*
X228606198Y-58716394D01*
X228536419Y-58719955D01*
X228475792Y-58685226D01*
X228443565Y-58623232D01*
X228449971Y-58553657D01*
X228477561Y-58511673D01*
X229027416Y-57961819D01*
X229088739Y-57928334D01*
X229115097Y-57925500D01*
X230779055Y-57925500D01*
X230779057Y-57925500D01*
X230931784Y-57884577D01*
X231068716Y-57805520D01*
X231180520Y-57693716D01*
X231259577Y-57556784D01*
X231293849Y-57428877D01*
X231325940Y-57373294D01*
X232641470Y-56057763D01*
X232702791Y-56024280D01*
X232761238Y-56025670D01*
X232889592Y-56060063D01*
X233076263Y-56076395D01*
X233124999Y-56080659D01*
X233125000Y-56080659D01*
X233125001Y-56080659D01*
X233164234Y-56077226D01*
X233360408Y-56060063D01*
X233588663Y-55998903D01*
X233802830Y-55899035D01*
X233996401Y-55763495D01*
X234163495Y-55596401D01*
X234299035Y-55402830D01*
X234398903Y-55188663D01*
X234460063Y-54960408D01*
X234480659Y-54725000D01*
X234460063Y-54489592D01*
X234398903Y-54261337D01*
X234299035Y-54047171D01*
X234258433Y-53989184D01*
X234163494Y-53853597D01*
X233996402Y-53686506D01*
X233996395Y-53686501D01*
X233802834Y-53550967D01*
X233802830Y-53550965D01*
X233802828Y-53550964D01*
X233588663Y-53451097D01*
X233588659Y-53451096D01*
X233588655Y-53451094D01*
X233360413Y-53389938D01*
X233360403Y-53389936D01*
X233125001Y-53369341D01*
X233124999Y-53369341D01*
X232889596Y-53389936D01*
X232889586Y-53389938D01*
X232661344Y-53451094D01*
X232661335Y-53451098D01*
X232447171Y-53550964D01*
X232447169Y-53550965D01*
X232253600Y-53686503D01*
X232131673Y-53808430D01*
X232070350Y-53841914D01*
X232000658Y-53836930D01*
X231944725Y-53795058D01*
X231927810Y-53764081D01*
X231878797Y-53632671D01*
X231878793Y-53632664D01*
X231792547Y-53517455D01*
X231792544Y-53517452D01*
X231677335Y-53431206D01*
X231677328Y-53431202D01*
X231542482Y-53380908D01*
X231542483Y-53380908D01*
X231482883Y-53374501D01*
X231482881Y-53374500D01*
X231482873Y-53374500D01*
X231482864Y-53374500D01*
X229687129Y-53374500D01*
X229687123Y-53374501D01*
X229627516Y-53380908D01*
X229492671Y-53431202D01*
X229492664Y-53431206D01*
X229377455Y-53517452D01*
X229377452Y-53517455D01*
X229291206Y-53632664D01*
X229291202Y-53632671D01*
X229240908Y-53767517D01*
X229234501Y-53827116D01*
X229234500Y-53827135D01*
X229234500Y-55174901D01*
X229214815Y-55241940D01*
X229198181Y-55262582D01*
X228945306Y-55515458D01*
X228429726Y-56031039D01*
X228187584Y-56273181D01*
X228126261Y-56306666D01*
X228099903Y-56309500D01*
X223120378Y-56309500D01*
X223053339Y-56289815D01*
X223007584Y-56237011D01*
X223006821Y-56235308D01*
X223001048Y-56222146D01*
X223001047Y-56222144D01*
X222870494Y-56022318D01*
X222708832Y-55846705D01*
X222520469Y-55700097D01*
X222424152Y-55647972D01*
X222310546Y-55586491D01*
X222310541Y-55586489D01*
X222084786Y-55508988D01*
X221927826Y-55482796D01*
X221849347Y-55469700D01*
X221610653Y-55469700D01*
X221570143Y-55476460D01*
X221375213Y-55508988D01*
X221149458Y-55586489D01*
X221149453Y-55586491D01*
X220939529Y-55700098D01*
X220751169Y-55846704D01*
X220589504Y-56022319D01*
X220583808Y-56031039D01*
X220530661Y-56076395D01*
X220461430Y-56085818D01*
X220398094Y-56056315D01*
X220376192Y-56031039D01*
X220370495Y-56022319D01*
X220348937Y-55998901D01*
X220208832Y-55846705D01*
X220020469Y-55700097D01*
X220020466Y-55700095D01*
X219895481Y-55632455D01*
X219845891Y-55583235D01*
X219830500Y-55523401D01*
X219830500Y-55010096D01*
X219850185Y-54943057D01*
X219866814Y-54922420D01*
X235666470Y-39122763D01*
X235727791Y-39089280D01*
X235786238Y-39090670D01*
X235914592Y-39125063D01*
X236102918Y-39141539D01*
X236149999Y-39145659D01*
X236150000Y-39145659D01*
X236150001Y-39145659D01*
X236189234Y-39142226D01*
X236385408Y-39125063D01*
X236613663Y-39063903D01*
X236827830Y-38964035D01*
X237021401Y-38828495D01*
X237188495Y-38661401D01*
X237324035Y-38467830D01*
X237423903Y-38253663D01*
X237485063Y-38025408D01*
X237505659Y-37790000D01*
X237485063Y-37554592D01*
X237423903Y-37326337D01*
X237324035Y-37112171D01*
X237318609Y-37104422D01*
X237188496Y-36918600D01*
X237176516Y-36906620D01*
X237066567Y-36796671D01*
X237033084Y-36735351D01*
X237038068Y-36665659D01*
X237079939Y-36609725D01*
X237110915Y-36592810D01*
X237242331Y-36543796D01*
X237357546Y-36457546D01*
X237443796Y-36342331D01*
X237494091Y-36207483D01*
X237500500Y-36147873D01*
X237500499Y-34352128D01*
X237494091Y-34292517D01*
X237443796Y-34157669D01*
X237443795Y-34157668D01*
X237443793Y-34157664D01*
X237357547Y-34042455D01*
X237357544Y-34042452D01*
X237242335Y-33956206D01*
X237242328Y-33956202D01*
X237107482Y-33905908D01*
X237107483Y-33905908D01*
X237047883Y-33899501D01*
X237047881Y-33899500D01*
X237047873Y-33899500D01*
X237047864Y-33899500D01*
X235252129Y-33899500D01*
X235252123Y-33899501D01*
X235192516Y-33905908D01*
X235057671Y-33956202D01*
X235057664Y-33956206D01*
X234942455Y-34042452D01*
X234942452Y-34042455D01*
X234856206Y-34157664D01*
X234856202Y-34157671D01*
X234805908Y-34292517D01*
X234799501Y-34352116D01*
X234799501Y-34352123D01*
X234799500Y-34352135D01*
X234799500Y-35699902D01*
X234779815Y-35766941D01*
X234763181Y-35787583D01*
X216249481Y-54301282D01*
X216249480Y-54301284D01*
X216217726Y-54356284D01*
X216170423Y-54438215D01*
X216129499Y-54590943D01*
X216129499Y-54590945D01*
X216129499Y-54759046D01*
X216129500Y-54759059D01*
X216129500Y-55523401D01*
X216109815Y-55590440D01*
X216064519Y-55632455D01*
X215939533Y-55700095D01*
X215939530Y-55700097D01*
X215751169Y-55846704D01*
X215589504Y-56022319D01*
X215583808Y-56031039D01*
X215530661Y-56076395D01*
X215461430Y-56085818D01*
X215398094Y-56056315D01*
X215376192Y-56031039D01*
X215370495Y-56022319D01*
X215348937Y-55998901D01*
X215208832Y-55846705D01*
X215020469Y-55700097D01*
X214924152Y-55647972D01*
X214810546Y-55586491D01*
X214810541Y-55586489D01*
X214584786Y-55508988D01*
X214427826Y-55482796D01*
X214349347Y-55469700D01*
X214110653Y-55469700D01*
X214070143Y-55476460D01*
X213875213Y-55508988D01*
X213649458Y-55586489D01*
X213649453Y-55586491D01*
X213439528Y-55700098D01*
X213439523Y-55700102D01*
X213347765Y-55771519D01*
X213282771Y-55797161D01*
X213214231Y-55783594D01*
X213183923Y-55761346D01*
X212731132Y-55308555D01*
X212731130Y-55308552D01*
X212612259Y-55189681D01*
X212612258Y-55189680D01*
X212514457Y-55133215D01*
X212475327Y-55110623D01*
X212322599Y-55069699D01*
X212164485Y-55069699D01*
X212156889Y-55069699D01*
X212156873Y-55069700D01*
X210556469Y-55069700D01*
X210556453Y-55069699D01*
X210548857Y-55069699D01*
X210390743Y-55069699D01*
X210276197Y-55100392D01*
X210238014Y-55110623D01*
X210198885Y-55133215D01*
X210198884Y-55133215D01*
X210101087Y-55189677D01*
X210101082Y-55189681D01*
X209989278Y-55301486D01*
X209786165Y-55504598D01*
X209724842Y-55538083D01*
X209658222Y-55534198D01*
X209584788Y-55508988D01*
X209389857Y-55476460D01*
X209349347Y-55469700D01*
X209110653Y-55469700D01*
X209019910Y-55484842D01*
X208950545Y-55476460D01*
X208896723Y-55431907D01*
X208875533Y-55365328D01*
X208875501Y-55362533D01*
X208875501Y-55278348D01*
X208875500Y-55278330D01*
X208875500Y-52116487D01*
X208895185Y-52049448D01*
X208947989Y-52003693D01*
X208952002Y-52001945D01*
X209003859Y-51980466D01*
X209218659Y-51848836D01*
X209410224Y-51685224D01*
X209573836Y-51493659D01*
X209705466Y-51278859D01*
X209801873Y-51046111D01*
X209860683Y-50801148D01*
X209880449Y-50550000D01*
X209860683Y-50298852D01*
X209801873Y-50053889D01*
X209795999Y-50039707D01*
X209705466Y-49821140D01*
X209624479Y-49688983D01*
X209606234Y-49621538D01*
X209627350Y-49554935D01*
X209655891Y-49524929D01*
X209732546Y-49467546D01*
X209818796Y-49352331D01*
X209869091Y-49217483D01*
X209875500Y-49157873D01*
X209875499Y-46862128D01*
X209869091Y-46802517D01*
X209840029Y-46724599D01*
X209818797Y-46667671D01*
X209818793Y-46667664D01*
X209732547Y-46552455D01*
X209732544Y-46552452D01*
X209617335Y-46466206D01*
X209617328Y-46466202D01*
X209482482Y-46415908D01*
X209482483Y-46415908D01*
X209422883Y-46409501D01*
X209422881Y-46409500D01*
X209422873Y-46409500D01*
X209422864Y-46409500D01*
X207127129Y-46409500D01*
X207127123Y-46409501D01*
X207067516Y-46415908D01*
X206932671Y-46466202D01*
X206932664Y-46466206D01*
X206817455Y-46552452D01*
X206817452Y-46552455D01*
X206731206Y-46667664D01*
X206731202Y-46667671D01*
X206680908Y-46802517D01*
X206674501Y-46862116D01*
X206674501Y-46862123D01*
X206674500Y-46862135D01*
X206674500Y-47566425D01*
X206654815Y-47633464D01*
X206602011Y-47679219D01*
X206532853Y-47689163D01*
X206469297Y-47660138D01*
X206447398Y-47635316D01*
X206356789Y-47499711D01*
X206356786Y-47499707D01*
X206245292Y-47388213D01*
X206245288Y-47388210D01*
X206114185Y-47300609D01*
X206114172Y-47300602D01*
X205968501Y-47240264D01*
X205968489Y-47240261D01*
X205813845Y-47209500D01*
X205813842Y-47209500D01*
X205656158Y-47209500D01*
X205656155Y-47209500D01*
X205501510Y-47240261D01*
X205501498Y-47240264D01*
X205355827Y-47300602D01*
X205355814Y-47300609D01*
X205224711Y-47388210D01*
X205224707Y-47388213D01*
X205113213Y-47499707D01*
X205113210Y-47499711D01*
X205025609Y-47630814D01*
X205025602Y-47630827D01*
X204965264Y-47776498D01*
X204965261Y-47776510D01*
X204934500Y-47931153D01*
X204934500Y-48088846D01*
X204965261Y-48243489D01*
X204965264Y-48243501D01*
X205025602Y-48389172D01*
X205025609Y-48389185D01*
X205113210Y-48520288D01*
X205113213Y-48520292D01*
X205224707Y-48631786D01*
X205224711Y-48631789D01*
X205355814Y-48719390D01*
X205355827Y-48719397D01*
X205501498Y-48779735D01*
X205501503Y-48779737D01*
X205656153Y-48810499D01*
X205656156Y-48810500D01*
X205656158Y-48810500D01*
X205813844Y-48810500D01*
X205813845Y-48810499D01*
X205968497Y-48779737D01*
X206114179Y-48719394D01*
X206245289Y-48631789D01*
X206356789Y-48520289D01*
X206444394Y-48389179D01*
X206444394Y-48389178D01*
X206447398Y-48384683D01*
X206501010Y-48339878D01*
X206570335Y-48331171D01*
X206633362Y-48361325D01*
X206670082Y-48420768D01*
X206674500Y-48453574D01*
X206674500Y-49157870D01*
X206674501Y-49157876D01*
X206680908Y-49217483D01*
X206731202Y-49352328D01*
X206731206Y-49352335D01*
X206817452Y-49467544D01*
X206817455Y-49467547D01*
X206894104Y-49524927D01*
X206935975Y-49580861D01*
X206940959Y-49650552D01*
X206925520Y-49688983D01*
X206844533Y-49821140D01*
X206748126Y-50053889D01*
X206707997Y-50221043D01*
X206673206Y-50281635D01*
X206611180Y-50313799D01*
X206541611Y-50307323D01*
X206486587Y-50264263D01*
X206472862Y-50239548D01*
X206444397Y-50170827D01*
X206444390Y-50170814D01*
X206356789Y-50039711D01*
X206356786Y-50039707D01*
X206245292Y-49928213D01*
X206245288Y-49928210D01*
X206114185Y-49840609D01*
X206114172Y-49840602D01*
X205968501Y-49780264D01*
X205968489Y-49780261D01*
X205813845Y-49749500D01*
X205813842Y-49749500D01*
X205656158Y-49749500D01*
X205656155Y-49749500D01*
X205501510Y-49780261D01*
X205501498Y-49780264D01*
X205355827Y-49840602D01*
X205355814Y-49840609D01*
X205224711Y-49928210D01*
X205224707Y-49928213D01*
X205113213Y-50039707D01*
X205113210Y-50039711D01*
X205025609Y-50170814D01*
X205025602Y-50170827D01*
X204965264Y-50316498D01*
X204965261Y-50316510D01*
X204934500Y-50471153D01*
X204934500Y-50628846D01*
X204965261Y-50783489D01*
X204965264Y-50783501D01*
X205025602Y-50929172D01*
X205025609Y-50929185D01*
X205113210Y-51060288D01*
X205113213Y-51060292D01*
X205224707Y-51171786D01*
X205224711Y-51171789D01*
X205355814Y-51259390D01*
X205355827Y-51259397D01*
X205501498Y-51319735D01*
X205501503Y-51319737D01*
X205656153Y-51350499D01*
X205656156Y-51350500D01*
X205656158Y-51350500D01*
X205813844Y-51350500D01*
X205813845Y-51350499D01*
X205968497Y-51319737D01*
X206114179Y-51259394D01*
X206245289Y-51171789D01*
X206356789Y-51060289D01*
X206444394Y-50929179D01*
X206444395Y-50929176D01*
X206444397Y-50929173D01*
X206472862Y-50860451D01*
X206516702Y-50806047D01*
X206582996Y-50783982D01*
X206650696Y-50801261D01*
X206698307Y-50852398D01*
X206707997Y-50878956D01*
X206748126Y-51046110D01*
X206844533Y-51278859D01*
X206976160Y-51493653D01*
X206976161Y-51493656D01*
X207031604Y-51558571D01*
X207139776Y-51685224D01*
X207288066Y-51811875D01*
X207331343Y-51848838D01*
X207331345Y-51848838D01*
X207546141Y-51980466D01*
X207597953Y-52001927D01*
X207652355Y-52045765D01*
X207674421Y-52112059D01*
X207674500Y-52116487D01*
X207674500Y-55064902D01*
X207654815Y-55131941D01*
X207638181Y-55152583D01*
X207286165Y-55504598D01*
X207224842Y-55538083D01*
X207158222Y-55534198D01*
X207084788Y-55508988D01*
X206889857Y-55476460D01*
X206849347Y-55469700D01*
X206610653Y-55469700D01*
X206570143Y-55476460D01*
X206375213Y-55508988D01*
X206149458Y-55586489D01*
X206149453Y-55586491D01*
X205939529Y-55700098D01*
X205751169Y-55846704D01*
X205589506Y-56022317D01*
X205458951Y-56222147D01*
X205363070Y-56440732D01*
X205304475Y-56672118D01*
X205304473Y-56672130D01*
X205284764Y-56909994D01*
X205284764Y-56910005D01*
X205304473Y-57147869D01*
X205304475Y-57147881D01*
X205363070Y-57379267D01*
X205458951Y-57597852D01*
X205458953Y-57597856D01*
X205589506Y-57797682D01*
X205751168Y-57973295D01*
X205939531Y-58119903D01*
X206149455Y-58233509D01*
X206375216Y-58311012D01*
X206610653Y-58350300D01*
X206610654Y-58350300D01*
X206849346Y-58350300D01*
X206849347Y-58350300D01*
X207084784Y-58311012D01*
X207310545Y-58233509D01*
X207520469Y-58119903D01*
X207708832Y-57973295D01*
X207870494Y-57797682D01*
X207876190Y-57788964D01*
X207929335Y-57743606D01*
X207998566Y-57734181D01*
X208061902Y-57763681D01*
X208083810Y-57788964D01*
X208089503Y-57797679D01*
X208089506Y-57797682D01*
X208251168Y-57973295D01*
X208439531Y-58119903D01*
X208649455Y-58233509D01*
X208875216Y-58311012D01*
X209110653Y-58350300D01*
X209110654Y-58350300D01*
X209349346Y-58350300D01*
X209349347Y-58350300D01*
X209584784Y-58311012D01*
X209810545Y-58233509D01*
X210020469Y-58119903D01*
X210208832Y-57973295D01*
X210370494Y-57797682D01*
X210376190Y-57788964D01*
X210429335Y-57743606D01*
X210498566Y-57734181D01*
X210561902Y-57763681D01*
X210583810Y-57788964D01*
X210589503Y-57797679D01*
X210589506Y-57797682D01*
X210751168Y-57973295D01*
X210939531Y-58119903D01*
X211149455Y-58233509D01*
X211375216Y-58311012D01*
X211610653Y-58350300D01*
X211610654Y-58350300D01*
X211849346Y-58350300D01*
X211849347Y-58350300D01*
X212084784Y-58311012D01*
X212158223Y-58285799D01*
X212228019Y-58282650D01*
X212286165Y-58315400D01*
X212353381Y-58382616D01*
X212386866Y-58443939D01*
X212389700Y-58470297D01*
X212389700Y-62939992D01*
X212370015Y-63007031D01*
X212317211Y-63052786D01*
X212248053Y-63062730D01*
X212225438Y-63057273D01*
X212084788Y-63008988D01*
X211896434Y-62977557D01*
X211849347Y-62969700D01*
X211610653Y-62969700D01*
X211551793Y-62979522D01*
X211375213Y-63008988D01*
X211149458Y-63086489D01*
X211149453Y-63086491D01*
X210939529Y-63200098D01*
X210751169Y-63346704D01*
X210589504Y-63522319D01*
X210583808Y-63531039D01*
X210530661Y-63576395D01*
X210461430Y-63585818D01*
X210398094Y-63556315D01*
X210376192Y-63531039D01*
X210370495Y-63522319D01*
X210285146Y-63429605D01*
X210208832Y-63346705D01*
X210020469Y-63200097D01*
X209908049Y-63139258D01*
X209810546Y-63086491D01*
X209810541Y-63086489D01*
X209584786Y-63008988D01*
X209427826Y-62982796D01*
X209349347Y-62969700D01*
X209110653Y-62969700D01*
X209084472Y-62974068D01*
X208875214Y-63008987D01*
X208801775Y-63034199D01*
X208731977Y-63037348D01*
X208673833Y-63004598D01*
X205807590Y-60138355D01*
X205807588Y-60138352D01*
X205688717Y-60019481D01*
X205688716Y-60019480D01*
X205601904Y-59969360D01*
X205601904Y-59969359D01*
X205601900Y-59969358D01*
X205551785Y-59940423D01*
X205399057Y-59899499D01*
X205240943Y-59899499D01*
X205233347Y-59899499D01*
X205233331Y-59899500D01*
X203211670Y-59899500D01*
X203211654Y-59899499D01*
X203204058Y-59899499D01*
X203045943Y-59899499D01*
X202969579Y-59919961D01*
X202893214Y-59940423D01*
X202893209Y-59940426D01*
X202756290Y-60019475D01*
X202756282Y-60019481D01*
X195637584Y-67138181D01*
X195576261Y-67171666D01*
X195549903Y-67174500D01*
X183594749Y-67174500D01*
X183527710Y-67154815D01*
X183481955Y-67102011D01*
X183472011Y-67032853D01*
X183501036Y-66969297D01*
X183544733Y-66937035D01*
X183615839Y-66905691D01*
X183615837Y-66905691D01*
X183615844Y-66905689D01*
X183887560Y-66749565D01*
X184141169Y-66565482D01*
X184373805Y-66355520D01*
X184476800Y-66240469D01*
X184477230Y-66239991D01*
X197877633Y-51495427D01*
X197886673Y-51486455D01*
X197979643Y-51403226D01*
X198189599Y-51170585D01*
X198373676Y-50916974D01*
X198406153Y-50860451D01*
X198529796Y-50645257D01*
X198634604Y-50407482D01*
X198656193Y-50358505D01*
X198751440Y-50059956D01*
X198814461Y-49752985D01*
X198844543Y-49441058D01*
X198842970Y-49288086D01*
X198842964Y-49286630D01*
X198843163Y-49157864D01*
X198870262Y-31582390D01*
X198871033Y-31569799D01*
X198871022Y-31568819D01*
X198871024Y-31568816D01*
X198870386Y-31506523D01*
X198870381Y-31505298D01*
X198870381Y-31505188D01*
X198870519Y-31499343D01*
X198876924Y-31363619D01*
X198881029Y-31276608D01*
X198882512Y-31262474D01*
X198906188Y-31117492D01*
X198917882Y-31045881D01*
X198920972Y-31032020D01*
X198980901Y-30820916D01*
X198985556Y-30807495D01*
X199069267Y-30604616D01*
X199075427Y-30591823D01*
X199181811Y-30399865D01*
X199189399Y-30387856D01*
X199291312Y-30245343D01*
X199301074Y-30233350D01*
X199302324Y-30231995D01*
X199302328Y-30231992D01*
X199328871Y-30194382D01*
X199333608Y-30188103D01*
X199362506Y-30152235D01*
X199364035Y-30148775D01*
X199376135Y-30127417D01*
X206029962Y-20700004D01*
X212604592Y-20700004D01*
X212624196Y-20961620D01*
X212624197Y-20961625D01*
X212682576Y-21217402D01*
X212682578Y-21217411D01*
X212682580Y-21217416D01*
X212778432Y-21461643D01*
X212909614Y-21688857D01*
X213041736Y-21854533D01*
X213073198Y-21893985D01*
X213254753Y-22062441D01*
X213265521Y-22072433D01*
X213482296Y-22220228D01*
X213482301Y-22220230D01*
X213482302Y-22220231D01*
X213482303Y-22220232D01*
X213607843Y-22280688D01*
X213718673Y-22334061D01*
X213718674Y-22334061D01*
X213718677Y-22334063D01*
X213969385Y-22411396D01*
X214228818Y-22450500D01*
X214491182Y-22450500D01*
X214750615Y-22411396D01*
X215001323Y-22334063D01*
X215237704Y-22220228D01*
X215454479Y-22072433D01*
X215646805Y-21893981D01*
X215810386Y-21688857D01*
X215941568Y-21461643D01*
X216037420Y-21217416D01*
X216095802Y-20961630D01*
X216115408Y-20700004D01*
X230604592Y-20700004D01*
X230624196Y-20961620D01*
X230624197Y-20961625D01*
X230682576Y-21217402D01*
X230682578Y-21217411D01*
X230682580Y-21217416D01*
X230778432Y-21461643D01*
X230909614Y-21688857D01*
X231041736Y-21854533D01*
X231073198Y-21893985D01*
X231254753Y-22062441D01*
X231265521Y-22072433D01*
X231482296Y-22220228D01*
X231482301Y-22220230D01*
X231482302Y-22220231D01*
X231482303Y-22220232D01*
X231607843Y-22280688D01*
X231718673Y-22334061D01*
X231718674Y-22334061D01*
X231718677Y-22334063D01*
X231969385Y-22411396D01*
X232228818Y-22450500D01*
X232491182Y-22450500D01*
X232750615Y-22411396D01*
X233001323Y-22334063D01*
X233237704Y-22220228D01*
X233454479Y-22072433D01*
X233646805Y-21893981D01*
X233810386Y-21688857D01*
X233941568Y-21461643D01*
X234037420Y-21217416D01*
X234095802Y-20961630D01*
X234115408Y-20700000D01*
X234095802Y-20438370D01*
X234037420Y-20182584D01*
X233941568Y-19938357D01*
X233810386Y-19711143D01*
X233646805Y-19506019D01*
X233646804Y-19506018D01*
X233646801Y-19506014D01*
X233454479Y-19327567D01*
X233237704Y-19179772D01*
X233237700Y-19179770D01*
X233237697Y-19179768D01*
X233237696Y-19179767D01*
X233001325Y-19065938D01*
X233001327Y-19065938D01*
X232750623Y-18988606D01*
X232750619Y-18988605D01*
X232750615Y-18988604D01*
X232625823Y-18969794D01*
X232491187Y-18949500D01*
X232491182Y-18949500D01*
X232228818Y-18949500D01*
X232228812Y-18949500D01*
X232067247Y-18973853D01*
X231969385Y-18988604D01*
X231969382Y-18988605D01*
X231969376Y-18988606D01*
X231718673Y-19065938D01*
X231482303Y-19179767D01*
X231482302Y-19179768D01*
X231265520Y-19327567D01*
X231073198Y-19506014D01*
X230909614Y-19711143D01*
X230778432Y-19938356D01*
X230682582Y-20182578D01*
X230682576Y-20182597D01*
X230624197Y-20438374D01*
X230624196Y-20438379D01*
X230604592Y-20699995D01*
X230604592Y-20700004D01*
X216115408Y-20700004D01*
X216115408Y-20700000D01*
X216095802Y-20438370D01*
X216037420Y-20182584D01*
X215941568Y-19938357D01*
X215810386Y-19711143D01*
X215646805Y-19506019D01*
X215646804Y-19506018D01*
X215646801Y-19506014D01*
X215454479Y-19327567D01*
X215237704Y-19179772D01*
X215237700Y-19179770D01*
X215237697Y-19179768D01*
X215237696Y-19179767D01*
X215001325Y-19065938D01*
X215001327Y-19065938D01*
X214750623Y-18988606D01*
X214750619Y-18988605D01*
X214750615Y-18988604D01*
X214625823Y-18969794D01*
X214491187Y-18949500D01*
X214491182Y-18949500D01*
X214228818Y-18949500D01*
X214228812Y-18949500D01*
X214067247Y-18973853D01*
X213969385Y-18988604D01*
X213969382Y-18988605D01*
X213969376Y-18988606D01*
X213718673Y-19065938D01*
X213482303Y-19179767D01*
X213482302Y-19179768D01*
X213265520Y-19327567D01*
X213073198Y-19506014D01*
X212909614Y-19711143D01*
X212778432Y-19938356D01*
X212682582Y-20182578D01*
X212682576Y-20182597D01*
X212624197Y-20438374D01*
X212624196Y-20438379D01*
X212604592Y-20699995D01*
X212604592Y-20700004D01*
X206029962Y-20700004D01*
X210231461Y-14747148D01*
X210252085Y-14724493D01*
X210377948Y-14616661D01*
X210388839Y-14608330D01*
X210564067Y-14489082D01*
X210575816Y-14482006D01*
X210763147Y-14382881D01*
X210775604Y-14377149D01*
X210972760Y-14299351D01*
X210985780Y-14295031D01*
X211190327Y-14239523D01*
X211203737Y-14236671D01*
X211394748Y-14206994D01*
X211413754Y-14205525D01*
X239600237Y-14200501D01*
X239619633Y-14202025D01*
G37*
%TD.AperFunction*%
%TA.AperFunction,Conductor*%
G36*
X74132542Y-28849650D02*
G01*
X75096112Y-28878218D01*
X75101088Y-28878466D01*
X75940245Y-28937255D01*
X76062673Y-28945832D01*
X76067652Y-28946282D01*
X77025774Y-29052339D01*
X77030639Y-29052978D01*
X77983714Y-29197554D01*
X77988574Y-29198391D01*
X78935071Y-29381256D01*
X78939957Y-29382303D01*
X79878283Y-29603146D01*
X79883045Y-29604369D01*
X80811719Y-29862841D01*
X80816471Y-29864267D01*
X81734006Y-30159958D01*
X81738691Y-30161574D01*
X82643502Y-30493969D01*
X82648139Y-30495779D01*
X83538841Y-30864370D01*
X83543391Y-30866361D01*
X84418559Y-31270557D01*
X84422999Y-31272718D01*
X85084637Y-31611281D01*
X85281114Y-31711820D01*
X85285516Y-31714185D01*
X86125262Y-32187517D01*
X86129564Y-32190058D01*
X86477246Y-32404936D01*
X86949550Y-32696834D01*
X86953701Y-32699517D01*
X87752621Y-33238935D01*
X87756681Y-33241797D01*
X88160408Y-33538752D01*
X88533189Y-33812945D01*
X88537148Y-33815982D01*
X88712517Y-33956202D01*
X89290029Y-34417965D01*
X89293868Y-34421164D01*
X89815838Y-34874171D01*
X89853566Y-34932979D01*
X89858562Y-34967944D01*
X89856624Y-36906620D01*
X89856551Y-36907740D01*
X89856551Y-36968784D01*
X89854168Y-36992976D01*
X89848075Y-37023607D01*
X89829560Y-37068306D01*
X89819129Y-37083917D01*
X89784927Y-37118122D01*
X89769319Y-37128553D01*
X89724616Y-37147073D01*
X89694223Y-37153120D01*
X89670038Y-37155504D01*
X89612867Y-37155509D01*
X89604519Y-37156089D01*
X89293618Y-37158500D01*
X89293575Y-37158501D01*
X88525694Y-37203768D01*
X87761124Y-37288256D01*
X87761110Y-37288258D01*
X87001823Y-37411752D01*
X86249902Y-37573912D01*
X86249874Y-37573919D01*
X85507247Y-37774326D01*
X85507219Y-37774334D01*
X84775781Y-38012477D01*
X84775764Y-38012483D01*
X84057477Y-38287725D01*
X84057472Y-38287727D01*
X84057468Y-38287729D01*
X83917593Y-38349709D01*
X83354178Y-38599363D01*
X82667752Y-38946562D01*
X81999991Y-39328417D01*
X81352632Y-39743934D01*
X81352618Y-39743943D01*
X80727378Y-40192017D01*
X80727376Y-40192019D01*
X80125861Y-40671500D01*
X79549653Y-41181128D01*
X79549644Y-41181136D01*
X79000289Y-41719544D01*
X79000281Y-41719552D01*
X78479159Y-42285384D01*
X77987672Y-42877121D01*
X77527090Y-43493235D01*
X77527086Y-43493242D01*
X77098635Y-44132089D01*
X77098631Y-44132095D01*
X76703412Y-44792038D01*
X76342458Y-45471351D01*
X76016738Y-46168213D01*
X76016721Y-46168252D01*
X75727090Y-46880822D01*
X75727085Y-46880836D01*
X75474272Y-47607318D01*
X75474267Y-47607334D01*
X75258942Y-48345818D01*
X75081671Y-49094366D01*
X74942927Y-49850972D01*
X74942924Y-49850989D01*
X74843064Y-50613697D01*
X74843062Y-50613720D01*
X74782347Y-51380545D01*
X74782347Y-51380552D01*
X74760937Y-52149467D01*
X74760937Y-52149499D01*
X74778887Y-52918501D01*
X74778888Y-52918512D01*
X74836151Y-53685597D01*
X74836154Y-53685625D01*
X74932581Y-54448779D01*
X75067924Y-55206022D01*
X75201965Y-55783594D01*
X75241823Y-55955341D01*
X75277085Y-56078333D01*
X75453818Y-56694769D01*
X75453823Y-56694783D01*
X75453824Y-56694787D01*
X75464014Y-56724500D01*
X75703375Y-57422432D01*
X75989805Y-58136318D01*
X75989812Y-58136334D01*
X75989814Y-58136338D01*
X76195775Y-58582199D01*
X76312406Y-58834680D01*
X76670278Y-59515570D01*
X76670290Y-59515591D01*
X76745007Y-59641637D01*
X77062532Y-60177298D01*
X77229671Y-60428953D01*
X77488111Y-60818077D01*
X77488114Y-60818082D01*
X77945912Y-61436253D01*
X77945913Y-61436254D01*
X77945917Y-61436259D01*
X78069390Y-61586286D01*
X78434742Y-62030209D01*
X78781277Y-62409890D01*
X78953309Y-62598376D01*
X79500261Y-63139273D01*
X80074165Y-63651484D01*
X80629282Y-64098080D01*
X80673527Y-64133675D01*
X80758155Y-64194901D01*
X81296752Y-64584562D01*
X81296773Y-64584575D01*
X81296775Y-64584577D01*
X81942217Y-65002974D01*
X81942234Y-65002985D01*
X82608275Y-65387843D01*
X83293131Y-65738127D01*
X83995007Y-66052920D01*
X84109110Y-66097233D01*
X84712040Y-66331388D01*
X84712053Y-66331392D01*
X84712068Y-66331398D01*
X85442434Y-66572832D01*
X86184195Y-66776590D01*
X86184199Y-66776591D01*
X86184204Y-66776592D01*
X86877630Y-66929406D01*
X86938862Y-66963057D01*
X86972181Y-67024470D01*
X86967008Y-67094148D01*
X86924985Y-67149968D01*
X86859455Y-67174208D01*
X86850944Y-67174500D01*
X67195942Y-67174500D01*
X67043213Y-67215423D01*
X66999833Y-67240470D01*
X66999832Y-67240470D01*
X66906287Y-67294477D01*
X66906282Y-67294481D01*
X64119481Y-70081282D01*
X64119477Y-70081287D01*
X64075647Y-70157205D01*
X64075647Y-70157206D01*
X64040423Y-70218214D01*
X64026781Y-70269124D01*
X63999499Y-70370943D01*
X63999499Y-70370945D01*
X63999499Y-70539046D01*
X63999500Y-70539059D01*
X63999500Y-75243330D01*
X63999499Y-75243348D01*
X63999499Y-75409054D01*
X63999498Y-75409054D01*
X64040423Y-75561786D01*
X64040424Y-75561787D01*
X64047597Y-75574211D01*
X64059875Y-75595477D01*
X64105334Y-75674215D01*
X64119481Y-75698717D01*
X64238349Y-75817585D01*
X64238355Y-75817590D01*
X66790977Y-78370212D01*
X66824462Y-78431535D01*
X66819478Y-78501227D01*
X66817859Y-78505339D01*
X66805828Y-78534388D01*
X66781236Y-78636819D01*
X66748853Y-78771702D01*
X66729706Y-79015000D01*
X66740545Y-79152725D01*
X66726181Y-79221103D01*
X66677129Y-79270859D01*
X66608964Y-79286198D01*
X66543327Y-79262249D01*
X66511933Y-79228426D01*
X66446646Y-79124523D01*
X66429816Y-79097738D01*
X66302262Y-78970184D01*
X66252654Y-78939013D01*
X66149523Y-78874211D01*
X65979254Y-78814631D01*
X65979249Y-78814630D01*
X65800004Y-78794435D01*
X65799996Y-78794435D01*
X65620750Y-78814630D01*
X65620745Y-78814631D01*
X65450476Y-78874211D01*
X65297737Y-78970184D01*
X65170184Y-79097737D01*
X65074210Y-79250478D01*
X65014630Y-79420750D01*
X65004837Y-79507668D01*
X64977770Y-79572082D01*
X64969298Y-79581465D01*
X62481286Y-82069478D01*
X62369481Y-82181282D01*
X62369479Y-82181285D01*
X62346442Y-82221186D01*
X62339685Y-82232892D01*
X62323406Y-82261088D01*
X62323404Y-82261090D01*
X62290425Y-82318209D01*
X62290424Y-82318210D01*
X62290423Y-82318215D01*
X62249499Y-82470943D01*
X62249499Y-82470945D01*
X62249499Y-82639046D01*
X62249500Y-82639059D01*
X62249500Y-107988330D01*
X62249499Y-107988348D01*
X62249499Y-108154054D01*
X62249498Y-108154054D01*
X62249499Y-108154057D01*
X62282165Y-108275967D01*
X62290424Y-108306787D01*
X62307126Y-108335715D01*
X62307127Y-108335717D01*
X62369477Y-108443712D01*
X62369481Y-108443717D01*
X62488349Y-108562585D01*
X62488355Y-108562590D01*
X62875647Y-108949882D01*
X62909132Y-109011205D01*
X62911186Y-109023679D01*
X62914630Y-109054249D01*
X62974210Y-109224521D01*
X63050384Y-109345750D01*
X63070184Y-109377262D01*
X63197738Y-109504816D01*
X63250262Y-109537819D01*
X63347856Y-109599142D01*
X63350478Y-109600789D01*
X63421098Y-109625500D01*
X63520745Y-109660368D01*
X63520750Y-109660369D01*
X63699996Y-109680565D01*
X63700000Y-109680565D01*
X63700004Y-109680565D01*
X63879249Y-109660369D01*
X63879252Y-109660368D01*
X63879255Y-109660368D01*
X64049522Y-109600789D01*
X64202262Y-109504816D01*
X64329816Y-109377262D01*
X64425789Y-109224522D01*
X64485368Y-109054255D01*
X64485369Y-109054249D01*
X64505565Y-108875003D01*
X64505565Y-108874996D01*
X64485369Y-108695750D01*
X64485368Y-108695745D01*
X64438773Y-108562585D01*
X64425789Y-108525478D01*
X64329816Y-108372738D01*
X64202262Y-108245184D01*
X64192732Y-108239196D01*
X64049523Y-108149211D01*
X63879254Y-108089631D01*
X63879249Y-108089630D01*
X63735983Y-108073489D01*
X63671569Y-108046423D01*
X63662185Y-108037950D01*
X63486819Y-107862584D01*
X63453334Y-107801261D01*
X63450500Y-107774903D01*
X63450500Y-106550003D01*
X67994435Y-106550003D01*
X68014630Y-106729249D01*
X68014631Y-106729254D01*
X68074211Y-106899523D01*
X68152754Y-107024522D01*
X68170184Y-107052262D01*
X68297738Y-107179816D01*
X68351161Y-107213384D01*
X68438740Y-107268414D01*
X68450478Y-107275789D01*
X68618387Y-107334543D01*
X68620745Y-107335368D01*
X68620750Y-107335369D01*
X68799996Y-107355565D01*
X68800000Y-107355565D01*
X68800004Y-107355565D01*
X68979243Y-107335370D01*
X68979248Y-107335368D01*
X68979255Y-107335368D01*
X68979261Y-107335365D01*
X68982865Y-107334543D01*
X68985275Y-107334690D01*
X68986176Y-107334589D01*
X68986193Y-107334746D01*
X69052604Y-107338808D01*
X69108967Y-107380100D01*
X69133692Y-107441546D01*
X69139630Y-107494250D01*
X69139631Y-107494254D01*
X69199211Y-107664523D01*
X69285130Y-107801261D01*
X69295184Y-107817262D01*
X69422738Y-107944816D01*
X69429623Y-107949142D01*
X69570959Y-108037950D01*
X69575478Y-108040789D01*
X69715063Y-108089632D01*
X69745745Y-108100368D01*
X69745750Y-108100369D01*
X69924996Y-108120565D01*
X69925000Y-108120565D01*
X69925004Y-108120565D01*
X70104249Y-108100369D01*
X70104252Y-108100368D01*
X70104255Y-108100368D01*
X70274522Y-108040789D01*
X70427262Y-107944816D01*
X70427266Y-107944811D01*
X70430097Y-107942555D01*
X70432275Y-107941665D01*
X70433158Y-107941111D01*
X70433255Y-107941265D01*
X70494784Y-107916146D01*
X70507411Y-107915501D01*
X70564054Y-107915501D01*
X70564057Y-107915501D01*
X70716785Y-107874577D01*
X70737557Y-107862584D01*
X70771104Y-107843216D01*
X70771105Y-107843215D01*
X70853716Y-107795520D01*
X70965520Y-107683716D01*
X70965520Y-107683714D01*
X70975724Y-107673511D01*
X70975728Y-107673506D01*
X71618535Y-107030698D01*
X71679856Y-106997215D01*
X71692311Y-106995163D01*
X71779255Y-106985368D01*
X71949522Y-106925789D01*
X72102262Y-106829816D01*
X72229816Y-106702262D01*
X72325789Y-106549522D01*
X72385368Y-106379255D01*
X72385369Y-106379249D01*
X72405565Y-106200003D01*
X72405565Y-106199996D01*
X72385369Y-106020750D01*
X72385368Y-106020745D01*
X72350180Y-105920184D01*
X72325789Y-105850478D01*
X72229816Y-105697738D01*
X72102262Y-105570184D01*
X71994652Y-105502568D01*
X71948361Y-105450233D01*
X71937713Y-105381179D01*
X71955631Y-105331602D01*
X71975789Y-105299522D01*
X72009208Y-105204017D01*
X72035366Y-105129262D01*
X72035369Y-105129249D01*
X72055565Y-104950003D01*
X72055565Y-104949996D01*
X72035369Y-104770750D01*
X72035368Y-104770745D01*
X72023605Y-104737128D01*
X71975789Y-104600478D01*
X71967781Y-104587734D01*
X71879815Y-104447737D01*
X71752262Y-104320184D01*
X71599523Y-104224211D01*
X71429254Y-104164631D01*
X71429249Y-104164630D01*
X71250004Y-104144435D01*
X71249996Y-104144435D01*
X71070750Y-104164630D01*
X71070745Y-104164631D01*
X70900476Y-104224211D01*
X70747736Y-104320185D01*
X70744903Y-104322445D01*
X70742724Y-104323334D01*
X70741842Y-104323889D01*
X70741744Y-104323734D01*
X70680217Y-104348855D01*
X70667588Y-104349500D01*
X70486670Y-104349500D01*
X70486654Y-104349499D01*
X70479058Y-104349499D01*
X70320943Y-104349499D01*
X70244579Y-104369961D01*
X70168214Y-104390423D01*
X70168209Y-104390426D01*
X70031290Y-104469475D01*
X70031282Y-104469481D01*
X68781465Y-105719298D01*
X68720142Y-105752783D01*
X68707668Y-105754837D01*
X68620750Y-105764630D01*
X68450478Y-105824210D01*
X68297737Y-105920184D01*
X68170184Y-106047737D01*
X68074211Y-106200476D01*
X68014631Y-106370745D01*
X68014630Y-106370750D01*
X67994435Y-106549996D01*
X67994435Y-106550003D01*
X63450500Y-106550003D01*
X63450500Y-97124097D01*
X63470185Y-97057058D01*
X63522989Y-97011303D01*
X63592147Y-97001359D01*
X63655703Y-97030384D01*
X63662181Y-97036416D01*
X66325139Y-99699374D01*
X66325149Y-99699385D01*
X66329479Y-99703715D01*
X66329480Y-99703716D01*
X66441284Y-99815520D01*
X66500404Y-99849652D01*
X66528095Y-99865639D01*
X66528097Y-99865641D01*
X66578213Y-99894576D01*
X66578215Y-99894577D01*
X66730942Y-99935500D01*
X66730943Y-99935500D01*
X66772632Y-99935500D01*
X66839671Y-99955185D01*
X66885426Y-100007989D01*
X66887193Y-100012047D01*
X66899222Y-100041089D01*
X67026737Y-100249173D01*
X67026738Y-100249176D01*
X67067782Y-100297232D01*
X67185241Y-100434759D01*
X67328262Y-100556910D01*
X67328263Y-100556911D01*
X67342924Y-100579370D01*
X68155591Y-101392037D01*
X68092007Y-101409075D01*
X67977993Y-101474901D01*
X67884901Y-101567993D01*
X67819075Y-101682007D01*
X67802037Y-101745590D01*
X67023504Y-100967057D01*
X66899668Y-101169138D01*
X66806303Y-101394542D01*
X66749348Y-101631780D01*
X66730207Y-101875000D01*
X66749348Y-102118219D01*
X66806303Y-102355457D01*
X66899668Y-102580861D01*
X67023504Y-102782941D01*
X67802037Y-102004408D01*
X67819075Y-102067993D01*
X67884901Y-102182007D01*
X67977993Y-102275099D01*
X68092007Y-102340925D01*
X68155590Y-102357962D01*
X67377057Y-103136494D01*
X67579138Y-103260331D01*
X67804542Y-103353696D01*
X68041780Y-103410651D01*
X68041779Y-103410651D01*
X68285000Y-103429792D01*
X68528219Y-103410651D01*
X68765457Y-103353696D01*
X68990861Y-103260331D01*
X69192941Y-103136495D01*
X69192941Y-103136494D01*
X68414410Y-102357962D01*
X68477993Y-102340925D01*
X68592007Y-102275099D01*
X68685099Y-102182007D01*
X68750925Y-102067993D01*
X68767962Y-102004409D01*
X69546493Y-102782940D01*
X69561797Y-102781129D01*
X69590948Y-102781128D01*
X69648504Y-102787940D01*
X70427037Y-102009408D01*
X70444075Y-102072993D01*
X70509901Y-102187007D01*
X70602993Y-102280099D01*
X70717007Y-102345925D01*
X70780590Y-102362962D01*
X70002057Y-103141494D01*
X70204138Y-103265331D01*
X70429542Y-103358696D01*
X70666780Y-103415651D01*
X70666779Y-103415651D01*
X70910000Y-103434792D01*
X71153219Y-103415651D01*
X71390457Y-103358696D01*
X71615861Y-103265331D01*
X71817941Y-103141495D01*
X71817941Y-103141494D01*
X71039410Y-102362962D01*
X71102993Y-102345925D01*
X71217007Y-102280099D01*
X71310099Y-102187007D01*
X71375925Y-102072993D01*
X71392962Y-102009409D01*
X72171494Y-102787941D01*
X72171495Y-102787941D01*
X72295331Y-102585861D01*
X72388696Y-102360457D01*
X72445651Y-102123219D01*
X72453609Y-102022096D01*
X72478492Y-101956808D01*
X72534723Y-101915336D01*
X72604448Y-101910849D01*
X72664908Y-101944143D01*
X77989179Y-107268414D01*
X78022664Y-107329737D01*
X78025498Y-107356095D01*
X78025498Y-111153058D01*
X78066421Y-111305785D01*
X78066424Y-111305792D01*
X78145473Y-111442711D01*
X78145477Y-111442716D01*
X78145478Y-111442718D01*
X78257282Y-111554522D01*
X78257284Y-111554523D01*
X78257288Y-111554526D01*
X78394207Y-111633575D01*
X78394214Y-111633579D01*
X78546941Y-111674502D01*
X85112683Y-111674502D01*
X85179722Y-111694187D01*
X85225477Y-111746991D01*
X85235421Y-111816149D01*
X85206396Y-111879705D01*
X85151602Y-111916236D01*
X84720544Y-112058728D01*
X84720516Y-112058737D01*
X84004692Y-112336735D01*
X83303965Y-112651011D01*
X82620261Y-113000704D01*
X82620227Y-113000723D01*
X81955335Y-113384914D01*
X81955310Y-113384930D01*
X81310912Y-113802648D01*
X80688720Y-114252786D01*
X80090381Y-114734152D01*
X79517403Y-115245534D01*
X78971396Y-115785492D01*
X78971394Y-115785494D01*
X78453686Y-116352716D01*
X78453685Y-116352716D01*
X77965658Y-116945691D01*
X77508620Y-117562830D01*
X77508610Y-117562844D01*
X77083757Y-118202526D01*
X77083732Y-118202567D01*
X76692159Y-118863138D01*
X76692139Y-118863174D01*
X76334860Y-119542929D01*
X76334855Y-119542939D01*
X76012825Y-120240052D01*
X76012805Y-120240099D01*
X75726833Y-120952833D01*
X75477713Y-121679206D01*
X75477707Y-121679225D01*
X75477703Y-121679239D01*
X75266051Y-122417451D01*
X75092438Y-123165524D01*
X75073165Y-123273354D01*
X74957317Y-123921498D01*
X74861045Y-124683383D01*
X74861043Y-124683402D01*
X74803870Y-125449214D01*
X74803869Y-125449223D01*
X74785944Y-126216943D01*
X74785944Y-126216975D01*
X74807312Y-126984606D01*
X74807312Y-126984614D01*
X74867921Y-127750161D01*
X74867924Y-127750188D01*
X74967613Y-128511633D01*
X74967617Y-128511663D01*
X75098623Y-129226094D01*
X75106123Y-129266993D01*
X75275696Y-129983057D01*
X75283091Y-130014282D01*
X75283092Y-130014286D01*
X75498048Y-130751527D01*
X75498049Y-130751530D01*
X75498051Y-130751535D01*
X75750443Y-131476829D01*
X76039605Y-132188264D01*
X76122906Y-132366486D01*
X76364782Y-132883977D01*
X76364794Y-132884001D01*
X76725114Y-133562136D01*
X77119670Y-134220986D01*
X77547413Y-134858792D01*
X77686156Y-135044390D01*
X78007219Y-135473880D01*
X78497886Y-136064642D01*
X79012007Y-136622883D01*
X79018133Y-136629535D01*
X79018140Y-136629542D01*
X79566573Y-137167056D01*
X79566584Y-137167066D01*
X79566588Y-137167070D01*
X80141824Y-137675850D01*
X80742333Y-138154539D01*
X81366542Y-138601884D01*
X82012816Y-139016713D01*
X82012830Y-139016721D01*
X82679456Y-139397937D01*
X82679462Y-139397940D01*
X83217861Y-139670275D01*
X83364739Y-139744569D01*
X84066849Y-140055689D01*
X84066865Y-140055695D01*
X84066877Y-140055700D01*
X84619463Y-140267454D01*
X84783954Y-140330488D01*
X85491396Y-140560827D01*
X85514180Y-140568246D01*
X85612645Y-140594819D01*
X86255606Y-140768338D01*
X87006299Y-140930243D01*
X87006315Y-140930245D01*
X87006332Y-140930249D01*
X87589446Y-141025097D01*
X87764291Y-141053537D01*
X88527598Y-141137896D01*
X89294221Y-141183099D01*
X89604487Y-141185509D01*
X89613053Y-141186103D01*
X89616193Y-141186102D01*
X89616195Y-141186103D01*
X89669881Y-141186098D01*
X89694062Y-141188478D01*
X89724645Y-141194560D01*
X89769346Y-141213076D01*
X89784912Y-141223477D01*
X89819127Y-141257694D01*
X89829528Y-141273262D01*
X89848042Y-141317969D01*
X89854169Y-141348789D01*
X89856549Y-141372985D01*
X89856540Y-141433770D01*
X89856624Y-141435045D01*
X89858565Y-143398652D01*
X89838947Y-143465711D01*
X89815841Y-143492424D01*
X89293867Y-143945435D01*
X89290028Y-143948634D01*
X88537153Y-144550613D01*
X88533188Y-144553654D01*
X87756707Y-145124780D01*
X87752623Y-145127660D01*
X86953705Y-145667076D01*
X86949507Y-145669788D01*
X86129562Y-146176539D01*
X86125260Y-146179080D01*
X85285514Y-146652411D01*
X85281112Y-146654776D01*
X84423024Y-147093865D01*
X84418530Y-147096052D01*
X83543404Y-147500229D01*
X83538826Y-147502232D01*
X82648146Y-147870812D01*
X82643491Y-147872629D01*
X81738709Y-148205014D01*
X81733985Y-148206643D01*
X80816481Y-148502323D01*
X80811695Y-148503759D01*
X79883090Y-148762213D01*
X79878249Y-148763456D01*
X78939956Y-148984291D01*
X78935070Y-148985338D01*
X77988607Y-149168196D01*
X77983682Y-149169044D01*
X77030683Y-149313609D01*
X77025729Y-149314259D01*
X76067650Y-149420311D01*
X76062673Y-149420761D01*
X75101096Y-149488125D01*
X75096105Y-149488374D01*
X74132579Y-149516941D01*
X74127582Y-149516988D01*
X73163715Y-149506709D01*
X73158720Y-149506555D01*
X72196044Y-149457449D01*
X72191059Y-149457094D01*
X71231128Y-149369238D01*
X71226162Y-149368682D01*
X70270578Y-149242224D01*
X70265638Y-149241469D01*
X69315893Y-149076606D01*
X69310988Y-149075652D01*
X68368694Y-148872665D01*
X68363831Y-148871515D01*
X67430432Y-148630712D01*
X67425620Y-148629366D01*
X66502735Y-148351168D01*
X66497980Y-148349630D01*
X65587012Y-148034458D01*
X65582323Y-148032729D01*
X64684815Y-147681118D01*
X64680200Y-147679202D01*
X64209221Y-147472430D01*
X63797555Y-147291698D01*
X63793050Y-147289611D01*
X62926764Y-146866874D01*
X62922323Y-146864596D01*
X62530863Y-146653632D01*
X62073745Y-146407283D01*
X62069401Y-146404828D01*
X61239975Y-145913716D01*
X61235727Y-145911084D01*
X60426728Y-145386931D01*
X60422602Y-145384138D01*
X59635373Y-144827811D01*
X59631393Y-144824876D01*
X58867249Y-144237305D01*
X58863349Y-144234180D01*
X58339906Y-143797029D01*
X58123468Y-143616271D01*
X58119709Y-143613001D01*
X57405358Y-142965813D01*
X57401723Y-142962384D01*
X57262355Y-142825498D01*
X56714003Y-142286912D01*
X56710545Y-142283377D01*
X56050579Y-141580724D01*
X56047266Y-141577051D01*
X55732020Y-141213076D01*
X55416181Y-140848416D01*
X55412986Y-140844574D01*
X54811764Y-140091095D01*
X54808727Y-140087127D01*
X54238359Y-139310045D01*
X54235484Y-139305957D01*
X53696905Y-138506548D01*
X53694197Y-138502349D01*
X53237027Y-137760967D01*
X53188243Y-137681855D01*
X53185711Y-137677558D01*
X53176454Y-137661097D01*
X52832812Y-137050001D01*
X67629390Y-137050001D01*
X67649804Y-137335433D01*
X67710628Y-137615037D01*
X67710630Y-137615043D01*
X67710631Y-137615046D01*
X67727808Y-137661098D01*
X67810635Y-137883166D01*
X67947770Y-138134309D01*
X67947775Y-138134317D01*
X68119254Y-138363387D01*
X68119270Y-138363405D01*
X68321594Y-138565729D01*
X68321612Y-138565745D01*
X68550682Y-138737224D01*
X68550690Y-138737229D01*
X68801833Y-138874364D01*
X68801832Y-138874364D01*
X68801836Y-138874365D01*
X68801839Y-138874367D01*
X69069954Y-138974369D01*
X69069960Y-138974370D01*
X69069962Y-138974371D01*
X69349566Y-139035195D01*
X69349568Y-139035195D01*
X69349572Y-139035196D01*
X69603220Y-139053337D01*
X69634999Y-139055610D01*
X69635000Y-139055610D01*
X69635001Y-139055610D01*
X69663595Y-139053564D01*
X69920428Y-139035196D01*
X69938136Y-139031344D01*
X70200037Y-138974371D01*
X70200037Y-138974370D01*
X70200046Y-138974369D01*
X70468161Y-138874367D01*
X70719315Y-138737226D01*
X70948395Y-138565739D01*
X71150739Y-138363395D01*
X71322226Y-138134315D01*
X71459367Y-137883161D01*
X71559369Y-137615046D01*
X71620196Y-137335428D01*
X71640610Y-137050000D01*
X71620196Y-136764572D01*
X71619962Y-136763498D01*
X71559371Y-136484962D01*
X71559370Y-136484960D01*
X71559369Y-136484954D01*
X71459367Y-136216839D01*
X71443982Y-136188664D01*
X71322229Y-135965690D01*
X71322224Y-135965682D01*
X71150745Y-135736612D01*
X71150729Y-135736594D01*
X70948405Y-135534270D01*
X70948387Y-135534254D01*
X70719317Y-135362775D01*
X70719309Y-135362770D01*
X70468166Y-135225635D01*
X70468167Y-135225635D01*
X70236034Y-135139054D01*
X70200046Y-135125631D01*
X70200043Y-135125630D01*
X70200037Y-135125628D01*
X69920433Y-135064804D01*
X69635001Y-135044390D01*
X69634999Y-135044390D01*
X69349566Y-135064804D01*
X69069962Y-135125628D01*
X68801833Y-135225635D01*
X68550690Y-135362770D01*
X68550682Y-135362775D01*
X68321612Y-135534254D01*
X68321594Y-135534270D01*
X68119270Y-135736594D01*
X68119254Y-135736612D01*
X67947775Y-135965682D01*
X67947770Y-135965690D01*
X67810635Y-136216833D01*
X67710628Y-136484962D01*
X67649804Y-136764566D01*
X67629390Y-137049998D01*
X67629390Y-137050001D01*
X52832812Y-137050001D01*
X52713231Y-136837351D01*
X52710875Y-136832955D01*
X52702900Y-136817331D01*
X52272634Y-135974395D01*
X52270457Y-135969910D01*
X52268509Y-135965682D01*
X51867167Y-135094398D01*
X51865169Y-135089819D01*
X51817108Y-134973348D01*
X51497463Y-134198724D01*
X51495672Y-134194119D01*
X51164186Y-133288977D01*
X51162562Y-133284251D01*
X51059500Y-132963343D01*
X50867805Y-132366458D01*
X50866390Y-132361727D01*
X50608834Y-131432740D01*
X50607616Y-131427971D01*
X50387720Y-130489441D01*
X50386680Y-130484562D01*
X50296311Y-130014282D01*
X50204773Y-129537921D01*
X50203933Y-129533013D01*
X50201151Y-129514551D01*
X50060320Y-128579837D01*
X50059677Y-128574892D01*
X50042145Y-128415040D01*
X49954579Y-127616646D01*
X49954142Y-127611744D01*
X49887740Y-126650059D01*
X49887499Y-126645126D01*
X49859899Y-125681533D01*
X49859848Y-125677983D01*
X49859848Y-52688687D01*
X49859899Y-52685137D01*
X49875241Y-52149481D01*
X49887500Y-51721470D01*
X49887741Y-51716546D01*
X49954142Y-50754856D01*
X49954579Y-50749954D01*
X50059679Y-49791691D01*
X50060322Y-49786753D01*
X50061300Y-49780261D01*
X50203936Y-48833560D01*
X50204771Y-48828687D01*
X50386682Y-47882019D01*
X50387721Y-47877150D01*
X50411301Y-47776510D01*
X50607613Y-46938638D01*
X50608845Y-46933818D01*
X50623534Y-46880836D01*
X50866391Y-46004862D01*
X50867796Y-46000163D01*
X51162562Y-45082340D01*
X51164184Y-45077622D01*
X51283497Y-44751830D01*
X51495676Y-44172462D01*
X51497455Y-44167891D01*
X51865174Y-43276759D01*
X51867165Y-43272198D01*
X52270468Y-42396656D01*
X52272621Y-42392221D01*
X52710888Y-41533611D01*
X52713217Y-41529266D01*
X52870256Y-41250004D01*
X67879592Y-41250004D01*
X67899196Y-41511620D01*
X67899197Y-41511625D01*
X67957576Y-41767402D01*
X67957578Y-41767411D01*
X67957580Y-41767416D01*
X68053432Y-42011643D01*
X68184614Y-42238857D01*
X68306894Y-42392191D01*
X68348198Y-42443985D01*
X68529753Y-42612441D01*
X68540521Y-42622433D01*
X68757296Y-42770228D01*
X68757301Y-42770230D01*
X68757302Y-42770231D01*
X68757303Y-42770232D01*
X68882843Y-42830688D01*
X68993673Y-42884061D01*
X68993674Y-42884061D01*
X68993677Y-42884063D01*
X69244385Y-42961396D01*
X69503818Y-43000500D01*
X69766182Y-43000500D01*
X70025615Y-42961396D01*
X70276323Y-42884063D01*
X70512704Y-42770228D01*
X70729479Y-42622433D01*
X70921805Y-42443981D01*
X71085386Y-42238857D01*
X71216568Y-42011643D01*
X71312420Y-41767416D01*
X71370802Y-41511630D01*
X71390408Y-41250000D01*
X71385247Y-41181136D01*
X71370803Y-40988379D01*
X71370802Y-40988374D01*
X71370802Y-40988370D01*
X71312420Y-40732584D01*
X71216568Y-40488357D01*
X71085386Y-40261143D01*
X70921805Y-40056019D01*
X70921804Y-40056018D01*
X70921801Y-40056014D01*
X70729479Y-39877567D01*
X70703798Y-39860058D01*
X70512704Y-39729772D01*
X70512700Y-39729770D01*
X70512697Y-39729768D01*
X70512696Y-39729767D01*
X70276325Y-39615938D01*
X70276327Y-39615938D01*
X70025623Y-39538606D01*
X70025619Y-39538605D01*
X70025615Y-39538604D01*
X69900823Y-39519794D01*
X69766187Y-39499500D01*
X69766182Y-39499500D01*
X69503818Y-39499500D01*
X69503812Y-39499500D01*
X69342247Y-39523853D01*
X69244385Y-39538604D01*
X69244382Y-39538605D01*
X69244376Y-39538606D01*
X68993673Y-39615938D01*
X68757303Y-39729767D01*
X68757302Y-39729768D01*
X68540520Y-39877567D01*
X68348198Y-40056014D01*
X68184614Y-40261143D01*
X68053432Y-40488356D01*
X67957582Y-40732578D01*
X67957576Y-40732597D01*
X67899197Y-40988374D01*
X67899196Y-40988379D01*
X67879592Y-41249995D01*
X67879592Y-41250004D01*
X52870256Y-41250004D01*
X53185735Y-40688990D01*
X53188229Y-40684758D01*
X53694220Y-39864202D01*
X53696857Y-39860113D01*
X54235495Y-39060616D01*
X54238340Y-39056570D01*
X54808731Y-38279456D01*
X54811760Y-38275500D01*
X54829184Y-38253664D01*
X55413002Y-37521995D01*
X55416155Y-37518203D01*
X56047260Y-36789546D01*
X56050578Y-36785867D01*
X56710565Y-36083192D01*
X56713974Y-36079706D01*
X57401751Y-35404179D01*
X57405321Y-35400811D01*
X58119738Y-34753563D01*
X58123469Y-34750318D01*
X58863339Y-34132418D01*
X58867230Y-34129300D01*
X59631430Y-33541686D01*
X59635368Y-33538782D01*
X60422598Y-32982454D01*
X60426711Y-32979669D01*
X61235760Y-32455484D01*
X61239934Y-32452898D01*
X62069441Y-31961740D01*
X62073704Y-31959330D01*
X62922364Y-31501973D01*
X62926721Y-31499737D01*
X63793088Y-31076960D01*
X63797510Y-31074911D01*
X64680223Y-30687379D01*
X64684788Y-30685484D01*
X65582329Y-30333859D01*
X65587001Y-30332137D01*
X66498024Y-30016946D01*
X66502686Y-30015438D01*
X67425644Y-29737217D01*
X67430404Y-29735886D01*
X68363874Y-29495065D01*
X68368647Y-29493936D01*
X69310995Y-29290938D01*
X69315881Y-29289987D01*
X70265644Y-29125121D01*
X70270569Y-29124369D01*
X71226166Y-28997909D01*
X71231121Y-28997354D01*
X72191088Y-28909495D01*
X72196014Y-28909145D01*
X73158738Y-28860036D01*
X73163697Y-28859883D01*
X74127620Y-28849604D01*
X74132542Y-28849650D01*
G37*
%TD.AperFunction*%
%TA.AperFunction,Conductor*%
G36*
X69688496Y-100297232D02*
G01*
X69689655Y-100298571D01*
X69805970Y-100434759D01*
X69810241Y-100439759D01*
X69947409Y-100556911D01*
X69953263Y-100561911D01*
X69967924Y-100584370D01*
X70780590Y-101397037D01*
X70717007Y-101414075D01*
X70602993Y-101479901D01*
X70509901Y-101572993D01*
X70444075Y-101687007D01*
X70427037Y-101750590D01*
X69648504Y-100972057D01*
X69633199Y-100973869D01*
X69604051Y-100973870D01*
X69546494Y-100967058D01*
X68767962Y-101745590D01*
X68750925Y-101682007D01*
X68685099Y-101567993D01*
X68592007Y-101474901D01*
X68477993Y-101409075D01*
X68414409Y-101392037D01*
X69215038Y-100591406D01*
X69241731Y-100556915D01*
X69384759Y-100434759D01*
X69501075Y-100298569D01*
X69559582Y-100260377D01*
X69629450Y-100259878D01*
X69688496Y-100297232D01*
G37*
%TD.AperFunction*%
%TA.AperFunction,Conductor*%
G36*
X208045099Y-84235185D02*
G01*
X208090854Y-84287989D01*
X208100798Y-84357147D01*
X208071773Y-84420703D01*
X208065741Y-84427181D01*
X208020184Y-84472737D01*
X207924211Y-84625476D01*
X207864631Y-84795745D01*
X207864630Y-84795750D01*
X207844435Y-84974996D01*
X207844435Y-84975003D01*
X207864630Y-85154249D01*
X207864631Y-85154254D01*
X207924211Y-85324524D01*
X207955493Y-85374307D01*
X207974500Y-85440280D01*
X207974500Y-96364901D01*
X207954815Y-96431940D01*
X207938180Y-96452583D01*
X207894427Y-96496335D01*
X207833104Y-96529820D01*
X207763412Y-96524834D01*
X207707479Y-96482962D01*
X207683063Y-96417498D01*
X207683218Y-96397857D01*
X207690468Y-96315000D01*
X207690414Y-96314388D01*
X207676005Y-96149689D01*
X207670635Y-96088308D01*
X207611739Y-95868504D01*
X207515568Y-95662266D01*
X207385047Y-95475861D01*
X207385045Y-95475858D01*
X207224141Y-95314954D01*
X207037734Y-95184432D01*
X207037728Y-95184429D01*
X206979725Y-95157382D01*
X206927285Y-95111210D01*
X206908133Y-95044017D01*
X206928348Y-94977135D01*
X206979725Y-94932618D01*
X207037734Y-94905568D01*
X207224139Y-94775047D01*
X207385047Y-94614139D01*
X207515568Y-94427734D01*
X207611739Y-94221496D01*
X207670635Y-94001692D01*
X207690468Y-93775000D01*
X207690414Y-93774388D01*
X207684801Y-93710230D01*
X207670635Y-93548308D01*
X207611739Y-93328504D01*
X207515568Y-93122266D01*
X207385047Y-92935861D01*
X207385045Y-92935858D01*
X207224141Y-92774954D01*
X207037734Y-92644432D01*
X207037728Y-92644429D01*
X206979725Y-92617382D01*
X206927285Y-92571210D01*
X206908133Y-92504017D01*
X206928348Y-92437135D01*
X206979725Y-92392618D01*
X207037734Y-92365568D01*
X207224139Y-92235047D01*
X207385047Y-92074139D01*
X207515568Y-91887734D01*
X207611739Y-91681496D01*
X207670635Y-91461692D01*
X207690468Y-91235000D01*
X207690422Y-91234479D01*
X207681553Y-91133100D01*
X207670635Y-91008308D01*
X207615039Y-90800821D01*
X207611741Y-90788511D01*
X207611738Y-90788502D01*
X207607101Y-90778558D01*
X207515568Y-90582266D01*
X207394399Y-90409217D01*
X207385045Y-90395858D01*
X207224141Y-90234954D01*
X207037734Y-90104432D01*
X207037732Y-90104431D01*
X207026275Y-90099088D01*
X206979132Y-90077105D01*
X206926694Y-90030934D01*
X206907542Y-89963740D01*
X206927758Y-89896859D01*
X206979134Y-89852341D01*
X207037484Y-89825132D01*
X207223820Y-89694657D01*
X207384657Y-89533820D01*
X207515134Y-89347482D01*
X207611265Y-89141326D01*
X207611269Y-89141317D01*
X207663872Y-88945000D01*
X206818012Y-88945000D01*
X206850925Y-88887993D01*
X206885000Y-88760826D01*
X206885000Y-88629174D01*
X206850925Y-88502007D01*
X206818012Y-88445000D01*
X207663872Y-88445000D01*
X207663872Y-88444999D01*
X207611269Y-88248682D01*
X207611265Y-88248673D01*
X207515134Y-88042517D01*
X207384657Y-87856179D01*
X207223820Y-87695342D01*
X207037482Y-87564865D01*
X206979133Y-87537657D01*
X206926694Y-87491484D01*
X206907542Y-87424291D01*
X206927758Y-87357410D01*
X206979129Y-87312895D01*
X207037734Y-87285568D01*
X207224139Y-87155047D01*
X207385047Y-86994139D01*
X207515568Y-86807734D01*
X207611739Y-86601496D01*
X207670635Y-86381692D01*
X207690468Y-86155000D01*
X207690414Y-86154388D01*
X207675931Y-85988839D01*
X207670635Y-85928308D01*
X207611739Y-85708504D01*
X207515568Y-85502266D01*
X207391113Y-85324524D01*
X207385045Y-85315858D01*
X207224141Y-85154954D01*
X207037734Y-85024432D01*
X207037728Y-85024429D01*
X206979725Y-84997382D01*
X206927285Y-84951210D01*
X206908133Y-84884017D01*
X206928348Y-84817135D01*
X206979725Y-84772618D01*
X206980319Y-84772341D01*
X207037734Y-84745568D01*
X207224139Y-84615047D01*
X207385047Y-84454139D01*
X207515118Y-84268375D01*
X207569693Y-84224752D01*
X207616692Y-84215500D01*
X207978060Y-84215500D01*
X208045099Y-84235185D01*
G37*
%TD.AperFunction*%
%TA.AperFunction,Conductor*%
G36*
X218455702Y-71485583D02*
G01*
X218462180Y-71491615D01*
X228581320Y-81610755D01*
X228614805Y-81672078D01*
X228609821Y-81741770D01*
X228567949Y-81797703D01*
X228533901Y-81815717D01*
X228445200Y-81846167D01*
X228445188Y-81846172D01*
X228226493Y-81964524D01*
X228075712Y-82081882D01*
X228030256Y-82117262D01*
X228030189Y-82117335D01*
X227861833Y-82300217D01*
X227725826Y-82508393D01*
X227625936Y-82736118D01*
X227564892Y-82977175D01*
X227564890Y-82977187D01*
X227544357Y-83224994D01*
X227544357Y-83225005D01*
X227564890Y-83472812D01*
X227564892Y-83472824D01*
X227625936Y-83713881D01*
X227725826Y-83941606D01*
X227861833Y-84149782D01*
X227861836Y-84149785D01*
X228030256Y-84332738D01*
X228226491Y-84485474D01*
X228445190Y-84603828D01*
X228680386Y-84684571D01*
X228925665Y-84725500D01*
X229174335Y-84725500D01*
X229419614Y-84684571D01*
X229654810Y-84603828D01*
X229873509Y-84485474D01*
X230069744Y-84332738D01*
X230238164Y-84149785D01*
X230374173Y-83941607D01*
X230465306Y-83733844D01*
X230510260Y-83680361D01*
X230576996Y-83659671D01*
X230644323Y-83678345D01*
X230666541Y-83695976D01*
X231488181Y-84517616D01*
X231521666Y-84578939D01*
X231524500Y-84605297D01*
X231524500Y-89662172D01*
X231504815Y-89729211D01*
X231452011Y-89774966D01*
X231382853Y-89784910D01*
X231319297Y-89755885D01*
X231301546Y-89736899D01*
X231215608Y-89623099D01*
X231051261Y-89473278D01*
X230862179Y-89356202D01*
X230862177Y-89356201D01*
X230654799Y-89275864D01*
X230575000Y-89260946D01*
X230575000Y-90190025D01*
X230539905Y-90154930D01*
X230460095Y-90108852D01*
X230371078Y-90085000D01*
X230278922Y-90085000D01*
X230189905Y-90108852D01*
X230110095Y-90154930D01*
X230044930Y-90220095D01*
X229998852Y-90299905D01*
X229975000Y-90388922D01*
X229975000Y-90481078D01*
X229998852Y-90570095D01*
X230044930Y-90649905D01*
X230110095Y-90715070D01*
X230189905Y-90761148D01*
X230278922Y-90785000D01*
X230371078Y-90785000D01*
X230460095Y-90761148D01*
X230539905Y-90715070D01*
X230575000Y-90679975D01*
X230575000Y-91609052D01*
X230654804Y-91594135D01*
X230862177Y-91513798D01*
X230862179Y-91513797D01*
X231051261Y-91396721D01*
X231215608Y-91246900D01*
X231301546Y-91133100D01*
X231357655Y-91091464D01*
X231427367Y-91086773D01*
X231488549Y-91120515D01*
X231521776Y-91181978D01*
X231524500Y-91207827D01*
X231524500Y-94741343D01*
X231504815Y-94808382D01*
X231452011Y-94854137D01*
X231382853Y-94864081D01*
X231319297Y-94835056D01*
X231301546Y-94816070D01*
X231215979Y-94702761D01*
X231051562Y-94552876D01*
X231051560Y-94552874D01*
X230862404Y-94435754D01*
X230862398Y-94435752D01*
X230843361Y-94428377D01*
X230654940Y-94355382D01*
X230436243Y-94314500D01*
X230213757Y-94314500D01*
X229995060Y-94355382D01*
X229892317Y-94395185D01*
X229787601Y-94435752D01*
X229787595Y-94435754D01*
X229598439Y-94552874D01*
X229598437Y-94552876D01*
X229434020Y-94702761D01*
X229299943Y-94880308D01*
X229299938Y-94880316D01*
X229200775Y-95079461D01*
X229200770Y-95079474D01*
X229182747Y-95142819D01*
X229145467Y-95201912D01*
X229082157Y-95231469D01*
X229012918Y-95222107D01*
X228975800Y-95196565D01*
X225941195Y-92161960D01*
X225907710Y-92100637D01*
X225912694Y-92030945D01*
X225954566Y-91975012D01*
X226014993Y-91951059D01*
X226154249Y-91935369D01*
X226154252Y-91935368D01*
X226154255Y-91935368D01*
X226324522Y-91875789D01*
X226477262Y-91779816D01*
X226604816Y-91652262D01*
X226700789Y-91499522D01*
X226760368Y-91329255D01*
X226763766Y-91299096D01*
X226780565Y-91150003D01*
X226780565Y-91149996D01*
X226760369Y-90970750D01*
X226760368Y-90970745D01*
X226732756Y-90891834D01*
X226700789Y-90800478D01*
X226700786Y-90800474D01*
X226661582Y-90738080D01*
X226628229Y-90685000D01*
X229148505Y-90685000D01*
X229201239Y-90870349D01*
X229300368Y-91069425D01*
X229434391Y-91246900D01*
X229598738Y-91396721D01*
X229787820Y-91513797D01*
X229787822Y-91513798D01*
X229995195Y-91594135D01*
X230075000Y-91609052D01*
X230075000Y-90685000D01*
X229148505Y-90685000D01*
X226628229Y-90685000D01*
X226604816Y-90647738D01*
X226589748Y-90632670D01*
X226556263Y-90571347D01*
X226553515Y-90549611D01*
X226553273Y-90543131D01*
X226550587Y-90471121D01*
X226550501Y-90466499D01*
X226550501Y-90400942D01*
X226549440Y-90392887D01*
X226549580Y-90392868D01*
X226548635Y-90386594D01*
X226548495Y-90386618D01*
X226547135Y-90378611D01*
X226547135Y-90378607D01*
X226527820Y-90315970D01*
X226526550Y-90311561D01*
X226509577Y-90248216D01*
X226509574Y-90248210D01*
X226506466Y-90240707D01*
X226506597Y-90240652D01*
X226504063Y-90234842D01*
X226503934Y-90234902D01*
X226500544Y-90227510D01*
X226473840Y-90185000D01*
X229148505Y-90185000D01*
X230075000Y-90185000D01*
X230075000Y-89260946D01*
X229995200Y-89275864D01*
X229787822Y-89356201D01*
X229787820Y-89356202D01*
X229598738Y-89473278D01*
X229434391Y-89623099D01*
X229300368Y-89800574D01*
X229201239Y-89999650D01*
X229148505Y-90185000D01*
X226473840Y-90185000D01*
X226465678Y-90172007D01*
X226463291Y-90168046D01*
X226430520Y-90111284D01*
X226430516Y-90111280D01*
X226425574Y-90104839D01*
X226425686Y-90104752D01*
X226421730Y-90099791D01*
X226421622Y-90099882D01*
X226416437Y-90093622D01*
X226368385Y-90049027D01*
X226365055Y-90045819D01*
X224044240Y-87725005D01*
X227544357Y-87725005D01*
X227564890Y-87972812D01*
X227564892Y-87972824D01*
X227625936Y-88213881D01*
X227725826Y-88441606D01*
X227861833Y-88649782D01*
X227861836Y-88649785D01*
X228030256Y-88832738D01*
X228226491Y-88985474D01*
X228445190Y-89103828D01*
X228680386Y-89184571D01*
X228925665Y-89225500D01*
X229174335Y-89225500D01*
X229419614Y-89184571D01*
X229654810Y-89103828D01*
X229873509Y-88985474D01*
X230069744Y-88832738D01*
X230238164Y-88649785D01*
X230374173Y-88441607D01*
X230474063Y-88213881D01*
X230535108Y-87972821D01*
X230535109Y-87972812D01*
X230555643Y-87725005D01*
X230555643Y-87724994D01*
X230535109Y-87477187D01*
X230535107Y-87477175D01*
X230474063Y-87236118D01*
X230374173Y-87008393D01*
X230238166Y-86800217D01*
X230216557Y-86776744D01*
X230069744Y-86617262D01*
X229873509Y-86464526D01*
X229873507Y-86464525D01*
X229873506Y-86464524D01*
X229654811Y-86346172D01*
X229654802Y-86346169D01*
X229419616Y-86265429D01*
X229174335Y-86224500D01*
X228925665Y-86224500D01*
X228680383Y-86265429D01*
X228445197Y-86346169D01*
X228445188Y-86346172D01*
X228226493Y-86464524D01*
X228030257Y-86617261D01*
X227861833Y-86800217D01*
X227725826Y-87008393D01*
X227625936Y-87236118D01*
X227564892Y-87477175D01*
X227564890Y-87477187D01*
X227544357Y-87724994D01*
X227544357Y-87725005D01*
X224044240Y-87725005D01*
X222916941Y-86597706D01*
X222883456Y-86536383D01*
X222884847Y-86477931D01*
X222888439Y-86464526D01*
X222910635Y-86381692D01*
X222930468Y-86155000D01*
X222930414Y-86154388D01*
X222915931Y-85988839D01*
X222910635Y-85928308D01*
X222851739Y-85708504D01*
X222755568Y-85502266D01*
X222631113Y-85324524D01*
X222625045Y-85315858D01*
X222464141Y-85154954D01*
X222277734Y-85024432D01*
X222277732Y-85024431D01*
X222266275Y-85019088D01*
X222219132Y-84997105D01*
X222166694Y-84950934D01*
X222147542Y-84883740D01*
X222167758Y-84816859D01*
X222219134Y-84772341D01*
X222277484Y-84745132D01*
X222463820Y-84614657D01*
X222624657Y-84453820D01*
X222755134Y-84267482D01*
X222851265Y-84061326D01*
X222851269Y-84061317D01*
X222903872Y-83865000D01*
X222058012Y-83865000D01*
X222090925Y-83807993D01*
X222125000Y-83680826D01*
X222125000Y-83549174D01*
X222090925Y-83422007D01*
X222058012Y-83365000D01*
X222903872Y-83365000D01*
X222903872Y-83364999D01*
X222851269Y-83168682D01*
X222851265Y-83168673D01*
X222755134Y-82962517D01*
X222624657Y-82776179D01*
X222463820Y-82615342D01*
X222277482Y-82484865D01*
X222219133Y-82457657D01*
X222166694Y-82411484D01*
X222147542Y-82344291D01*
X222167758Y-82277410D01*
X222219129Y-82232895D01*
X222277734Y-82205568D01*
X222464139Y-82075047D01*
X222625047Y-81914139D01*
X222755568Y-81727734D01*
X222851739Y-81521496D01*
X222910635Y-81301692D01*
X222930468Y-81075000D01*
X222910635Y-80848308D01*
X222851739Y-80628504D01*
X222755568Y-80422266D01*
X222625047Y-80235861D01*
X222625045Y-80235858D01*
X222464141Y-80074954D01*
X222277734Y-79944432D01*
X222277732Y-79944431D01*
X222071497Y-79848261D01*
X222071488Y-79848258D01*
X221851697Y-79789366D01*
X221851693Y-79789365D01*
X221851692Y-79789365D01*
X221851691Y-79789364D01*
X221851686Y-79789364D01*
X221625002Y-79769532D01*
X221624998Y-79769532D01*
X221398313Y-79789364D01*
X221398302Y-79789366D01*
X221178511Y-79848258D01*
X221178502Y-79848261D01*
X220972267Y-79944431D01*
X220972265Y-79944432D01*
X220795623Y-80068117D01*
X220729416Y-80090444D01*
X220661649Y-80073433D01*
X220613837Y-80022485D01*
X220600500Y-79966542D01*
X220600500Y-76482412D01*
X220620185Y-76415373D01*
X220627555Y-76405097D01*
X220629810Y-76402267D01*
X220629816Y-76402262D01*
X220725789Y-76249522D01*
X220785368Y-76079255D01*
X220792712Y-76014075D01*
X220805565Y-75900003D01*
X220805565Y-75899996D01*
X220785369Y-75720750D01*
X220785368Y-75720745D01*
X220763762Y-75659000D01*
X220725789Y-75550478D01*
X220703265Y-75514632D01*
X220679968Y-75477555D01*
X220629816Y-75397738D01*
X220502262Y-75270184D01*
X220420014Y-75218504D01*
X220349523Y-75174211D01*
X220179254Y-75114631D01*
X220179249Y-75114630D01*
X220000004Y-75094435D01*
X219999996Y-75094435D01*
X219955004Y-75099504D01*
X219886182Y-75087449D01*
X219834803Y-75040100D01*
X219817179Y-74972489D01*
X219817901Y-74962401D01*
X219830565Y-74850003D01*
X219830565Y-74849996D01*
X219810369Y-74670750D01*
X219810368Y-74670745D01*
X219750789Y-74500478D01*
X219654816Y-74347738D01*
X219527262Y-74220184D01*
X219479898Y-74190423D01*
X219374523Y-74124211D01*
X219204254Y-74064631D01*
X219204249Y-74064630D01*
X219025004Y-74044435D01*
X219024996Y-74044435D01*
X218845750Y-74064630D01*
X218845745Y-74064631D01*
X218675476Y-74124211D01*
X218522736Y-74220185D01*
X218519903Y-74222445D01*
X218517724Y-74223334D01*
X218516842Y-74223889D01*
X218516744Y-74223734D01*
X218455217Y-74248855D01*
X218442588Y-74249500D01*
X215636670Y-74249500D01*
X215636654Y-74249499D01*
X215629058Y-74249499D01*
X215470943Y-74249499D01*
X215412620Y-74265127D01*
X215318214Y-74290423D01*
X215318209Y-74290426D01*
X215181290Y-74369475D01*
X215181282Y-74369481D01*
X214756465Y-74794298D01*
X214695142Y-74827783D01*
X214682667Y-74829837D01*
X214606823Y-74838382D01*
X214538001Y-74826327D01*
X214486622Y-74778978D01*
X214468998Y-74711367D01*
X214475899Y-74674207D01*
X214477111Y-74670745D01*
X214535368Y-74504255D01*
X214545161Y-74417329D01*
X214572226Y-74352918D01*
X214580690Y-74343543D01*
X215908506Y-73015728D01*
X215908511Y-73015724D01*
X215918714Y-73005520D01*
X215918716Y-73005520D01*
X216030520Y-72893716D01*
X216060850Y-72841182D01*
X216109576Y-72756786D01*
X216109576Y-72756785D01*
X216109577Y-72756784D01*
X216113430Y-72742405D01*
X216149795Y-72682745D01*
X216212642Y-72652216D01*
X216233205Y-72650499D01*
X217797871Y-72650499D01*
X217797872Y-72650499D01*
X217857483Y-72644091D01*
X217992331Y-72593796D01*
X218107546Y-72507546D01*
X218193796Y-72392331D01*
X218244091Y-72257483D01*
X218250500Y-72197873D01*
X218250499Y-71579294D01*
X218270183Y-71512257D01*
X218322987Y-71466502D01*
X218392146Y-71456558D01*
X218455702Y-71485583D01*
G37*
%TD.AperFunction*%
%TA.AperFunction,Conductor*%
G36*
X205086942Y-61120185D02*
G01*
X205107584Y-61136819D01*
X206729284Y-62758519D01*
X206762769Y-62819842D01*
X206757785Y-62889534D01*
X206715913Y-62945467D01*
X206650449Y-62969884D01*
X206641603Y-62970200D01*
X206610696Y-62970200D01*
X206375335Y-63009474D01*
X206149660Y-63086948D01*
X206149655Y-63086950D01*
X205939804Y-63200516D01*
X205902839Y-63229286D01*
X206594057Y-63920504D01*
X206533919Y-63936619D01*
X206418080Y-64003498D01*
X206323498Y-64098080D01*
X206256619Y-64213919D01*
X206240504Y-64274058D01*
X205550056Y-63583610D01*
X205459392Y-63722383D01*
X205459390Y-63722387D01*
X205363545Y-63940895D01*
X205304969Y-64172203D01*
X205304967Y-64172211D01*
X205285265Y-64409993D01*
X205285265Y-64410006D01*
X205304967Y-64647788D01*
X205304969Y-64647796D01*
X205363545Y-64879104D01*
X205459392Y-65097617D01*
X205550055Y-65236388D01*
X206240504Y-64545940D01*
X206256619Y-64606081D01*
X206323498Y-64721920D01*
X206418080Y-64816502D01*
X206533919Y-64883381D01*
X206594057Y-64899495D01*
X205902840Y-65590712D01*
X205902840Y-65590713D01*
X205939802Y-65619482D01*
X205939807Y-65619485D01*
X206149650Y-65733046D01*
X206149660Y-65733051D01*
X206375335Y-65810525D01*
X206610696Y-65849800D01*
X206849304Y-65849800D01*
X207084664Y-65810525D01*
X207310339Y-65733051D01*
X207310349Y-65733046D01*
X207520191Y-65619486D01*
X207520197Y-65619481D01*
X207557158Y-65590713D01*
X207557159Y-65590711D01*
X206865942Y-64899494D01*
X206926081Y-64883381D01*
X207041920Y-64816502D01*
X207136502Y-64721920D01*
X207203381Y-64606081D01*
X207219495Y-64545942D01*
X207909942Y-65236389D01*
X207965375Y-65230640D01*
X208034087Y-65243303D01*
X208081976Y-65286157D01*
X208089506Y-65297682D01*
X208251168Y-65473295D01*
X208439530Y-65619902D01*
X208439533Y-65619904D01*
X208564517Y-65687542D01*
X208614108Y-65736761D01*
X208629500Y-65796597D01*
X208629500Y-68623330D01*
X208629499Y-68623348D01*
X208629499Y-68789054D01*
X208629498Y-68789054D01*
X208670424Y-68941789D01*
X208671213Y-68943154D01*
X208671219Y-68943164D01*
X208749477Y-69078712D01*
X208749481Y-69078717D01*
X208868349Y-69197585D01*
X208868355Y-69197590D01*
X210487233Y-70816468D01*
X210520718Y-70877791D01*
X210519327Y-70936241D01*
X210484939Y-71064583D01*
X210484936Y-71064596D01*
X210464341Y-71299999D01*
X210464341Y-71300000D01*
X210484936Y-71535403D01*
X210484938Y-71535413D01*
X210546094Y-71763655D01*
X210546096Y-71763659D01*
X210546097Y-71763663D01*
X210645965Y-71977830D01*
X210645967Y-71977834D01*
X210742265Y-72115360D01*
X210781505Y-72171401D01*
X210948599Y-72338495D01*
X211045384Y-72406265D01*
X211142165Y-72474032D01*
X211142167Y-72474033D01*
X211142170Y-72474035D01*
X211356337Y-72573903D01*
X211584592Y-72635063D01*
X211772918Y-72651539D01*
X211819999Y-72655659D01*
X211820000Y-72655659D01*
X211820001Y-72655659D01*
X211859353Y-72652216D01*
X212055408Y-72635063D01*
X212233608Y-72587315D01*
X212303457Y-72588978D01*
X212361319Y-72628141D01*
X212388823Y-72692369D01*
X212389700Y-72707090D01*
X212389700Y-73897255D01*
X212370015Y-73964294D01*
X212317211Y-74010049D01*
X212248053Y-74019993D01*
X212224746Y-74014297D01*
X212154257Y-73989632D01*
X212154249Y-73989630D01*
X211975004Y-73969435D01*
X211974996Y-73969435D01*
X211795750Y-73989630D01*
X211795745Y-73989631D01*
X211625476Y-74049211D01*
X211482209Y-74139233D01*
X211414972Y-74158233D01*
X211412696Y-74158188D01*
X211201993Y-74152168D01*
X211187184Y-74150005D01*
X211187111Y-74150560D01*
X211179060Y-74149500D01*
X211179057Y-74149499D01*
X211179053Y-74149499D01*
X211110301Y-74149499D01*
X211106760Y-74149448D01*
X211104907Y-74149395D01*
X211038127Y-74147486D01*
X211030041Y-74148317D01*
X211029983Y-74147758D01*
X211028929Y-74147881D01*
X211029003Y-74148438D01*
X211020941Y-74149499D01*
X210954535Y-74167292D01*
X210951105Y-74168159D01*
X210921132Y-74175279D01*
X210884292Y-74184032D01*
X210884291Y-74184032D01*
X210884289Y-74184033D01*
X210876694Y-74186927D01*
X210876495Y-74186405D01*
X210875509Y-74186797D01*
X210875723Y-74187313D01*
X210868215Y-74190423D01*
X210808708Y-74224779D01*
X210805618Y-74226504D01*
X210745159Y-74259145D01*
X210738573Y-74263906D01*
X210738247Y-74263456D01*
X210737389Y-74264095D01*
X210737728Y-74264536D01*
X210731288Y-74269477D01*
X210682723Y-74318041D01*
X210680186Y-74320506D01*
X210630204Y-74367712D01*
X210625075Y-74374015D01*
X210624642Y-74373662D01*
X210615365Y-74385398D01*
X209531465Y-75469298D01*
X209470142Y-75502783D01*
X209457668Y-75504837D01*
X209370750Y-75514630D01*
X209200478Y-75574210D01*
X209047737Y-75670184D01*
X208920184Y-75797737D01*
X208824211Y-75950476D01*
X208764631Y-76120745D01*
X208764630Y-76120750D01*
X208744435Y-76299996D01*
X208744435Y-76300003D01*
X208764630Y-76479249D01*
X208764631Y-76479254D01*
X208824211Y-76649523D01*
X208907457Y-76782007D01*
X208920184Y-76802262D01*
X209047738Y-76929816D01*
X209088932Y-76955700D01*
X209163800Y-77002743D01*
X209200478Y-77025789D01*
X209342298Y-77075414D01*
X209370745Y-77085368D01*
X209370750Y-77085369D01*
X209549996Y-77105565D01*
X209550000Y-77105565D01*
X209550004Y-77105565D01*
X209729249Y-77085369D01*
X209729251Y-77085368D01*
X209729255Y-77085368D01*
X209729258Y-77085366D01*
X209729262Y-77085366D01*
X209887360Y-77030045D01*
X209957139Y-77026483D01*
X210017766Y-77061211D01*
X210049994Y-77123205D01*
X210043589Y-77192780D01*
X210015996Y-77234767D01*
X209269080Y-77981683D01*
X209207757Y-78015168D01*
X209140447Y-78011044D01*
X209079255Y-77989632D01*
X209079251Y-77989631D01*
X209079247Y-77989630D01*
X208900004Y-77969435D01*
X208899996Y-77969435D01*
X208720750Y-77989630D01*
X208720745Y-77989631D01*
X208550476Y-78049211D01*
X208397737Y-78145184D01*
X208270184Y-78272737D01*
X208174211Y-78425476D01*
X208114631Y-78595745D01*
X208114630Y-78595750D01*
X208094435Y-78774996D01*
X208094435Y-78775003D01*
X208114630Y-78954249D01*
X208114631Y-78954254D01*
X208174211Y-79124523D01*
X208258271Y-79258302D01*
X208270184Y-79277262D01*
X208397738Y-79404816D01*
X208550478Y-79500789D01*
X208693356Y-79550784D01*
X208720745Y-79560368D01*
X208720750Y-79560369D01*
X208899996Y-79580565D01*
X208900000Y-79580565D01*
X208900004Y-79580565D01*
X209079249Y-79560369D01*
X209079252Y-79560368D01*
X209079255Y-79560368D01*
X209249522Y-79500789D01*
X209402262Y-79404816D01*
X209418153Y-79388924D01*
X209473742Y-79356827D01*
X209556785Y-79334577D01*
X209606904Y-79305639D01*
X209693716Y-79255520D01*
X209805520Y-79143716D01*
X209805520Y-79143714D01*
X209815728Y-79133507D01*
X209815730Y-79133504D01*
X211993535Y-76955698D01*
X212054856Y-76922215D01*
X212067311Y-76920163D01*
X212154255Y-76910368D01*
X212224746Y-76885701D01*
X212294523Y-76882139D01*
X212355150Y-76916867D01*
X212387378Y-76978860D01*
X212389700Y-77002743D01*
X212389700Y-83666103D01*
X212370015Y-83733142D01*
X212317211Y-83778897D01*
X212248053Y-83788841D01*
X212184497Y-83759816D01*
X212178019Y-83753784D01*
X209137590Y-80713355D01*
X209137588Y-80713352D01*
X209018717Y-80594481D01*
X209018716Y-80594480D01*
X208931904Y-80544360D01*
X208931904Y-80544359D01*
X208931900Y-80544358D01*
X208881785Y-80515423D01*
X208729057Y-80474499D01*
X208570943Y-80474499D01*
X208563347Y-80474499D01*
X208563331Y-80474500D01*
X207809499Y-80474500D01*
X207742460Y-80454815D01*
X207696705Y-80402011D01*
X207685499Y-80350500D01*
X207685499Y-80227129D01*
X207685498Y-80227123D01*
X207685497Y-80227116D01*
X207679091Y-80167517D01*
X207661278Y-80119759D01*
X207628797Y-80032671D01*
X207628793Y-80032664D01*
X207542547Y-79917455D01*
X207542544Y-79917452D01*
X207427335Y-79831206D01*
X207427328Y-79831202D01*
X207292482Y-79780908D01*
X207292483Y-79780908D01*
X207232883Y-79774501D01*
X207232881Y-79774500D01*
X207232873Y-79774500D01*
X207232864Y-79774500D01*
X205537129Y-79774500D01*
X205537123Y-79774501D01*
X205477516Y-79780908D01*
X205342671Y-79831202D01*
X205342664Y-79831206D01*
X205227455Y-79917452D01*
X205227452Y-79917455D01*
X205141206Y-80032664D01*
X205141202Y-80032671D01*
X205090908Y-80167517D01*
X205084501Y-80227116D01*
X205084501Y-80227123D01*
X205084500Y-80227135D01*
X205084500Y-81922870D01*
X205084501Y-81922876D01*
X205090908Y-81982483D01*
X205141202Y-82117328D01*
X205141206Y-82117335D01*
X205227452Y-82232544D01*
X205227455Y-82232547D01*
X205342664Y-82318793D01*
X205342671Y-82318797D01*
X205387618Y-82335561D01*
X205477517Y-82369091D01*
X205512596Y-82372862D01*
X205577144Y-82399599D01*
X205616993Y-82456991D01*
X205619488Y-82526816D01*
X205583836Y-82586905D01*
X205570464Y-82597725D01*
X205545858Y-82614954D01*
X205384954Y-82775858D01*
X205254432Y-82962265D01*
X205254431Y-82962267D01*
X205158261Y-83168502D01*
X205158258Y-83168511D01*
X205099366Y-83388302D01*
X205099364Y-83388313D01*
X205079532Y-83614998D01*
X205079532Y-83615001D01*
X205099364Y-83841686D01*
X205099366Y-83841697D01*
X205158258Y-84061488D01*
X205158261Y-84061497D01*
X205254431Y-84267732D01*
X205254432Y-84267734D01*
X205384954Y-84454141D01*
X205545858Y-84615045D01*
X205545861Y-84615047D01*
X205732266Y-84745568D01*
X205789681Y-84772341D01*
X205790275Y-84772618D01*
X205842714Y-84818791D01*
X205861866Y-84885984D01*
X205841650Y-84952865D01*
X205790275Y-84997382D01*
X205732267Y-85024431D01*
X205732265Y-85024432D01*
X205545858Y-85154954D01*
X205384954Y-85315858D01*
X205254432Y-85502265D01*
X205254431Y-85502267D01*
X205158261Y-85708502D01*
X205158258Y-85708511D01*
X205099366Y-85928302D01*
X205099364Y-85928313D01*
X205079532Y-86154998D01*
X205079532Y-86155001D01*
X205099364Y-86381686D01*
X205099366Y-86381697D01*
X205158258Y-86601488D01*
X205158261Y-86601497D01*
X205254431Y-86807732D01*
X205254432Y-86807734D01*
X205384954Y-86994141D01*
X205545858Y-87155045D01*
X205545861Y-87155047D01*
X205732266Y-87285568D01*
X205790865Y-87312893D01*
X205843305Y-87359065D01*
X205862457Y-87426258D01*
X205842242Y-87493139D01*
X205790867Y-87537657D01*
X205732515Y-87564867D01*
X205546179Y-87695342D01*
X205385342Y-87856179D01*
X205254865Y-88042517D01*
X205158734Y-88248673D01*
X205158730Y-88248682D01*
X205106127Y-88444999D01*
X205106128Y-88445000D01*
X205951988Y-88445000D01*
X205919075Y-88502007D01*
X205885000Y-88629174D01*
X205885000Y-88760826D01*
X205919075Y-88887993D01*
X205951988Y-88945000D01*
X205106128Y-88945000D01*
X205158730Y-89141317D01*
X205158734Y-89141326D01*
X205254865Y-89347482D01*
X205385342Y-89533820D01*
X205546179Y-89694657D01*
X205732518Y-89825134D01*
X205732520Y-89825135D01*
X205790865Y-89852342D01*
X205843305Y-89898514D01*
X205862457Y-89965707D01*
X205842242Y-90032589D01*
X205790867Y-90077105D01*
X205732268Y-90104431D01*
X205732264Y-90104433D01*
X205545858Y-90234954D01*
X205384954Y-90395858D01*
X205308450Y-90505118D01*
X205254881Y-90581624D01*
X205200307Y-90625248D01*
X205153308Y-90634500D01*
X198710098Y-90634500D01*
X198643059Y-90614815D01*
X198622417Y-90598181D01*
X182987590Y-74963355D01*
X182987588Y-74963352D01*
X182868717Y-74844481D01*
X182868716Y-74844480D01*
X182781904Y-74794360D01*
X182781904Y-74794359D01*
X182781900Y-74794358D01*
X182731785Y-74765423D01*
X182579057Y-74724499D01*
X182420943Y-74724499D01*
X182413347Y-74724499D01*
X182413331Y-74724500D01*
X84804057Y-74724500D01*
X84645942Y-74724500D01*
X84493215Y-74765423D01*
X84493214Y-74765423D01*
X84493212Y-74765424D01*
X84493209Y-74765425D01*
X84443096Y-74794359D01*
X84443095Y-74794360D01*
X84399689Y-74819420D01*
X84356285Y-74844479D01*
X84356282Y-74844481D01*
X84275557Y-74925207D01*
X84244480Y-74956284D01*
X84244478Y-74956286D01*
X83027772Y-76172993D01*
X81837584Y-77363181D01*
X81776261Y-77396666D01*
X81749903Y-77399500D01*
X74549057Y-77399500D01*
X74390942Y-77399500D01*
X74238215Y-77440423D01*
X74238214Y-77440423D01*
X74238212Y-77440424D01*
X74238209Y-77440425D01*
X74196157Y-77464705D01*
X74196155Y-77464706D01*
X74101290Y-77519475D01*
X74101282Y-77519481D01*
X73989478Y-77631286D01*
X72665373Y-78955390D01*
X72604050Y-78988875D01*
X72534358Y-78983891D01*
X72478425Y-78942019D01*
X72454074Y-78877437D01*
X72449131Y-78814630D01*
X72446146Y-78776698D01*
X72389172Y-78539388D01*
X72385548Y-78530639D01*
X72295777Y-78313910D01*
X72168262Y-78105826D01*
X72168261Y-78105823D01*
X72126074Y-78056429D01*
X72009759Y-77920241D01*
X71866735Y-77798087D01*
X71852073Y-77775627D01*
X71039410Y-76962962D01*
X71102993Y-76945925D01*
X71217007Y-76880099D01*
X71310099Y-76787007D01*
X71375925Y-76672993D01*
X71392962Y-76609409D01*
X72171494Y-77387941D01*
X72171495Y-77387941D01*
X72295331Y-77185861D01*
X72388696Y-76960457D01*
X72445651Y-76723219D01*
X72464792Y-76480000D01*
X72445651Y-76236780D01*
X72388696Y-75999542D01*
X72295331Y-75774138D01*
X72171494Y-75572057D01*
X71392962Y-76350589D01*
X71375925Y-76287007D01*
X71310099Y-76172993D01*
X71217007Y-76079901D01*
X71102993Y-76014075D01*
X71039409Y-75997037D01*
X71817941Y-75218504D01*
X71615861Y-75094668D01*
X71390457Y-75001303D01*
X71153219Y-74944348D01*
X71153220Y-74944348D01*
X70910000Y-74925207D01*
X70666780Y-74944348D01*
X70429542Y-75001303D01*
X70204138Y-75094668D01*
X70002057Y-75218504D01*
X70780591Y-75997037D01*
X70717007Y-76014075D01*
X70602993Y-76079901D01*
X70509901Y-76172993D01*
X70444075Y-76287007D01*
X70427037Y-76350590D01*
X69637169Y-75560722D01*
X69612333Y-75556515D01*
X69592089Y-75538133D01*
X69577182Y-75536369D01*
X68767962Y-76345589D01*
X68750925Y-76282007D01*
X68685099Y-76167993D01*
X68592007Y-76074901D01*
X68477993Y-76009075D01*
X68414409Y-75992037D01*
X69223629Y-75182816D01*
X69010079Y-75051952D01*
X68778544Y-74956048D01*
X68778547Y-74956048D01*
X68534840Y-74897539D01*
X68285000Y-74877877D01*
X68035159Y-74897539D01*
X67791454Y-74956048D01*
X67559928Y-75051949D01*
X67559923Y-75051952D01*
X67346369Y-75182816D01*
X68155591Y-75992037D01*
X68092007Y-76009075D01*
X67977993Y-76074901D01*
X67884901Y-76167993D01*
X67819075Y-76282007D01*
X67802037Y-76345590D01*
X66992816Y-75536369D01*
X66861952Y-75749923D01*
X66861949Y-75749928D01*
X66766048Y-75981454D01*
X66707539Y-76225159D01*
X66702148Y-76293662D01*
X66677264Y-76358950D01*
X66621033Y-76400421D01*
X66551307Y-76404908D01*
X66490849Y-76371614D01*
X65236819Y-75117584D01*
X65203334Y-75056261D01*
X65200500Y-75029903D01*
X65200500Y-70750097D01*
X65220185Y-70683058D01*
X65236819Y-70662416D01*
X67487416Y-68411819D01*
X67548739Y-68378334D01*
X67575097Y-68375500D01*
X195763331Y-68375500D01*
X195763347Y-68375501D01*
X195770943Y-68375501D01*
X195929054Y-68375501D01*
X195929057Y-68375501D01*
X196081785Y-68334577D01*
X196160236Y-68289283D01*
X196218716Y-68255520D01*
X196330520Y-68143716D01*
X196330520Y-68143714D01*
X196340724Y-68133511D01*
X196340727Y-68133506D01*
X203337417Y-61136819D01*
X203398740Y-61103334D01*
X203425098Y-61100500D01*
X205019903Y-61100500D01*
X205086942Y-61120185D01*
G37*
%TD.AperFunction*%
%TA.AperFunction,Conductor*%
G36*
X208416942Y-81695185D02*
G01*
X208437584Y-81711819D01*
X211953381Y-85227616D01*
X211986866Y-85288939D01*
X211989700Y-85315297D01*
X211989700Y-85866101D01*
X211970015Y-85933140D01*
X211917211Y-85978895D01*
X211848053Y-85988839D01*
X211784497Y-85959814D01*
X211778019Y-85953782D01*
X211714397Y-85890160D01*
X211714374Y-85890139D01*
X209077590Y-83253355D01*
X209077588Y-83253352D01*
X208958717Y-83134481D01*
X208958716Y-83134480D01*
X208871904Y-83084360D01*
X208871904Y-83084359D01*
X208871900Y-83084358D01*
X208821785Y-83055423D01*
X208669057Y-83014499D01*
X208510943Y-83014499D01*
X208503347Y-83014499D01*
X208503331Y-83014500D01*
X207616692Y-83014500D01*
X207549653Y-82994815D01*
X207515119Y-82961625D01*
X207385047Y-82775861D01*
X207385045Y-82775858D01*
X207224143Y-82614956D01*
X207222843Y-82614046D01*
X207199535Y-82597725D01*
X207155912Y-82543149D01*
X207148719Y-82473650D01*
X207180241Y-82411296D01*
X207240471Y-82375882D01*
X207257404Y-82372861D01*
X207292483Y-82369091D01*
X207427331Y-82318796D01*
X207542546Y-82232546D01*
X207628796Y-82117331D01*
X207679091Y-81982483D01*
X207685500Y-81922873D01*
X207685500Y-81799500D01*
X207705185Y-81732461D01*
X207757989Y-81686706D01*
X207809500Y-81675500D01*
X208349903Y-81675500D01*
X208416942Y-81695185D01*
G37*
%TD.AperFunction*%
%TA.AperFunction,Conductor*%
G36*
X69577182Y-77413629D02*
G01*
X69597500Y-77411224D01*
X69607017Y-77402614D01*
X69639229Y-77397216D01*
X70427037Y-76609408D01*
X70444075Y-76672993D01*
X70509901Y-76787007D01*
X70602993Y-76880099D01*
X70717007Y-76945925D01*
X70780590Y-76962962D01*
X69979973Y-77763579D01*
X69953263Y-77798088D01*
X69908954Y-77835932D01*
X69810241Y-77920241D01*
X69700091Y-78049211D01*
X69693925Y-78056430D01*
X69635418Y-78094623D01*
X69565550Y-78095122D01*
X69506504Y-78057768D01*
X69505345Y-78056429D01*
X69384761Y-77915243D01*
X69384756Y-77915238D01*
X69272908Y-77819711D01*
X69266294Y-77809579D01*
X69266160Y-77809714D01*
X68414409Y-76957962D01*
X68477993Y-76940925D01*
X68592007Y-76875099D01*
X68685099Y-76782007D01*
X68750925Y-76667993D01*
X68767962Y-76604409D01*
X69577182Y-77413629D01*
G37*
%TD.AperFunction*%
%TD*%
M02*
