M48
; DRILL file {KiCad 8.0.0} date 2024-03-17T01:00:05+0200
; FORMAT={-:-/ absolute / inch / decimal}
; #@! TF.CreationDate,2024-03-17T01:00:05+02:00
; #@! TF.GenerationSoftware,Kicad,Pcbnew,8.0.0
; #@! TF.FileFunction,Plated,1,2,PTH
FMAT,2
INCH
; #@! TA.AperFunction,Plated,PTH,ViaDrill
T1C0.0118
; #@! TA.AperFunction,Plated,PTH,ComponentDrill
T2C0.0276
; #@! TA.AperFunction,Plated,PTH,ComponentDrill
T3C0.0394
; #@! TA.AperFunction,Plated,PTH,ComponentDrill
T4C0.0400
; #@! TA.AperFunction,Plated,PTH,ComponentDrill
T5C0.0433
; #@! TA.AperFunction,Plated,PTH,ComponentDrill
T6C0.0472
%
G90
G05
T1
X2.5079Y-4.2864
X2.5138Y-3.5856
X2.5295Y-4.2313
X2.5571Y-3.6378
X2.5876Y-3.753
X2.5906Y-3.1339
X2.5984Y-2.8848
X2.7087Y-4.1949
X2.753Y-4.225
X2.8051Y-4.1319
X2.8189Y-4.1811
X3.0108Y-3.8789
X3.0256Y-4.0148
X3.1407Y-3.2283
X3.1841Y-4.0974
X3.2106Y-4.1998
X3.3514Y-3.4783
X3.5335Y-4.2913
X3.564Y-4.1752
X3.6929Y-4.0659
X7.8829Y-4.2244
X7.9892Y-4.3061
X8.2146Y-3.3455
X8.2146Y-4.063
X8.2244Y-3.1014
X8.25Y-3.0039
X8.25Y-3.4065
X8.2864Y-3.4833
X8.2972Y-2.7096
X8.3445Y-3.3957
X8.3445Y-3.6407
X8.3455Y-2.9439
X8.3455Y-2.997
X8.4154Y-2.9262
X8.4301Y-3.7648
X8.436Y-4.312
X8.4557Y-2.9774
X8.623Y-2.9469
X8.6348Y-2.6673
X8.6614Y-2.9882
X8.6821Y-2.7943
X8.7087Y-2.8396
X8.7254Y-2.6644
X8.8967Y-3.5886
X8.9144Y-3.7756
X8.9764Y-3.8031
T2
X9.0679Y-3.5604
X9.0679Y-3.7604
X9.2215Y-3.5644
X9.2215Y-3.7644
T3
X2.6884Y-3.0108
X2.6884Y-3.1108
X2.6884Y-3.2108
X2.6884Y-3.3108
X2.6884Y-3.4108
X2.6884Y-3.5108
X2.6884Y-3.6108
X2.6884Y-3.7108
X2.6884Y-3.8108
X2.6884Y-3.9108
X2.6884Y-4.0108
X2.7917Y-3.011
X2.7917Y-3.111
X2.7917Y-3.211
X2.7917Y-3.311
X2.7917Y-3.411
X2.7917Y-3.511
X2.7917Y-3.611
X2.7917Y-3.711
X2.7917Y-3.811
X2.7917Y-3.911
X2.7917Y-4.011
X7.9587Y-5.1378
X7.96Y-5.3435
X8.0587Y-5.1378
X8.06Y-5.3435
X8.1254Y-3.1919
X8.1254Y-3.2919
X8.1254Y-3.3919
X8.1254Y-3.4919
X8.1254Y-3.5919
X8.1254Y-3.6919
X8.1254Y-3.7919
X8.1254Y-3.8919
X8.1254Y-3.9919
X8.1254Y-4.0919
X8.1254Y-4.1919
X8.1254Y-4.2919
X8.1254Y-4.3919
X8.1254Y-4.4919
X8.1254Y-4.5919
X8.3394Y-2.8071
X8.4394Y-2.8071
X8.5394Y-2.8071
X8.7254Y-3.1919
X8.7254Y-3.2919
X8.7254Y-3.3919
X8.7254Y-3.4919
X8.7254Y-3.5919
X8.7254Y-3.6919
X8.7254Y-3.7919
X8.7254Y-3.8919
X8.7254Y-3.9919
X8.7254Y-4.0919
X8.7254Y-4.1919
X8.7254Y-4.2919
X8.7254Y-4.3919
X8.7254Y-4.4919
X8.7254Y-4.5919
X8.9846Y-4.3091
X8.9862Y-4.4833
X8.9862Y-4.5833
X9.0781Y-2.1545
X9.0846Y-4.3091
X9.1781Y-2.1545
X9.1846Y-4.3091
X9.2846Y-4.3091
X9.2913Y-5.4699
X9.2913Y-5.5699
X9.2972Y-1.3878
X9.2972Y-1.4878
T4
X8.139Y-2.2406
X8.139Y-2.5358
X8.2374Y-2.2406
X8.2374Y-2.5358
X8.3358Y-2.2406
X8.3358Y-2.5358
X8.4343Y-2.2406
X8.4343Y-2.5358
X8.5327Y-2.2406
X8.5327Y-2.5358
X8.6311Y-2.2406
X8.6311Y-2.5358
X8.7295Y-2.2406
X8.7295Y-2.5358
T5
X8.1998Y-1.8902
X8.1998Y-1.9902
X9.0069Y-3.8878
X9.0069Y-4.065
X9.0177Y-3.2766
X9.0177Y-3.4537
X9.2628Y-3.8878
X9.2628Y-4.065
X9.2736Y-3.2766
X9.2736Y-3.4537
T6
G00X9.0089Y-2.4075
M15
G01X9.2293Y-2.4075
M16
G05
G00X9.0089Y-2.7028
M15
G01X9.2293Y-2.7028
M16
G05
M30
