%TF.GenerationSoftware,KiCad,Pcbnew,8.0.0*%
%TF.CreationDate,2024-03-17T01:00:04+02:00*%
%TF.ProjectId,FollowTheLine,466f6c6c-6f77-4546-9865-4c696e652e6b,rev?*%
%TF.SameCoordinates,Original*%
%TF.FileFunction,Drillmap*%
%TF.FilePolarity,Positive*%
%FSLAX45Y45*%
G04 Gerber Fmt 4.5, Leading zero omitted, Abs format (unit mm)*
G04 Created by KiCad (PCBNEW 8.0.0) date 2024-03-17 01:00:04*
%MOMM*%
%LPD*%
G01*
G04 APERTURE LIST*
%ADD10C,0.050000*%
%ADD11C,0.200000*%
%ADD12C,0.110000*%
%ADD13C,0.220000*%
%ADD14C,0.240000*%
%ADD15C,0.250000*%
G04 APERTURE END LIST*
D10*
X24035363Y-16309363D02*
G75*
G02*
X23875363Y-16469363I-160003J3D01*
G01*
X19834246Y-4928948D02*
X19836988Y-3150804D01*
X19890642Y-14853545D02*
G75*
G02*
X19834486Y-14691696I197708J159265D01*
G01*
X20986559Y-1439756D02*
X19893142Y-2988955D01*
X20986559Y-1439756D02*
G75*
G02*
X21137063Y-1370501I175511J-183254D01*
G01*
X9623500Y-9920000D02*
X9623500Y-7920000D01*
X9035705Y-3698100D02*
G75*
G02*
X8968205Y-3765605I-67505J0D01*
G01*
X19836746Y-12918552D02*
X19834488Y-14691696D01*
X9035935Y-14368330D02*
G75*
G02*
X4935935Y-12568330I-1645737J1820822D01*
G01*
X18086000Y-7670000D02*
G75*
G02*
X18336000Y-7920000I0J-250000D01*
G01*
X9036000Y-6670000D02*
X18226007Y-6671836D01*
X18336000Y-9920000D02*
G75*
G02*
X18086000Y-10170000I-250000J0D01*
G01*
X23961000Y-1370000D02*
G75*
G02*
X24036000Y-1445000I0J-75000D01*
G01*
X9035903Y-11169158D02*
X18224948Y-11169254D01*
X4935935Y-5268330D02*
X4935935Y-12568330D01*
X24036000Y-1445000D02*
X24035363Y-16309363D01*
X23961000Y-1370000D02*
X21137064Y-1370503D01*
X9036000Y-6670000D02*
G75*
G02*
X8968205Y-3765600I-56597J1451670D01*
G01*
X18336000Y-7920000D02*
X18336000Y-9920000D01*
X9623500Y-7920000D02*
G75*
G02*
X9873500Y-7670000I250000J0D01*
G01*
X18410544Y-6590492D02*
G75*
G02*
X18226007Y-6671836I-182044J162992D01*
G01*
X19752902Y-5113485D02*
X18410544Y-6590492D01*
X21137064Y-16469497D02*
G75*
G02*
X20986560Y-16400243I24996J252487D01*
G01*
X9035935Y-3468330D02*
X9035705Y-3698100D01*
X18086000Y-7670000D02*
X9873500Y-7670000D01*
X9035705Y-14136060D02*
X9035935Y-14368330D01*
X19755402Y-12734015D02*
G75*
G02*
X19836747Y-12918552I-162992J-182045D01*
G01*
X23875363Y-16469363D02*
X21137064Y-16469497D01*
X19836988Y-3150804D02*
G75*
G02*
X19893144Y-2988957I253832J2594D01*
G01*
X9873500Y-10170000D02*
X18086000Y-10170000D01*
X19755402Y-12734015D02*
X18409485Y-11250598D01*
X20986559Y-16400244D02*
X19890642Y-14853545D01*
X4935935Y-5268330D02*
G75*
G02*
X9035935Y-3468330I2454263J-20821D01*
G01*
X8968205Y-14068560D02*
G75*
G02*
X9035700Y-14136060I5J-67490D01*
G01*
X18224948Y-11169254D02*
G75*
G02*
X18409487Y-11250596I2492J-244346D01*
G01*
X9873500Y-10170000D02*
G75*
G02*
X9623500Y-9920000I0J250000D01*
G01*
X8968205Y-14068560D02*
G75*
G02*
X9035903Y-11169158I11198J1450230D01*
G01*
X19834246Y-4928948D02*
G75*
G02*
X19752904Y-5113487I-244346J-2492D01*
G01*
D11*
D12*
X20518500Y-4746000D02*
X20628500Y-4856000D01*
X20628500Y-4746000D02*
X20518500Y-4856000D01*
X20518500Y-5000000D02*
X20628500Y-5110000D01*
X20628500Y-5000000D02*
X20518500Y-5110000D01*
D13*
X7073500Y-4125000D02*
G75*
G02*
X6853500Y-4125000I-110000J0D01*
G01*
X6853500Y-4125000D02*
G75*
G02*
X7073500Y-4125000I110000J0D01*
G01*
X21546000Y-2070000D02*
G75*
G02*
X21326000Y-2070000I-110000J0D01*
G01*
X21326000Y-2070000D02*
G75*
G02*
X21546000Y-2070000I110000J0D01*
G01*
X21546000Y-15770000D02*
G75*
G02*
X21326000Y-15770000I-110000J0D01*
G01*
X21326000Y-15770000D02*
G75*
G02*
X21546000Y-15770000I110000J0D01*
G01*
X23346000Y-2070000D02*
G75*
G02*
X23126000Y-2070000I-110000J0D01*
G01*
X23126000Y-2070000D02*
G75*
G02*
X23346000Y-2070000I110000J0D01*
G01*
X23346000Y-15770000D02*
G75*
G02*
X23126000Y-15770000I-110000J0D01*
G01*
X23126000Y-15770000D02*
G75*
G02*
X23346000Y-15770000I110000J0D01*
G01*
D14*
X6963500Y-13585000D02*
X6963500Y-13825000D01*
X6843500Y-13705000D02*
X7083500Y-13705000D01*
D15*
X8484389Y-8275889D02*
X8484389Y-8099111D01*
X8307611Y-8099111D01*
X8307611Y-8275889D01*
X8484389Y-8275889D01*
X8484389Y-9745889D02*
X8484389Y-9569111D01*
X8307611Y-9569111D01*
X8307611Y-9745889D01*
X8484389Y-9745889D01*
D11*
X5194212Y-16783481D02*
X5194212Y-16583480D01*
X5194212Y-16583480D02*
X5241831Y-16583480D01*
X5241831Y-16583480D02*
X5270402Y-16593004D01*
X5270402Y-16593004D02*
X5289450Y-16612052D01*
X5289450Y-16612052D02*
X5298974Y-16631099D01*
X5298974Y-16631099D02*
X5308497Y-16669195D01*
X5308497Y-16669195D02*
X5308497Y-16697766D01*
X5308497Y-16697766D02*
X5298974Y-16735861D01*
X5298974Y-16735861D02*
X5289450Y-16754909D01*
X5289450Y-16754909D02*
X5270402Y-16773957D01*
X5270402Y-16773957D02*
X5241831Y-16783481D01*
X5241831Y-16783481D02*
X5194212Y-16783481D01*
X5394212Y-16783481D02*
X5394212Y-16650147D01*
X5394212Y-16688242D02*
X5403735Y-16669195D01*
X5403735Y-16669195D02*
X5413259Y-16659671D01*
X5413259Y-16659671D02*
X5432307Y-16650147D01*
X5432307Y-16650147D02*
X5451355Y-16650147D01*
X5518021Y-16783481D02*
X5518021Y-16650147D01*
X5518021Y-16583480D02*
X5508497Y-16593004D01*
X5508497Y-16593004D02*
X5518021Y-16602528D01*
X5518021Y-16602528D02*
X5527545Y-16593004D01*
X5527545Y-16593004D02*
X5518021Y-16583480D01*
X5518021Y-16583480D02*
X5518021Y-16602528D01*
X5641831Y-16783481D02*
X5622783Y-16773957D01*
X5622783Y-16773957D02*
X5613259Y-16754909D01*
X5613259Y-16754909D02*
X5613259Y-16583480D01*
X5746592Y-16783481D02*
X5727545Y-16773957D01*
X5727545Y-16773957D02*
X5718021Y-16754909D01*
X5718021Y-16754909D02*
X5718021Y-16583480D01*
X5975164Y-16783481D02*
X5975164Y-16583480D01*
X5975164Y-16583480D02*
X6041831Y-16726338D01*
X6041831Y-16726338D02*
X6108497Y-16583480D01*
X6108497Y-16583480D02*
X6108497Y-16783481D01*
X6289450Y-16783481D02*
X6289450Y-16678719D01*
X6289450Y-16678719D02*
X6279926Y-16659671D01*
X6279926Y-16659671D02*
X6260878Y-16650147D01*
X6260878Y-16650147D02*
X6222783Y-16650147D01*
X6222783Y-16650147D02*
X6203735Y-16659671D01*
X6289450Y-16773957D02*
X6270402Y-16783481D01*
X6270402Y-16783481D02*
X6222783Y-16783481D01*
X6222783Y-16783481D02*
X6203735Y-16773957D01*
X6203735Y-16773957D02*
X6194212Y-16754909D01*
X6194212Y-16754909D02*
X6194212Y-16735861D01*
X6194212Y-16735861D02*
X6203735Y-16716814D01*
X6203735Y-16716814D02*
X6222783Y-16707290D01*
X6222783Y-16707290D02*
X6270402Y-16707290D01*
X6270402Y-16707290D02*
X6289450Y-16697766D01*
X6384688Y-16650147D02*
X6384688Y-16850147D01*
X6384688Y-16659671D02*
X6403735Y-16650147D01*
X6403735Y-16650147D02*
X6441831Y-16650147D01*
X6441831Y-16650147D02*
X6460878Y-16659671D01*
X6460878Y-16659671D02*
X6470402Y-16669195D01*
X6470402Y-16669195D02*
X6479926Y-16688242D01*
X6479926Y-16688242D02*
X6479926Y-16745385D01*
X6479926Y-16745385D02*
X6470402Y-16764433D01*
X6470402Y-16764433D02*
X6460878Y-16773957D01*
X6460878Y-16773957D02*
X6441831Y-16783481D01*
X6441831Y-16783481D02*
X6403735Y-16783481D01*
X6403735Y-16783481D02*
X6384688Y-16773957D01*
X6565640Y-16764433D02*
X6575164Y-16773957D01*
X6575164Y-16773957D02*
X6565640Y-16783481D01*
X6565640Y-16783481D02*
X6556116Y-16773957D01*
X6556116Y-16773957D02*
X6565640Y-16764433D01*
X6565640Y-16764433D02*
X6565640Y-16783481D01*
X6565640Y-16659671D02*
X6575164Y-16669195D01*
X6575164Y-16669195D02*
X6565640Y-16678719D01*
X6565640Y-16678719D02*
X6556116Y-16669195D01*
X6556116Y-16669195D02*
X6565640Y-16659671D01*
X6565640Y-16659671D02*
X6565640Y-16678719D01*
D12*
X4823435Y-17056997D02*
X4933435Y-17166997D01*
X4933435Y-17056997D02*
X4823435Y-17166997D01*
D11*
X5298974Y-17203481D02*
X5184688Y-17203481D01*
X5241831Y-17203481D02*
X5241831Y-17003481D01*
X5241831Y-17003481D02*
X5222783Y-17032052D01*
X5222783Y-17032052D02*
X5203735Y-17051100D01*
X5203735Y-17051100D02*
X5184688Y-17060623D01*
X5384688Y-17184433D02*
X5394212Y-17193957D01*
X5394212Y-17193957D02*
X5384688Y-17203481D01*
X5384688Y-17203481D02*
X5375164Y-17193957D01*
X5375164Y-17193957D02*
X5384688Y-17184433D01*
X5384688Y-17184433D02*
X5384688Y-17203481D01*
X5584688Y-17203481D02*
X5470402Y-17203481D01*
X5527545Y-17203481D02*
X5527545Y-17003481D01*
X5527545Y-17003481D02*
X5508497Y-17032052D01*
X5508497Y-17032052D02*
X5489450Y-17051100D01*
X5489450Y-17051100D02*
X5470402Y-17060623D01*
X5708497Y-17003481D02*
X5727545Y-17003481D01*
X5727545Y-17003481D02*
X5746593Y-17013004D01*
X5746593Y-17013004D02*
X5756116Y-17022528D01*
X5756116Y-17022528D02*
X5765640Y-17041576D01*
X5765640Y-17041576D02*
X5775164Y-17079671D01*
X5775164Y-17079671D02*
X5775164Y-17127290D01*
X5775164Y-17127290D02*
X5765640Y-17165385D01*
X5765640Y-17165385D02*
X5756116Y-17184433D01*
X5756116Y-17184433D02*
X5746593Y-17193957D01*
X5746593Y-17193957D02*
X5727545Y-17203481D01*
X5727545Y-17203481D02*
X5708497Y-17203481D01*
X5708497Y-17203481D02*
X5689450Y-17193957D01*
X5689450Y-17193957D02*
X5679926Y-17184433D01*
X5679926Y-17184433D02*
X5670402Y-17165385D01*
X5670402Y-17165385D02*
X5660878Y-17127290D01*
X5660878Y-17127290D02*
X5660878Y-17079671D01*
X5660878Y-17079671D02*
X5670402Y-17041576D01*
X5670402Y-17041576D02*
X5679926Y-17022528D01*
X5679926Y-17022528D02*
X5689450Y-17013004D01*
X5689450Y-17013004D02*
X5708497Y-17003481D01*
X5898973Y-17003481D02*
X5918021Y-17003481D01*
X5918021Y-17003481D02*
X5937069Y-17013004D01*
X5937069Y-17013004D02*
X5946593Y-17022528D01*
X5946593Y-17022528D02*
X5956116Y-17041576D01*
X5956116Y-17041576D02*
X5965640Y-17079671D01*
X5965640Y-17079671D02*
X5965640Y-17127290D01*
X5965640Y-17127290D02*
X5956116Y-17165385D01*
X5956116Y-17165385D02*
X5946593Y-17184433D01*
X5946593Y-17184433D02*
X5937069Y-17193957D01*
X5937069Y-17193957D02*
X5918021Y-17203481D01*
X5918021Y-17203481D02*
X5898973Y-17203481D01*
X5898973Y-17203481D02*
X5879926Y-17193957D01*
X5879926Y-17193957D02*
X5870402Y-17184433D01*
X5870402Y-17184433D02*
X5860878Y-17165385D01*
X5860878Y-17165385D02*
X5851354Y-17127290D01*
X5851354Y-17127290D02*
X5851354Y-17079671D01*
X5851354Y-17079671D02*
X5860878Y-17041576D01*
X5860878Y-17041576D02*
X5870402Y-17022528D01*
X5870402Y-17022528D02*
X5879926Y-17013004D01*
X5879926Y-17013004D02*
X5898973Y-17003481D01*
X6051354Y-17203481D02*
X6051354Y-17070147D01*
X6051354Y-17089195D02*
X6060878Y-17079671D01*
X6060878Y-17079671D02*
X6079926Y-17070147D01*
X6079926Y-17070147D02*
X6108497Y-17070147D01*
X6108497Y-17070147D02*
X6127545Y-17079671D01*
X6127545Y-17079671D02*
X6137069Y-17098719D01*
X6137069Y-17098719D02*
X6137069Y-17203481D01*
X6137069Y-17098719D02*
X6146593Y-17079671D01*
X6146593Y-17079671D02*
X6165640Y-17070147D01*
X6165640Y-17070147D02*
X6194212Y-17070147D01*
X6194212Y-17070147D02*
X6213259Y-17079671D01*
X6213259Y-17079671D02*
X6222783Y-17098719D01*
X6222783Y-17098719D02*
X6222783Y-17203481D01*
X6318021Y-17203481D02*
X6318021Y-17070147D01*
X6318021Y-17089195D02*
X6327545Y-17079671D01*
X6327545Y-17079671D02*
X6346593Y-17070147D01*
X6346593Y-17070147D02*
X6375164Y-17070147D01*
X6375164Y-17070147D02*
X6394212Y-17079671D01*
X6394212Y-17079671D02*
X6403735Y-17098719D01*
X6403735Y-17098719D02*
X6403735Y-17203481D01*
X6403735Y-17098719D02*
X6413259Y-17079671D01*
X6413259Y-17079671D02*
X6432307Y-17070147D01*
X6432307Y-17070147D02*
X6460878Y-17070147D01*
X6460878Y-17070147D02*
X6479926Y-17079671D01*
X6479926Y-17079671D02*
X6489450Y-17098719D01*
X6489450Y-17098719D02*
X6489450Y-17203481D01*
X6879926Y-16993957D02*
X6708497Y-17251100D01*
X7137069Y-17003481D02*
X7156117Y-17003481D01*
X7156117Y-17003481D02*
X7175164Y-17013004D01*
X7175164Y-17013004D02*
X7184688Y-17022528D01*
X7184688Y-17022528D02*
X7194212Y-17041576D01*
X7194212Y-17041576D02*
X7203736Y-17079671D01*
X7203736Y-17079671D02*
X7203736Y-17127290D01*
X7203736Y-17127290D02*
X7194212Y-17165385D01*
X7194212Y-17165385D02*
X7184688Y-17184433D01*
X7184688Y-17184433D02*
X7175164Y-17193957D01*
X7175164Y-17193957D02*
X7156117Y-17203481D01*
X7156117Y-17203481D02*
X7137069Y-17203481D01*
X7137069Y-17203481D02*
X7118021Y-17193957D01*
X7118021Y-17193957D02*
X7108497Y-17184433D01*
X7108497Y-17184433D02*
X7098974Y-17165385D01*
X7098974Y-17165385D02*
X7089450Y-17127290D01*
X7089450Y-17127290D02*
X7089450Y-17079671D01*
X7089450Y-17079671D02*
X7098974Y-17041576D01*
X7098974Y-17041576D02*
X7108497Y-17022528D01*
X7108497Y-17022528D02*
X7118021Y-17013004D01*
X7118021Y-17013004D02*
X7137069Y-17003481D01*
X7289450Y-17184433D02*
X7298974Y-17193957D01*
X7298974Y-17193957D02*
X7289450Y-17203481D01*
X7289450Y-17203481D02*
X7279926Y-17193957D01*
X7279926Y-17193957D02*
X7289450Y-17184433D01*
X7289450Y-17184433D02*
X7289450Y-17203481D01*
X7422783Y-17003481D02*
X7441831Y-17003481D01*
X7441831Y-17003481D02*
X7460878Y-17013004D01*
X7460878Y-17013004D02*
X7470402Y-17022528D01*
X7470402Y-17022528D02*
X7479926Y-17041576D01*
X7479926Y-17041576D02*
X7489450Y-17079671D01*
X7489450Y-17079671D02*
X7489450Y-17127290D01*
X7489450Y-17127290D02*
X7479926Y-17165385D01*
X7479926Y-17165385D02*
X7470402Y-17184433D01*
X7470402Y-17184433D02*
X7460878Y-17193957D01*
X7460878Y-17193957D02*
X7441831Y-17203481D01*
X7441831Y-17203481D02*
X7422783Y-17203481D01*
X7422783Y-17203481D02*
X7403736Y-17193957D01*
X7403736Y-17193957D02*
X7394212Y-17184433D01*
X7394212Y-17184433D02*
X7384688Y-17165385D01*
X7384688Y-17165385D02*
X7375164Y-17127290D01*
X7375164Y-17127290D02*
X7375164Y-17079671D01*
X7375164Y-17079671D02*
X7384688Y-17041576D01*
X7384688Y-17041576D02*
X7394212Y-17022528D01*
X7394212Y-17022528D02*
X7403736Y-17013004D01*
X7403736Y-17013004D02*
X7422783Y-17003481D01*
X7660878Y-17070147D02*
X7660878Y-17203481D01*
X7613259Y-16993957D02*
X7565640Y-17136814D01*
X7565640Y-17136814D02*
X7689450Y-17136814D01*
X7746593Y-17003481D02*
X7870402Y-17003481D01*
X7870402Y-17003481D02*
X7803736Y-17079671D01*
X7803736Y-17079671D02*
X7832307Y-17079671D01*
X7832307Y-17079671D02*
X7851355Y-17089195D01*
X7851355Y-17089195D02*
X7860878Y-17098719D01*
X7860878Y-17098719D02*
X7870402Y-17117766D01*
X7870402Y-17117766D02*
X7870402Y-17165385D01*
X7870402Y-17165385D02*
X7860878Y-17184433D01*
X7860878Y-17184433D02*
X7851355Y-17193957D01*
X7851355Y-17193957D02*
X7832307Y-17203481D01*
X7832307Y-17203481D02*
X7775164Y-17203481D01*
X7775164Y-17203481D02*
X7756117Y-17193957D01*
X7756117Y-17193957D02*
X7746593Y-17184433D01*
X7937069Y-17003481D02*
X8060878Y-17003481D01*
X8060878Y-17003481D02*
X7994212Y-17079671D01*
X7994212Y-17079671D02*
X8022783Y-17079671D01*
X8022783Y-17079671D02*
X8041831Y-17089195D01*
X8041831Y-17089195D02*
X8051355Y-17098719D01*
X8051355Y-17098719D02*
X8060878Y-17117766D01*
X8060878Y-17117766D02*
X8060878Y-17165385D01*
X8060878Y-17165385D02*
X8051355Y-17184433D01*
X8051355Y-17184433D02*
X8041831Y-17193957D01*
X8041831Y-17193957D02*
X8022783Y-17203481D01*
X8022783Y-17203481D02*
X7965640Y-17203481D01*
X7965640Y-17203481D02*
X7946593Y-17193957D01*
X7946593Y-17193957D02*
X7937069Y-17184433D01*
X8137069Y-17003481D02*
X8137069Y-17041576D01*
X8213259Y-17003481D02*
X8213259Y-17041576D01*
X8508498Y-17279671D02*
X8498974Y-17270147D01*
X8498974Y-17270147D02*
X8479926Y-17241576D01*
X8479926Y-17241576D02*
X8470402Y-17222528D01*
X8470402Y-17222528D02*
X8460879Y-17193957D01*
X8460879Y-17193957D02*
X8451355Y-17146338D01*
X8451355Y-17146338D02*
X8451355Y-17108242D01*
X8451355Y-17108242D02*
X8460879Y-17060623D01*
X8460879Y-17060623D02*
X8470402Y-17032052D01*
X8470402Y-17032052D02*
X8479926Y-17013004D01*
X8479926Y-17013004D02*
X8498974Y-16984433D01*
X8498974Y-16984433D02*
X8508498Y-16974909D01*
X8575164Y-17022528D02*
X8584688Y-17013004D01*
X8584688Y-17013004D02*
X8603736Y-17003481D01*
X8603736Y-17003481D02*
X8651355Y-17003481D01*
X8651355Y-17003481D02*
X8670402Y-17013004D01*
X8670402Y-17013004D02*
X8679926Y-17022528D01*
X8679926Y-17022528D02*
X8689450Y-17041576D01*
X8689450Y-17041576D02*
X8689450Y-17060623D01*
X8689450Y-17060623D02*
X8679926Y-17089195D01*
X8679926Y-17089195D02*
X8565641Y-17203481D01*
X8565641Y-17203481D02*
X8689450Y-17203481D01*
X8927545Y-17203481D02*
X8927545Y-17003481D01*
X9013260Y-17203481D02*
X9013260Y-17098719D01*
X9013260Y-17098719D02*
X9003736Y-17079671D01*
X9003736Y-17079671D02*
X8984688Y-17070147D01*
X8984688Y-17070147D02*
X8956117Y-17070147D01*
X8956117Y-17070147D02*
X8937069Y-17079671D01*
X8937069Y-17079671D02*
X8927545Y-17089195D01*
X9137069Y-17203481D02*
X9118022Y-17193957D01*
X9118022Y-17193957D02*
X9108498Y-17184433D01*
X9108498Y-17184433D02*
X9098974Y-17165385D01*
X9098974Y-17165385D02*
X9098974Y-17108242D01*
X9098974Y-17108242D02*
X9108498Y-17089195D01*
X9108498Y-17089195D02*
X9118022Y-17079671D01*
X9118022Y-17079671D02*
X9137069Y-17070147D01*
X9137069Y-17070147D02*
X9165641Y-17070147D01*
X9165641Y-17070147D02*
X9184688Y-17079671D01*
X9184688Y-17079671D02*
X9194212Y-17089195D01*
X9194212Y-17089195D02*
X9203736Y-17108242D01*
X9203736Y-17108242D02*
X9203736Y-17165385D01*
X9203736Y-17165385D02*
X9194212Y-17184433D01*
X9194212Y-17184433D02*
X9184688Y-17193957D01*
X9184688Y-17193957D02*
X9165641Y-17203481D01*
X9165641Y-17203481D02*
X9137069Y-17203481D01*
X9318022Y-17203481D02*
X9298974Y-17193957D01*
X9298974Y-17193957D02*
X9289450Y-17174909D01*
X9289450Y-17174909D02*
X9289450Y-17003481D01*
X9470403Y-17193957D02*
X9451355Y-17203481D01*
X9451355Y-17203481D02*
X9413260Y-17203481D01*
X9413260Y-17203481D02*
X9394212Y-17193957D01*
X9394212Y-17193957D02*
X9384688Y-17174909D01*
X9384688Y-17174909D02*
X9384688Y-17098719D01*
X9384688Y-17098719D02*
X9394212Y-17079671D01*
X9394212Y-17079671D02*
X9413260Y-17070147D01*
X9413260Y-17070147D02*
X9451355Y-17070147D01*
X9451355Y-17070147D02*
X9470403Y-17079671D01*
X9470403Y-17079671D02*
X9479926Y-17098719D01*
X9479926Y-17098719D02*
X9479926Y-17117766D01*
X9479926Y-17117766D02*
X9384688Y-17136814D01*
X9556117Y-17193957D02*
X9575164Y-17203481D01*
X9575164Y-17203481D02*
X9613260Y-17203481D01*
X9613260Y-17203481D02*
X9632307Y-17193957D01*
X9632307Y-17193957D02*
X9641831Y-17174909D01*
X9641831Y-17174909D02*
X9641831Y-17165385D01*
X9641831Y-17165385D02*
X9632307Y-17146338D01*
X9632307Y-17146338D02*
X9613260Y-17136814D01*
X9613260Y-17136814D02*
X9584688Y-17136814D01*
X9584688Y-17136814D02*
X9565641Y-17127290D01*
X9565641Y-17127290D02*
X9556117Y-17108242D01*
X9556117Y-17108242D02*
X9556117Y-17098719D01*
X9556117Y-17098719D02*
X9565641Y-17079671D01*
X9565641Y-17079671D02*
X9584688Y-17070147D01*
X9584688Y-17070147D02*
X9613260Y-17070147D01*
X9613260Y-17070147D02*
X9632307Y-17079671D01*
X9708498Y-17279671D02*
X9718022Y-17270147D01*
X9718022Y-17270147D02*
X9737069Y-17241576D01*
X9737069Y-17241576D02*
X9746593Y-17222528D01*
X9746593Y-17222528D02*
X9756117Y-17193957D01*
X9756117Y-17193957D02*
X9765641Y-17146338D01*
X9765641Y-17146338D02*
X9765641Y-17108242D01*
X9765641Y-17108242D02*
X9756117Y-17060623D01*
X9756117Y-17060623D02*
X9746593Y-17032052D01*
X9746593Y-17032052D02*
X9737069Y-17013004D01*
X9737069Y-17013004D02*
X9718022Y-16984433D01*
X9718022Y-16984433D02*
X9708498Y-16974909D01*
X10070403Y-17279671D02*
X10060879Y-17270147D01*
X10060879Y-17270147D02*
X10041831Y-17241576D01*
X10041831Y-17241576D02*
X10032307Y-17222528D01*
X10032307Y-17222528D02*
X10022784Y-17193957D01*
X10022784Y-17193957D02*
X10013260Y-17146338D01*
X10013260Y-17146338D02*
X10013260Y-17108242D01*
X10013260Y-17108242D02*
X10022784Y-17060623D01*
X10022784Y-17060623D02*
X10032307Y-17032052D01*
X10032307Y-17032052D02*
X10041831Y-17013004D01*
X10041831Y-17013004D02*
X10060879Y-16984433D01*
X10060879Y-16984433D02*
X10070403Y-16974909D01*
X10146593Y-17070147D02*
X10146593Y-17203481D01*
X10146593Y-17089195D02*
X10156117Y-17079671D01*
X10156117Y-17079671D02*
X10175164Y-17070147D01*
X10175164Y-17070147D02*
X10203736Y-17070147D01*
X10203736Y-17070147D02*
X10222784Y-17079671D01*
X10222784Y-17079671D02*
X10232307Y-17098719D01*
X10232307Y-17098719D02*
X10232307Y-17203481D01*
X10356117Y-17203481D02*
X10337069Y-17193957D01*
X10337069Y-17193957D02*
X10327545Y-17184433D01*
X10327545Y-17184433D02*
X10318022Y-17165385D01*
X10318022Y-17165385D02*
X10318022Y-17108242D01*
X10318022Y-17108242D02*
X10327545Y-17089195D01*
X10327545Y-17089195D02*
X10337069Y-17079671D01*
X10337069Y-17079671D02*
X10356117Y-17070147D01*
X10356117Y-17070147D02*
X10384688Y-17070147D01*
X10384688Y-17070147D02*
X10403736Y-17079671D01*
X10403736Y-17079671D02*
X10413260Y-17089195D01*
X10413260Y-17089195D02*
X10422784Y-17108242D01*
X10422784Y-17108242D02*
X10422784Y-17165385D01*
X10422784Y-17165385D02*
X10413260Y-17184433D01*
X10413260Y-17184433D02*
X10403736Y-17193957D01*
X10403736Y-17193957D02*
X10384688Y-17203481D01*
X10384688Y-17203481D02*
X10356117Y-17203481D01*
X10479926Y-17070147D02*
X10556117Y-17070147D01*
X10508498Y-17003481D02*
X10508498Y-17174909D01*
X10508498Y-17174909D02*
X10518022Y-17193957D01*
X10518022Y-17193957D02*
X10537069Y-17203481D01*
X10537069Y-17203481D02*
X10556117Y-17203481D01*
X10775165Y-17070147D02*
X10775165Y-17270147D01*
X10775165Y-17079671D02*
X10794212Y-17070147D01*
X10794212Y-17070147D02*
X10832307Y-17070147D01*
X10832307Y-17070147D02*
X10851355Y-17079671D01*
X10851355Y-17079671D02*
X10860879Y-17089195D01*
X10860879Y-17089195D02*
X10870403Y-17108242D01*
X10870403Y-17108242D02*
X10870403Y-17165385D01*
X10870403Y-17165385D02*
X10860879Y-17184433D01*
X10860879Y-17184433D02*
X10851355Y-17193957D01*
X10851355Y-17193957D02*
X10832307Y-17203481D01*
X10832307Y-17203481D02*
X10794212Y-17203481D01*
X10794212Y-17203481D02*
X10775165Y-17193957D01*
X10984688Y-17203481D02*
X10965641Y-17193957D01*
X10965641Y-17193957D02*
X10956117Y-17174909D01*
X10956117Y-17174909D02*
X10956117Y-17003481D01*
X11146593Y-17203481D02*
X11146593Y-17098719D01*
X11146593Y-17098719D02*
X11137069Y-17079671D01*
X11137069Y-17079671D02*
X11118022Y-17070147D01*
X11118022Y-17070147D02*
X11079926Y-17070147D01*
X11079926Y-17070147D02*
X11060879Y-17079671D01*
X11146593Y-17193957D02*
X11127546Y-17203481D01*
X11127546Y-17203481D02*
X11079926Y-17203481D01*
X11079926Y-17203481D02*
X11060879Y-17193957D01*
X11060879Y-17193957D02*
X11051355Y-17174909D01*
X11051355Y-17174909D02*
X11051355Y-17155861D01*
X11051355Y-17155861D02*
X11060879Y-17136814D01*
X11060879Y-17136814D02*
X11079926Y-17127290D01*
X11079926Y-17127290D02*
X11127546Y-17127290D01*
X11127546Y-17127290D02*
X11146593Y-17117766D01*
X11213260Y-17070147D02*
X11289450Y-17070147D01*
X11241831Y-17003481D02*
X11241831Y-17174909D01*
X11241831Y-17174909D02*
X11251355Y-17193957D01*
X11251355Y-17193957D02*
X11270403Y-17203481D01*
X11270403Y-17203481D02*
X11289450Y-17203481D01*
X11432307Y-17193957D02*
X11413260Y-17203481D01*
X11413260Y-17203481D02*
X11375164Y-17203481D01*
X11375164Y-17203481D02*
X11356117Y-17193957D01*
X11356117Y-17193957D02*
X11346593Y-17174909D01*
X11346593Y-17174909D02*
X11346593Y-17098719D01*
X11346593Y-17098719D02*
X11356117Y-17079671D01*
X11356117Y-17079671D02*
X11375164Y-17070147D01*
X11375164Y-17070147D02*
X11413260Y-17070147D01*
X11413260Y-17070147D02*
X11432307Y-17079671D01*
X11432307Y-17079671D02*
X11441831Y-17098719D01*
X11441831Y-17098719D02*
X11441831Y-17117766D01*
X11441831Y-17117766D02*
X11346593Y-17136814D01*
X11613260Y-17203481D02*
X11613260Y-17003481D01*
X11613260Y-17193957D02*
X11594212Y-17203481D01*
X11594212Y-17203481D02*
X11556117Y-17203481D01*
X11556117Y-17203481D02*
X11537069Y-17193957D01*
X11537069Y-17193957D02*
X11527545Y-17184433D01*
X11527545Y-17184433D02*
X11518022Y-17165385D01*
X11518022Y-17165385D02*
X11518022Y-17108242D01*
X11518022Y-17108242D02*
X11527545Y-17089195D01*
X11527545Y-17089195D02*
X11537069Y-17079671D01*
X11537069Y-17079671D02*
X11556117Y-17070147D01*
X11556117Y-17070147D02*
X11594212Y-17070147D01*
X11594212Y-17070147D02*
X11613260Y-17079671D01*
X11689450Y-17279671D02*
X11698974Y-17270147D01*
X11698974Y-17270147D02*
X11718022Y-17241576D01*
X11718022Y-17241576D02*
X11727545Y-17222528D01*
X11727545Y-17222528D02*
X11737069Y-17193957D01*
X11737069Y-17193957D02*
X11746593Y-17146338D01*
X11746593Y-17146338D02*
X11746593Y-17108242D01*
X11746593Y-17108242D02*
X11737069Y-17060623D01*
X11737069Y-17060623D02*
X11727545Y-17032052D01*
X11727545Y-17032052D02*
X11718022Y-17013004D01*
X11718022Y-17013004D02*
X11698974Y-16984433D01*
X11698974Y-16984433D02*
X11689450Y-16974909D01*
X4933435Y-17375997D02*
G75*
G02*
X4733435Y-17375997I-100000J0D01*
G01*
X4733435Y-17375997D02*
G75*
G02*
X4933435Y-17375997I100000J0D01*
G01*
X5184688Y-17286528D02*
X5194212Y-17277004D01*
X5194212Y-17277004D02*
X5213259Y-17267481D01*
X5213259Y-17267481D02*
X5260878Y-17267481D01*
X5260878Y-17267481D02*
X5279926Y-17277004D01*
X5279926Y-17277004D02*
X5289450Y-17286528D01*
X5289450Y-17286528D02*
X5298974Y-17305576D01*
X5298974Y-17305576D02*
X5298974Y-17324623D01*
X5298974Y-17324623D02*
X5289450Y-17353195D01*
X5289450Y-17353195D02*
X5175164Y-17467481D01*
X5175164Y-17467481D02*
X5298974Y-17467481D01*
X5384688Y-17448433D02*
X5394212Y-17457957D01*
X5394212Y-17457957D02*
X5384688Y-17467481D01*
X5384688Y-17467481D02*
X5375164Y-17457957D01*
X5375164Y-17457957D02*
X5384688Y-17448433D01*
X5384688Y-17448433D02*
X5384688Y-17467481D01*
X5470402Y-17286528D02*
X5479926Y-17277004D01*
X5479926Y-17277004D02*
X5498974Y-17267481D01*
X5498974Y-17267481D02*
X5546593Y-17267481D01*
X5546593Y-17267481D02*
X5565640Y-17277004D01*
X5565640Y-17277004D02*
X5575164Y-17286528D01*
X5575164Y-17286528D02*
X5584688Y-17305576D01*
X5584688Y-17305576D02*
X5584688Y-17324623D01*
X5584688Y-17324623D02*
X5575164Y-17353195D01*
X5575164Y-17353195D02*
X5460878Y-17467481D01*
X5460878Y-17467481D02*
X5584688Y-17467481D01*
X5708497Y-17267481D02*
X5727545Y-17267481D01*
X5727545Y-17267481D02*
X5746593Y-17277004D01*
X5746593Y-17277004D02*
X5756116Y-17286528D01*
X5756116Y-17286528D02*
X5765640Y-17305576D01*
X5765640Y-17305576D02*
X5775164Y-17343671D01*
X5775164Y-17343671D02*
X5775164Y-17391290D01*
X5775164Y-17391290D02*
X5765640Y-17429385D01*
X5765640Y-17429385D02*
X5756116Y-17448433D01*
X5756116Y-17448433D02*
X5746593Y-17457957D01*
X5746593Y-17457957D02*
X5727545Y-17467481D01*
X5727545Y-17467481D02*
X5708497Y-17467481D01*
X5708497Y-17467481D02*
X5689450Y-17457957D01*
X5689450Y-17457957D02*
X5679926Y-17448433D01*
X5679926Y-17448433D02*
X5670402Y-17429385D01*
X5670402Y-17429385D02*
X5660878Y-17391290D01*
X5660878Y-17391290D02*
X5660878Y-17343671D01*
X5660878Y-17343671D02*
X5670402Y-17305576D01*
X5670402Y-17305576D02*
X5679926Y-17286528D01*
X5679926Y-17286528D02*
X5689450Y-17277004D01*
X5689450Y-17277004D02*
X5708497Y-17267481D01*
X5898973Y-17267481D02*
X5918021Y-17267481D01*
X5918021Y-17267481D02*
X5937069Y-17277004D01*
X5937069Y-17277004D02*
X5946593Y-17286528D01*
X5946593Y-17286528D02*
X5956116Y-17305576D01*
X5956116Y-17305576D02*
X5965640Y-17343671D01*
X5965640Y-17343671D02*
X5965640Y-17391290D01*
X5965640Y-17391290D02*
X5956116Y-17429385D01*
X5956116Y-17429385D02*
X5946593Y-17448433D01*
X5946593Y-17448433D02*
X5937069Y-17457957D01*
X5937069Y-17457957D02*
X5918021Y-17467481D01*
X5918021Y-17467481D02*
X5898973Y-17467481D01*
X5898973Y-17467481D02*
X5879926Y-17457957D01*
X5879926Y-17457957D02*
X5870402Y-17448433D01*
X5870402Y-17448433D02*
X5860878Y-17429385D01*
X5860878Y-17429385D02*
X5851354Y-17391290D01*
X5851354Y-17391290D02*
X5851354Y-17343671D01*
X5851354Y-17343671D02*
X5860878Y-17305576D01*
X5860878Y-17305576D02*
X5870402Y-17286528D01*
X5870402Y-17286528D02*
X5879926Y-17277004D01*
X5879926Y-17277004D02*
X5898973Y-17267481D01*
X6051354Y-17467481D02*
X6051354Y-17334147D01*
X6051354Y-17353195D02*
X6060878Y-17343671D01*
X6060878Y-17343671D02*
X6079926Y-17334147D01*
X6079926Y-17334147D02*
X6108497Y-17334147D01*
X6108497Y-17334147D02*
X6127545Y-17343671D01*
X6127545Y-17343671D02*
X6137069Y-17362719D01*
X6137069Y-17362719D02*
X6137069Y-17467481D01*
X6137069Y-17362719D02*
X6146593Y-17343671D01*
X6146593Y-17343671D02*
X6165640Y-17334147D01*
X6165640Y-17334147D02*
X6194212Y-17334147D01*
X6194212Y-17334147D02*
X6213259Y-17343671D01*
X6213259Y-17343671D02*
X6222783Y-17362719D01*
X6222783Y-17362719D02*
X6222783Y-17467481D01*
X6318021Y-17467481D02*
X6318021Y-17334147D01*
X6318021Y-17353195D02*
X6327545Y-17343671D01*
X6327545Y-17343671D02*
X6346593Y-17334147D01*
X6346593Y-17334147D02*
X6375164Y-17334147D01*
X6375164Y-17334147D02*
X6394212Y-17343671D01*
X6394212Y-17343671D02*
X6403735Y-17362719D01*
X6403735Y-17362719D02*
X6403735Y-17467481D01*
X6403735Y-17362719D02*
X6413259Y-17343671D01*
X6413259Y-17343671D02*
X6432307Y-17334147D01*
X6432307Y-17334147D02*
X6460878Y-17334147D01*
X6460878Y-17334147D02*
X6479926Y-17343671D01*
X6479926Y-17343671D02*
X6489450Y-17362719D01*
X6489450Y-17362719D02*
X6489450Y-17467481D01*
X6879926Y-17257957D02*
X6708497Y-17515100D01*
X7137069Y-17267481D02*
X7156117Y-17267481D01*
X7156117Y-17267481D02*
X7175164Y-17277004D01*
X7175164Y-17277004D02*
X7184688Y-17286528D01*
X7184688Y-17286528D02*
X7194212Y-17305576D01*
X7194212Y-17305576D02*
X7203736Y-17343671D01*
X7203736Y-17343671D02*
X7203736Y-17391290D01*
X7203736Y-17391290D02*
X7194212Y-17429385D01*
X7194212Y-17429385D02*
X7184688Y-17448433D01*
X7184688Y-17448433D02*
X7175164Y-17457957D01*
X7175164Y-17457957D02*
X7156117Y-17467481D01*
X7156117Y-17467481D02*
X7137069Y-17467481D01*
X7137069Y-17467481D02*
X7118021Y-17457957D01*
X7118021Y-17457957D02*
X7108497Y-17448433D01*
X7108497Y-17448433D02*
X7098974Y-17429385D01*
X7098974Y-17429385D02*
X7089450Y-17391290D01*
X7089450Y-17391290D02*
X7089450Y-17343671D01*
X7089450Y-17343671D02*
X7098974Y-17305576D01*
X7098974Y-17305576D02*
X7108497Y-17286528D01*
X7108497Y-17286528D02*
X7118021Y-17277004D01*
X7118021Y-17277004D02*
X7137069Y-17267481D01*
X7289450Y-17448433D02*
X7298974Y-17457957D01*
X7298974Y-17457957D02*
X7289450Y-17467481D01*
X7289450Y-17467481D02*
X7279926Y-17457957D01*
X7279926Y-17457957D02*
X7289450Y-17448433D01*
X7289450Y-17448433D02*
X7289450Y-17467481D01*
X7422783Y-17267481D02*
X7441831Y-17267481D01*
X7441831Y-17267481D02*
X7460878Y-17277004D01*
X7460878Y-17277004D02*
X7470402Y-17286528D01*
X7470402Y-17286528D02*
X7479926Y-17305576D01*
X7479926Y-17305576D02*
X7489450Y-17343671D01*
X7489450Y-17343671D02*
X7489450Y-17391290D01*
X7489450Y-17391290D02*
X7479926Y-17429385D01*
X7479926Y-17429385D02*
X7470402Y-17448433D01*
X7470402Y-17448433D02*
X7460878Y-17457957D01*
X7460878Y-17457957D02*
X7441831Y-17467481D01*
X7441831Y-17467481D02*
X7422783Y-17467481D01*
X7422783Y-17467481D02*
X7403736Y-17457957D01*
X7403736Y-17457957D02*
X7394212Y-17448433D01*
X7394212Y-17448433D02*
X7384688Y-17429385D01*
X7384688Y-17429385D02*
X7375164Y-17391290D01*
X7375164Y-17391290D02*
X7375164Y-17343671D01*
X7375164Y-17343671D02*
X7384688Y-17305576D01*
X7384688Y-17305576D02*
X7394212Y-17286528D01*
X7394212Y-17286528D02*
X7403736Y-17277004D01*
X7403736Y-17277004D02*
X7422783Y-17267481D01*
X7603736Y-17353195D02*
X7584688Y-17343671D01*
X7584688Y-17343671D02*
X7575164Y-17334147D01*
X7575164Y-17334147D02*
X7565640Y-17315100D01*
X7565640Y-17315100D02*
X7565640Y-17305576D01*
X7565640Y-17305576D02*
X7575164Y-17286528D01*
X7575164Y-17286528D02*
X7584688Y-17277004D01*
X7584688Y-17277004D02*
X7603736Y-17267481D01*
X7603736Y-17267481D02*
X7641831Y-17267481D01*
X7641831Y-17267481D02*
X7660878Y-17277004D01*
X7660878Y-17277004D02*
X7670402Y-17286528D01*
X7670402Y-17286528D02*
X7679926Y-17305576D01*
X7679926Y-17305576D02*
X7679926Y-17315100D01*
X7679926Y-17315100D02*
X7670402Y-17334147D01*
X7670402Y-17334147D02*
X7660878Y-17343671D01*
X7660878Y-17343671D02*
X7641831Y-17353195D01*
X7641831Y-17353195D02*
X7603736Y-17353195D01*
X7603736Y-17353195D02*
X7584688Y-17362719D01*
X7584688Y-17362719D02*
X7575164Y-17372242D01*
X7575164Y-17372242D02*
X7565640Y-17391290D01*
X7565640Y-17391290D02*
X7565640Y-17429385D01*
X7565640Y-17429385D02*
X7575164Y-17448433D01*
X7575164Y-17448433D02*
X7584688Y-17457957D01*
X7584688Y-17457957D02*
X7603736Y-17467481D01*
X7603736Y-17467481D02*
X7641831Y-17467481D01*
X7641831Y-17467481D02*
X7660878Y-17457957D01*
X7660878Y-17457957D02*
X7670402Y-17448433D01*
X7670402Y-17448433D02*
X7679926Y-17429385D01*
X7679926Y-17429385D02*
X7679926Y-17391290D01*
X7679926Y-17391290D02*
X7670402Y-17372242D01*
X7670402Y-17372242D02*
X7660878Y-17362719D01*
X7660878Y-17362719D02*
X7641831Y-17353195D01*
X7851355Y-17267481D02*
X7813259Y-17267481D01*
X7813259Y-17267481D02*
X7794212Y-17277004D01*
X7794212Y-17277004D02*
X7784688Y-17286528D01*
X7784688Y-17286528D02*
X7765640Y-17315100D01*
X7765640Y-17315100D02*
X7756117Y-17353195D01*
X7756117Y-17353195D02*
X7756117Y-17429385D01*
X7756117Y-17429385D02*
X7765640Y-17448433D01*
X7765640Y-17448433D02*
X7775164Y-17457957D01*
X7775164Y-17457957D02*
X7794212Y-17467481D01*
X7794212Y-17467481D02*
X7832307Y-17467481D01*
X7832307Y-17467481D02*
X7851355Y-17457957D01*
X7851355Y-17457957D02*
X7860878Y-17448433D01*
X7860878Y-17448433D02*
X7870402Y-17429385D01*
X7870402Y-17429385D02*
X7870402Y-17381766D01*
X7870402Y-17381766D02*
X7860878Y-17362719D01*
X7860878Y-17362719D02*
X7851355Y-17353195D01*
X7851355Y-17353195D02*
X7832307Y-17343671D01*
X7832307Y-17343671D02*
X7794212Y-17343671D01*
X7794212Y-17343671D02*
X7775164Y-17353195D01*
X7775164Y-17353195D02*
X7765640Y-17362719D01*
X7765640Y-17362719D02*
X7756117Y-17381766D01*
X8041831Y-17267481D02*
X8003736Y-17267481D01*
X8003736Y-17267481D02*
X7984688Y-17277004D01*
X7984688Y-17277004D02*
X7975164Y-17286528D01*
X7975164Y-17286528D02*
X7956117Y-17315100D01*
X7956117Y-17315100D02*
X7946593Y-17353195D01*
X7946593Y-17353195D02*
X7946593Y-17429385D01*
X7946593Y-17429385D02*
X7956117Y-17448433D01*
X7956117Y-17448433D02*
X7965640Y-17457957D01*
X7965640Y-17457957D02*
X7984688Y-17467481D01*
X7984688Y-17467481D02*
X8022783Y-17467481D01*
X8022783Y-17467481D02*
X8041831Y-17457957D01*
X8041831Y-17457957D02*
X8051355Y-17448433D01*
X8051355Y-17448433D02*
X8060878Y-17429385D01*
X8060878Y-17429385D02*
X8060878Y-17381766D01*
X8060878Y-17381766D02*
X8051355Y-17362719D01*
X8051355Y-17362719D02*
X8041831Y-17353195D01*
X8041831Y-17353195D02*
X8022783Y-17343671D01*
X8022783Y-17343671D02*
X7984688Y-17343671D01*
X7984688Y-17343671D02*
X7965640Y-17353195D01*
X7965640Y-17353195D02*
X7956117Y-17362719D01*
X7956117Y-17362719D02*
X7946593Y-17381766D01*
X8137069Y-17267481D02*
X8137069Y-17305576D01*
X8213259Y-17267481D02*
X8213259Y-17305576D01*
X8508498Y-17543671D02*
X8498974Y-17534147D01*
X8498974Y-17534147D02*
X8479926Y-17505576D01*
X8479926Y-17505576D02*
X8470402Y-17486528D01*
X8470402Y-17486528D02*
X8460879Y-17457957D01*
X8460879Y-17457957D02*
X8451355Y-17410338D01*
X8451355Y-17410338D02*
X8451355Y-17372242D01*
X8451355Y-17372242D02*
X8460879Y-17324623D01*
X8460879Y-17324623D02*
X8470402Y-17296052D01*
X8470402Y-17296052D02*
X8479926Y-17277004D01*
X8479926Y-17277004D02*
X8498974Y-17248433D01*
X8498974Y-17248433D02*
X8508498Y-17238909D01*
X8679926Y-17267481D02*
X8584688Y-17267481D01*
X8584688Y-17267481D02*
X8575164Y-17362719D01*
X8575164Y-17362719D02*
X8584688Y-17353195D01*
X8584688Y-17353195D02*
X8603736Y-17343671D01*
X8603736Y-17343671D02*
X8651355Y-17343671D01*
X8651355Y-17343671D02*
X8670402Y-17353195D01*
X8670402Y-17353195D02*
X8679926Y-17362719D01*
X8679926Y-17362719D02*
X8689450Y-17381766D01*
X8689450Y-17381766D02*
X8689450Y-17429385D01*
X8689450Y-17429385D02*
X8679926Y-17448433D01*
X8679926Y-17448433D02*
X8670402Y-17457957D01*
X8670402Y-17457957D02*
X8651355Y-17467481D01*
X8651355Y-17467481D02*
X8603736Y-17467481D01*
X8603736Y-17467481D02*
X8584688Y-17457957D01*
X8584688Y-17457957D02*
X8575164Y-17448433D01*
X8927545Y-17467481D02*
X8927545Y-17267481D01*
X9013260Y-17467481D02*
X9013260Y-17362719D01*
X9013260Y-17362719D02*
X9003736Y-17343671D01*
X9003736Y-17343671D02*
X8984688Y-17334147D01*
X8984688Y-17334147D02*
X8956117Y-17334147D01*
X8956117Y-17334147D02*
X8937069Y-17343671D01*
X8937069Y-17343671D02*
X8927545Y-17353195D01*
X9137069Y-17467481D02*
X9118022Y-17457957D01*
X9118022Y-17457957D02*
X9108498Y-17448433D01*
X9108498Y-17448433D02*
X9098974Y-17429385D01*
X9098974Y-17429385D02*
X9098974Y-17372242D01*
X9098974Y-17372242D02*
X9108498Y-17353195D01*
X9108498Y-17353195D02*
X9118022Y-17343671D01*
X9118022Y-17343671D02*
X9137069Y-17334147D01*
X9137069Y-17334147D02*
X9165641Y-17334147D01*
X9165641Y-17334147D02*
X9184688Y-17343671D01*
X9184688Y-17343671D02*
X9194212Y-17353195D01*
X9194212Y-17353195D02*
X9203736Y-17372242D01*
X9203736Y-17372242D02*
X9203736Y-17429385D01*
X9203736Y-17429385D02*
X9194212Y-17448433D01*
X9194212Y-17448433D02*
X9184688Y-17457957D01*
X9184688Y-17457957D02*
X9165641Y-17467481D01*
X9165641Y-17467481D02*
X9137069Y-17467481D01*
X9318022Y-17467481D02*
X9298974Y-17457957D01*
X9298974Y-17457957D02*
X9289450Y-17438909D01*
X9289450Y-17438909D02*
X9289450Y-17267481D01*
X9470403Y-17457957D02*
X9451355Y-17467481D01*
X9451355Y-17467481D02*
X9413260Y-17467481D01*
X9413260Y-17467481D02*
X9394212Y-17457957D01*
X9394212Y-17457957D02*
X9384688Y-17438909D01*
X9384688Y-17438909D02*
X9384688Y-17362719D01*
X9384688Y-17362719D02*
X9394212Y-17343671D01*
X9394212Y-17343671D02*
X9413260Y-17334147D01*
X9413260Y-17334147D02*
X9451355Y-17334147D01*
X9451355Y-17334147D02*
X9470403Y-17343671D01*
X9470403Y-17343671D02*
X9479926Y-17362719D01*
X9479926Y-17362719D02*
X9479926Y-17381766D01*
X9479926Y-17381766D02*
X9384688Y-17400814D01*
X9556117Y-17457957D02*
X9575164Y-17467481D01*
X9575164Y-17467481D02*
X9613260Y-17467481D01*
X9613260Y-17467481D02*
X9632307Y-17457957D01*
X9632307Y-17457957D02*
X9641831Y-17438909D01*
X9641831Y-17438909D02*
X9641831Y-17429385D01*
X9641831Y-17429385D02*
X9632307Y-17410338D01*
X9632307Y-17410338D02*
X9613260Y-17400814D01*
X9613260Y-17400814D02*
X9584688Y-17400814D01*
X9584688Y-17400814D02*
X9565641Y-17391290D01*
X9565641Y-17391290D02*
X9556117Y-17372242D01*
X9556117Y-17372242D02*
X9556117Y-17362719D01*
X9556117Y-17362719D02*
X9565641Y-17343671D01*
X9565641Y-17343671D02*
X9584688Y-17334147D01*
X9584688Y-17334147D02*
X9613260Y-17334147D01*
X9613260Y-17334147D02*
X9632307Y-17343671D01*
X9708498Y-17543671D02*
X9718022Y-17534147D01*
X9718022Y-17534147D02*
X9737069Y-17505576D01*
X9737069Y-17505576D02*
X9746593Y-17486528D01*
X9746593Y-17486528D02*
X9756117Y-17457957D01*
X9756117Y-17457957D02*
X9765641Y-17410338D01*
X9765641Y-17410338D02*
X9765641Y-17372242D01*
X9765641Y-17372242D02*
X9756117Y-17324623D01*
X9756117Y-17324623D02*
X9746593Y-17296052D01*
X9746593Y-17296052D02*
X9737069Y-17277004D01*
X9737069Y-17277004D02*
X9718022Y-17248433D01*
X9718022Y-17248433D02*
X9708498Y-17238909D01*
X10070403Y-17543671D02*
X10060879Y-17534147D01*
X10060879Y-17534147D02*
X10041831Y-17505576D01*
X10041831Y-17505576D02*
X10032307Y-17486528D01*
X10032307Y-17486528D02*
X10022784Y-17457957D01*
X10022784Y-17457957D02*
X10013260Y-17410338D01*
X10013260Y-17410338D02*
X10013260Y-17372242D01*
X10013260Y-17372242D02*
X10022784Y-17324623D01*
X10022784Y-17324623D02*
X10032307Y-17296052D01*
X10032307Y-17296052D02*
X10041831Y-17277004D01*
X10041831Y-17277004D02*
X10060879Y-17248433D01*
X10060879Y-17248433D02*
X10070403Y-17238909D01*
X10146593Y-17334147D02*
X10146593Y-17467481D01*
X10146593Y-17353195D02*
X10156117Y-17343671D01*
X10156117Y-17343671D02*
X10175164Y-17334147D01*
X10175164Y-17334147D02*
X10203736Y-17334147D01*
X10203736Y-17334147D02*
X10222784Y-17343671D01*
X10222784Y-17343671D02*
X10232307Y-17362719D01*
X10232307Y-17362719D02*
X10232307Y-17467481D01*
X10356117Y-17467481D02*
X10337069Y-17457957D01*
X10337069Y-17457957D02*
X10327545Y-17448433D01*
X10327545Y-17448433D02*
X10318022Y-17429385D01*
X10318022Y-17429385D02*
X10318022Y-17372242D01*
X10318022Y-17372242D02*
X10327545Y-17353195D01*
X10327545Y-17353195D02*
X10337069Y-17343671D01*
X10337069Y-17343671D02*
X10356117Y-17334147D01*
X10356117Y-17334147D02*
X10384688Y-17334147D01*
X10384688Y-17334147D02*
X10403736Y-17343671D01*
X10403736Y-17343671D02*
X10413260Y-17353195D01*
X10413260Y-17353195D02*
X10422784Y-17372242D01*
X10422784Y-17372242D02*
X10422784Y-17429385D01*
X10422784Y-17429385D02*
X10413260Y-17448433D01*
X10413260Y-17448433D02*
X10403736Y-17457957D01*
X10403736Y-17457957D02*
X10384688Y-17467481D01*
X10384688Y-17467481D02*
X10356117Y-17467481D01*
X10479926Y-17334147D02*
X10556117Y-17334147D01*
X10508498Y-17267481D02*
X10508498Y-17438909D01*
X10508498Y-17438909D02*
X10518022Y-17457957D01*
X10518022Y-17457957D02*
X10537069Y-17467481D01*
X10537069Y-17467481D02*
X10556117Y-17467481D01*
X10775165Y-17334147D02*
X10775165Y-17534147D01*
X10775165Y-17343671D02*
X10794212Y-17334147D01*
X10794212Y-17334147D02*
X10832307Y-17334147D01*
X10832307Y-17334147D02*
X10851355Y-17343671D01*
X10851355Y-17343671D02*
X10860879Y-17353195D01*
X10860879Y-17353195D02*
X10870403Y-17372242D01*
X10870403Y-17372242D02*
X10870403Y-17429385D01*
X10870403Y-17429385D02*
X10860879Y-17448433D01*
X10860879Y-17448433D02*
X10851355Y-17457957D01*
X10851355Y-17457957D02*
X10832307Y-17467481D01*
X10832307Y-17467481D02*
X10794212Y-17467481D01*
X10794212Y-17467481D02*
X10775165Y-17457957D01*
X10984688Y-17467481D02*
X10965641Y-17457957D01*
X10965641Y-17457957D02*
X10956117Y-17438909D01*
X10956117Y-17438909D02*
X10956117Y-17267481D01*
X11146593Y-17467481D02*
X11146593Y-17362719D01*
X11146593Y-17362719D02*
X11137069Y-17343671D01*
X11137069Y-17343671D02*
X11118022Y-17334147D01*
X11118022Y-17334147D02*
X11079926Y-17334147D01*
X11079926Y-17334147D02*
X11060879Y-17343671D01*
X11146593Y-17457957D02*
X11127546Y-17467481D01*
X11127546Y-17467481D02*
X11079926Y-17467481D01*
X11079926Y-17467481D02*
X11060879Y-17457957D01*
X11060879Y-17457957D02*
X11051355Y-17438909D01*
X11051355Y-17438909D02*
X11051355Y-17419861D01*
X11051355Y-17419861D02*
X11060879Y-17400814D01*
X11060879Y-17400814D02*
X11079926Y-17391290D01*
X11079926Y-17391290D02*
X11127546Y-17391290D01*
X11127546Y-17391290D02*
X11146593Y-17381766D01*
X11213260Y-17334147D02*
X11289450Y-17334147D01*
X11241831Y-17267481D02*
X11241831Y-17438909D01*
X11241831Y-17438909D02*
X11251355Y-17457957D01*
X11251355Y-17457957D02*
X11270403Y-17467481D01*
X11270403Y-17467481D02*
X11289450Y-17467481D01*
X11432307Y-17457957D02*
X11413260Y-17467481D01*
X11413260Y-17467481D02*
X11375164Y-17467481D01*
X11375164Y-17467481D02*
X11356117Y-17457957D01*
X11356117Y-17457957D02*
X11346593Y-17438909D01*
X11346593Y-17438909D02*
X11346593Y-17362719D01*
X11346593Y-17362719D02*
X11356117Y-17343671D01*
X11356117Y-17343671D02*
X11375164Y-17334147D01*
X11375164Y-17334147D02*
X11413260Y-17334147D01*
X11413260Y-17334147D02*
X11432307Y-17343671D01*
X11432307Y-17343671D02*
X11441831Y-17362719D01*
X11441831Y-17362719D02*
X11441831Y-17381766D01*
X11441831Y-17381766D02*
X11346593Y-17400814D01*
X11613260Y-17467481D02*
X11613260Y-17267481D01*
X11613260Y-17457957D02*
X11594212Y-17467481D01*
X11594212Y-17467481D02*
X11556117Y-17467481D01*
X11556117Y-17467481D02*
X11537069Y-17457957D01*
X11537069Y-17457957D02*
X11527545Y-17448433D01*
X11527545Y-17448433D02*
X11518022Y-17429385D01*
X11518022Y-17429385D02*
X11518022Y-17372242D01*
X11518022Y-17372242D02*
X11527545Y-17353195D01*
X11527545Y-17353195D02*
X11537069Y-17343671D01*
X11537069Y-17343671D02*
X11556117Y-17334147D01*
X11556117Y-17334147D02*
X11594212Y-17334147D01*
X11594212Y-17334147D02*
X11613260Y-17343671D01*
X11689450Y-17543671D02*
X11698974Y-17534147D01*
X11698974Y-17534147D02*
X11718022Y-17505576D01*
X11718022Y-17505576D02*
X11727545Y-17486528D01*
X11727545Y-17486528D02*
X11737069Y-17457957D01*
X11737069Y-17457957D02*
X11746593Y-17410338D01*
X11746593Y-17410338D02*
X11746593Y-17372242D01*
X11746593Y-17372242D02*
X11737069Y-17324623D01*
X11737069Y-17324623D02*
X11727545Y-17296052D01*
X11727545Y-17296052D02*
X11718022Y-17277004D01*
X11718022Y-17277004D02*
X11698974Y-17248433D01*
X11698974Y-17248433D02*
X11689450Y-17238909D01*
X4833435Y-17595997D02*
X4833435Y-17795997D01*
X4733435Y-17695997D02*
X4933435Y-17695997D01*
X5184688Y-17606528D02*
X5194212Y-17597004D01*
X5194212Y-17597004D02*
X5213259Y-17587481D01*
X5213259Y-17587481D02*
X5260878Y-17587481D01*
X5260878Y-17587481D02*
X5279926Y-17597004D01*
X5279926Y-17597004D02*
X5289450Y-17606528D01*
X5289450Y-17606528D02*
X5298974Y-17625576D01*
X5298974Y-17625576D02*
X5298974Y-17644623D01*
X5298974Y-17644623D02*
X5289450Y-17673195D01*
X5289450Y-17673195D02*
X5175164Y-17787481D01*
X5175164Y-17787481D02*
X5298974Y-17787481D01*
X5384688Y-17768433D02*
X5394212Y-17777957D01*
X5394212Y-17777957D02*
X5384688Y-17787481D01*
X5384688Y-17787481D02*
X5375164Y-17777957D01*
X5375164Y-17777957D02*
X5384688Y-17768433D01*
X5384688Y-17768433D02*
X5384688Y-17787481D01*
X5565640Y-17654147D02*
X5565640Y-17787481D01*
X5518021Y-17577957D02*
X5470402Y-17720814D01*
X5470402Y-17720814D02*
X5594212Y-17720814D01*
X5708497Y-17587481D02*
X5727545Y-17587481D01*
X5727545Y-17587481D02*
X5746593Y-17597004D01*
X5746593Y-17597004D02*
X5756116Y-17606528D01*
X5756116Y-17606528D02*
X5765640Y-17625576D01*
X5765640Y-17625576D02*
X5775164Y-17663671D01*
X5775164Y-17663671D02*
X5775164Y-17711290D01*
X5775164Y-17711290D02*
X5765640Y-17749385D01*
X5765640Y-17749385D02*
X5756116Y-17768433D01*
X5756116Y-17768433D02*
X5746593Y-17777957D01*
X5746593Y-17777957D02*
X5727545Y-17787481D01*
X5727545Y-17787481D02*
X5708497Y-17787481D01*
X5708497Y-17787481D02*
X5689450Y-17777957D01*
X5689450Y-17777957D02*
X5679926Y-17768433D01*
X5679926Y-17768433D02*
X5670402Y-17749385D01*
X5670402Y-17749385D02*
X5660878Y-17711290D01*
X5660878Y-17711290D02*
X5660878Y-17663671D01*
X5660878Y-17663671D02*
X5670402Y-17625576D01*
X5670402Y-17625576D02*
X5679926Y-17606528D01*
X5679926Y-17606528D02*
X5689450Y-17597004D01*
X5689450Y-17597004D02*
X5708497Y-17587481D01*
X5898973Y-17587481D02*
X5918021Y-17587481D01*
X5918021Y-17587481D02*
X5937069Y-17597004D01*
X5937069Y-17597004D02*
X5946593Y-17606528D01*
X5946593Y-17606528D02*
X5956116Y-17625576D01*
X5956116Y-17625576D02*
X5965640Y-17663671D01*
X5965640Y-17663671D02*
X5965640Y-17711290D01*
X5965640Y-17711290D02*
X5956116Y-17749385D01*
X5956116Y-17749385D02*
X5946593Y-17768433D01*
X5946593Y-17768433D02*
X5937069Y-17777957D01*
X5937069Y-17777957D02*
X5918021Y-17787481D01*
X5918021Y-17787481D02*
X5898973Y-17787481D01*
X5898973Y-17787481D02*
X5879926Y-17777957D01*
X5879926Y-17777957D02*
X5870402Y-17768433D01*
X5870402Y-17768433D02*
X5860878Y-17749385D01*
X5860878Y-17749385D02*
X5851354Y-17711290D01*
X5851354Y-17711290D02*
X5851354Y-17663671D01*
X5851354Y-17663671D02*
X5860878Y-17625576D01*
X5860878Y-17625576D02*
X5870402Y-17606528D01*
X5870402Y-17606528D02*
X5879926Y-17597004D01*
X5879926Y-17597004D02*
X5898973Y-17587481D01*
X6051354Y-17787481D02*
X6051354Y-17654147D01*
X6051354Y-17673195D02*
X6060878Y-17663671D01*
X6060878Y-17663671D02*
X6079926Y-17654147D01*
X6079926Y-17654147D02*
X6108497Y-17654147D01*
X6108497Y-17654147D02*
X6127545Y-17663671D01*
X6127545Y-17663671D02*
X6137069Y-17682719D01*
X6137069Y-17682719D02*
X6137069Y-17787481D01*
X6137069Y-17682719D02*
X6146593Y-17663671D01*
X6146593Y-17663671D02*
X6165640Y-17654147D01*
X6165640Y-17654147D02*
X6194212Y-17654147D01*
X6194212Y-17654147D02*
X6213259Y-17663671D01*
X6213259Y-17663671D02*
X6222783Y-17682719D01*
X6222783Y-17682719D02*
X6222783Y-17787481D01*
X6318021Y-17787481D02*
X6318021Y-17654147D01*
X6318021Y-17673195D02*
X6327545Y-17663671D01*
X6327545Y-17663671D02*
X6346593Y-17654147D01*
X6346593Y-17654147D02*
X6375164Y-17654147D01*
X6375164Y-17654147D02*
X6394212Y-17663671D01*
X6394212Y-17663671D02*
X6403735Y-17682719D01*
X6403735Y-17682719D02*
X6403735Y-17787481D01*
X6403735Y-17682719D02*
X6413259Y-17663671D01*
X6413259Y-17663671D02*
X6432307Y-17654147D01*
X6432307Y-17654147D02*
X6460878Y-17654147D01*
X6460878Y-17654147D02*
X6479926Y-17663671D01*
X6479926Y-17663671D02*
X6489450Y-17682719D01*
X6489450Y-17682719D02*
X6489450Y-17787481D01*
X6879926Y-17577957D02*
X6708497Y-17835100D01*
X7137069Y-17587481D02*
X7156117Y-17587481D01*
X7156117Y-17587481D02*
X7175164Y-17597004D01*
X7175164Y-17597004D02*
X7184688Y-17606528D01*
X7184688Y-17606528D02*
X7194212Y-17625576D01*
X7194212Y-17625576D02*
X7203736Y-17663671D01*
X7203736Y-17663671D02*
X7203736Y-17711290D01*
X7203736Y-17711290D02*
X7194212Y-17749385D01*
X7194212Y-17749385D02*
X7184688Y-17768433D01*
X7184688Y-17768433D02*
X7175164Y-17777957D01*
X7175164Y-17777957D02*
X7156117Y-17787481D01*
X7156117Y-17787481D02*
X7137069Y-17787481D01*
X7137069Y-17787481D02*
X7118021Y-17777957D01*
X7118021Y-17777957D02*
X7108497Y-17768433D01*
X7108497Y-17768433D02*
X7098974Y-17749385D01*
X7098974Y-17749385D02*
X7089450Y-17711290D01*
X7089450Y-17711290D02*
X7089450Y-17663671D01*
X7089450Y-17663671D02*
X7098974Y-17625576D01*
X7098974Y-17625576D02*
X7108497Y-17606528D01*
X7108497Y-17606528D02*
X7118021Y-17597004D01*
X7118021Y-17597004D02*
X7137069Y-17587481D01*
X7289450Y-17768433D02*
X7298974Y-17777957D01*
X7298974Y-17777957D02*
X7289450Y-17787481D01*
X7289450Y-17787481D02*
X7279926Y-17777957D01*
X7279926Y-17777957D02*
X7289450Y-17768433D01*
X7289450Y-17768433D02*
X7289450Y-17787481D01*
X7422783Y-17587481D02*
X7441831Y-17587481D01*
X7441831Y-17587481D02*
X7460878Y-17597004D01*
X7460878Y-17597004D02*
X7470402Y-17606528D01*
X7470402Y-17606528D02*
X7479926Y-17625576D01*
X7479926Y-17625576D02*
X7489450Y-17663671D01*
X7489450Y-17663671D02*
X7489450Y-17711290D01*
X7489450Y-17711290D02*
X7479926Y-17749385D01*
X7479926Y-17749385D02*
X7470402Y-17768433D01*
X7470402Y-17768433D02*
X7460878Y-17777957D01*
X7460878Y-17777957D02*
X7441831Y-17787481D01*
X7441831Y-17787481D02*
X7422783Y-17787481D01*
X7422783Y-17787481D02*
X7403736Y-17777957D01*
X7403736Y-17777957D02*
X7394212Y-17768433D01*
X7394212Y-17768433D02*
X7384688Y-17749385D01*
X7384688Y-17749385D02*
X7375164Y-17711290D01*
X7375164Y-17711290D02*
X7375164Y-17663671D01*
X7375164Y-17663671D02*
X7384688Y-17625576D01*
X7384688Y-17625576D02*
X7394212Y-17606528D01*
X7394212Y-17606528D02*
X7403736Y-17597004D01*
X7403736Y-17597004D02*
X7422783Y-17587481D01*
X7584688Y-17787481D02*
X7622783Y-17787481D01*
X7622783Y-17787481D02*
X7641831Y-17777957D01*
X7641831Y-17777957D02*
X7651355Y-17768433D01*
X7651355Y-17768433D02*
X7670402Y-17739861D01*
X7670402Y-17739861D02*
X7679926Y-17701766D01*
X7679926Y-17701766D02*
X7679926Y-17625576D01*
X7679926Y-17625576D02*
X7670402Y-17606528D01*
X7670402Y-17606528D02*
X7660878Y-17597004D01*
X7660878Y-17597004D02*
X7641831Y-17587481D01*
X7641831Y-17587481D02*
X7603736Y-17587481D01*
X7603736Y-17587481D02*
X7584688Y-17597004D01*
X7584688Y-17597004D02*
X7575164Y-17606528D01*
X7575164Y-17606528D02*
X7565640Y-17625576D01*
X7565640Y-17625576D02*
X7565640Y-17673195D01*
X7565640Y-17673195D02*
X7575164Y-17692242D01*
X7575164Y-17692242D02*
X7584688Y-17701766D01*
X7584688Y-17701766D02*
X7603736Y-17711290D01*
X7603736Y-17711290D02*
X7641831Y-17711290D01*
X7641831Y-17711290D02*
X7660878Y-17701766D01*
X7660878Y-17701766D02*
X7670402Y-17692242D01*
X7670402Y-17692242D02*
X7679926Y-17673195D01*
X7851355Y-17654147D02*
X7851355Y-17787481D01*
X7803736Y-17577957D02*
X7756117Y-17720814D01*
X7756117Y-17720814D02*
X7879926Y-17720814D01*
X8051355Y-17587481D02*
X7956117Y-17587481D01*
X7956117Y-17587481D02*
X7946593Y-17682719D01*
X7946593Y-17682719D02*
X7956117Y-17673195D01*
X7956117Y-17673195D02*
X7975164Y-17663671D01*
X7975164Y-17663671D02*
X8022783Y-17663671D01*
X8022783Y-17663671D02*
X8041831Y-17673195D01*
X8041831Y-17673195D02*
X8051355Y-17682719D01*
X8051355Y-17682719D02*
X8060878Y-17701766D01*
X8060878Y-17701766D02*
X8060878Y-17749385D01*
X8060878Y-17749385D02*
X8051355Y-17768433D01*
X8051355Y-17768433D02*
X8041831Y-17777957D01*
X8041831Y-17777957D02*
X8022783Y-17787481D01*
X8022783Y-17787481D02*
X7975164Y-17787481D01*
X7975164Y-17787481D02*
X7956117Y-17777957D01*
X7956117Y-17777957D02*
X7946593Y-17768433D01*
X8137069Y-17587481D02*
X8137069Y-17625576D01*
X8213259Y-17587481D02*
X8213259Y-17625576D01*
X8508498Y-17863671D02*
X8498974Y-17854147D01*
X8498974Y-17854147D02*
X8479926Y-17825576D01*
X8479926Y-17825576D02*
X8470402Y-17806528D01*
X8470402Y-17806528D02*
X8460879Y-17777957D01*
X8460879Y-17777957D02*
X8451355Y-17730338D01*
X8451355Y-17730338D02*
X8451355Y-17692242D01*
X8451355Y-17692242D02*
X8460879Y-17644623D01*
X8460879Y-17644623D02*
X8470402Y-17616052D01*
X8470402Y-17616052D02*
X8479926Y-17597004D01*
X8479926Y-17597004D02*
X8498974Y-17568433D01*
X8498974Y-17568433D02*
X8508498Y-17558909D01*
X8689450Y-17787481D02*
X8575164Y-17787481D01*
X8632307Y-17787481D02*
X8632307Y-17587481D01*
X8632307Y-17587481D02*
X8613260Y-17616052D01*
X8613260Y-17616052D02*
X8594212Y-17635100D01*
X8594212Y-17635100D02*
X8575164Y-17644623D01*
X8927545Y-17787481D02*
X8927545Y-17587481D01*
X9013260Y-17787481D02*
X9013260Y-17682719D01*
X9013260Y-17682719D02*
X9003736Y-17663671D01*
X9003736Y-17663671D02*
X8984688Y-17654147D01*
X8984688Y-17654147D02*
X8956117Y-17654147D01*
X8956117Y-17654147D02*
X8937069Y-17663671D01*
X8937069Y-17663671D02*
X8927545Y-17673195D01*
X9137069Y-17787481D02*
X9118022Y-17777957D01*
X9118022Y-17777957D02*
X9108498Y-17768433D01*
X9108498Y-17768433D02*
X9098974Y-17749385D01*
X9098974Y-17749385D02*
X9098974Y-17692242D01*
X9098974Y-17692242D02*
X9108498Y-17673195D01*
X9108498Y-17673195D02*
X9118022Y-17663671D01*
X9118022Y-17663671D02*
X9137069Y-17654147D01*
X9137069Y-17654147D02*
X9165641Y-17654147D01*
X9165641Y-17654147D02*
X9184688Y-17663671D01*
X9184688Y-17663671D02*
X9194212Y-17673195D01*
X9194212Y-17673195D02*
X9203736Y-17692242D01*
X9203736Y-17692242D02*
X9203736Y-17749385D01*
X9203736Y-17749385D02*
X9194212Y-17768433D01*
X9194212Y-17768433D02*
X9184688Y-17777957D01*
X9184688Y-17777957D02*
X9165641Y-17787481D01*
X9165641Y-17787481D02*
X9137069Y-17787481D01*
X9318022Y-17787481D02*
X9298974Y-17777957D01*
X9298974Y-17777957D02*
X9289450Y-17758909D01*
X9289450Y-17758909D02*
X9289450Y-17587481D01*
X9470403Y-17777957D02*
X9451355Y-17787481D01*
X9451355Y-17787481D02*
X9413260Y-17787481D01*
X9413260Y-17787481D02*
X9394212Y-17777957D01*
X9394212Y-17777957D02*
X9384688Y-17758909D01*
X9384688Y-17758909D02*
X9384688Y-17682719D01*
X9384688Y-17682719D02*
X9394212Y-17663671D01*
X9394212Y-17663671D02*
X9413260Y-17654147D01*
X9413260Y-17654147D02*
X9451355Y-17654147D01*
X9451355Y-17654147D02*
X9470403Y-17663671D01*
X9470403Y-17663671D02*
X9479926Y-17682719D01*
X9479926Y-17682719D02*
X9479926Y-17701766D01*
X9479926Y-17701766D02*
X9384688Y-17720814D01*
X9546593Y-17863671D02*
X9556117Y-17854147D01*
X9556117Y-17854147D02*
X9575164Y-17825576D01*
X9575164Y-17825576D02*
X9584688Y-17806528D01*
X9584688Y-17806528D02*
X9594212Y-17777957D01*
X9594212Y-17777957D02*
X9603736Y-17730338D01*
X9603736Y-17730338D02*
X9603736Y-17692242D01*
X9603736Y-17692242D02*
X9594212Y-17644623D01*
X9594212Y-17644623D02*
X9584688Y-17616052D01*
X9584688Y-17616052D02*
X9575164Y-17597004D01*
X9575164Y-17597004D02*
X9556117Y-17568433D01*
X9556117Y-17568433D02*
X9546593Y-17558909D01*
X9908498Y-17863671D02*
X9898974Y-17854147D01*
X9898974Y-17854147D02*
X9879926Y-17825576D01*
X9879926Y-17825576D02*
X9870403Y-17806528D01*
X9870403Y-17806528D02*
X9860879Y-17777957D01*
X9860879Y-17777957D02*
X9851355Y-17730338D01*
X9851355Y-17730338D02*
X9851355Y-17692242D01*
X9851355Y-17692242D02*
X9860879Y-17644623D01*
X9860879Y-17644623D02*
X9870403Y-17616052D01*
X9870403Y-17616052D02*
X9879926Y-17597004D01*
X9879926Y-17597004D02*
X9898974Y-17568433D01*
X9898974Y-17568433D02*
X9908498Y-17558909D01*
X9984688Y-17654147D02*
X9984688Y-17787481D01*
X9984688Y-17673195D02*
X9994212Y-17663671D01*
X9994212Y-17663671D02*
X10013260Y-17654147D01*
X10013260Y-17654147D02*
X10041831Y-17654147D01*
X10041831Y-17654147D02*
X10060879Y-17663671D01*
X10060879Y-17663671D02*
X10070403Y-17682719D01*
X10070403Y-17682719D02*
X10070403Y-17787481D01*
X10194212Y-17787481D02*
X10175164Y-17777957D01*
X10175164Y-17777957D02*
X10165641Y-17768433D01*
X10165641Y-17768433D02*
X10156117Y-17749385D01*
X10156117Y-17749385D02*
X10156117Y-17692242D01*
X10156117Y-17692242D02*
X10165641Y-17673195D01*
X10165641Y-17673195D02*
X10175164Y-17663671D01*
X10175164Y-17663671D02*
X10194212Y-17654147D01*
X10194212Y-17654147D02*
X10222784Y-17654147D01*
X10222784Y-17654147D02*
X10241831Y-17663671D01*
X10241831Y-17663671D02*
X10251355Y-17673195D01*
X10251355Y-17673195D02*
X10260879Y-17692242D01*
X10260879Y-17692242D02*
X10260879Y-17749385D01*
X10260879Y-17749385D02*
X10251355Y-17768433D01*
X10251355Y-17768433D02*
X10241831Y-17777957D01*
X10241831Y-17777957D02*
X10222784Y-17787481D01*
X10222784Y-17787481D02*
X10194212Y-17787481D01*
X10318022Y-17654147D02*
X10394212Y-17654147D01*
X10346593Y-17587481D02*
X10346593Y-17758909D01*
X10346593Y-17758909D02*
X10356117Y-17777957D01*
X10356117Y-17777957D02*
X10375164Y-17787481D01*
X10375164Y-17787481D02*
X10394212Y-17787481D01*
X10613260Y-17654147D02*
X10613260Y-17854147D01*
X10613260Y-17663671D02*
X10632307Y-17654147D01*
X10632307Y-17654147D02*
X10670403Y-17654147D01*
X10670403Y-17654147D02*
X10689450Y-17663671D01*
X10689450Y-17663671D02*
X10698974Y-17673195D01*
X10698974Y-17673195D02*
X10708498Y-17692242D01*
X10708498Y-17692242D02*
X10708498Y-17749385D01*
X10708498Y-17749385D02*
X10698974Y-17768433D01*
X10698974Y-17768433D02*
X10689450Y-17777957D01*
X10689450Y-17777957D02*
X10670403Y-17787481D01*
X10670403Y-17787481D02*
X10632307Y-17787481D01*
X10632307Y-17787481D02*
X10613260Y-17777957D01*
X10822784Y-17787481D02*
X10803736Y-17777957D01*
X10803736Y-17777957D02*
X10794212Y-17758909D01*
X10794212Y-17758909D02*
X10794212Y-17587481D01*
X10984688Y-17787481D02*
X10984688Y-17682719D01*
X10984688Y-17682719D02*
X10975165Y-17663671D01*
X10975165Y-17663671D02*
X10956117Y-17654147D01*
X10956117Y-17654147D02*
X10918022Y-17654147D01*
X10918022Y-17654147D02*
X10898974Y-17663671D01*
X10984688Y-17777957D02*
X10965641Y-17787481D01*
X10965641Y-17787481D02*
X10918022Y-17787481D01*
X10918022Y-17787481D02*
X10898974Y-17777957D01*
X10898974Y-17777957D02*
X10889450Y-17758909D01*
X10889450Y-17758909D02*
X10889450Y-17739861D01*
X10889450Y-17739861D02*
X10898974Y-17720814D01*
X10898974Y-17720814D02*
X10918022Y-17711290D01*
X10918022Y-17711290D02*
X10965641Y-17711290D01*
X10965641Y-17711290D02*
X10984688Y-17701766D01*
X11051355Y-17654147D02*
X11127545Y-17654147D01*
X11079926Y-17587481D02*
X11079926Y-17758909D01*
X11079926Y-17758909D02*
X11089450Y-17777957D01*
X11089450Y-17777957D02*
X11108498Y-17787481D01*
X11108498Y-17787481D02*
X11127545Y-17787481D01*
X11270403Y-17777957D02*
X11251355Y-17787481D01*
X11251355Y-17787481D02*
X11213260Y-17787481D01*
X11213260Y-17787481D02*
X11194212Y-17777957D01*
X11194212Y-17777957D02*
X11184688Y-17758909D01*
X11184688Y-17758909D02*
X11184688Y-17682719D01*
X11184688Y-17682719D02*
X11194212Y-17663671D01*
X11194212Y-17663671D02*
X11213260Y-17654147D01*
X11213260Y-17654147D02*
X11251355Y-17654147D01*
X11251355Y-17654147D02*
X11270403Y-17663671D01*
X11270403Y-17663671D02*
X11279926Y-17682719D01*
X11279926Y-17682719D02*
X11279926Y-17701766D01*
X11279926Y-17701766D02*
X11184688Y-17720814D01*
X11451355Y-17787481D02*
X11451355Y-17587481D01*
X11451355Y-17777957D02*
X11432307Y-17787481D01*
X11432307Y-17787481D02*
X11394212Y-17787481D01*
X11394212Y-17787481D02*
X11375164Y-17777957D01*
X11375164Y-17777957D02*
X11365641Y-17768433D01*
X11365641Y-17768433D02*
X11356117Y-17749385D01*
X11356117Y-17749385D02*
X11356117Y-17692242D01*
X11356117Y-17692242D02*
X11365641Y-17673195D01*
X11365641Y-17673195D02*
X11375164Y-17663671D01*
X11375164Y-17663671D02*
X11394212Y-17654147D01*
X11394212Y-17654147D02*
X11432307Y-17654147D01*
X11432307Y-17654147D02*
X11451355Y-17663671D01*
X11527545Y-17863671D02*
X11537069Y-17854147D01*
X11537069Y-17854147D02*
X11556117Y-17825576D01*
X11556117Y-17825576D02*
X11565641Y-17806528D01*
X11565641Y-17806528D02*
X11575164Y-17777957D01*
X11575164Y-17777957D02*
X11584688Y-17730338D01*
X11584688Y-17730338D02*
X11584688Y-17692242D01*
X11584688Y-17692242D02*
X11575164Y-17644623D01*
X11575164Y-17644623D02*
X11565641Y-17616052D01*
X11565641Y-17616052D02*
X11556117Y-17597004D01*
X11556117Y-17597004D02*
X11537069Y-17568433D01*
X11537069Y-17568433D02*
X11527545Y-17558909D01*
X4904146Y-18086708D02*
X4904146Y-17945285D01*
X4762723Y-17945285D01*
X4762723Y-18086708D01*
X4904146Y-18086708D01*
X5184688Y-17926528D02*
X5194212Y-17917004D01*
X5194212Y-17917004D02*
X5213259Y-17907481D01*
X5213259Y-17907481D02*
X5260878Y-17907481D01*
X5260878Y-17907481D02*
X5279926Y-17917004D01*
X5279926Y-17917004D02*
X5289450Y-17926528D01*
X5289450Y-17926528D02*
X5298974Y-17945576D01*
X5298974Y-17945576D02*
X5298974Y-17964623D01*
X5298974Y-17964623D02*
X5289450Y-17993195D01*
X5289450Y-17993195D02*
X5175164Y-18107481D01*
X5175164Y-18107481D02*
X5298974Y-18107481D01*
X5384688Y-18088433D02*
X5394212Y-18097957D01*
X5394212Y-18097957D02*
X5384688Y-18107481D01*
X5384688Y-18107481D02*
X5375164Y-18097957D01*
X5375164Y-18097957D02*
X5384688Y-18088433D01*
X5384688Y-18088433D02*
X5384688Y-18107481D01*
X5575164Y-17907481D02*
X5479926Y-17907481D01*
X5479926Y-17907481D02*
X5470402Y-18002719D01*
X5470402Y-18002719D02*
X5479926Y-17993195D01*
X5479926Y-17993195D02*
X5498974Y-17983671D01*
X5498974Y-17983671D02*
X5546593Y-17983671D01*
X5546593Y-17983671D02*
X5565640Y-17993195D01*
X5565640Y-17993195D02*
X5575164Y-18002719D01*
X5575164Y-18002719D02*
X5584688Y-18021766D01*
X5584688Y-18021766D02*
X5584688Y-18069385D01*
X5584688Y-18069385D02*
X5575164Y-18088433D01*
X5575164Y-18088433D02*
X5565640Y-18097957D01*
X5565640Y-18097957D02*
X5546593Y-18107481D01*
X5546593Y-18107481D02*
X5498974Y-18107481D01*
X5498974Y-18107481D02*
X5479926Y-18097957D01*
X5479926Y-18097957D02*
X5470402Y-18088433D01*
X5708497Y-17907481D02*
X5727545Y-17907481D01*
X5727545Y-17907481D02*
X5746593Y-17917004D01*
X5746593Y-17917004D02*
X5756116Y-17926528D01*
X5756116Y-17926528D02*
X5765640Y-17945576D01*
X5765640Y-17945576D02*
X5775164Y-17983671D01*
X5775164Y-17983671D02*
X5775164Y-18031290D01*
X5775164Y-18031290D02*
X5765640Y-18069385D01*
X5765640Y-18069385D02*
X5756116Y-18088433D01*
X5756116Y-18088433D02*
X5746593Y-18097957D01*
X5746593Y-18097957D02*
X5727545Y-18107481D01*
X5727545Y-18107481D02*
X5708497Y-18107481D01*
X5708497Y-18107481D02*
X5689450Y-18097957D01*
X5689450Y-18097957D02*
X5679926Y-18088433D01*
X5679926Y-18088433D02*
X5670402Y-18069385D01*
X5670402Y-18069385D02*
X5660878Y-18031290D01*
X5660878Y-18031290D02*
X5660878Y-17983671D01*
X5660878Y-17983671D02*
X5670402Y-17945576D01*
X5670402Y-17945576D02*
X5679926Y-17926528D01*
X5679926Y-17926528D02*
X5689450Y-17917004D01*
X5689450Y-17917004D02*
X5708497Y-17907481D01*
X5898973Y-17907481D02*
X5918021Y-17907481D01*
X5918021Y-17907481D02*
X5937069Y-17917004D01*
X5937069Y-17917004D02*
X5946593Y-17926528D01*
X5946593Y-17926528D02*
X5956116Y-17945576D01*
X5956116Y-17945576D02*
X5965640Y-17983671D01*
X5965640Y-17983671D02*
X5965640Y-18031290D01*
X5965640Y-18031290D02*
X5956116Y-18069385D01*
X5956116Y-18069385D02*
X5946593Y-18088433D01*
X5946593Y-18088433D02*
X5937069Y-18097957D01*
X5937069Y-18097957D02*
X5918021Y-18107481D01*
X5918021Y-18107481D02*
X5898973Y-18107481D01*
X5898973Y-18107481D02*
X5879926Y-18097957D01*
X5879926Y-18097957D02*
X5870402Y-18088433D01*
X5870402Y-18088433D02*
X5860878Y-18069385D01*
X5860878Y-18069385D02*
X5851354Y-18031290D01*
X5851354Y-18031290D02*
X5851354Y-17983671D01*
X5851354Y-17983671D02*
X5860878Y-17945576D01*
X5860878Y-17945576D02*
X5870402Y-17926528D01*
X5870402Y-17926528D02*
X5879926Y-17917004D01*
X5879926Y-17917004D02*
X5898973Y-17907481D01*
X6051354Y-18107481D02*
X6051354Y-17974147D01*
X6051354Y-17993195D02*
X6060878Y-17983671D01*
X6060878Y-17983671D02*
X6079926Y-17974147D01*
X6079926Y-17974147D02*
X6108497Y-17974147D01*
X6108497Y-17974147D02*
X6127545Y-17983671D01*
X6127545Y-17983671D02*
X6137069Y-18002719D01*
X6137069Y-18002719D02*
X6137069Y-18107481D01*
X6137069Y-18002719D02*
X6146593Y-17983671D01*
X6146593Y-17983671D02*
X6165640Y-17974147D01*
X6165640Y-17974147D02*
X6194212Y-17974147D01*
X6194212Y-17974147D02*
X6213259Y-17983671D01*
X6213259Y-17983671D02*
X6222783Y-18002719D01*
X6222783Y-18002719D02*
X6222783Y-18107481D01*
X6318021Y-18107481D02*
X6318021Y-17974147D01*
X6318021Y-17993195D02*
X6327545Y-17983671D01*
X6327545Y-17983671D02*
X6346593Y-17974147D01*
X6346593Y-17974147D02*
X6375164Y-17974147D01*
X6375164Y-17974147D02*
X6394212Y-17983671D01*
X6394212Y-17983671D02*
X6403735Y-18002719D01*
X6403735Y-18002719D02*
X6403735Y-18107481D01*
X6403735Y-18002719D02*
X6413259Y-17983671D01*
X6413259Y-17983671D02*
X6432307Y-17974147D01*
X6432307Y-17974147D02*
X6460878Y-17974147D01*
X6460878Y-17974147D02*
X6479926Y-17983671D01*
X6479926Y-17983671D02*
X6489450Y-18002719D01*
X6489450Y-18002719D02*
X6489450Y-18107481D01*
X6879926Y-17897957D02*
X6708497Y-18155100D01*
X7137069Y-17907481D02*
X7156117Y-17907481D01*
X7156117Y-17907481D02*
X7175164Y-17917004D01*
X7175164Y-17917004D02*
X7184688Y-17926528D01*
X7184688Y-17926528D02*
X7194212Y-17945576D01*
X7194212Y-17945576D02*
X7203736Y-17983671D01*
X7203736Y-17983671D02*
X7203736Y-18031290D01*
X7203736Y-18031290D02*
X7194212Y-18069385D01*
X7194212Y-18069385D02*
X7184688Y-18088433D01*
X7184688Y-18088433D02*
X7175164Y-18097957D01*
X7175164Y-18097957D02*
X7156117Y-18107481D01*
X7156117Y-18107481D02*
X7137069Y-18107481D01*
X7137069Y-18107481D02*
X7118021Y-18097957D01*
X7118021Y-18097957D02*
X7108497Y-18088433D01*
X7108497Y-18088433D02*
X7098974Y-18069385D01*
X7098974Y-18069385D02*
X7089450Y-18031290D01*
X7089450Y-18031290D02*
X7089450Y-17983671D01*
X7089450Y-17983671D02*
X7098974Y-17945576D01*
X7098974Y-17945576D02*
X7108497Y-17926528D01*
X7108497Y-17926528D02*
X7118021Y-17917004D01*
X7118021Y-17917004D02*
X7137069Y-17907481D01*
X7289450Y-18088433D02*
X7298974Y-18097957D01*
X7298974Y-18097957D02*
X7289450Y-18107481D01*
X7289450Y-18107481D02*
X7279926Y-18097957D01*
X7279926Y-18097957D02*
X7289450Y-18088433D01*
X7289450Y-18088433D02*
X7289450Y-18107481D01*
X7422783Y-17907481D02*
X7441831Y-17907481D01*
X7441831Y-17907481D02*
X7460878Y-17917004D01*
X7460878Y-17917004D02*
X7470402Y-17926528D01*
X7470402Y-17926528D02*
X7479926Y-17945576D01*
X7479926Y-17945576D02*
X7489450Y-17983671D01*
X7489450Y-17983671D02*
X7489450Y-18031290D01*
X7489450Y-18031290D02*
X7479926Y-18069385D01*
X7479926Y-18069385D02*
X7470402Y-18088433D01*
X7470402Y-18088433D02*
X7460878Y-18097957D01*
X7460878Y-18097957D02*
X7441831Y-18107481D01*
X7441831Y-18107481D02*
X7422783Y-18107481D01*
X7422783Y-18107481D02*
X7403736Y-18097957D01*
X7403736Y-18097957D02*
X7394212Y-18088433D01*
X7394212Y-18088433D02*
X7384688Y-18069385D01*
X7384688Y-18069385D02*
X7375164Y-18031290D01*
X7375164Y-18031290D02*
X7375164Y-17983671D01*
X7375164Y-17983671D02*
X7384688Y-17945576D01*
X7384688Y-17945576D02*
X7394212Y-17926528D01*
X7394212Y-17926528D02*
X7403736Y-17917004D01*
X7403736Y-17917004D02*
X7422783Y-17907481D01*
X7584688Y-18107481D02*
X7622783Y-18107481D01*
X7622783Y-18107481D02*
X7641831Y-18097957D01*
X7641831Y-18097957D02*
X7651355Y-18088433D01*
X7651355Y-18088433D02*
X7670402Y-18059861D01*
X7670402Y-18059861D02*
X7679926Y-18021766D01*
X7679926Y-18021766D02*
X7679926Y-17945576D01*
X7679926Y-17945576D02*
X7670402Y-17926528D01*
X7670402Y-17926528D02*
X7660878Y-17917004D01*
X7660878Y-17917004D02*
X7641831Y-17907481D01*
X7641831Y-17907481D02*
X7603736Y-17907481D01*
X7603736Y-17907481D02*
X7584688Y-17917004D01*
X7584688Y-17917004D02*
X7575164Y-17926528D01*
X7575164Y-17926528D02*
X7565640Y-17945576D01*
X7565640Y-17945576D02*
X7565640Y-17993195D01*
X7565640Y-17993195D02*
X7575164Y-18012242D01*
X7575164Y-18012242D02*
X7584688Y-18021766D01*
X7584688Y-18021766D02*
X7603736Y-18031290D01*
X7603736Y-18031290D02*
X7641831Y-18031290D01*
X7641831Y-18031290D02*
X7660878Y-18021766D01*
X7660878Y-18021766D02*
X7670402Y-18012242D01*
X7670402Y-18012242D02*
X7679926Y-17993195D01*
X7794212Y-17993195D02*
X7775164Y-17983671D01*
X7775164Y-17983671D02*
X7765640Y-17974147D01*
X7765640Y-17974147D02*
X7756117Y-17955100D01*
X7756117Y-17955100D02*
X7756117Y-17945576D01*
X7756117Y-17945576D02*
X7765640Y-17926528D01*
X7765640Y-17926528D02*
X7775164Y-17917004D01*
X7775164Y-17917004D02*
X7794212Y-17907481D01*
X7794212Y-17907481D02*
X7832307Y-17907481D01*
X7832307Y-17907481D02*
X7851355Y-17917004D01*
X7851355Y-17917004D02*
X7860878Y-17926528D01*
X7860878Y-17926528D02*
X7870402Y-17945576D01*
X7870402Y-17945576D02*
X7870402Y-17955100D01*
X7870402Y-17955100D02*
X7860878Y-17974147D01*
X7860878Y-17974147D02*
X7851355Y-17983671D01*
X7851355Y-17983671D02*
X7832307Y-17993195D01*
X7832307Y-17993195D02*
X7794212Y-17993195D01*
X7794212Y-17993195D02*
X7775164Y-18002719D01*
X7775164Y-18002719D02*
X7765640Y-18012242D01*
X7765640Y-18012242D02*
X7756117Y-18031290D01*
X7756117Y-18031290D02*
X7756117Y-18069385D01*
X7756117Y-18069385D02*
X7765640Y-18088433D01*
X7765640Y-18088433D02*
X7775164Y-18097957D01*
X7775164Y-18097957D02*
X7794212Y-18107481D01*
X7794212Y-18107481D02*
X7832307Y-18107481D01*
X7832307Y-18107481D02*
X7851355Y-18097957D01*
X7851355Y-18097957D02*
X7860878Y-18088433D01*
X7860878Y-18088433D02*
X7870402Y-18069385D01*
X7870402Y-18069385D02*
X7870402Y-18031290D01*
X7870402Y-18031290D02*
X7860878Y-18012242D01*
X7860878Y-18012242D02*
X7851355Y-18002719D01*
X7851355Y-18002719D02*
X7832307Y-17993195D01*
X8041831Y-17974147D02*
X8041831Y-18107481D01*
X7994212Y-17897957D02*
X7946593Y-18040814D01*
X7946593Y-18040814D02*
X8070402Y-18040814D01*
X8137069Y-17907481D02*
X8137069Y-17945576D01*
X8213259Y-17907481D02*
X8213259Y-17945576D01*
X8508498Y-18183671D02*
X8498974Y-18174147D01*
X8498974Y-18174147D02*
X8479926Y-18145576D01*
X8479926Y-18145576D02*
X8470402Y-18126528D01*
X8470402Y-18126528D02*
X8460879Y-18097957D01*
X8460879Y-18097957D02*
X8451355Y-18050338D01*
X8451355Y-18050338D02*
X8451355Y-18012242D01*
X8451355Y-18012242D02*
X8460879Y-17964623D01*
X8460879Y-17964623D02*
X8470402Y-17936052D01*
X8470402Y-17936052D02*
X8479926Y-17917004D01*
X8479926Y-17917004D02*
X8498974Y-17888433D01*
X8498974Y-17888433D02*
X8508498Y-17878909D01*
X8575164Y-17926528D02*
X8584688Y-17917004D01*
X8584688Y-17917004D02*
X8603736Y-17907481D01*
X8603736Y-17907481D02*
X8651355Y-17907481D01*
X8651355Y-17907481D02*
X8670402Y-17917004D01*
X8670402Y-17917004D02*
X8679926Y-17926528D01*
X8679926Y-17926528D02*
X8689450Y-17945576D01*
X8689450Y-17945576D02*
X8689450Y-17964623D01*
X8689450Y-17964623D02*
X8679926Y-17993195D01*
X8679926Y-17993195D02*
X8565641Y-18107481D01*
X8565641Y-18107481D02*
X8689450Y-18107481D01*
X8927545Y-18107481D02*
X8927545Y-17907481D01*
X9013260Y-18107481D02*
X9013260Y-18002719D01*
X9013260Y-18002719D02*
X9003736Y-17983671D01*
X9003736Y-17983671D02*
X8984688Y-17974147D01*
X8984688Y-17974147D02*
X8956117Y-17974147D01*
X8956117Y-17974147D02*
X8937069Y-17983671D01*
X8937069Y-17983671D02*
X8927545Y-17993195D01*
X9137069Y-18107481D02*
X9118022Y-18097957D01*
X9118022Y-18097957D02*
X9108498Y-18088433D01*
X9108498Y-18088433D02*
X9098974Y-18069385D01*
X9098974Y-18069385D02*
X9098974Y-18012242D01*
X9098974Y-18012242D02*
X9108498Y-17993195D01*
X9108498Y-17993195D02*
X9118022Y-17983671D01*
X9118022Y-17983671D02*
X9137069Y-17974147D01*
X9137069Y-17974147D02*
X9165641Y-17974147D01*
X9165641Y-17974147D02*
X9184688Y-17983671D01*
X9184688Y-17983671D02*
X9194212Y-17993195D01*
X9194212Y-17993195D02*
X9203736Y-18012242D01*
X9203736Y-18012242D02*
X9203736Y-18069385D01*
X9203736Y-18069385D02*
X9194212Y-18088433D01*
X9194212Y-18088433D02*
X9184688Y-18097957D01*
X9184688Y-18097957D02*
X9165641Y-18107481D01*
X9165641Y-18107481D02*
X9137069Y-18107481D01*
X9318022Y-18107481D02*
X9298974Y-18097957D01*
X9298974Y-18097957D02*
X9289450Y-18078909D01*
X9289450Y-18078909D02*
X9289450Y-17907481D01*
X9470403Y-18097957D02*
X9451355Y-18107481D01*
X9451355Y-18107481D02*
X9413260Y-18107481D01*
X9413260Y-18107481D02*
X9394212Y-18097957D01*
X9394212Y-18097957D02*
X9384688Y-18078909D01*
X9384688Y-18078909D02*
X9384688Y-18002719D01*
X9384688Y-18002719D02*
X9394212Y-17983671D01*
X9394212Y-17983671D02*
X9413260Y-17974147D01*
X9413260Y-17974147D02*
X9451355Y-17974147D01*
X9451355Y-17974147D02*
X9470403Y-17983671D01*
X9470403Y-17983671D02*
X9479926Y-18002719D01*
X9479926Y-18002719D02*
X9479926Y-18021766D01*
X9479926Y-18021766D02*
X9384688Y-18040814D01*
X9556117Y-18097957D02*
X9575164Y-18107481D01*
X9575164Y-18107481D02*
X9613260Y-18107481D01*
X9613260Y-18107481D02*
X9632307Y-18097957D01*
X9632307Y-18097957D02*
X9641831Y-18078909D01*
X9641831Y-18078909D02*
X9641831Y-18069385D01*
X9641831Y-18069385D02*
X9632307Y-18050338D01*
X9632307Y-18050338D02*
X9613260Y-18040814D01*
X9613260Y-18040814D02*
X9584688Y-18040814D01*
X9584688Y-18040814D02*
X9565641Y-18031290D01*
X9565641Y-18031290D02*
X9556117Y-18012242D01*
X9556117Y-18012242D02*
X9556117Y-18002719D01*
X9556117Y-18002719D02*
X9565641Y-17983671D01*
X9565641Y-17983671D02*
X9584688Y-17974147D01*
X9584688Y-17974147D02*
X9613260Y-17974147D01*
X9613260Y-17974147D02*
X9632307Y-17983671D01*
X9708498Y-18183671D02*
X9718022Y-18174147D01*
X9718022Y-18174147D02*
X9737069Y-18145576D01*
X9737069Y-18145576D02*
X9746593Y-18126528D01*
X9746593Y-18126528D02*
X9756117Y-18097957D01*
X9756117Y-18097957D02*
X9765641Y-18050338D01*
X9765641Y-18050338D02*
X9765641Y-18012242D01*
X9765641Y-18012242D02*
X9756117Y-17964623D01*
X9756117Y-17964623D02*
X9746593Y-17936052D01*
X9746593Y-17936052D02*
X9737069Y-17917004D01*
X9737069Y-17917004D02*
X9718022Y-17888433D01*
X9718022Y-17888433D02*
X9708498Y-17878909D01*
X10070403Y-18183671D02*
X10060879Y-18174147D01*
X10060879Y-18174147D02*
X10041831Y-18145576D01*
X10041831Y-18145576D02*
X10032307Y-18126528D01*
X10032307Y-18126528D02*
X10022784Y-18097957D01*
X10022784Y-18097957D02*
X10013260Y-18050338D01*
X10013260Y-18050338D02*
X10013260Y-18012242D01*
X10013260Y-18012242D02*
X10022784Y-17964623D01*
X10022784Y-17964623D02*
X10032307Y-17936052D01*
X10032307Y-17936052D02*
X10041831Y-17917004D01*
X10041831Y-17917004D02*
X10060879Y-17888433D01*
X10060879Y-17888433D02*
X10070403Y-17878909D01*
X10146593Y-17974147D02*
X10146593Y-18107481D01*
X10146593Y-17993195D02*
X10156117Y-17983671D01*
X10156117Y-17983671D02*
X10175164Y-17974147D01*
X10175164Y-17974147D02*
X10203736Y-17974147D01*
X10203736Y-17974147D02*
X10222784Y-17983671D01*
X10222784Y-17983671D02*
X10232307Y-18002719D01*
X10232307Y-18002719D02*
X10232307Y-18107481D01*
X10356117Y-18107481D02*
X10337069Y-18097957D01*
X10337069Y-18097957D02*
X10327545Y-18088433D01*
X10327545Y-18088433D02*
X10318022Y-18069385D01*
X10318022Y-18069385D02*
X10318022Y-18012242D01*
X10318022Y-18012242D02*
X10327545Y-17993195D01*
X10327545Y-17993195D02*
X10337069Y-17983671D01*
X10337069Y-17983671D02*
X10356117Y-17974147D01*
X10356117Y-17974147D02*
X10384688Y-17974147D01*
X10384688Y-17974147D02*
X10403736Y-17983671D01*
X10403736Y-17983671D02*
X10413260Y-17993195D01*
X10413260Y-17993195D02*
X10422784Y-18012242D01*
X10422784Y-18012242D02*
X10422784Y-18069385D01*
X10422784Y-18069385D02*
X10413260Y-18088433D01*
X10413260Y-18088433D02*
X10403736Y-18097957D01*
X10403736Y-18097957D02*
X10384688Y-18107481D01*
X10384688Y-18107481D02*
X10356117Y-18107481D01*
X10479926Y-17974147D02*
X10556117Y-17974147D01*
X10508498Y-17907481D02*
X10508498Y-18078909D01*
X10508498Y-18078909D02*
X10518022Y-18097957D01*
X10518022Y-18097957D02*
X10537069Y-18107481D01*
X10537069Y-18107481D02*
X10556117Y-18107481D01*
X10775165Y-17974147D02*
X10775165Y-18174147D01*
X10775165Y-17983671D02*
X10794212Y-17974147D01*
X10794212Y-17974147D02*
X10832307Y-17974147D01*
X10832307Y-17974147D02*
X10851355Y-17983671D01*
X10851355Y-17983671D02*
X10860879Y-17993195D01*
X10860879Y-17993195D02*
X10870403Y-18012242D01*
X10870403Y-18012242D02*
X10870403Y-18069385D01*
X10870403Y-18069385D02*
X10860879Y-18088433D01*
X10860879Y-18088433D02*
X10851355Y-18097957D01*
X10851355Y-18097957D02*
X10832307Y-18107481D01*
X10832307Y-18107481D02*
X10794212Y-18107481D01*
X10794212Y-18107481D02*
X10775165Y-18097957D01*
X10984688Y-18107481D02*
X10965641Y-18097957D01*
X10965641Y-18097957D02*
X10956117Y-18078909D01*
X10956117Y-18078909D02*
X10956117Y-17907481D01*
X11146593Y-18107481D02*
X11146593Y-18002719D01*
X11146593Y-18002719D02*
X11137069Y-17983671D01*
X11137069Y-17983671D02*
X11118022Y-17974147D01*
X11118022Y-17974147D02*
X11079926Y-17974147D01*
X11079926Y-17974147D02*
X11060879Y-17983671D01*
X11146593Y-18097957D02*
X11127546Y-18107481D01*
X11127546Y-18107481D02*
X11079926Y-18107481D01*
X11079926Y-18107481D02*
X11060879Y-18097957D01*
X11060879Y-18097957D02*
X11051355Y-18078909D01*
X11051355Y-18078909D02*
X11051355Y-18059861D01*
X11051355Y-18059861D02*
X11060879Y-18040814D01*
X11060879Y-18040814D02*
X11079926Y-18031290D01*
X11079926Y-18031290D02*
X11127546Y-18031290D01*
X11127546Y-18031290D02*
X11146593Y-18021766D01*
X11213260Y-17974147D02*
X11289450Y-17974147D01*
X11241831Y-17907481D02*
X11241831Y-18078909D01*
X11241831Y-18078909D02*
X11251355Y-18097957D01*
X11251355Y-18097957D02*
X11270403Y-18107481D01*
X11270403Y-18107481D02*
X11289450Y-18107481D01*
X11432307Y-18097957D02*
X11413260Y-18107481D01*
X11413260Y-18107481D02*
X11375164Y-18107481D01*
X11375164Y-18107481D02*
X11356117Y-18097957D01*
X11356117Y-18097957D02*
X11346593Y-18078909D01*
X11346593Y-18078909D02*
X11346593Y-18002719D01*
X11346593Y-18002719D02*
X11356117Y-17983671D01*
X11356117Y-17983671D02*
X11375164Y-17974147D01*
X11375164Y-17974147D02*
X11413260Y-17974147D01*
X11413260Y-17974147D02*
X11432307Y-17983671D01*
X11432307Y-17983671D02*
X11441831Y-18002719D01*
X11441831Y-18002719D02*
X11441831Y-18021766D01*
X11441831Y-18021766D02*
X11346593Y-18040814D01*
X11613260Y-18107481D02*
X11613260Y-17907481D01*
X11613260Y-18097957D02*
X11594212Y-18107481D01*
X11594212Y-18107481D02*
X11556117Y-18107481D01*
X11556117Y-18107481D02*
X11537069Y-18097957D01*
X11537069Y-18097957D02*
X11527545Y-18088433D01*
X11527545Y-18088433D02*
X11518022Y-18069385D01*
X11518022Y-18069385D02*
X11518022Y-18012242D01*
X11518022Y-18012242D02*
X11527545Y-17993195D01*
X11527545Y-17993195D02*
X11537069Y-17983671D01*
X11537069Y-17983671D02*
X11556117Y-17974147D01*
X11556117Y-17974147D02*
X11594212Y-17974147D01*
X11594212Y-17974147D02*
X11613260Y-17983671D01*
X11689450Y-18183671D02*
X11698974Y-18174147D01*
X11698974Y-18174147D02*
X11718022Y-18145576D01*
X11718022Y-18145576D02*
X11727545Y-18126528D01*
X11727545Y-18126528D02*
X11737069Y-18097957D01*
X11737069Y-18097957D02*
X11746593Y-18050338D01*
X11746593Y-18050338D02*
X11746593Y-18012242D01*
X11746593Y-18012242D02*
X11737069Y-17964623D01*
X11737069Y-17964623D02*
X11727545Y-17936052D01*
X11727545Y-17936052D02*
X11718022Y-17917004D01*
X11718022Y-17917004D02*
X11698974Y-17888433D01*
X11698974Y-17888433D02*
X11689450Y-17878909D01*
M02*
