%TF.GenerationSoftware,KiCad,Pcbnew,8.0.0*%
%TF.CreationDate,2024-03-17T01:00:07+02:00*%
%TF.ProjectId,FollowTheLine,466f6c6c-6f77-4546-9865-4c696e652e6b,rev?*%
%TF.SameCoordinates,Original*%
%TF.FileFunction,Soldermask,Bot*%
%TF.FilePolarity,Negative*%
%FSLAX46Y46*%
G04 Gerber Fmt 4.6, Leading zero omitted, Abs format (unit mm)*
G04 Created by KiCad (PCBNEW 8.0.0) date 2024-03-17 01:00:07*
%MOMM*%
%LPD*%
G01*
G04 APERTURE LIST*
%ADD10C,3.000000*%
%ADD11C,2.500000*%
%ADD12C,2.304000*%
%ADD13C,2.388400*%
%ADD14C,1.100000*%
%ADD15R,2.200000X2.200000*%
%ADD16C,2.200000*%
%ADD17R,1.700000X1.700000*%
%ADD18O,1.700000X1.700000*%
%ADD19C,2.000000*%
%ADD20C,2.083600*%
%ADD21C,1.400000*%
%ADD22O,1.400000X1.400000*%
%ADD23R,1.600000X1.600000*%
%ADD24O,1.600000X1.600000*%
%ADD25O,8.604000X4.404000*%
G04 APERTURE END LIST*
D10*
%TO.C,U2*%
X69635000Y-137050000D03*
D11*
X69635000Y-41250000D03*
D12*
X68285000Y-81555000D03*
X70910000Y-101880000D03*
X68285000Y-101875000D03*
X70910000Y-76480000D03*
D13*
X68285000Y-76475000D03*
D12*
X70910000Y-84100000D03*
X68285000Y-84095000D03*
X70910000Y-86640000D03*
X68285000Y-86635000D03*
X70910000Y-89180000D03*
X68285000Y-89175000D03*
X70910000Y-91720000D03*
X68285000Y-91715000D03*
X70910000Y-94260000D03*
X68285000Y-94255000D03*
X70910000Y-96800000D03*
X68285000Y-96795000D03*
X70910000Y-99340000D03*
X70910000Y-81560000D03*
X68285000Y-99335000D03*
X70910000Y-79020000D03*
X68285000Y-79015000D03*
%TD*%
D14*
%TO.C,J4*%
X205735000Y-48010000D03*
X205735000Y-50550000D03*
D15*
X208275000Y-48010000D03*
D16*
X208275000Y-50550000D03*
%TD*%
D11*
%TO.C,*%
X232360000Y-157700000D03*
%TD*%
%TO.C,*%
X232360000Y-20700000D03*
%TD*%
D17*
%TO.C,J1*%
X236150000Y-35250000D03*
D18*
X236150000Y-37790000D03*
%TD*%
D19*
%TO.C,A7*%
X228775000Y-98750000D03*
X235275000Y-98750000D03*
X228775000Y-103250000D03*
X235275000Y-103250000D03*
%TD*%
D17*
%TO.C,J18*%
X204725000Y-135725000D03*
D18*
X202185000Y-135725000D03*
%TD*%
D17*
%TO.C,U3*%
X216900000Y-71300000D03*
D18*
X214360000Y-71300000D03*
X211820000Y-71300000D03*
%TD*%
D20*
%TO.C,MotorDriver1*%
X216730000Y-64410000D03*
X219230000Y-64410000D03*
X219230000Y-56910000D03*
X216730000Y-56910000D03*
X211730000Y-64410000D03*
X214230000Y-64410000D03*
X214230000Y-56910000D03*
X211730000Y-56910000D03*
X206730000Y-64410000D03*
X206730000Y-56910000D03*
X221730000Y-64410000D03*
X209230000Y-64410000D03*
X209230000Y-56910000D03*
X221730000Y-56910000D03*
%TD*%
D17*
%TO.C,J3*%
X230585000Y-54725000D03*
D18*
X233125000Y-54725000D03*
%TD*%
D21*
%TO.C,R1*%
X234225000Y-95615000D03*
D22*
X234225000Y-90535000D03*
%TD*%
D17*
%TO.C,J5*%
X204690000Y-130500000D03*
D18*
X202150000Y-130500000D03*
%TD*%
D10*
%TO.C,*%
X83960000Y-96575000D03*
%TD*%
D11*
%TO.C,*%
X214360000Y-157700000D03*
%TD*%
D23*
%TO.C,A1*%
X206385000Y-81075000D03*
D24*
X206385000Y-83615000D03*
X206385000Y-86155000D03*
X206385000Y-88695000D03*
X206385000Y-91235000D03*
X206385000Y-93775000D03*
X206385000Y-96315000D03*
X206385000Y-98855000D03*
X206385000Y-101395000D03*
X206385000Y-103935000D03*
X206385000Y-106475000D03*
X206385000Y-109015000D03*
X206385000Y-111555000D03*
X206385000Y-114095000D03*
X206385000Y-116635000D03*
X221625000Y-116635000D03*
X221625000Y-114095000D03*
X221625000Y-111555000D03*
X221625000Y-109015000D03*
X221625000Y-106475000D03*
X221625000Y-103935000D03*
X221625000Y-101395000D03*
X221625000Y-98855000D03*
X221625000Y-96315000D03*
X221625000Y-93775000D03*
X221625000Y-91235000D03*
X221625000Y-88695000D03*
X221625000Y-86155000D03*
X221625000Y-83615000D03*
X221625000Y-81075000D03*
%TD*%
D17*
%TO.C,J6*%
X228250000Y-116415000D03*
D18*
X228250000Y-113875000D03*
%TD*%
D19*
%TO.C,A6*%
X229050000Y-83225000D03*
X235550000Y-83225000D03*
X229050000Y-87725000D03*
X235550000Y-87725000D03*
%TD*%
D17*
%TO.C,J9*%
X228210000Y-109450000D03*
D18*
X230750000Y-109450000D03*
X233290000Y-109450000D03*
X235830000Y-109450000D03*
%TD*%
D17*
%TO.C,J2*%
X236000000Y-141475000D03*
D18*
X236000000Y-138935000D03*
%TD*%
D21*
%TO.C,R2*%
X230325000Y-95515000D03*
D22*
X230325000Y-90435000D03*
%TD*%
D11*
%TO.C,*%
X214360000Y-20700000D03*
%TD*%
D10*
%TO.C,*%
X83960000Y-81875000D03*
%TD*%
D25*
%TO.C,S1*%
X231625000Y-61150000D03*
X231625000Y-68650000D03*
%TD*%
M02*
